# Blender v2.93.10 OBJ File: 'untitled.blend'
# www.blender.org
mtllib big screen.mtl
o televisionModern
v 0.069550 0.473600 0.008082
v -0.069550 0.473600 0.008082
v 0.684800 0.139100 -0.053500
v 0.684800 0.909500 -0.053500
v 0.684800 0.909500 0.008082
v 0.684800 0.139100 0.008082
v 0.668070 0.155830 -0.042800
v 0.668070 0.155830 -0.053500
v -0.668070 0.155830 -0.053500
v -0.668070 0.155830 -0.042800
v -0.684800 0.139100 -0.053500
v -0.684800 0.909500 -0.053500
v -0.668070 0.892770 -0.053500
v 0.668070 0.892770 -0.053500
v 0.069550 0.406600 0.008082
v -0.684800 0.139100 0.008082
v -0.069550 0.406600 0.008082
v -0.684800 0.909500 0.008082
v 0.668070 0.892770 -0.042800
v -0.668070 0.892770 -0.042800
vt -0.159091 17.903540
vt -0.159091 2.738189
vt 1.053150 2.738189
vt 13.150980 -1.053150
vt 13.150980 -0.842520
vt -13.150980 -0.842520
vt 13.480320 2.738189
vt 13.480320 17.903540
vt 13.150980 3.067521
vt 13.150980 17.574209
vt -13.150980 17.574209
vt -13.480320 2.738189
vt -13.150980 3.067521
vt -13.480320 17.903540
vt 1.369094 8.003937
vt -13.480320 2.738189
vt 13.480320 2.738189
vt 13.480320 17.903540
vt 1.369094 9.322835
vt -1.369094 8.003937
vt -13.480320 17.903540
vt -1.369094 9.322835
vt -1.053150 17.903540
vt -1.053150 2.738189
vt 0.159091 2.738189
vt 0.159091 17.903540
vt -1.369094 0.159091
vt -1.369094 0.159091
vt 0.159091 9.322835
vt 13.480320 -1.053150
vt 13.480320 0.159091
vt -13.480320 0.159091
vt 13.150980 -1.053150
vt 13.150980 -0.842520
vt -13.150980 -0.842520
vt -13.150980 -1.053150
vt 1.053150 3.067521
vt 1.053150 17.574209
vt 0.842520 17.574209
vt 0.842520 3.067521
vt 1.053150 17.903540
vt -13.150980 -1.053150
vt -1.053150 17.574209
vt -1.053150 3.067521
vt -0.842520 3.067521
vt -0.842520 17.574209
vt -13.480320 -1.053150
vt -13.480320 0.159091
vt -13.480320 -1.053150
vt 13.480320 -1.053150
vt 13.480320 0.159091
vt -0.159091 8.003937
vt -13.150980 3.067521
vt 13.150980 3.067521
vt 13.150980 17.574209
vt -13.150980 17.574209
vn 1.0000 0.0000 0.0000
vn 0.0000 1.0000 0.0000
vn -0.0000 0.0000 -1.0000
vn 0.0000 -0.0000 1.0000
vn -1.0000 0.0000 0.0000
vn 0.0000 -1.0000 -0.0000
g televisionModern_televisionModern_metalDark.024
usemtl metalDark.024
s 1
f 5/1/1 6/2/1 3/3/1
f 9/4/2 10/5/2 7/6/2
f 11/7/3 12/8/3 9/9/3
f 12/8/3 13/10/3 9/9/3
f 12/8/3 14/11/3 13/10/3
f 3/12/3 9/9/3 8/13/3
f 8/13/3 14/11/3 4/14/3
f 15/15/4 16/16/4 6/17/4
f 5/18/4 1/19/4 15/15/4
f 17/20/4 18/21/4 16/16/4
f 17/20/4 2/22/4 18/21/4
f 2/22/4 5/18/4 18/21/4
f 12/23/5 11/24/5 16/25/5
f 16/25/5 18/26/5 12/23/5
f 17/27/6 1/28/2 2/29/5
f 3/30/6 6/31/6 16/32/6
f 14/33/6 19/34/6 20/35/6
f 20/35/6 13/36/6 14/33/6
f 9/37/1 13/38/1 20/39/1
f 20/39/1 10/40/1 9/37/1
f 3/3/1 4/41/1 5/1/1
f 7/6/2 8/42/2 9/4/2
f 9/9/3 3/12/3 11/7/3
f 8/13/3 4/14/3 3/12/3
f 14/11/3 12/8/3 4/14/3
f 6/17/4 5/18/4 15/15/4
f 5/18/4 2/22/4 1/19/4
f 16/16/4 15/15/4 17/20/4
f 14/43/5 8/44/5 7/45/5
f 7/45/5 19/46/5 14/43/5
f 16/32/6 11/47/6 3/30/6
f 5/48/2 4/49/2 12/50/2
f 12/50/2 18/51/2 5/48/2
f 17/27/6 15/52/1 1/28/2
g televisionModern_televisionModern_metal.046
usemtl metal.046
f 7/53/3 10/54/3 20/55/3
f 20/55/3 19/56/3 7/53/3
