# Blender v2.93.10 OBJ File: 'untitled.blend'
# www.blender.org
mtllib blue chair.mtl
o chairModernCushion
v -0.100001 0.000000 -0.069998
v -0.070001 0.000000 -0.069998
v -0.070001 0.190000 -0.069998
v -0.100001 0.190000 -0.069998
v 0.099999 -0.000000 0.070002
v 0.069999 -0.000000 0.070002
v 0.069999 0.190000 0.070002
v 0.099999 0.190000 0.070002
v -0.070001 0.000000 -0.099998
v -0.100001 0.000000 -0.099998
v 0.069999 0.000000 -0.069998
v 0.099999 0.000000 -0.069998
v 0.099999 0.190000 -0.069998
v 0.069999 0.190000 -0.069998
v -0.070001 0.190000 -0.099998
v 0.099999 0.240000 0.070002
v 0.099999 0.460000 0.070002
v 0.099999 0.460000 0.100002
v 0.099999 0.220000 0.070002
v 0.099999 -0.000000 0.100002
v 0.099999 0.220000 -0.099998
v 0.099999 0.000000 -0.099998
v -0.070001 0.190000 0.070002
v -0.100001 0.190000 0.070002
v -0.070001 0.190000 0.100002
v 0.069999 0.190000 -0.099998
v 0.069999 0.190000 0.100002
v 0.069999 -0.000000 0.100002
v -0.100001 0.460000 0.100002
v -0.100001 -0.000000 0.100002
v -0.070001 -0.000000 0.100002
v -0.100001 0.220000 -0.099998
v 0.069999 0.000000 -0.099998
v -0.070001 -0.000000 0.070002
v -0.100001 -0.000000 0.070002
v -0.100001 0.460000 0.070002
v -0.070001 0.240000 0.070002
v -0.070001 0.430000 0.070002
v -0.070001 0.430000 0.080002
v -0.070001 0.240000 0.080002
v 0.069999 0.430000 0.070002
v 0.069999 0.240000 0.070002
v 0.069999 0.240000 0.080002
v 0.069999 0.430000 0.080002
v -0.100001 0.220000 0.070002
v -0.100001 0.240000 0.070002
v -0.100001 0.240000 -0.099998
v 0.099999 0.240000 -0.099998
vt -7.874016 -0.000000
vt -6.692914 -0.000000
vt -6.692914 7.480315
vt -7.874016 7.480315
vt 1.181102 7.480315
vt 0.000000 7.480315
vt 0.000000 0.000000
vt -6.692914 0.000000
vt -6.692914 1.181102
vt -7.874016 1.181102
vt -7.874016 0.000000
vt -0.000000 7.480315
vt -1.181102 7.480315
vt -1.181102 -0.000000
vt 0.000000 0.000000
vt 0.000000 7.480315
vt -1.181102 7.480315
vt -7.874016 18.110241
vt -6.692914 0.000000
vt -6.692914 7.480315
vt 0.000000 8.661417
vt -6.692914 8.661417
vt -1.181102 7.480315
vt 0.000000 0.000000
vt -6.692914 6.692914
vt -6.692914 1.181102
vt -6.692914 0.000000
vt -6.692914 7.874016
vt -1.181102 0.000000
vt 0.000000 1.181102
vt 0.000000 6.692914
vt -1.181102 6.692914
vt -1.181102 0.000000
vt 0.000000 0.000000
vt 0.000000 18.110241
vt -6.692914 7.480315
vt -1.181102 7.480315
vt -7.874016 18.110241
vt -7.874016 0.000000
vt 6.692914 0.000000
vt 7.874016 0.000000
vt 7.874016 8.661417
vt 6.692914 7.480315
vt 1.181102 7.480315
vt 1.181102 0.000000
vt -1.181102 7.874016
vt -1.181102 6.692914
vt 0.000000 6.692914
vt 0.000000 1.181102
vt -1.181102 1.181102
vt -1.181102 0.000000
vt 0.000000 7.480315
vt 0.000000 0.000000
vt 1.181102 -0.000000
vt 1.181102 7.480315
vt 6.692914 7.480315
vt 6.692914 0.000000
vt 7.874016 0.000000
vt 7.874016 7.480315
vt -6.692914 0.000000
vt -6.692914 7.480315
vt -7.874016 7.480315
vt -7.874016 0.000000
vt -7.874016 7.874016
vt -7.874016 6.692914
vt -6.692914 6.692914
vt -7.086614 16.929131
vt -7.086614 9.448819
vt -6.692914 9.448819
vt 7.086614 9.448819
vt 7.086614 16.929131
vt 6.692914 16.929131
vt -1.181102 6.692914
vt -1.181102 7.086614
vt -6.692914 7.086614
vt 6.692914 7.480315
vt 6.692914 -0.000000
vt 7.874016 -0.000000
vt 6.692914 8.661417
vt 6.692914 18.110241
vt 6.692914 9.448819
vt 1.181102 -0.000000
vt 1.181102 7.480315
vt 0.000000 8.661417
vt -0.000000 -0.000000
vt 6.692914 9.448819
vt 7.874016 9.448819
vt 7.874016 18.110241
vt 6.692914 16.929131
vt 1.181102 16.929131
vt 0.000000 18.110241
vt 0.000000 9.448819
vt 1.181102 9.448819
vt 1.181102 0.000000
vt -0.000000 -0.000000
vt -1.181102 -0.000000
vt -6.692914 9.448819
vt -6.692914 18.110241
vt -7.874016 0.000000
vt -1.181102 -0.000000
vt -7.874016 6.692914
vt -7.874016 1.181102
vt -1.181102 1.181102
vt -1.181102 7.874016
vt -6.692914 0.000000
vt 0.000000 7.874016
vt 6.692914 -0.000000
vt 7.874016 -0.000000
vt 7.874016 7.480315
vt 6.692914 7.480315
vt -6.692914 7.874016
vt 0.000000 7.874016
vt 0.000000 6.692914
vt 7.874016 6.692914
vt 7.874016 7.874016
vt -6.692914 16.929131
vt 6.692914 9.448819
vt -6.692914 6.692914
vt 7.874016 18.110241
vt 0.000000 6.692914
vt 0.000000 0.000000
vt 7.874016 0.000000
vt 7.874016 6.692914
vt 6.692914 6.692914
vt 7.874016 9.448819
vt 0.000000 9.448819
vt 0.000000 9.448819
vt 1.181102 16.929131
vt 1.181102 9.448819
vt 6.692914 9.448819
vt 6.692914 16.929131
vt 1.181102 7.086614
vt 6.692914 7.086614
vt 1.181102 6.692914
vn 0.0000 -0.0000 1.0000
vn 0.0000 0.0000 -1.0000
vn 0.0000 -1.0000 -0.0000
vn 1.0000 0.0000 0.0000
vn 0.1628 -0.5274 -0.8339
vn 0.8509 -0.5254 0.0000
vn -1.0000 0.0000 0.0000
vn 0.0000 1.0000 0.0000
g chairModernCushion_chairModernCushion_metal.043
usemtl metal.043
s 1
f 1/1/1 2/2/1 3/3/1
f 3/3/1 4/4/1 1/1/1
f 7/5/2 8/6/2 5/7/2
f 9/8/3 2/9/3 1/10/3
f 1/10/3 10/11/3 9/8/3
f 13/12/1 14/13/1 11/14/1
f 9/15/4 15/16/4 3/17/4
f 18/18/4 5/19/4 8/20/4
f 21/21/4 19/22/4 13/23/4
f 13/23/4 22/24/4 21/21/4
f 23/25/5 3/26/6 15/27/3
f 25/28/3 15/27/3 26/29/3
f 13/30/3 8/31/3 7/32/3
f 28/33/1 20/34/1 18/35/1
f 18/35/1 25/36/1 27/37/1
f 25/36/1 18/35/1 29/38/1
f 25/36/1 29/38/1 30/39/1
f 9/40/2 10/41/2 32/42/2
f 32/42/2 15/43/2 9/40/2
f 32/42/2 26/44/2 15/43/2
f 26/44/2 21/21/2 22/24/2
f 22/24/2 33/45/2 26/44/2
f 28/46/3 6/47/3 5/48/3
f 22/24/3 12/49/3 11/50/3
f 11/50/3 33/51/3 22/24/3
f 26/52/7 33/53/7 11/54/7
f 11/54/7 14/55/7 26/52/7
f 7/56/7 6/57/7 28/58/7
f 28/58/7 27/59/7 7/56/7
f 34/60/4 23/61/4 25/62/4
f 25/62/4 31/63/4 34/60/4
f 30/64/3 35/65/3 34/66/3
f 39/67/4 40/68/4 37/69/4
f 43/70/7 44/71/7 41/72/7
f 41/73/3 44/74/3 39/75/3
f 24/76/7 35/77/7 30/78/7
f 30/78/7 45/79/7 24/76/7
f 30/78/7 36/80/7 46/81/7
f 1/82/7 4/83/7 32/84/7
f 32/84/7 10/85/7 1/82/7
f 37/86/2 46/87/2 36/88/2
f 36/88/2 38/89/2 37/86/2
f 41/90/2 38/89/2 17/91/2
f 16/92/2 42/93/2 41/90/2
f 5/7/2 6/94/2 7/5/2
f 11/14/1 12/95/1 13/12/1
f 3/17/4 2/96/4 9/15/4
f 16/97/4 17/98/4 18/18/4
f 18/18/4 19/22/4 16/97/4
f 18/18/4 8/20/4 19/22/4
f 18/18/4 20/99/4 5/19/4
f 19/22/4 8/20/4 13/23/4
f 22/24/4 13/23/4 12/100/4
f 3/26/6 23/25/5 24/101/3
f 24/101/3 4/102/3 3/26/6
f 25/28/3 23/25/5 15/27/3
f 25/28/3 26/29/3 14/103/3
f 25/28/3 14/103/3 7/32/3
f 7/32/3 27/104/3 25/28/3
f 7/32/3 14/103/3 13/30/3
f 18/35/1 27/37/1 28/33/1
f 30/39/1 31/105/1 25/36/1
f 26/44/2 32/42/2 21/21/2
f 5/48/3 20/106/3 28/46/3
f 34/107/2 35/108/2 24/109/2
f 24/109/2 23/110/2 34/107/2
f 34/66/3 31/111/3 30/64/3
f 18/112/8 17/113/8 36/114/8
f 36/114/8 29/115/8 18/112/8
f 37/69/4 38/116/4 39/67/4
f 41/72/7 42/117/7 43/70/7
f 39/75/3 38/118/3 41/73/3
f 30/78/7 46/81/7 45/79/7
f 30/78/7 29/119/7 36/80/7
f 4/83/7 24/76/7 45/79/7
f 4/83/7 45/79/7 32/84/7
f 36/88/2 17/91/2 38/89/2
f 41/90/2 17/91/2 16/92/2
g chairModernCushion_chairModernCushion_carpetBlue.004
usemtl carpetBlue.004
f 16/120/8 48/121/8 47/122/8
f 47/122/8 46/123/8 37/124/8
f 21/21/2 32/42/2 47/125/2
f 47/125/2 48/126/2 21/21/2
f 45/79/7 46/81/7 47/127/7
f 44/128/2 43/129/2 40/130/2
f 40/130/2 39/131/2 44/128/2
f 43/132/8 37/124/8 40/133/8
f 47/122/8 37/124/8 43/132/8
f 47/122/8 43/132/8 42/134/8
f 47/122/8 42/134/8 16/120/8
f 21/21/4 48/126/4 16/97/4
f 16/97/4 19/22/4 21/21/4
f 47/127/7 32/84/7 45/79/7
