# Blender v2.93.10 OBJ File: 'untitled.blend'
# www.blender.org
mtllib couch set 0.mtl
o loungeSofaOttoman
v 0.199913 0.000000 -0.204999
v 0.159913 0.000000 -0.204999
v 0.159913 0.050000 -0.204999
v 0.199913 0.050000 -0.204999
v 0.199913 0.050000 -0.164999
v 0.199913 0.000000 -0.164999
v 0.159913 0.000000 -0.164999
v 0.159913 0.050000 -0.164999
v -0.159916 0.000000 -0.204999
v -0.199916 0.000000 -0.204999
v -0.199916 0.050000 -0.204999
v -0.159916 0.050000 -0.204999
v -0.159916 0.050000 -0.164999
v -0.159916 0.000000 -0.164999
v -0.199916 0.000000 -0.164999
v -0.199916 0.050000 -0.164999
v -0.159916 -0.000000 0.165001
v -0.199916 -0.000000 0.165001
v -0.199916 0.050000 0.165001
v -0.159916 0.050000 0.165001
v -0.199916 -0.000000 0.205001
v -0.199916 0.050000 0.205001
v -0.159916 0.050000 0.205001
v -0.159916 -0.000000 0.205001
v 0.199913 -0.000000 0.165001
v 0.199913 0.050000 0.165001
v 0.199913 0.050000 0.205001
v 0.199913 -0.000000 0.205001
v 0.159913 -0.000000 0.165001
v 0.159913 0.050000 0.165001
v 0.159913 -0.000000 0.205001
v 0.159913 0.050000 0.205001
v -0.199916 0.140000 -0.204999
v 0.199913 0.140000 -0.204999
v -0.199916 0.140000 0.205001
v 0.199913 0.140000 0.205001
v 0.219913 0.230000 0.225001
v 0.219913 0.230000 -0.224999
v -0.219916 0.230000 -0.224999
v -0.219916 0.230000 0.225001
v 0.219913 0.140000 -0.224999
v -0.219916 0.140000 -0.224999
v 0.219913 0.140000 0.225001
v -0.219916 0.140000 0.225001
vt -35.032619 1.968504
vt -35.032619 0.000000
vt -33.457821 0.000000
vt -20.866140 1.968504
vt -20.866140 0.000000
vt -19.291340 0.000000
vt -13.779530 1.968504
vt -15.354330 0.000000
vt -13.779530 0.000000
vt -33.457821 1.968504
vt 33.457821 1.968504
vt 35.032619 0.000000
vt 35.032619 1.968504
vt -20.866140 -0.787402
vt -19.291340 -0.787402
vt -19.291340 0.787402
vt 33.457821 1.968504
vt 35.032619 0.000000
vt 35.032619 1.968504
vt 0.787402 1.968504
vt -0.787402 1.968504
vt -0.787402 0.000000
vt -35.032619 -15.354330
vt -33.457821 -13.779530
vt -35.032619 -13.779530
vt 19.291340 1.968504
vt 19.291340 0.000000
vt 20.866140 0.000000
vt -19.291340 1.968504
vt 33.457821 0.000000
vt 19.291340 1.968504
vt 20.866140 0.000000
vt 20.866140 1.968504
vt 33.457821 0.000000
vt 13.779530 0.000000
vt 15.354330 1.968504
vt 13.779530 1.968504
vt -35.032619 -0.787402
vt -33.457821 0.787402
vt -35.032619 0.787402
vt -20.866140 1.968504
vt -20.866140 0.000000
vt -19.291340 0.000000
vt -0.787402 0.000000
vt 0.787402 1.968504
vt -0.787402 1.968504
vt -0.787402 0.000000
vt 0.787402 1.968504
vt -0.787402 1.968504
vt -19.291340 1.968504
vt -35.032619 1.968504
vt -35.032619 0.000000
vt -33.457821 0.000000
vt -13.779530 1.968504
vt -15.354330 0.000000
vt -13.779530 0.000000
vt 0.787402 0.000000
vt -20.866140 0.787402
vt -20.866140 -15.354330
vt -19.291340 -13.779530
vt -20.866140 -13.779530
vt -15.354330 1.968504
vt -19.291340 -15.354330
vt 15.354330 0.000000
vt -33.457821 1.968504
vt -33.457821 -15.354330
vt 0.787402 1.968504
vt -0.787402 0.000000
vt 0.787402 0.000000
vt 13.779530 0.000000
vt 15.354330 0.000000
vt 15.354330 1.968504
vt 0.787402 0.000000
vt -33.457821 -0.787402
vt 13.779530 1.968504
vt -15.354330 1.968504
vt 0.787402 0.000000
vt -0.787402 1.968504
vt 20.866140 1.968504
vt 19.291340 0.000000
vt -35.032619 -13.779530
vt -33.457821 -0.787402
vt -35.032619 -0.787402
vt 15.354330 5.511811
vt -19.291340 5.511811
vt -20.866140 -0.787402
vt -33.457821 0.787402
vt -33.457821 -15.354330
vt 18.503941 9.055119
vt 35.820019 5.511811
vt 35.820019 9.055119
vt -16.141729 5.511811
vt 1.574803 9.055119
vt -16.141729 9.055119
vt 18.503941 -16.141729
vt 35.820019 -16.141729
vt 35.820019 1.574803
vt -15.354330 5.511811
vt -18.503941 1.574803
vt -35.820019 1.574803
vt -19.291340 0.787402
vt -35.032619 5.511811
vt 35.032619 5.511811
vt 19.291340 5.511811
vt -20.866140 -13.779530
vt -19.291340 -0.787402
vt 18.503941 5.511811
vt -33.457821 -13.779530
vt -18.503941 9.055119
vt -35.820019 5.511811
vt -18.503941 5.511811
vt 1.574803 5.511811
vt -35.820019 9.055119
vt -19.291340 -13.779530
vt -20.866140 -15.354330
vt 0.787402 5.511811
vt -35.032619 -15.354330
vt -35.032619 0.787402
vt -35.820019 -16.141729
vt -18.503941 -16.141729
vt -19.291340 -15.354330
vt -20.866140 0.787402
vt 18.503941 1.574803
vt -1.574803 5.511811
vt 16.141729 5.511811
vt 16.141729 9.055119
vt -0.787402 5.511811
vt -1.574803 9.055119
vn 0.0000 -0.0000 1.0000
vn -1.0000 0.0000 0.0000
vn 0.0000 0.0000 -1.0000
vn 0.0000 -1.0000 -0.0000
vn 1.0000 -0.0000 0.0000
vn 0.0167 0.9999 0.0028
vn 0.0000 1.0000 0.0000
vn -0.0447 -0.9990 0.0000
g loungeSofaOttoman_loungeSofaOttoman_wood.068
usemtl wood.068
s 1
f 22/1/1 21/2/1 24/3/1
f 8/4/1 7/5/1 6/6/1
f 8/7/2 2/8/2 7/9/2
f 22/1/1 24/3/1 23/10/1
f 20/11/3 18/12/3 19/13/3
f 29/14/4 25/15/4 28/16/4
f 12/17/3 10/18/3 11/19/3
f 32/20/2 30/21/2 29/22/2
f 10/23/4 14/24/4 15/25/4
f 4/26/3 1/27/3 2/28/3
f 8/4/1 6/6/1 5/29/1
f 20/11/3 17/30/3 18/12/3
f 26/31/3 29/32/3 30/33/3
f 12/17/3 9/34/3 10/18/3
f 6/35/5 4/36/5 5/37/5
f 18/38/4 24/39/4 21/40/4
f 32/41/1 31/42/1 28/43/1
f 24/44/5 20/45/5 23/46/5
f 28/47/5 26/48/5 27/49/5
f 32/41/1 28/43/1 27/50/1
f 16/51/1 15/52/1 14/53/1
f 16/54/2 10/55/2 15/56/2
f 24/44/5 17/57/5 20/45/5
f 29/14/4 28/16/4 31/58/4
f 2/59/4 6/60/4 7/61/4
f 16/54/2 11/62/2 10/55/2
f 2/59/4 1/63/4 6/60/4
f 6/35/5 1/64/5 4/36/5
f 16/51/1 14/53/1 13/65/1
f 10/23/4 9/66/4 14/24/4
f 22/67/2 18/68/2 21/69/2
f 14/70/5 9/71/5 12/72/5
f 32/20/2 29/22/2 31/73/2
f 18/38/4 17/74/4 24/39/4
f 14/70/5 12/72/5 13/75/5
f 8/7/2 3/76/2 2/8/2
f 28/47/5 25/77/5 26/48/5
f 22/67/2 19/78/2 18/68/2
f 4/26/3 2/28/3 3/79/3
f 26/31/3 25/80/3 29/32/3
g loungeSofaOttoman_loungeSofaOttoman_carpet.018
usemtl carpet.018
f 16/81/4 20/82/6 19/83/4
f 5/37/5 4/36/5 34/84/5
f 23/10/1 32/41/1 36/85/1
f 30/86/4 23/87/4 12/88/4
f 38/89/3 42/90/3 39/91/3
f 42/92/2 40/93/2 39/94/2
f 38/95/7 39/96/7 40/97/7
f 33/98/2 11/62/2 16/54/2
f 43/99/4 44/100/4 36/101/4
f 22/1/1 23/10/1 35/102/1
f 33/103/3 34/104/3 3/79/3
f 8/105/4 26/106/4 30/86/4
f 33/98/2 16/54/2 19/78/2
f 36/85/1 35/102/1 23/10/1
f 38/89/3 41/107/3 42/90/3
f 20/82/6 13/108/8 12/88/4
f 37/109/1 44/110/1 43/111/1
f 16/81/4 13/108/8 20/82/6
f 42/92/2 44/112/2 40/93/2
f 37/109/1 40/113/1 44/110/1
f 8/105/4 5/114/4 26/106/4
f 12/88/4 3/115/4 8/105/4
f 22/67/2 35/116/2 19/78/2
f 44/100/4 33/117/4 35/118/4
f 4/26/3 3/79/3 34/104/3
f 42/119/4 41/120/4 34/121/4
f 30/86/4 32/122/4 23/87/4
f 41/120/4 36/101/4 34/121/4
f 3/79/3 12/17/3 33/103/3
f 35/116/2 33/98/2 19/78/2
f 8/105/4 30/86/4 12/88/4
f 12/17/3 11/19/3 33/103/3
f 44/100/4 42/119/4 33/117/4
f 36/101/4 41/120/4 43/99/4
f 38/95/7 40/97/7 37/123/7
f 32/41/1 27/50/1 36/85/1
f 23/87/4 20/82/6 12/88/4
f 43/124/5 41/125/5 38/126/5
f 33/117/4 42/119/4 34/121/4
f 44/100/4 35/118/4 36/101/4
f 26/48/5 5/37/5 34/84/5
f 36/127/5 27/49/5 26/48/5
f 34/84/5 36/127/5 26/48/5
f 43/124/5 38/126/5 37/128/5
