# Blender v2.93.10 OBJ File: ''
# www.blender.org
mtllib drain platform.mtl
o Cube.001_Cube.016
v -0.035553 -0.050000 -0.999999
v -0.139234 0.000000 -0.999999
v -0.553961 0.050000 -0.999999
v -0.450279 0.000000 -0.999999
v -0.553961 -0.050000 -0.999999
v -0.657642 0.000000 -0.999999
v -0.968687 0.000000 -0.999999
v -1.000000 0.015101 -0.999999
v -1.000000 -0.015101 -0.999999
v -0.000000 -0.050000 -0.999999
v -0.100000 0.000000 -1.000000
v -0.400000 0.000000 -0.999999
v -0.442110 -0.021055 -0.999999
v -0.500000 -0.050000 -0.999999
v -1.000000 0.050000 -0.999999
v -1.000000 -0.050000 -0.999999
v -0.900000 0.000000 -0.999999
v -0.500000 0.050000 -0.999999
v -0.600000 0.000000 -0.999999
v 1.000000 0.049390 -0.999999
v 1.000000 -0.049391 -0.999999
v 0.897582 0.000000 -0.999999
v 0.586537 0.000000 -0.999999
v 0.482855 -0.050000 -0.999999
v 0.379174 0.000000 -0.999999
v 0.482855 0.050000 -0.999999
v 0.068129 0.000000 -0.999999
v -0.035553 0.050000 -0.999999
v -0.000000 0.050000 -0.999999
v 0.100000 0.000000 -1.000000
v 0.500000 0.050000 -0.999999
v 0.500000 -0.050000 -0.999999
v 0.400000 0.000000 -0.999999
v 0.600000 0.000000 -0.999999
v 1.000000 -0.050000 -0.999999
v 0.900000 0.000000 -0.999999
v 1.000000 0.050000 -0.999999
v 1.000000 0.000000 -0.904492
v 1.000000 0.000000 -0.614439
v 1.000000 -0.050000 -0.517754
v 1.000000 0.000000 -0.421070
v 1.000000 0.050000 -0.517754
v 1.000000 0.000000 -0.131016
v 1.000000 -0.050000 -0.034331
v 1.000000 -0.050000 -0.500000
v 1.000000 0.000000 -0.600000
v 1.000000 0.050000 -0.500000
v 1.000000 0.000000 -0.400000
v 1.000000 -0.050000 0.000000
v 1.000000 0.000000 -0.100000
v 1.000000 0.000000 -0.899999
v 1.000000 0.050000 0.999999
v 1.000000 -0.050000 0.999999
v 1.000000 0.000000 0.600000
v 1.000000 -0.021862 0.556275
v 1.000000 0.000000 0.899999
v 1.000000 -0.050000 0.500000
v 1.000000 0.050000 0.500000
v 1.000000 0.000000 0.400000
v 1.000000 0.000000 0.062353
v 1.000000 0.050000 -0.034331
v 1.000000 0.050000 0.449092
v 1.000000 0.000000 0.352407
v 1.000000 -0.050000 0.449092
v 1.000000 0.000000 0.545776
v 1.000000 0.000000 0.835830
v 1.000000 -0.015101 0.999999
v 1.000000 -0.050000 0.932515
v 1.000000 0.015101 0.999999
v 1.000000 0.050000 0.932515
v 1.000000 -0.018376 0.063248
v 1.000000 0.050000 0.000000
v 1.000000 0.000000 0.100000
v -1.000000 -0.050000 -0.932514
v -1.000000 0.050000 -0.932514
v -1.000000 0.050000 -0.000000
v -1.000000 0.000000 -0.100000
v -1.000000 0.000000 -0.400000
v -1.000000 -0.050000 -0.500000
v -1.000000 0.000000 -0.835830
v -1.000000 0.000000 -0.545776
v -1.000000 -0.050000 -0.449091
v -1.000000 0.050000 -0.449091
v -1.000000 0.000000 -0.352407
v -1.000000 0.000000 -0.062353
v -1.000000 0.050000 0.034331
v -1.000000 0.000000 -0.899999
v -1.000000 0.050000 -0.500000
v -1.000000 0.000000 -0.600000
v -1.000000 -0.050000 -0.000000
v -1.000000 0.000000 0.100000
v -1.000000 0.050000 0.500000
v -1.000000 -0.050000 0.500000
v -1.000000 0.000000 0.399999
v -1.000000 0.000000 0.600000
v -1.000000 -0.050000 0.999999
v -1.000000 0.000000 0.899999
v -1.000000 0.050000 0.999999
v -1.000000 -0.050000 0.034331
v -1.000000 0.000000 0.131016
v -1.000000 0.000000 0.421070
v -1.000000 -0.050000 0.517754
v -1.000000 0.050000 0.517754
v -1.000000 0.000000 0.614439
v -1.000000 0.000000 0.904493
v -1.000000 0.049391 0.999999
v -1.000000 -0.049391 0.999999
v -0.500000 -0.050000 0.999999
v -0.600000 0.000000 0.999999
v -0.500000 0.050000 0.999999
v -0.400000 0.000000 0.999999
v 0.000000 0.050000 0.999999
v -0.100000 0.000000 0.999999
v -0.900000 0.000000 0.999999
v 0.035553 0.050000 0.999999
v -0.068129 0.000000 0.999999
v -0.379173 0.000000 0.999999
v -0.482855 -0.050000 0.999999
v -0.482855 0.050000 0.999999
v -0.586537 0.000000 0.999999
v -0.897581 0.000000 0.999999
v 0.600000 0.000000 0.999999
v 0.900000 0.000000 0.999999
v 0.500000 -0.050000 0.999999
v 0.500000 0.050000 0.999999
v 0.400000 0.000000 0.999999
v 0.000000 -0.050000 0.999999
v 0.100000 0.000000 0.999999
v 0.968687 0.000000 0.999999
v 0.657642 0.000000 0.999999
v 0.553961 -0.050000 0.999999
v 0.553961 0.050000 0.999999
v 0.450279 0.000000 0.999999
v 0.139234 0.000000 0.999999
v 0.035553 -0.050000 0.999999
v -1.000000 -0.050000 -0.999999
v -1.000000 0.000000 -0.929289
v -1.000000 0.000000 -1.070710
v -1.000000 0.050000 -0.999999
v 1.000000 -0.050000 -0.999999
v 1.000000 0.000000 -0.929289
v 1.000000 0.000000 -1.070710
v 1.000000 0.050000 -0.999999
v -1.000000 -0.050000 0.999999
v -1.000000 0.000000 1.070710
v -1.000000 0.000000 0.929289
v -1.000000 0.050000 0.999999
v 1.000000 -0.050000 0.999999
v 1.000000 0.000000 1.070710
v 1.000000 0.000000 0.929289
v 1.000000 0.050000 0.999999
v -1.000000 -0.050000 1.000000
v -0.929289 0.000000 1.000000
v -1.070711 0.000000 1.000000
v -1.000000 0.050000 1.000000
v -1.000000 -0.050000 -1.000000
v -0.929289 0.000000 -1.000000
v -1.070711 0.000000 -1.000000
v -1.000000 0.050000 -1.000000
v 1.000000 -0.050000 1.000000
v 1.070711 0.000000 1.000000
v 0.929289 0.000000 1.000000
v 1.000000 0.050000 1.000000
v 1.000000 -0.050000 -1.000000
v 1.070711 0.000000 -1.000000
v 0.929289 0.000000 -1.000000
v 1.000000 0.050000 -1.000000
vt 0.694821 0.750000
vt 0.698118 0.500000
vt 0.804357 0.500000
vt 0.808148 0.750000
vt 0.196967 0.750000
vt 0.193431 0.500000
vt 0.306569 0.500000
vt 0.303033 0.750000
vt 0.711306 0.750000
vt 0.714603 0.500000
vt 0.785400 0.500000
vt 0.789191 0.750000
vt 0.375000 0.318431
vt 0.625000 0.321967
vt 0.625000 0.428033
vt 0.375000 0.431569
vt 0.196967 0.750000
vt 0.200503 0.500000
vt 0.299497 0.500000
vt 0.303033 0.750000
vt 0.375000 0.821967
vt 0.625000 0.818431
vt 0.625000 0.931569
vt 0.375000 0.928033
vt 0.195643 0.750000
vt 0.199434 0.500000
vt 0.298585 0.500000
vt 0.301882 0.750000
vt 0.375000 0.352791
vt 0.625000 0.356088
vt 0.625000 0.391443
vt 0.375000 0.395234
vt 0.214645 0.750000
vt 0.211109 0.500000
vt 0.288891 0.500000
vt 0.285355 0.750000
vt 0.214645 0.750000
vt 0.218180 0.500000
vt 0.281820 0.500000
vt 0.285355 0.750000
vt 0.508839 0.750000
vt 0.500000 0.762500
vt 0.491161 0.750000
vt 0.497331 0.750000
vt 0.500000 0.753914
vt 0.502669 0.750000
vt 0.737348 0.750000
vt 0.733557 0.500000
vt 0.768912 0.500000
vt 0.765615 0.750000
vt 0.693431 0.750000
vt 0.696967 0.500000
vt 0.803033 0.500000
vt 0.806569 0.750000
vt 0.375000 0.875000
vt 0.625000 0.871464
vt 0.625000 0.878536
vt 0.375000 0.839603
vt 0.625000 0.836306
vt 0.625000 0.914191
vt 0.375000 0.910400
vt 0.375000 0.305477
vt 0.450503 0.304332
vt 0.625000 0.306634
vt 0.625000 0.443366
vt 0.375000 0.440069
vt 0.727791 0.750000
vt 0.731088 0.500000
vt 0.766443 0.500000
vt 0.770234 0.750000
vt 0.728787 0.750000
vt 0.732322 0.500000
vt 0.767678 0.500000
vt 0.771213 0.750000
vt 0.181634 0.750000
vt 0.179332 0.575503
vt 0.180477 0.500000
vt 0.315069 0.500000
vt 0.318366 0.750000
vt 0.232322 0.750000
vt 0.235858 0.500000
vt 0.264142 0.500000
vt 0.267678 0.750000
vt 0.375000 0.857322
vt 0.519724 0.855276
vt 0.625000 0.853787
vt 0.625000 0.896213
vt 0.375000 0.892678
vt 0.179289 0.750000
vt 0.182825 0.500000
vt 0.317175 0.500000
vt 0.320711 0.750000
vt 0.375000 0.324434
vt 0.625000 0.320643
vt 0.625000 0.426882
vt 0.375000 0.423585
vt 0.699434 0.750000
vt 0.695643 0.500000
vt 0.801882 0.500000
vt 0.798585 0.750000
vt 0.232322 0.750000
vt 0.228787 0.500000
vt 0.271213 0.500000
vt 0.267678 0.750000
vt 0.375000 0.839645
vt 0.533119 0.841881
vt 0.625000 0.843180
vt 0.625000 0.906820
vt 0.375000 0.910355
vt 0.214603 0.750000
vt 0.211306 0.500000
vt 0.289191 0.500000
vt 0.285400 0.750000
vt 0.375000 0.839600
vt 0.625000 0.843391
vt 0.625000 0.907100
vt 0.375000 0.910397
vt 0.625000 0.876277
vt 0.378045 0.872532
vt 0.625000 0.869275
vt 0.233557 0.750000
vt 0.237348 0.500000
vt 0.265615 0.500000
vt 0.268912 0.750000
vt 0.375000 0.319821
vt 0.625000 0.323118
vt 0.625000 0.429357
vt 0.375000 0.433148
vt 0.375000 0.806634
vt 0.549497 0.804332
vt 0.625000 0.805477
vt 0.625000 0.940069
vt 0.375000 0.943366
vt 0.718391 0.750000
vt 0.714600 0.500000
vt 0.785397 0.500000
vt 0.782100 0.750000
vt 0.700503 0.750000
vt 0.696967 0.500000
vt 0.803033 0.500000
vt 0.799497 0.750000
vt 0.680477 0.750000
vt 0.679332 0.674497
vt 0.681634 0.500000
vt 0.818366 0.500000
vt 0.815069 0.750000
vt 0.375000 0.353787
vt 0.625000 0.357322
vt 0.625000 0.392678
vt 0.375000 0.396213
vt 0.375000 0.823118
vt 0.625000 0.819821
vt 0.625000 0.933148
vt 0.375000 0.929357
vt 0.375000 0.343180
vt 0.625000 0.339645
vt 0.625000 0.410355
vt 0.375000 0.406820
vt 0.375000 0.371464
vt 0.625000 0.375000
vt 0.375000 0.378536
vt 0.375000 0.362348
vt 0.625000 0.358557
vt 0.625000 0.393912
vt 0.375000 0.390615
vt 0.375000 0.336109
vt 0.625000 0.339645
vt 0.625000 0.410355
vt 0.375000 0.413891
vt 0.744275 0.750000
vt 0.747532 0.503046
vt 0.751277 0.750000
vt 0.375000 0.325503
vt 0.625000 0.321967
vt 0.625000 0.428033
vt 0.375000 0.424497
vt 0.375000 0.369275
vt 0.621951 0.372532
vt 0.375000 0.376277
vt 0.375000 0.336306
vt 0.625000 0.339603
vt 0.625000 0.410400
vt 0.375000 0.414191
vt 0.253536 0.500000
vt 0.250000 0.750000
vt 0.246464 0.500000
vt 0.375000 0.343391
vt 0.625000 0.339600
vt 0.625000 0.410397
vt 0.375000 0.407100
vt 0.375000 0.839645
vt 0.625000 0.836109
vt 0.625000 0.913891
vt 0.375000 0.910355
vt 0.375000 0.820643
vt 0.625000 0.824434
vt 0.625000 0.923585
vt 0.375000 0.926882
vt 0.198118 0.750000
vt 0.194821 0.500000
vt 0.308148 0.500000
vt 0.304357 0.750000
vt 0.746464 0.750000
vt 0.750000 0.500000
vt 0.753536 0.750000
vt 0.682825 0.750000
vt 0.679289 0.500000
vt 0.820711 0.500000
vt 0.817175 0.750000
vt 0.735858 0.750000
vt 0.732322 0.500000
vt 0.767678 0.500000
vt 0.764142 0.750000
vt 0.375000 0.360858
vt 0.625000 0.357322
vt 0.625000 0.392678
vt 0.375000 0.389142
vt 0.375000 0.307825
vt 0.625000 0.304289
vt 0.625000 0.445711
vt 0.375000 0.442175
vt 0.375000 0.804289
vt 0.625000 0.807825
vt 0.625000 0.942175
vt 0.375000 0.945711
vt 0.214600 0.750000
vt 0.218391 0.500000
vt 0.282100 0.500000
vt 0.285397 0.750000
vt 0.500000 0.737500
vt 0.508839 0.741564
vt 0.500000 0.729479
vt 0.491161 0.741564
vt 0.251277 0.500000
vt 0.247532 0.746954
vt 0.244275 0.500000
vt 0.375000 0.821967
vt 0.625000 0.825503
vt 0.625000 0.924497
vt 0.375000 0.928033
vt 0.231088 0.750000
vt 0.227791 0.500000
vt 0.270234 0.500000
vt 0.266443 0.750000
vt 0.711109 0.750000
vt 0.714645 0.500000
vt 0.785355 0.500000
vt 0.788891 0.750000
vt 0.375000 0.856088
vt 0.625000 0.852791
vt 0.625000 0.895234
vt 0.375000 0.891443
vt 0.375000 0.858557
vt 0.625000 0.862348
vt 0.625000 0.890615
vt 0.375000 0.893912
vt 0.718180 0.750000
vt 0.714645 0.500000
vt 0.785355 0.500000
vt 0.781820 0.750000
vt 0.375000 0.857322
vt 0.515688 0.859312
vt 0.625000 0.860858
vt 0.625000 0.889142
vt 0.375000 0.892678
vt 0.375000 0.000000
vt 0.625000 0.000000
vt 0.625000 0.250000
vt 0.375000 0.250000
vt 0.625000 0.500000
vt 0.375000 0.500000
vt 0.625000 0.750000
vt 0.375000 0.750000
vt 0.625000 1.000000
vt 0.375000 1.000000
vt 0.125000 0.500000
vt 0.125000 0.750000
vt 0.875000 0.500000
vt 0.875000 0.750000
vt 0.375000 0.000000
vt 0.625000 0.000000
vt 0.625000 0.250000
vt 0.375000 0.250000
vt 0.625000 0.500000
vt 0.375000 0.500000
vt 0.625000 0.750000
vt 0.375000 0.750000
vt 0.625000 1.000000
vt 0.375000 1.000000
vt 0.125000 0.500000
vt 0.125000 0.750000
vt 0.875000 0.500000
vt 0.875000 0.750000
vt 0.375000 0.000000
vt 0.625000 0.000000
vt 0.625000 0.250000
vt 0.375000 0.250000
vt 0.625000 0.500000
vt 0.375000 0.500000
vt 0.625000 0.750000
vt 0.375000 0.750000
vt 0.625000 1.000000
vt 0.375000 1.000000
vt 0.125000 0.500000
vt 0.125000 0.750000
vt 0.875000 0.500000
vt 0.875000 0.750000
vt 0.375000 0.000000
vt 0.625000 0.000000
vt 0.625000 0.250000
vt 0.375000 0.250000
vt 0.625000 0.500000
vt 0.375000 0.500000
vt 0.625000 0.750000
vt 0.375000 0.750000
vt 0.625000 1.000000
vt 0.375000 1.000000
vt 0.125000 0.500000
vt 0.125000 0.750000
vt 0.875000 0.500000
vt 0.875000 0.750000
vn 0.3938 0.8165 -0.4222
vn -0.4082 -0.8165 -0.4082
vn -0.4082 0.8165 -0.4082
vn 0.4082 -0.8165 0.4082
vn -0.3938 -0.8165 0.4222
vn -0.3938 0.8165 0.4222
vn -0.0000 0.0000 1.0000
vn 0.4082 0.8165 0.4082
vn 0.3938 -0.8165 -0.4222
vn -0.3937 0.8165 0.4222
vn -1.0000 0.0000 0.0000
vn 0.0000 0.8165 -0.5774
vn 1.0000 0.0000 0.0000
vn 0.0000 -0.8165 0.5774
vn 0.0000 -0.8165 -0.5774
vn 0.0000 0.8165 0.5774
vn -0.5774 0.8165 0.0000
vn 0.0000 0.0000 -1.0000
vn 0.5773 -0.8165 -0.0000
vn -0.5774 -0.8165 0.0000
vn 0.5773 0.8165 -0.0000
vn 0.5774 -0.8165 -0.0000
vn 0.5774 0.8165 -0.0000
usemtl (null)
s off
f 81/1/1 83/2/1 132/3/1 130/4/1
f 108/5/2 109/6/2 46/7/2 45/8/2
f 85/9/1 86/10/1 115/11/1 134/12/1
f 109/13/3 110/14/3 47/15/3 46/16/3
f 93/17/2 94/18/2 33/19/2 32/20/2
f 32/21/4 34/22/4 95/23/4 93/24/4
f 131/25/5 133/26/5 84/27/5 82/28/5
f 41/29/6 42/30/6 26/31/6 25/32/6
f 127/33/2 113/34/2 50/35/2 49/36/2
f 90/37/2 77/38/2 11/39/2 10/40/2
f 52/41/7 123/42/7 53/43/7 67/44/7 129/45/7 69/46/7
f 23/47/1 26/48/1 42/49/1 39/50/1
f 34/51/8 31/52/8 92/53/8 95/54/8
f 16/55/4 17/56/4 87/57/4
f 99/58/9 85/59/9 134/60/9 135/61/9
f 129/62/6 69/63/6 70/64/6 75/65/6 80/66/6
f 101/67/1 103/68/1 119/69/1 117/70/1
f 12/71/8 18/72/8 88/73/8 78/74/8
f 68/75/5 67/76/5 129/77/5 80/78/5 74/79/5
f 79/80/2 89/81/2 19/82/2 14/83/2
f 14/84/4 13/85/4 12/86/4 78/87/4 79/88/4
f 96/89/2 97/90/2 36/91/2 35/92/2
f 133/93/6 132/94/6 83/95/6 84/96/6
f 4/97/1 3/98/1 62/99/1 63/100/1
f 124/101/2 126/102/2 59/103/2 57/104/2
f 49/105/4 71/106/4 73/107/4 128/108/4 127/109/4
f 44/110/5 60/111/5 2/112/5 1/113/5
f 1/114/9 27/115/9 43/116/9 44/117/9
f 121/118/9 107/119/9 105/120/9
f 118/121/5 120/122/5 104/123/5 102/124/5
f 65/125/6 62/126/6 3/127/6 6/128/6
f 74/129/9 9/130/9 7/131/9 66/132/9 68/133/9
f 27/134/1 28/135/1 61/136/1 43/137/1
f 48/138/8 47/139/8 110/140/8 111/141/8
f 7/142/1 8/143/1 75/144/1 70/145/1 66/146/1
f 126/147/3 125/148/3 58/149/3 59/150/3
f 82/151/9 81/152/9 130/153/9 131/154/9
f 77/155/3 76/156/3 29/157/3 11/158/3
f 123/159/3 52/160/3 56/161/3
f 120/162/6 119/163/6 103/164/6 104/165/6
f 113/166/3 112/167/3 72/168/3 50/169/3
f 105/170/1 106/171/1 121/172/1
f 94/173/3 92/174/3 31/175/3 33/176/3
f 38/177/10 20/178/10 22/179/10
f 60/180/6 61/181/6 28/182/6 2/183/6
f 56/184/2 53/185/2 123/186/2
f 116/187/6 115/188/6 86/189/6 100/190/6
f 10/191/4 30/192/4 91/193/4 90/194/4
f 5/195/9 4/196/9 63/197/9 64/198/9
f 64/199/5 65/200/5 6/201/5 5/202/5
f 17/203/8 15/204/8 87/205/8
f 51/206/8 37/207/8 98/208/8 114/209/8
f 54/210/8 58/211/8 125/212/8 122/213/8
f 89/214/3 88/215/3 18/216/3 19/217/3
f 97/218/3 98/219/3 37/220/3 36/221/3
f 35/222/4 51/223/4 114/224/4 96/225/4
f 135/226/5 116/227/5 100/228/5 99/229/5
f 53/43/11 56/230/11 52/41/11 69/46/11 70/231/11 66/232/11 68/233/11 67/44/11
f 22/234/5 21/235/5 38/236/5
f 45/237/4 48/238/4 111/239/4 108/240/4
f 40/241/5 41/242/5 25/243/5 24/244/5
f 30/245/8 29/246/8 76/247/8 91/248/8
f 102/249/9 101/250/9 117/251/9 118/252/9
f 24/253/9 23/254/9 39/255/9 40/256/9
f 73/257/8 72/258/8 112/259/8 128/260/8
f 57/261/4 55/262/4 54/263/4 122/264/4 124/265/4
f 136/266/11 137/267/11 139/268/11 138/269/11
f 138/269/12 139/268/12 143/270/12 142/271/12
f 142/271/13 143/270/13 141/272/13 140/273/13
f 140/273/14 141/272/14 137/274/14 136/275/14
f 138/276/15 142/271/15 140/273/15 136/277/15
f 143/270/16 139/278/16 137/279/16 141/272/16
f 144/280/11 145/281/11 147/282/11 146/283/11
f 146/283/12 147/282/12 151/284/12 150/285/12
f 150/285/13 151/284/13 149/286/13 148/287/13
f 148/287/14 149/286/14 145/288/14 144/289/14
f 146/290/15 150/285/15 148/287/15 144/291/15
f 151/284/16 147/292/16 145/293/16 149/286/16
f 152/294/7 153/295/7 155/296/7 154/297/7
f 154/297/17 155/296/17 159/298/17 158/299/17
f 158/299/18 159/298/18 157/300/18 156/301/18
f 156/301/19 157/300/19 153/302/19 152/303/19
f 154/304/20 158/299/20 156/301/20 152/305/20
f 159/298/21 155/306/21 153/307/21 157/300/21
f 160/308/7 161/309/7 163/310/7 162/311/7
f 162/311/17 163/310/17 167/312/17 166/313/17
f 166/313/18 167/312/18 165/314/18 164/315/18
f 164/315/22 165/314/22 161/316/22 160/317/22
f 162/318/20 166/313/20 164/315/20 160/319/20
f 167/312/23 163/320/23 161/321/23 165/314/23
l 133 126
l 116 113
l 120 109
l 101 94
l 85 77
l 4 13
l 27 30
l 23 34
l 41 48
l 60 71
l 65 55
