# Blender v2.93.10 OBJ File: 'untitled.blend'
# www.blender.org
mtllib fence.mtl
o structure-yellow-high.001
v -0.075000 1.500000 -0.500000
v 0.075000 1.500000 -0.350000
v 0.075000 1.500000 -0.500000
v -0.075000 1.500000 -0.350000
v -0.075000 0.150000 -0.350000
v -0.075000 0.150000 -0.500000
v 0.075000 1.500000 0.350000
v 0.075000 0.150000 0.500000
v 0.075000 0.150000 0.350000
v 0.075000 1.500000 0.500000
v 0.075000 0.150000 -0.500000
v -0.037500 1.200000 -0.350000
v 0.037500 1.200000 -0.350000
v -0.037500 1.050000 -0.350000
v 0.037500 1.050000 -0.350000
v -0.037500 0.600000 -0.350000
v -0.037500 0.450000 -0.350000
v 0.037500 0.600000 -0.350000
v 0.037500 0.450000 -0.350000
v 0.075000 0.150000 -0.350000
v -0.075000 0.150000 0.500000
v -0.075000 1.500000 0.500000
v -0.075000 1.500000 0.350000
v -0.075000 0.150000 0.350000
v 0.037500 0.150000 0.462500
v 0.037500 0.150000 0.387500
v -0.037500 0.150000 0.462500
v -0.037500 0.150000 0.387500
v 0.037500 0.150000 -0.387500
v 0.037500 0.150000 -0.462500
v -0.037500 0.150000 -0.387500
v -0.037500 0.150000 -0.462500
v -0.037500 1.050000 0.350000
v -0.037500 1.200000 0.350000
v 0.037500 1.200000 0.350000
v 0.037500 1.050000 0.350000
v 0.037500 0.600000 0.350000
v -0.037500 0.600000 0.350000
v 0.037500 0.450000 0.350000
v -0.037500 0.450000 0.350000
v -0.075000 0.075000 -0.350000
v -0.075000 0.075000 -0.500000
v 0.075000 0.075000 -0.350000
v -0.075000 0.000000 -0.350000
v 0.075000 0.000000 -0.350000
v 0.075000 0.075000 -0.500000
v 0.075000 0.075000 0.350000
v -0.075000 0.075000 0.350000
v -0.075000 -0.000000 0.500000
v -0.075000 -0.000000 0.350000
v -0.075000 0.075000 0.500000
v 0.075000 -0.000000 0.350000
v 0.075000 -0.000000 0.500000
v 0.075000 0.000000 -0.500000
v 0.075000 0.075000 0.500000
v -0.075000 0.000000 -0.500000
vt 1.476378 47.244091
vt 1.476378 41.338581
vt 2.952756 59.055119
vt 19.685040 59.055119
vt 13.779530 5.905512
vt 19.685040 5.905512
vt -19.685040 5.905512
vt -13.779530 59.055119
vt -19.685040 59.055119
vt -2.952756 59.055119
vt 2.952756 5.905512
vt 2.952756 59.055119
vt 19.685040 59.055119
vt 13.779530 5.905512
vt 19.685040 5.905512
vt 1.476378 23.622049
vt 1.476378 17.716539
vt 13.779530 59.055119
vt -19.685040 59.055119
vt -19.685040 5.905512
vt -13.779530 5.905512
vt -1.476378 41.338581
vt -1.476378 47.244091
vt -2.952756 59.055119
vt 2.952756 19.685040
vt -2.952756 13.779530
vt 2.952756 13.779530
vt -2.952756 59.055119
vt -13.779530 59.055119
vt 1.476378 -18.208660
vt -2.952756 -19.685040
vt 2.952756 -19.685040
vt -1.476378 41.338581
vt -1.476378 23.622049
vt 2.952756 5.905512
vt -2.952756 5.905512
vt 2.952756 59.055119
vt -2.952756 59.055119
vt 1.476378 47.244091
vt -1.476378 47.244091
vt -1.476378 -18.208660
vt -1.476378 -15.255910
vt -2.952756 -13.779530
vt -1.476378 15.255910
vt -1.476378 18.208660
vt -2.952756 19.685040
vt -1.476378 23.622049
vt 1.476378 23.622049
vt 1.476378 41.338581
vt -2.952756 19.685040
vt 13.779530 59.055119
vt -1.476378 17.716539
vt -2.952756 5.905512
vt 1.476378 18.208660
vt 2.952756 13.779530
vt 2.952756 19.685040
vt 2.952756 -13.779530
vt 1.476378 -15.255910
vt 2.952756 5.905512
vt 1.476378 15.255910
vt -2.952756 13.779530
vt 2.952756 5.905512
vt 2.952756 59.055119
vt -2.952756 5.905512
vt -1.476378 17.716539
vt -13.779530 5.905512
vt 1.476378 17.716539
vt -2.952756 5.905512
vt -2.952756 -19.685040
vt 2.952756 -13.779530
vt -2.952756 -13.779530
vt 2.952756 -19.685040
vt -2.952756 2.952756
vt 2.952756 0.000000
vt 2.952756 2.952756
vt 15.255910 4.621794
vt 19.685040 1.320513
vt 18.208660 4.621794
vt 1.476378 12.104700
vt -1.476378 12.104700
vt -2.952756 8.803417
vt -15.255910 4.621794
vt -19.685040 1.320513
vt -13.779530 1.320513
vt -2.952756 0.000000
vt -2.952756 13.779530
vt 2.952756 13.779530
vt 2.952756 19.685040
vt -1.476378 12.104700
vt 2.952756 8.803417
vt 1.476378 12.104700
vt 2.952756 -6.162392
vt -1.476378 -2.861111
vt -2.952756 -6.162392
vt -19.685040 1.320513
vt -15.255910 4.621794
vt -18.208660 4.621794
vt 2.952756 8.803417
vt -2.952756 0.000000
vt 2.952756 0.000000
vt 2.952756 2.952756
vt -13.779530 0.000000
vt -13.779530 2.952756
vt -19.685040 2.952756
vt 2.952756 2.952756
vt -2.952756 2.952756
vt -2.952756 0.000000
vt 19.685040 0.000000
vt 13.779530 2.952756
vt 13.779530 0.000000
vt -18.208660 4.621794
vt 1.476378 -2.861111
vt 19.685040 0.000000
vt 19.685040 2.952756
vt 13.779530 2.952756
vt -2.952756 0.000000
vt 2.952756 0.000000
vt 2.952756 2.952756
vt -19.685040 0.000000
vt -19.685040 0.000000
vt -13.779530 0.000000
vt -13.779530 2.952756
vt 13.779530 1.320513
vt -2.952756 8.803417
vt 2.952756 -13.779530
vt -2.952756 -19.685040
vt 2.952756 -19.685040
vt 13.779530 0.000000
vt -2.952756 2.952756
vt -19.685040 2.952756
vt -2.952756 19.685040
vt -2.952756 -13.779530
vt 2.952756 0.000000
vt -2.952756 -6.162392
vt 2.952756 -6.162392
vt 1.476378 -2.861111
vt -2.952756 2.952756
vt -13.779530 1.320513
vt -1.476378 -2.861111
vt 19.685040 1.320513
vt 18.208660 4.621794
vt 15.255910 4.621794
vt 19.685040 2.952756
vt 13.779530 1.320513
vt -1.476378 -13.779530
vt 1.476378 13.779530
vt -1.476378 13.779530
vt 13.779530 47.244091
vt -13.779530 41.338581
vt 13.779530 41.338581
vt -13.779530 47.244091
vt -13.779530 23.622049
vt -13.779530 17.716539
vt 13.779530 17.716539
vt -1.476378 -13.779530
vt 1.476378 13.779530
vt -1.476378 13.779530
vt 13.779530 17.716539
vt -13.779530 23.622049
vt -13.779530 17.716539
vt 13.779530 23.622049
vt 1.476378 -13.779530
vt -1.476378 13.779530
vt -1.476378 -13.779530
vt -13.779530 41.338581
vt 13.779530 47.244091
vt -13.779530 47.244091
vt 1.476378 -13.779530
vt -1.476378 13.779530
vt 1.476378 -13.779530
vt 1.476378 13.779530
vt 13.779530 23.622049
vt 1.476378 13.779530
vt 13.779530 41.338581
vt -1.476378 -13.779530
vt 1.476378 -13.779530
vn -0.0383 0.1044 -0.9938
vn 0.0000 0.0000 -1.0000
vn -0.7071 0.0000 -0.7071
vn -0.7071 -0.0000 0.7071
vn -0.5774 -0.5774 -0.5774
vn -0.0908 -0.7042 0.7041
vn -1.0000 -0.0000 0.0000
vn -0.3971 0.3259 -0.8580
vn 0.7071 0.0000 -0.7071
vn 0.5774 -0.5773 0.5774
vn -0.0075 -0.7071 -0.7071
vn -0.5589 0.6145 0.5568
vn -0.3015 -0.3015 -0.9045
vn 0.8917 0.4372 0.1169
vn 0.7071 0.5837 0.3991
vn 0.6164 -0.4901 -0.6164
vn -0.5884 0.0712 0.8054
vn -0.1756 0.5388 0.8239
vn 0.0000 0.7071 0.7071
vn 0.0000 1.0000 0.0000
vn 0.7070 0.7070 -0.0161
vn -0.0000 -0.9064 -0.4224
vn 0.3162 0.0000 -0.9487
vn 0.7071 -0.0003 0.7071
vn 0.3015 0.3015 0.9045
vn 0.2990 0.5095 -0.8068
vn -0.0000 -1.0000 0.0000
vn -0.3267 -0.3267 0.8869
vn -0.2451 -0.9695 -0.0000
vn -0.4608 -0.7584 0.4608
vn 0.0000 -0.0000 1.0000
vn 0.1643 -0.7931 0.5865
vn 1.0000 0.0000 0.0000
vn 0.3076 -0.0781 0.9483
vn 0.4608 -0.7584 -0.4608
vn 0.6118 0.5013 0.6118
vn -0.7424 0.5670 0.3569
vn 0.5774 -0.5774 0.5774
vn 0.6228 0.4735 0.6228
vn -0.4626 -0.1028 0.8806
vn 0.0000 0.4472 -0.8944
vn 0.1904 0.2026 -0.9606
vn 0.8586 -0.0696 0.5079
vn -0.4461 -0.6329 0.6329
vn 0.9916 -0.1295 -0.0000
vn 0.0000 0.4472 0.8944
vn -0.1925 -0.0117 -0.9812
vn -0.8944 0.4472 0.0000
vn 0.0000 0.1941 -0.9810
vn 0.0000 -0.7071 0.7071
vn 0.0000 -0.9591 -0.2831
vn -0.9810 0.1941 0.0000
vn 0.9810 0.1941 0.0000
vn 0.8944 0.4472 0.0000
vn -0.1332 -0.9911 -0.0000
vn 0.7071 -0.7071 -0.0000
vn -0.9432 -0.1687 0.2861
vn 0.9979 -0.0642 0.0000
vn 0.7071 0.7071 0.0000
g structure-yellow-high.001_structure-yellow-high.001_grey.040
usemtl grey.040
s 1
f 34/1/1 33/2/2 23/3/3
f 22/4/4 24/5/5 21/6/6
f 6/7/5 4/8/7 1/9/8
f 3/10/9 6/11/5 1/12/8
f 3/13/9 20/14/10 11/15/11
f 38/16/12 40/17/13 23/3/3
f 22/4/4 23/18/3 24/5/5
f 10/19/14 8/20/15 9/21/16
f 14/22/17 12/23/18 4/24/19
f 22/25/20 7/26/21 23/27/20
f 23/3/3 7/28/2 34/1/1
f 10/19/14 9/21/16 7/29/21
f 30/30/22 6/31/5 11/32/11
f 36/33/23 37/34/2 38/16/12
f 24/35/5 23/3/3 40/17/13
f 21/36/6 10/37/24 22/38/4
f 12/23/18 13/39/25 4/24/19
f 38/16/12 33/2/2 36/33/23
f 7/28/2 35/40/26 34/1/1
f 32/41/22 31/42/27 5/43/28
f 28/44/29 27/45/30 21/46/6
f 16/47/31 18/48/31 15/49/32
f 22/25/20 10/50/14 7/26/21
f 3/13/9 2/51/33 20/14/10
f 17/52/31 16/47/31 5/53/28
f 16/47/31 15/49/32 14/22/17
f 25/54/27 9/55/27 8/56/34
f 20/57/10 31/42/27 29/58/27
f 36/33/23 35/40/26 7/28/21
f 15/49/32 18/48/31 20/59/10
f 9/55/16 26/60/35 28/44/29
f 11/32/11 20/57/10 30/30/22
f 38/16/12 23/3/3 33/2/2
f 36/33/23 7/28/21 37/34/2
f 24/61/5 9/55/16 28/44/29
f 5/43/28 6/31/5 32/41/22
f 21/36/6 8/62/34 10/37/24
f 2/63/19 13/39/25 15/49/32
f 30/30/22 32/41/22 6/31/5
f 20/59/10 2/63/19 15/49/32
f 9/64/16 24/35/5 39/65/2
f 8/56/34 21/46/6 25/54/27
f 6/7/5 5/66/28 4/8/7
f 21/46/6 27/45/30 25/54/27
f 9/55/16 25/54/36 26/60/35
f 18/48/31 19/67/31 20/59/10
f 28/44/29 21/46/6 24/61/5
f 37/34/2 7/28/21 9/64/16
f 3/10/9 11/68/11 6/11/5
f 31/42/27 20/57/10 5/43/28
f 20/57/10 29/58/27 30/30/22
f 3/69/20 4/70/19 2/71/19
f 39/65/2 37/34/2 9/64/16
f 24/35/5 40/17/13 39/65/2
f 4/24/19 5/53/28 16/47/31
f 17/52/31 20/59/10 19/67/31
f 3/69/20 1/72/20 4/70/19
f 17/52/31 5/53/28 20/59/10
f 16/47/31 14/22/17 4/24/19
f 13/39/25 2/63/19 4/24/19
g structure-yellow-high.001_structure-yellow-high.001_dark.032
usemtl dark.032
f 41/73/37 45/74/38 43/75/39
f 28/76/29 51/77/40 27/78/30
f 28/79/41 26/80/35 47/81/42
f 26/82/35 55/83/43 47/84/42
f 41/73/37 44/85/44 45/74/38
f 50/86/27 52/87/45 53/88/38
f 31/89/46 43/90/39 29/91/46
f 55/92/43 27/93/30 51/94/40
f 42/95/47 31/96/48 32/97/48
f 28/79/41 47/81/42 48/98/49
f 49/99/50 53/100/38 55/101/43
f 52/102/45 47/103/42 55/104/43
f 42/105/47 46/106/49 54/107/51
f 49/108/7 48/109/52 50/110/7
f 26/82/35 25/111/36 55/83/43
f 55/92/43 25/112/36 27/93/30
f 54/113/33 46/114/53 43/115/39
f 52/116/2 50/117/2 48/118/49
f 52/102/45 55/104/43 53/119/38
f 56/120/5 44/121/44 41/122/37
f 28/76/29 48/123/52 51/77/40
f 31/89/46 41/124/37 43/90/39
f 45/125/38 56/126/5 54/127/51
f 54/113/33 43/115/39 45/128/38
f 49/99/50 55/101/43 51/129/40
f 56/120/5 41/122/37 42/130/47
f 50/86/27 53/88/38 49/131/50
f 45/125/38 44/132/44 56/126/5
f 42/105/47 54/107/51 56/133/5
f 46/134/49 42/135/47 32/136/22
f 52/116/2 48/118/49 47/137/42
f 42/95/47 41/138/37 31/96/48
f 46/134/49 32/136/22 30/139/22
f 46/140/53 30/141/54 29/142/54
f 49/108/7 51/143/40 48/109/52
f 46/140/53 29/142/54 43/144/39
g structure-yellow-high.001_structure-yellow-high.001_striping.018
usemtl striping.018
f 17/145/55 39/146/56 40/147/13
f 34/148/1 14/149/17 33/150/7
f 34/148/1 12/151/18 14/149/17
f 16/152/57 17/153/55 40/154/13
f 13/155/25 34/156/1 35/157/26
f 19/158/58 37/159/59 39/160/56
f 16/152/57 40/154/13 38/161/12
f 16/162/57 37/163/59 18/164/59
f 36/165/23 13/166/25 35/167/26
f 13/155/25 12/168/18 34/156/1
f 33/169/27 15/170/32 36/171/27
f 19/158/58 18/172/59 37/159/59
f 16/162/57 38/173/12 37/163/59
f 36/165/23 15/174/32 13/166/25
f 33/169/27 14/175/17 15/170/32
f 17/145/55 19/176/58 39/146/56
