# Blender v2.93.10 OBJ File: 'untitled.blend'
# www.blender.org
mtllib fridge.mtl
o kitchenFridge
v 0.215000 0.000000 -0.120969
v 0.215000 -0.000000 0.120965
v -0.215000 -0.000000 0.120965
v -0.215000 0.000000 -0.120969
v 0.215000 0.920000 0.120965
v 0.215000 0.920000 -0.140969
v -0.215000 0.920000 -0.140969
v -0.215000 0.920000 0.120965
v 0.215000 0.059980 -0.140969
v 0.215000 0.059980 -0.120969
v 0.137071 0.077929 0.120965
v 0.137071 0.615673 0.120965
v -0.137071 0.615673 0.120965
v -0.137071 0.077929 0.120965
v -0.215000 0.059980 -0.120969
v -0.215000 0.059980 -0.140969
v 0.188156 0.716824 0.089031
v -0.188156 0.716824 0.089031
v -0.188156 0.893156 0.089031
v 0.188156 0.893156 0.089031
v 0.188156 0.893156 -0.140969
v -0.188156 0.893156 -0.140969
v 0.188156 0.086824 0.089031
v 0.188156 0.086824 -0.140969
v -0.188156 0.086824 -0.140969
v -0.188156 0.086824 0.089031
v -0.188156 0.689980 0.089031
v 0.188156 0.689980 0.089031
v 0.188156 0.716824 -0.110969
v -0.188156 0.716824 -0.110969
v -0.188156 0.689980 -0.110969
v 0.188156 0.689980 -0.110969
vt 0.000000 1.574803
vt 0.000000 11.099760
vt -16.929131 11.099760
vt -16.929131 1.574803
vt 0.000000 11.099760
vt 0.000000 0.787402
vt 16.929131 0.787402
vt -3.068075 3.068075
vt -16.929131 0.000000
vt 0.000000 0.000000
vt 0.000000 36.220470
vt -3.068075 24.239080
vt -13.861060 3.068075
vt -16.929131 36.220470
vt 1.574803 2.361418
vt 1.574803 0.000000
vt 11.099760 0.000000
vt 11.099760 36.220470
vt 0.787402 36.220470
vt 0.787402 2.361418
vt 16.929131 2.361418
vt 0.000000 2.361418
vt 0.000000 0.000000
vt 0.000000 0.787402
vt 0.000000 1.574803
vt -16.929131 1.574803
vt 15.872280 35.163620
vt 1.056858 35.163620
vt 1.056858 28.221420
vt 15.872280 3.418275
vt 0.000000 2.361418
vt 16.929131 2.361418
vt 16.929131 36.220470
vt 15.872280 35.163620
vt 1.056858 35.163620
vt 1.056858 3.418275
vt 0.000000 36.220470
vt -1.056858 28.221420
vt -15.872280 28.221420
vt -15.872280 27.164570
vt 1.056858 9.842520
vt 1.056858 1.968504
vt 15.872280 1.968504
vt 15.872280 9.842520
vt 15.872280 27.164570
vt 1.056858 27.164570
vt 1.056858 3.418275
vt -9.842520 28.221420
vt -1.968504 27.164570
vt -9.842520 27.164570
vt -9.842520 35.163620
vt -1.968504 28.221420
vt -0.787402 3.418275
vt 1.968504 28.221420
vt 9.842520 28.221420
vt 9.842520 35.163620
vt 1.968504 27.164570
vt 0.787402 35.163620
vt 0.787402 3.418275
vt 9.842520 3.418275
vt 9.842520 27.164570
vt 1.056858 27.164570
vt 15.872280 27.164570
vt 15.872280 28.221420
vt 16.929131 11.099760
vt -0.787402 2.361418
vt -0.787402 36.220470
vt -11.099760 36.220470
vt -1.574803 2.361418
vt -1.574803 0.000000
vt -11.099760 0.000000
vt -13.861060 24.239080
vt 16.929131 0.000000
vt -16.929131 0.787402
vt 15.872280 28.221420
vt -1.056858 0.787402
vt -1.056858 9.842520
vt -15.872280 9.842520
vt -15.872280 0.787402
vt 1.056858 9.842520
vt 1.056858 0.787402
vt 15.872280 0.787402
vt 15.872280 9.842520
vt -1.056858 27.164570
vt 15.872280 3.418275
vt -0.787402 35.163620
vt -9.842520 3.418275
vt 1.056858 28.221420
vt -1.056858 1.968504
vt -1.056858 9.842520
vt -15.872280 9.842520
vt -15.872280 1.968504
vn 0.0000 -1.0000 -0.0000
vn 0.0000 1.0000 0.0000
vn 0.0000 -0.0000 1.0000
vn -1.0000 0.0000 0.0000
vn 0.0000 0.0000 -1.0000
vn 0.7071 -0.0000 0.7071
vn -0.7071 -0.0000 0.7071
vn 1.0000 -0.0000 0.0000
g kitchenFridge_kitchenFridge_metalLight.013
usemtl metalLight.013
s 1
f 1/1/1 2/2/1 3/3/1
f 3/3/1 4/4/1 1/1/1
f 5/5/2 6/6/2 7/7/2
f 11/8/3 3/9/3 2/10/3
f 5/11/3 12/12/3 11/8/3
f 14/13/3 8/14/3 3/9/3
f 15/15/4 4/16/4 3/17/4
f 15/15/4 8/18/4 7/19/4
f 7/19/4 16/20/4 15/15/4
f 15/21/5 10/22/5 1/23/5
f 9/24/1 10/25/1 15/26/1
f 19/27/5 20/28/5 17/29/5
f 25/30/5 9/31/5 16/32/5
f 7/33/5 22/34/5 25/30/5
f 7/33/5 21/35/5 22/34/5
f 24/36/5 6/37/5 9/31/5
f 17/38/6 18/39/7 27/40/7
f 17/41/2 29/42/2 30/43/2
f 30/43/2 18/44/2 17/41/2
f 27/45/5 28/46/5 23/47/5
f 18/48/7 31/49/4 27/50/7
f 19/51/8 18/48/8 30/52/8
f 25/53/8 30/52/8 31/49/8
f 29/54/4 17/55/4 20/56/4
f 32/57/4 21/58/4 24/59/4
f 23/60/4 28/61/4 32/57/4
f 29/54/8 28/61/6 32/57/8
f 32/62/5 31/63/5 30/64/5
f 7/7/2 8/65/2 5/5/2
f 9/66/8 6/67/8 5/68/8
f 5/68/8 10/69/8 9/66/8
f 5/68/8 1/70/8 10/69/8
f 5/68/8 2/71/8 1/70/8
f 2/10/3 5/11/3 11/8/3
f 5/11/3 13/72/3 12/12/3
f 3/9/3 11/8/3 14/13/3
f 14/13/3 13/72/3 8/14/3
f 13/72/3 5/11/3 8/14/3
f 15/15/4 3/17/4 8/18/4
f 1/23/5 4/73/5 15/21/5
f 15/26/1 16/74/1 9/24/1
f 17/29/5 18/75/5 19/27/5
f 21/76/1 20/77/1 19/78/1
f 19/78/1 22/79/1 21/76/1
f 23/80/2 24/81/2 25/82/2
f 25/82/2 26/83/2 23/80/2
f 16/32/5 7/33/5 25/30/5
f 9/31/5 25/30/5 24/36/5
f 24/36/5 21/35/5 6/37/5
f 21/35/5 7/33/5 6/37/5
f 27/40/7 28/84/6 17/38/6
f 23/47/5 26/85/5 27/45/5
f 31/49/4 18/48/7 30/52/4
f 22/86/8 19/51/8 30/52/8
f 30/52/8 25/53/8 22/86/8
f 31/49/8 26/87/8 25/53/8
f 31/49/8 27/50/8 26/87/8
f 29/54/4 20/56/4 21/58/4
f 21/58/4 32/57/4 29/54/4
f 24/59/4 23/60/4 32/57/4
f 28/61/6 29/54/8 17/55/6
f 30/64/5 29/88/5 32/62/5
f 32/89/1 28/90/1 27/91/1
f 27/91/1 31/92/1 32/89/1
g kitchenFridge_kitchenFridge_metalDark.014
usemtl metalDark.014
f 14/13/3 11/8/3 12/12/3
f 12/12/3 13/72/3 14/13/3
o doorFreezer.001
v 0.147186 0.744372 -0.110969
v -0.188156 0.703402 -0.110969
v 0.188156 0.703402 -0.110969
v 0.188156 0.893156 -0.110969
v 0.147186 0.852186 -0.110969
v -0.147186 0.852186 -0.110969
v -0.147186 0.744372 -0.110969
v -0.188156 0.893156 -0.110969
v 0.188156 0.893156 -0.160969
v -0.188156 0.893156 -0.160969
v 0.188156 0.703402 -0.160969
v -0.188156 0.703402 -0.160969
v -0.168156 0.723402 -0.160969
v -0.168156 0.743402 -0.160969
v -0.088156 0.743402 -0.160969
v -0.088156 0.723402 -0.160969
v -0.133939 0.749223 -0.090969
v 0.133940 0.749223 -0.090969
v 0.133940 0.847335 -0.090969
v -0.133939 0.847335 -0.090969
v -0.088156 0.743402 -0.170969
v -0.168156 0.743402 -0.170969
v -0.168156 0.723402 -0.170969
v -0.088156 0.723402 -0.170969
vt -1.612980 1.612980
vt -14.815420 0.000000
vt 0.000000 0.000000
vt 0.000000 7.470619
vt -1.612980 5.857638
vt -13.202440 5.857638
vt -13.202440 1.612980
vt -14.815420 7.470619
vt 0.000000 0.984252
vt 0.000000 -0.984252
vt 14.815420 -0.984252
vt 14.815420 0.984252
vt 0.000000 -0.984252
vt 0.000000 0.984252
vt -14.815420 0.984252
vt -14.815420 -0.984252
vt 14.028020 0.787402
vt 0.000000 0.000000
vt 14.815420 0.000000
vt 14.815420 7.470619
vt 14.028020 1.574803
vt 10.878410 1.574803
vt 10.878410 0.787402
vt 0.000000 7.470619
vt -0.984252 7.470619
vt -0.984252 0.000000
vt 0.984252 0.000000
vt 0.984252 7.470619
vt 0.984252 0.000000
vt 0.984252 7.470619
vt -0.984252 7.470619
vt -0.984252 0.000000
vt -12.680910 1.803990
vt -2.134506 1.803990
vt -2.134506 5.666629
vt -12.680910 5.666629
vt -13.202440 1.336763
vt -1.612980 1.336763
vt -2.134506 2.147001
vt -12.680910 2.147001
vt -1.711269 1.612980
vt -1.711269 5.857638
vt -2.655721 5.666629
vt -2.655721 1.803990
vt -2.134506 -0.385840
vt -1.612980 0.424398
vt -13.202440 0.424398
vt -12.680910 -0.385840
vt -6.469790 5.857638
vt -6.469790 1.612980
vt -5.525338 1.803990
vt -5.525338 5.666629
vt 14.028020 -0.984252
vt 10.878410 -0.984252
vt 10.878410 -1.377953
vt 14.028020 -1.377953
vt -1.377953 1.574803
vt -1.377953 0.787402
vt -0.984252 0.787402
vt -0.984252 1.574803
vt 1.377953 0.787402
vt 1.377953 1.574803
vt 0.984252 1.574803
vt 0.984252 0.787402
vt -10.878410 -1.377953
vt -10.878410 -0.984252
vt -14.028020 -0.984252
vt -14.028020 -1.377953
vt 10.878410 0.787402
vt 14.028020 0.787402
vt 14.028020 1.574803
vt 10.878410 1.574803
vn 0.0000 -0.0000 1.0000
vn 0.0000 1.0000 0.0000
vn 0.0000 -1.0000 0.0000
vn -0.0000 0.0000 -1.0000
vn -1.0000 0.0000 0.0000
vn 1.0000 0.0000 0.0000
vn 0.0000 -0.9718 0.2357
vn 0.0000 -0.9718 0.2358
vn 0.8337 -0.0000 0.5522
vn 0.0000 0.9718 0.2357
vn -0.8337 -0.0000 0.5522
g doorFreezer.001_doorFreezer.001_metalLight.013
usemtl metalLight.013
s 1
f 33/93/9 34/94/9 35/95/9
f 35/95/9 36/96/9 33/93/9
f 36/96/9 37/97/9 33/93/9
f 36/96/9 38/98/9 37/97/9
f 34/94/9 33/93/9 39/99/9
f 39/99/9 40/100/9 34/94/9
f 39/99/9 38/98/9 40/100/9
f 38/98/9 36/96/9 40/100/9
f 36/101/10 41/102/10 42/103/10
f 42/103/10 40/104/10 36/101/10
f 43/105/11 35/106/11 34/107/11
f 34/107/11 44/108/11 43/105/11
f 45/109/12 43/110/12 44/111/12
f 44/111/12 42/112/12 45/109/12
f 42/112/12 46/113/12 45/109/12
f 42/112/12 47/114/12 46/113/12
f 43/110/12 45/109/12 48/115/12
f 48/115/12 41/116/12 43/110/12
f 48/115/12 47/114/12 41/116/12
f 47/114/12 42/112/12 41/116/12
f 42/117/13 44/118/13 34/119/13
f 34/119/13 40/120/13 42/117/13
f 43/121/14 41/122/14 36/123/14
f 36/123/14 35/124/14 43/121/14
f 49/125/9 50/126/9 51/127/9
f 51/127/9 52/128/9 49/125/9
f 39/129/15 33/130/16 50/131/16
f 50/131/16 49/132/15 39/129/15
f 33/133/17 37/134/17 51/135/17
f 51/135/17 50/136/17 33/133/17
f 51/137/18 37/138/18 38/139/18
f 38/139/18 52/140/18 51/137/18
f 38/141/19 39/142/19 49/143/19
f 49/143/19 52/144/19 38/141/19
g doorFreezer.001_doorFreezer.001_metal.024
usemtl metal.024
f 46/145/10 47/146/10 53/147/10
f 53/147/10 54/148/10 46/145/10
f 54/149/13 55/150/13 45/151/13
f 45/151/13 46/152/13 54/149/13
f 56/153/14 53/154/14 47/155/14
f 47/155/14 48/156/14 56/153/14
f 56/157/11 48/158/11 45/159/11
f 45/159/11 55/160/11 56/157/11
f 56/161/12 55/162/12 54/163/12
f 54/163/12 53/164/12 56/161/12
o doorFridge.001
v -0.168156 0.663402 -0.160969
v 0.188156 0.086824 -0.160969
v -0.188156 0.086824 -0.160969
v -0.188156 0.703402 -0.160969
v -0.168156 0.683402 -0.160969
v -0.088156 0.683402 -0.160969
v -0.088156 0.663402 -0.160969
v 0.188156 0.703402 -0.160969
v 0.188156 0.703402 -0.110969
v -0.188156 0.703402 -0.110969
v 0.147186 0.127794 -0.110969
v -0.188156 0.086824 -0.110969
v 0.188156 0.086824 -0.110969
v 0.147186 0.200325 -0.110969
v 0.147186 0.249901 -0.110969
v 0.147186 0.370325 -0.110969
v 0.147186 0.419901 -0.110969
v 0.147186 0.540325 -0.110969
v 0.147186 0.589901 -0.110969
v 0.147186 0.662432 -0.110969
v -0.147186 0.662432 -0.110969
v -0.147186 0.127794 -0.110969
v -0.147186 0.200325 -0.110969
v -0.147186 0.249901 -0.110969
v -0.147186 0.370325 -0.110969
v -0.147186 0.419901 -0.110969
v -0.147186 0.540325 -0.110969
v -0.147186 0.589901 -0.110969
v 0.147186 0.127794 -0.130969
v -0.147186 0.127794 -0.130969
v -0.147186 0.200325 -0.130969
v -0.147186 0.370325 -0.130969
v -0.147186 0.540325 -0.130969
v -0.147186 0.662432 -0.130969
v 0.147186 0.662432 -0.130969
v 0.147186 0.200325 -0.130969
v 0.147186 0.370325 -0.130969
v 0.147186 0.540325 -0.130969
v -0.088156 0.683402 -0.170969
v -0.168156 0.683402 -0.170969
v -0.088156 0.663402 -0.170969
v -0.168156 0.663402 -0.170969
v -0.147186 0.200325 -0.070969
v 0.147186 0.200325 -0.070969
v 0.147186 0.249901 -0.070969
v -0.147186 0.249901 -0.070969
v 0.147186 0.589901 -0.070969
v 0.147186 0.540325 -0.070969
v -0.147186 0.540325 -0.070969
v -0.147186 0.589901 -0.070969
v -0.147186 0.370325 -0.070969
v -0.147186 0.419901 -0.070969
v 0.147186 0.370325 -0.070969
v 0.147186 0.419901 -0.070969
vt 14.028020 22.699921
vt 0.000000 0.000000
vt 14.815420 0.000000
vt 14.815420 24.274719
vt 14.028020 23.487320
vt 10.878410 23.487320
vt 10.878410 22.699921
vt 0.000000 24.274719
vt 0.000000 0.984252
vt 0.000000 -0.984252
vt 14.815420 -0.984252
vt 14.815420 0.984252
vt -1.612980 1.612980
vt -14.815420 0.000000
vt 0.000000 0.000000
vt 0.000000 24.274719
vt -1.612980 4.468540
vt -1.612980 6.420354
vt -1.612980 11.161450
vt -1.612980 13.113270
vt -1.612980 17.854370
vt -1.612980 19.806179
vt -1.612980 22.661739
vt -13.202440 22.661739
vt -13.202440 1.612980
vt -14.815420 24.274719
vt -13.202440 4.468540
vt -13.202440 6.420354
vt -13.202440 11.161450
vt -13.202440 13.113270
vt -13.202440 17.854370
vt -13.202440 19.806179
vt 0.000000 -0.984252
vt 0.000000 0.984252
vt -14.815420 0.984252
vt -14.815420 -0.984252
vt 0.984252 0.000000
vt 0.984252 24.274719
vt -0.984252 24.274719
vt -0.984252 0.000000
vt -0.984252 24.274719
vt -0.984252 0.000000
vt 0.984252 0.000000
vt 0.984252 24.274719
vt 1.612980 0.984252
vt 1.612980 0.196850
vt 13.202440 0.196850
vt 13.202440 0.984252
vt -0.196850 1.612980
vt -0.196850 4.468540
vt -0.984252 4.468540
vt -0.984252 1.612980
vt -0.984252 11.161450
vt -0.196850 11.161450
vt -0.984252 6.420354
vt -0.984252 17.854370
vt -0.196850 17.854370
vt -0.984252 13.113270
vt -0.984252 22.661739
vt -0.196850 22.661739
vt -0.984252 19.806179
vt -1.612980 0.196850
vt -1.612980 0.984252
vt -13.202440 0.984252
vt -13.202440 0.196850
vt -13.202440 1.612980
vt -1.612980 1.612980
vt -1.612980 4.468540
vt -13.202440 4.468540
vt -1.612980 11.161450
vt -13.202440 11.161450
vt -1.612980 17.854370
vt -13.202440 17.854370
vt -1.612980 22.661739
vt -13.202440 22.661739
vt 0.196850 4.468540
vt 0.196850 1.612980
vt 0.984252 1.612980
vt 0.984252 4.468540
vt 0.196850 11.161450
vt 0.984252 11.161450
vt 0.196850 17.854370
vt 0.984252 17.854370
vt 0.984252 13.113270
vt 0.984252 6.420354
vt 0.196850 22.661739
vt 0.984252 22.661739
vt 0.984252 19.806179
vt 14.028020 -0.984252
vt 10.878410 -0.984252
vt 10.878410 -1.377953
vt 14.028020 -1.377953
vt 10.878410 22.699921
vt 14.028020 22.699921
vt 14.028020 23.487320
vt 10.878410 23.487320
vt -10.878410 -1.377953
vt -10.878410 -0.984252
vt -14.028020 -0.984252
vt -14.028020 -1.377953
vt -1.377953 23.487320
vt -1.377953 22.699921
vt -0.984252 22.699921
vt -0.984252 23.487320
vt 1.377953 22.699921
vt 1.377953 23.487320
vt 0.984252 23.487320
vt 0.984252 22.699921
vt -1.612980 6.420354
vt -13.202440 6.420354
vt -13.202440 4.468540
vt -1.612980 4.468540
vt -1.612980 0.984252
vt -1.612980 2.559055
vt -13.202440 2.559055
vt -1.612980 0.196850
vt -13.202440 0.984252
vt -13.202440 0.196850
vt -0.984252 4.468540
vt -0.984252 6.420354
vt -2.559055 6.420354
vt -2.559055 4.468540
vt 0.984252 6.420354
vt 0.984252 4.468540
vt 2.559055 4.468540
vt 2.559055 6.420354
vt -0.984252 17.854370
vt -0.984252 19.806179
vt -2.559055 19.806179
vt -2.559055 17.854370
vt 0.984252 19.806179
vt 0.984252 17.854370
vt 2.559055 17.854370
vt 2.559055 19.806179
vt -13.202440 17.854370
vt -1.612980 17.854370
vt -1.612980 19.806179
vt -13.202440 19.806179
vt 0.984252 13.113270
vt 0.984252 11.161450
vt 2.559055 11.161450
vt 2.559055 13.113270
vt -13.202440 11.161450
vt -1.612980 11.161450
vt -1.612980 13.113270
vt -13.202440 13.113270
vt -13.202440 2.559055
vt -13.202440 0.196850
vt -1.612980 0.196850
vt -1.612980 0.984252
vt -1.612980 2.559055
vt -13.202440 0.984252
vt -2.559055 13.113270
vt -2.559055 11.161450
vt -0.984252 11.161450
vt -0.984252 13.113270
vt -13.202440 2.559055
vt -1.612980 0.196850
vt -1.612980 0.984252
vt -13.202440 0.196850
vt -1.612980 2.559055
vt -13.202440 0.984252
vn 0.0000 0.0000 -1.0000
vn 0.0000 1.0000 0.0000
vn -0.0000 -0.0000 1.0000
vn 0.0000 -1.0000 -0.0000
vn 1.0000 0.0000 0.0000
vn -1.0000 0.0000 0.0000
vn 0.1969 -0.2701 0.9425
vn 0.5774 -0.5774 0.5774
vn 0.4472 -0.8944 0.0000
vn 0.0000 0.0000 0.0000
vn 0.1913 0.1950 0.9620
vn 0.7071 -0.0000 0.7071
vn 0.8166 -0.5449 0.1903
vn -0.8369 -0.3870 0.3870
vn -0.7071 -0.0000 0.7071
vn 0.1950 -0.5449 0.8155
vn -0.2421 -0.7317 0.6372
vn 0.5773 -0.5774 0.5774
g doorFridge.001_doorFridge.001_metalLight.013
usemtl metalLight.013
s 1
f 57/165/20 58/166/20 59/167/20
f 59/167/20 60/168/20 57/165/20
f 60/168/20 61/169/20 57/165/20
f 60/168/20 62/170/20 61/169/20
f 58/166/20 57/165/20 63/171/20
f 63/171/20 64/172/20 58/166/20
f 63/171/20 62/170/20 64/172/20
f 62/170/20 60/168/20 64/172/20
f 65/173/21 64/174/21 60/175/21
f 60/175/21 66/176/21 65/173/21
f 67/177/22 68/178/22 69/179/22
f 69/179/22 65/180/22 67/177/22
f 65/180/22 70/181/22 67/177/22
f 65/180/22 71/182/22 70/181/22
f 65/180/22 72/183/22 71/182/22
f 65/180/22 73/184/22 72/183/22
f 65/180/22 74/185/22 73/184/22
f 65/180/22 75/186/22 74/185/22
f 65/180/22 76/187/22 75/186/22
f 65/180/22 77/188/22 76/187/22
f 68/178/22 67/177/22 78/189/22
f 78/189/22 66/190/22 68/178/22
f 77/188/22 65/180/22 66/190/22
f 78/189/22 79/191/22 66/190/22
f 79/191/22 80/192/22 66/190/22
f 80/192/22 81/193/22 66/190/22
f 81/193/22 82/194/22 66/190/22
f 82/194/22 83/195/22 66/190/22
f 83/195/22 84/196/22 66/190/22
f 84/196/22 77/188/22 66/190/22
f 58/197/23 69/198/23 68/199/23
f 68/199/23 59/200/23 58/197/23
f 58/201/24 64/202/24 65/203/24
f 65/203/24 69/204/24 58/201/24
f 60/205/25 59/206/25 68/207/25
f 68/207/25 66/208/25 60/205/25
f 67/209/21 85/210/21 86/211/21
f 86/211/21 78/212/21 67/209/21
f 86/213/24 87/214/24 79/215/24
f 79/215/24 78/216/24 86/213/24
f 81/217/24 79/215/24 87/214/24
f 87/214/24 88/218/24 81/217/24
f 81/217/24 80/219/24 79/215/24
f 83/220/24 81/217/24 88/218/24
f 88/218/24 89/221/24 83/220/24
f 83/220/24 82/222/24 81/217/24
f 77/223/24 83/220/24 89/221/24
f 89/221/24 90/224/24 77/223/24
f 77/223/24 84/225/22 83/220/24
f 91/226/23 76/227/23 77/228/23
f 77/228/23 90/229/23 91/226/23
f 86/230/22 85/231/22 92/232/22
f 92/232/22 87/233/22 86/230/22
f 87/233/22 92/232/22 93/234/22
f 93/234/22 88/235/22 87/233/22
f 88/235/22 93/234/22 94/236/22
f 94/236/22 89/237/22 88/235/22
f 89/237/22 94/236/22 91/238/22
f 91/238/22 90/239/22 89/237/22
f 92/240/25 85/241/25 67/242/25
f 67/242/25 70/243/25 92/240/25
f 93/244/25 92/240/25 70/243/25
f 70/243/25 72/245/25 93/244/25
f 94/246/25 93/244/25 72/245/25
f 72/245/25 74/247/25 94/246/25
f 72/245/25 73/248/25 74/247/25
f 70/243/25 71/249/22 72/245/25
f 91/250/25 94/246/25 74/247/25
f 74/247/25 76/251/25 91/250/25
f 74/247/25 75/252/22 76/251/25
g doorFridge.001_doorFridge.001_metal.024
usemtl metal.024
f 61/253/21 62/254/21 95/255/21
f 95/255/21 96/256/21 61/253/21
f 97/257/20 98/258/20 96/259/20
f 96/259/20 95/260/20 97/257/20
f 97/261/23 63/262/23 57/263/23
f 57/263/23 98/264/23 97/261/23
f 96/265/25 98/266/25 57/267/25
f 57/267/25 61/268/25 96/265/25
f 97/269/24 95/270/24 62/271/24
f 62/271/24 63/272/24 97/269/24
g doorFridge.001_doorFridge.001_glass.008
usemtl glass.008
f 101/273/22 102/274/22 99/275/26
f 99/275/26 100/276/27 101/273/22
f 70/277/28 100/278/27 99/279/26
f 99/279/26 92/280/23 70/277/28
f 99/279/26 79/281/29 87/282/30
f 99/279/26 87/282/30 92/280/23
f 70/283/28 71/284/24 101/285/24
f 101/285/24 100/286/27 70/283/28
f 80/287/25 79/288/25 99/289/25
f 99/289/25 102/290/25 80/287/25
f 74/291/28 75/292/24 103/293/31
f 103/293/31 104/294/27 74/291/28
f 84/295/25 83/296/32 105/297/33
f 105/297/33 106/298/34 84/295/25
f 105/299/33 104/300/27 103/301/31
f 103/301/31 106/302/34 105/299/33
f 82/303/25 81/304/35 107/305/36
f 107/305/36 108/306/34 82/303/25
f 107/307/36 109/308/37 110/309/22
f 110/309/22 108/310/34 107/307/36
f 107/311/36 88/312/30 93/313/23
f 72/314/28 109/315/37 107/311/36
f 107/311/36 93/313/23 72/314/28
f 107/311/36 81/316/35 88/312/30
f 110/317/24 109/318/37 72/319/28
f 72/319/28 73/320/24 110/317/24
f 105/321/33 94/322/23 74/323/28
f 105/321/33 89/324/30 94/322/23
f 74/323/28 104/325/27 105/321/33
f 105/321/33 83/326/32 89/324/30
