# Blender v2.93.10 OBJ File: 'untitled.blend'
# www.blender.org
mtllib high lamp.mtl
o lampRoundFloor
v 0.059999 0.000000 -0.060001
v 0.059999 -0.000000 0.059999
v -0.060001 -0.000000 0.059999
v -0.060001 0.000000 -0.060001
v 0.007258 0.020000 -0.007260
v 0.047999 0.020000 0.047999
v 0.047999 0.020000 -0.048001
v -0.048001 0.020000 -0.048001
v -0.007259 0.020000 -0.007260
v -0.007259 0.020000 0.007257
v 0.007258 0.020000 0.007257
v -0.048001 0.020000 0.047999
v 0.009073 0.760750 0.009072
v 0.009073 0.760750 -0.009074
v -0.009074 0.760750 -0.009074
v -0.009074 0.760750 0.009072
v -0.000001 0.681500 0.044800
v -0.038800 0.681500 0.022400
v -0.038800 0.860000 0.022400
v -0.000001 0.860000 0.044800
v 0.038799 0.860000 -0.022402
v 0.038799 0.681500 -0.022402
v 0.038799 0.681500 0.022400
v 0.038799 0.860000 0.022400
v -0.038800 0.681500 -0.022402
v -0.038800 0.860000 -0.022402
v -0.000001 0.681500 -0.044803
v -0.000001 0.860000 -0.044803
v 0.076019 0.681500 0.043889
v -0.000001 0.681500 0.087779
v -0.076020 0.681500 0.043889
v 0.076019 0.681500 -0.043891
v -0.000001 0.681500 -0.087781
v -0.076020 0.681500 -0.043891
v 0.053973 0.860000 0.031161
v 0.053973 0.860000 -0.031163
v -0.000001 0.860000 -0.062325
v -0.053975 0.860000 -0.031163
v -0.000001 0.860000 0.062323
v -0.053975 0.860000 0.031161
vt 0.000000 0.000000
vt 0.000000 4.724410
vt -4.724410 4.724410
vt -4.724410 0.000000
vt 4.251968 0.472441
vt 2.647973 2.076436
vt 2.076436 2.076436
vt 2.647973 2.647973
vt 2.076436 2.647973
vt 4.251968 4.251968
vt 0.472441 4.251968
vt 2.004994 2.719415
vt 2.004994 2.004994
vt 2.719415 2.004994
vt 2.719415 2.719415
vt 4.724410 0.000000
vt 4.251968 0.918260
vt 0.472441 0.918260
vt -2.004994 29.957359
vt -2.719415 29.957359
vt -2.647973 0.793886
vt 2.076436 0.782313
vt 2.647973 0.782313
vt 2.719415 29.945789
vt -0.472441 -1.512429
vt -4.251968 -1.512429
vt -4.724410 -2.430689
vt 2.719415 29.957359
vt 2.004994 29.957359
vt 2.076436 0.793886
vt 2.647973 0.793886
vt -4.724410 0.000000
vt -0.472441 0.918260
vt -4.251968 0.918260
vt 0.472441 0.472441
vt 0.472441 -1.512429
vt -0.000000 -2.430689
vt 4.724410 -2.430689
vt 4.251968 -1.512429
vt -2.076436 0.793886
vt -2.076436 0.782313
vt -2.004994 29.945789
vt -2.719415 29.945789
vt -2.647973 0.782313
vt 2.004994 29.945789
vt 0.000000 -2.430689
vt -3.244127 33.858269
vt -3.244127 26.830709
vt -1.480282 26.830709
vt 2.344909 26.830709
vt 4.108754 26.830709
vt 4.108754 33.858269
vt 2.344909 33.858269
vt -2.344909 33.858269
vt -4.108754 33.858269
vt -4.108754 26.830709
vt -1.746549 26.830709
vt 0.017296 26.830709
vt 0.017296 33.858269
vt -1.746549 33.858269
vt -2.362205 5.818110
vt -2.362205 4.126050
vt -0.834670 3.244127
vt -5.355107 4.090158
vt -3.889739 1.480282
vt -3.889739 3.244127
vt 0.630697 0.634252
vt 0.630697 4.090158
vt -0.834670 1.480282
vt 0.834670 1.480282
vt 0.237244 3.589051
vt 0.237244 1.135358
vt 2.362205 -0.091488
vt 4.487165 1.135358
vt 2.362205 0.598360
vt 3.889739 1.480282
vt -0.863326 26.657061
vt 2.592580 26.657061
vt 2.091473 33.738010
vt -1.135358 33.632030
vt -3.589051 33.632030
vt -4.090158 26.551081
vt 0.362220 32.946960
vt -2.091473 32.946960
vt -2.592580 25.866011
vt 4.453678 33.448471
vt 1.999985 33.448471
vt 1.498879 26.367519
vt -0.017296 26.830709
vt 1.746549 26.830709
vt 1.746549 33.858269
vt -0.017296 33.858269
vt 1.480282 33.858269
vt 1.480282 26.830709
vt 3.244127 26.830709
vt 3.244127 33.858269
vt -1.480282 33.858269
vt -2.344909 26.830709
vt -2.362205 -1.093701
vt -2.362205 0.598360
vt -5.355107 0.634252
vt 3.889739 3.244127
vt 0.834670 3.244127
vt 2.362205 4.815897
vt 2.362205 4.126050
vt 4.487165 3.589051
vt -0.362220 33.738010
vt -0.634252 26.551081
vt 1.135358 33.052940
vt 0.634252 25.971991
vt 4.090158 25.971991
vt 3.589051 33.052940
vt 0.863326 25.866011
vt 4.954784 26.367519
vt -4.954784 26.155560
vt -1.498879 26.155560
vt -1.999985 33.236511
vt -4.453678 33.236511
vn 0.0000 -1.0000 -0.0000
vn -0.0000 1.0000 0.0000
vn 0.0000 0.5145 -0.8575
vn 0.0000 -0.0024 1.0000
vn 0.0000 -0.0024 -1.0000
vn 0.0000 0.5145 0.8575
vn -1.0000 -0.0024 0.0000
vn 0.8575 0.5145 0.0000
vn -0.8575 0.5145 0.0000
vn 1.0000 -0.0024 0.0000
vn 1.0000 -0.0000 0.0000
vn -0.5000 0.0000 -0.8660
vn 0.5000 -0.0000 0.8660
vn -0.5000 -0.0000 0.8660
vn 0.4962 0.1226 -0.8595
vn 0.9925 0.1226 0.0000
vn -0.4962 0.1226 0.8595
vn -0.4962 0.1226 -0.8595
vn 0.5000 0.0000 -0.8660
vn -1.0000 0.0000 0.0000
vn -0.9925 0.1226 0.0000
vn 0.4962 0.1226 0.8595
g lampRoundFloor_lampRoundFloor_metal.041
usemtl metal.041
s 1
f 1/1/1 2/2/1 3/3/1
f 3/3/1 4/4/1 1/1/1
f 8/5/2 9/6/2 5/7/2
f 8/5/2 10/8/2 9/6/2
f 11/9/2 12/10/2 6/11/2
f 11/9/2 10/8/2 12/10/2
f 13/12/2 14/13/2 15/14/2
f 15/14/2 16/15/2 13/12/2
f 1/1/3 4/16/3 8/17/3
f 8/17/3 7/18/3 1/1/3
f 13/19/4 16/20/4 10/21/4
f 5/22/5 9/23/5 15/24/5
f 6/25/6 12/26/6 3/27/6
f 16/28/7 15/29/7 9/30/7
f 9/30/7 10/31/7 16/28/7
f 2/32/8 1/1/8 7/33/8
f 7/33/8 6/34/8 2/32/8
f 5/7/2 6/11/2 7/35/2
f 7/35/2 8/5/2 5/7/2
f 6/11/2 5/7/2 11/9/2
f 10/8/2 8/5/2 12/10/2
f 8/36/9 4/37/9 3/38/9
f 3/38/9 12/39/9 8/36/9
f 10/21/4 11/40/4 13/19/4
f 5/41/10 14/42/10 13/43/10
f 13/43/10 11/44/10 5/41/10
f 15/24/5 14/45/5 5/22/5
f 3/27/6 2/46/6 6/25/6
g lampRoundFloor_lampRoundFloor_lamp.002
usemtl lamp.002
f 19/47/11 18/48/11 25/49/11
f 23/50/12 17/51/12 20/52/12
f 20/52/12 24/53/12 23/50/12
f 28/54/13 26/55/13 25/56/13
f 27/57/14 22/58/14 21/59/14
f 21/59/14 28/60/14 27/57/14
f 30/61/1 17/62/1 23/63/1
f 31/64/1 25/65/1 18/66/1
f 32/67/1 29/68/1 22/69/1
f 21/70/2 35/71/2 36/72/2
f 37/73/2 38/74/2 28/75/2
f 38/74/2 26/76/2 28/75/2
f 32/77/15 33/78/15 37/79/15
f 36/80/16 35/81/16 29/82/16
f 39/83/17 40/84/17 31/85/17
f 38/86/18 37/87/18 33/88/18
f 17/89/19 18/90/19 19/91/19
f 19/91/19 20/92/19 17/89/19
f 21/93/20 22/94/20 23/95/20
f 23/95/20 24/96/20 21/93/20
f 25/49/11 26/97/11 19/47/11
f 25/56/13 27/98/13 28/54/13
f 23/63/1 29/68/1 30/61/1
f 30/61/1 31/64/1 17/62/1
f 31/64/1 18/66/1 17/62/1
f 29/68/1 23/63/1 22/69/1
f 22/69/1 33/99/1 32/67/1
f 22/69/1 27/100/1 33/99/1
f 27/100/1 34/101/1 33/99/1
f 27/100/1 25/65/1 34/101/1
f 25/65/1 31/64/1 34/101/1
f 36/72/2 37/73/2 21/70/2
f 37/73/2 28/75/2 21/70/2
f 38/74/2 19/102/2 26/76/2
f 35/71/2 21/70/2 24/103/2
f 24/103/2 39/104/2 35/71/2
f 24/103/2 20/105/2 39/104/2
f 20/105/2 19/102/2 39/104/2
f 19/102/2 40/106/2 39/104/2
f 19/102/2 38/74/2 40/106/2
f 37/79/15 36/107/15 32/77/15
f 29/82/16 32/108/16 36/80/16
f 38/109/21 34/110/21 31/111/21
f 31/111/21 40/112/21 38/109/21
f 31/85/17 30/113/17 39/83/17
f 33/88/18 34/114/18 38/86/18
f 30/115/22 29/116/22 35/117/22
f 35/117/22 39/118/22 30/115/22
