# Blender v2.93.10 OBJ File: 'untitled.blend'
# www.blender.org
mtllib keyboard.mtl
o computerKeyboard
v 0.141100 0.000000 -0.059093
v 0.141100 -0.000000 0.059099
v -0.141100 -0.000000 0.059099
v -0.141100 0.000000 -0.059093
v 0.141100 0.027556 0.059099
v 0.141100 0.027556 0.038030
v -0.141100 0.027556 0.038030
v -0.141100 0.027556 0.059099
v 0.122015 0.010612 -0.042524
v 0.141100 0.007127 -0.059093
v -0.141100 0.007127 -0.059093
v -0.055848 0.010612 -0.042524
v -0.076466 0.010612 -0.042524
v -0.055848 0.024071 0.021461
v -0.122016 0.010612 -0.042524
v -0.122016 0.024071 0.021461
v 0.122015 0.024071 0.021461
v -0.076466 0.024071 0.021461
vt 4.653228 -0.000000
vt 4.653228 1.084882
vt 3.823770 1.084882
vt 0.000000 1.084882
vt -11.110240 1.084882
vt -11.110240 0.000000
vt 11.110240 0.000000
vt 11.110240 0.280603
vt 0.000000 0.280603
vt 7.753848 0.724354
vt 0.751358 0.724354
vt 0.000000 0.057757
vt -11.110240 0.000000
vt 0.000000 4.653228
vt -11.110240 4.653228
vt -4.653228 1.084882
vt -4.653228 0.000000
vt -3.823770 1.084882
vt -0.000000 0.000000
vt 11.110240 4.653228
vt 0.000000 4.653228
vt 0.000000 3.823770
vt 7.753848 3.298600
vt 8.565606 3.298600
vt 11.110240 3.965196
vt 10.358880 0.724354
vt 11.110240 0.057757
vt 0.000000 3.965196
vt 0.751358 3.298600
vt 8.565606 0.724354
vt 11.110240 3.823770
vt 0.000000 0.000000
vt 10.358880 3.298600
vt 0.000000 0.280603
vt 0.000000 -0.000000
vn -1.0000 -0.0000 0.0000
vn 0.0000 -0.0000 1.0000
vn 0.0000 0.0000 -1.0000
vn 0.0000 0.9786 -0.2058
vn 0.0000 -1.0000 -0.0000
vn 1.0000 -0.0000 0.0000
vn 0.0000 1.0000 0.0000
g computerKeyboard_computerKeyboard_metalDark.029
usemtl metalDark.029
s 1
f 3/1/1 8/2/1 7/3/1
f 5/4/2 8/5/2 3/6/2
f 4/7/3 11/8/3 10/9/3
f 12/10/4 9/11/4 10/12/4
f 4/13/5 2/14/5 3/15/5
f 5/16/6 2/17/6 6/18/6
f 1/19/6 10/9/6 6/18/6
f 8/20/7 5/21/7 6/22/7
f 14/23/4 18/24/4 7/25/4
f 15/26/4 11/27/4 7/25/4
f 6/28/4 10/12/4 17/29/4
f 6/28/4 17/29/4 14/23/4
f 11/27/4 12/10/4 10/12/4
f 4/7/3 10/9/3 1/19/3
f 11/27/4 15/26/4 13/30/4
f 8/20/7 6/22/7 7/31/7
f 5/4/2 3/6/2 2/32/2
f 13/30/4 12/10/4 11/27/4
f 18/24/4 16/33/4 7/25/4
f 16/33/4 15/26/4 7/25/4
f 7/3/1 11/34/1 4/35/1
f 4/35/1 3/1/1 7/3/1
f 10/12/4 9/11/4 17/29/4
f 14/23/4 12/10/4 13/30/4
f 7/25/4 6/28/4 14/23/4
f 14/23/4 13/30/4 18/24/4
f 4/13/5 1/19/5 2/14/5
f 2/17/6 1/19/6 6/18/6
g computerKeyboard_computerKeyboard_metalMedium.017
usemtl metalMedium.017
f 16/33/4 13/30/4 15/26/4
f 14/23/4 9/11/4 12/10/4
f 14/23/4 17/29/4 9/11/4
f 16/33/4 18/24/4 13/30/4
