# Blender v2.93.10 OBJ File: 'untitled.blend'
# www.blender.org
mtllib laptop.mtl
o laptop.001
v 0.136400 0.000000 -0.076249
v 0.136400 -0.000000 0.085047
v -0.127600 -0.000000 0.085047
v 0.127600 0.000000 -0.085049
v -0.118800 0.000000 -0.085049
v -0.127600 0.000000 -0.076249
v 0.127600 0.013200 -0.085049
v 0.136400 0.013200 -0.076249
v -0.127600 0.013200 -0.076249
v -0.118800 0.013200 -0.085049
v 0.136400 0.148386 0.151423
v 0.136400 0.153776 0.139374
v 0.127600 0.161809 0.142967
v 0.127600 0.156419 0.155017
v -0.109865 0.029389 0.083733
v 0.136400 0.013200 0.076491
v -0.127600 0.013200 0.076491
v -0.127600 0.153776 0.139374
v -0.109865 0.145620 0.135725
v 0.118665 0.145620 0.135725
v 0.118665 0.029389 0.083733
v -0.118800 0.161809 0.142967
v -0.127600 0.148386 0.151423
v -0.118800 0.156419 0.155017
v 0.056513 0.013200 -0.066057
v 0.110740 0.013200 -0.016791
v 0.008113 0.013200 -0.066057
v 0.008113 0.013200 -0.039590
v -0.041001 0.013200 -0.016791
v -0.053999 0.013200 -0.016791
v -0.041001 0.013200 0.053298
v -0.105911 0.013200 -0.016791
v -0.105911 0.013200 0.053298
v 0.110740 0.013200 0.053298
v -0.053999 0.013200 0.053298
v 0.056513 0.013200 -0.039590
vt 15.873400 12.378870
vt 15.873400 6.107560
vt 17.036400 6.107560
vt 11.478840 1.699285
vt 22.834650 -0.000000
vt 22.035170 19.960270
vt 22.035170 8.567098
vt 23.622049 20.759750
vt -22.834650 0.000000
vt -0.787402 0.000000
vt 0.000000 15.219700
vt -0.556777 1.181102
vt -0.556777 0.000000
vt 0.556777 0.000000
vt 11.478840 4.067518
vt 0.787402 -0.000000
vt 7.148133 1.699285
vt 2.296001 6.107560
vt 0.000000 6.980219
vt 23.622049 6.980219
vt 21.681370 12.378870
vt 21.681370 6.107560
vt 1.586879 19.960270
vt 22.834650 21.547150
vt -22.834650 -13.893060
vt -0.787402 -13.893060
vt -0.787402 -12.711960
vt -22.834650 -12.711960
vt 0.000000 14.454150
vt 2.296001 12.378870
vt 15.219700 0.000000
vt 21.158899 13.277250
vt 14.454150 1.181102
vt 0.787402 21.547150
vt 0.000000 20.759750
vt 17.260090 0.000000
vt 17.260090 1.181102
vt 16.146530 1.181102
vt 0.787402 1.181102
vt 0.787402 0.000000
vt -23.622049 15.219700
vt -23.622049 6.214667
vt 0.000000 6.214667
vt -0.787402 21.547150
vt 20.080750 13.759530
vt 23.622049 14.454150
vt 17.036400 12.378870
vt -19.588770 4.978031
vt -18.590630 5.609465
vt -19.185949 6.550525
vt 23.622049 0.787402
vt -0.787402 0.000000
vt -0.787402 1.181102
vt -14.454150 1.181102
vt -21.158899 13.277250
vt -15.219700 0.000000
vt 1.586879 8.567098
vt 7.148133 4.067518
vt 10.658930 -9.137869
vt 10.256110 -7.565374
vt 9.660790 -8.506433
vt 0.000000 20.759750
vt -22.834650 21.547150
vt -20.184090 5.919090
vt -23.622049 0.787402
vt 0.556777 1.181102
vt 16.146530 0.000000
vt 0.000000 0.787402
vt 22.834650 0.000000
vt 0.787402 1.181102
vt 0.787402 0.000000
vt -20.080750 13.759530
vt 11.254260 -8.196809
vt -23.622049 20.759750
vt 22.834650 1.181102
vt 0.000000 0.787402
vn 0.0000 1.0000 0.0000
vn 0.0000 0.4083 -0.9128
vn 0.0000 -1.0000 -0.0000
vn 0.7071 0.0000 -0.7071
vn 0.0000 0.9128 0.4083
vn -1.0000 0.0000 0.0000
vn -0.7071 0.0000 -0.7071
vn -0.0000 -0.4083 0.9128
vn 0.7071 0.6455 0.2887
vn 1.0000 0.0000 0.0000
vn -0.7071 0.6455 0.2887
vn 0.0000 0.0000 -1.0000
g laptop.001_laptop.001_metalDark.033
usemtl metalDark.033
s 1
f 31/1/1 29/2/1 30/3/1
f 27/4/1 10/5/1 30/3/1
f 19/6/2 15/7/2 18/8/2
f 5/9/3 4/10/3 2/11/3
f 8/12/4 1/13/4 4/14/4
f 29/2/1 28/15/1 27/4/1
f 7/16/1 25/17/1 26/18/1
f 16/19/2 17/20/2 15/7/2
f 10/5/1 33/21/1 32/22/1
f 20/23/2 19/6/2 22/24/2
f 24/25/5 14/26/5 13/27/5
f 24/25/5 13/27/5 22/28/5
f 16/29/1 34/30/1 31/1/1
f 3/31/6 23/32/6 17/33/6
f 13/34/2 12/35/2 20/23/2
f 32/22/1 30/3/1 10/5/1
f 26/18/1 34/30/1 16/29/1
f 6/36/7 9/37/7 10/38/7
f 17/33/6 9/39/6 6/40/6
f 2/11/3 3/41/3 5/9/3
f 3/42/8 2/43/8 14/44/8
f 23/32/6 18/45/6 17/33/6
f 17/46/1 31/1/1 35/47/1
f 11/48/9 12/49/9 13/50/9
f 17/33/6 6/40/6 3/31/6
f 33/21/1 10/5/1 9/51/1
f 31/1/1 30/3/1 35/47/1
f 1/52/10 8/53/10 16/54/10
f 16/54/10 11/55/10 2/56/10
f 22/24/2 13/34/2 20/23/2
f 12/35/2 21/57/2 20/23/2
f 17/46/1 16/29/1 31/1/1
f 28/15/1 29/2/1 36/58/1
f 23/59/11 22/60/11 18/61/11
f 15/7/2 21/57/2 16/19/2
f 2/43/8 11/62/8 14/44/8
f 14/44/8 24/63/8 3/42/8
f 11/48/9 13/50/9 14/64/9
f 29/2/1 26/18/1 36/58/1
f 6/65/3 5/9/3 3/41/3
f 35/47/1 33/21/1 17/46/1
f 8/12/4 4/14/4 7/66/4
f 17/20/2 18/8/2 15/7/2
f 30/3/1 29/2/1 27/4/1
f 6/36/7 10/38/7 5/67/7
f 25/17/1 36/58/1 26/18/1
f 7/16/1 10/5/1 27/4/1
f 8/68/1 7/16/1 26/18/1
f 5/69/12 7/70/12 4/71/12
f 16/54/10 12/72/10 11/55/10
f 16/29/1 8/68/1 26/18/1
f 7/16/1 27/4/1 25/17/1
f 23/59/11 24/73/11 22/60/11
f 24/63/8 23/74/8 3/42/8
f 5/69/12 10/75/12 7/70/12
f 18/8/2 22/24/2 19/6/2
f 2/56/10 1/52/10 16/54/10
f 21/57/2 12/35/2 16/19/2
f 4/10/3 1/76/3 2/11/3
f 33/21/1 9/51/1 17/46/1
g laptop.001_laptop.001_metal.050
usemtl metal.050
f 20/23/2 21/57/2 15/7/2
f 20/23/2 15/7/2 19/6/2
g laptop.001_laptop.001_metalMedium.019
usemtl metalMedium.019
f 33/21/1 30/3/1 32/22/1
f 26/18/1 29/2/1 31/1/1
f 28/15/1 36/58/1 25/17/1
f 28/15/1 25/17/1 27/4/1
f 33/21/1 35/47/1 30/3/1
f 26/18/1 31/1/1 34/30/1
