# Blender v2.93.10 OBJ File: 'untitled.blend'
# www.blender.org
mtllib mouse.mtl
o computerMouse
v 0.012427 0.000000 -0.059605
v 0.024852 0.015335 -0.036712
v 0.024852 0.000000 -0.036712
v -0.012423 0.000000 -0.059605
v -0.024848 0.000000 -0.036712
v -0.024848 0.015335 -0.036712
v 0.024330 -0.000000 0.006463
v 0.022026 -0.000000 0.012605
v 0.018109 -0.000000 0.017922
v 0.012865 -0.000000 0.022026
v 0.006678 -0.000000 0.024615
v 0.000002 -0.000000 0.025499
v -0.006674 -0.000000 0.024615
v -0.012861 -0.000000 0.022026
v -0.018105 -0.000000 0.017922
v -0.022023 -0.000000 0.012605
v -0.024327 -0.000000 0.006463
v 0.024852 0.023572 -0.000053
v -0.024848 0.023572 -0.000053
v 0.024330 0.023572 0.006463
v 0.022026 0.023572 0.012605
v 0.018109 0.023572 0.017922
v 0.012865 0.023572 0.022026
v 0.006678 0.023572 0.024615
v 0.000002 0.023572 0.025499
v -0.006674 0.023572 0.024615
v -0.012861 0.023572 0.022026
v -0.018105 0.023572 0.017922
v -0.022023 0.023572 0.012605
v -0.024327 0.023572 0.006463
vt -0.233349 0.000000
vt -1.258812 0.603722
vt -1.258812 0.000000
vt -2.259041 0.928032
vt -2.516401 0.928032
vt -2.516401 -0.000000
vt 2.034474 0.928032
vt 1.774444 0.000000
vt 2.034474 0.000000
vt 2.098962 0.000000
vt 2.357217 0.928032
vt 2.098962 0.928032
vt -0.440098 0.928032
vt -0.174972 0.000000
vt -0.174972 0.928032
vt 2.516401 -0.000000
vt 2.344556 0.928032
vt 0.901269 0.000000
vt 0.978347 0.901269
vt 0.957817 2.601096
vt -0.957817 2.601096
vt 0.978347 2.490975
vt -0.978347 1.011700
vt 0.978347 1.011700
vt 1.319461 0.928032
vt 1.581622 0.000000
vt 1.581622 0.928032
vt -1.581622 0.928032
vt -1.319461 0.000000
vt -1.319461 0.928032
vt -2.098962 0.928032
vt -2.357217 0.000000
vt -2.098962 0.000000
vt 0.174972 0.928032
vt 0.440098 0.000000
vt 0.440098 0.928032
vt -1.037461 0.928032
vt -0.773424 0.000000
vt -0.773424 0.928032
vt 0.233349 0.000000
vt 1.258812 0.000000
vt 1.258812 0.603722
vt 0.489173 -0.000000
vt -0.978347 1.084789
vt -0.489173 0.000000
vt 0.000000 3.350543
vt -0.262829 3.315719
vt -0.978347 2.344556
vt -1.774444 0.928032
vt -2.034474 0.000000
vt -1.774444 0.000000
vt 0.773424 0.928032
vt 1.037461 0.000000
vt 1.037461 0.928032
vt -0.901269 0.000000
vt -0.901269 0.603722
vt 1.774444 0.928032
vt 2.357217 0.000000
vt -0.440098 0.000000
vt 2.516401 0.928032
vt 0.901269 0.603722
vt 0.867109 2.842897
vt 0.712871 3.052243
vt 0.506402 3.213796
vt 0.262829 3.315719
vt -0.000000 3.350543
vt -0.262829 3.315719
vt -0.506402 3.213796
vt -0.712871 3.052243
vt -0.867109 2.842897
vt -0.978347 0.901269
vt -0.489173 0.000000
vt 0.489173 0.000000
vt -0.978347 2.490975
vt 1.319461 0.000000
vt -1.581622 0.000000
vt -2.357217 0.928032
vt 0.174972 0.000000
vt -1.037461 0.000000
vt 0.978347 1.084789
vt -0.506402 3.213796
vt -0.712871 3.052243
vt -0.867109 2.842897
vt -0.957817 2.601096
vt 0.978347 2.344556
vt 0.957817 2.601096
vt 0.867109 2.842897
vt 0.712871 3.052243
vt 0.506402 3.213796
vt 0.262829 3.315719
vt -2.034474 0.928032
vt 0.773424 0.000000
vn 0.8789 0.0000 -0.4770
vn 0.9968 0.0000 0.0798
vn 0.9760 -0.0000 0.2176
vn -0.7173 -0.0000 0.6968
vn -0.8791 -0.0000 0.4767
vn -0.9760 0.0000 0.2177
vn -0.6466 0.6774 0.3507
vn -0.7183 0.6771 0.1601
vn 0.0000 0.6787 0.7344
vn 0.2610 -0.0000 0.9653
vn 0.1917 0.6786 0.7091
vn -0.9825 0.0640 0.1749
vn -1.0000 -0.0000 -0.0000
vn 0.0000 -1.0000 -0.0000
vn 0.0000 0.9757 -0.2192
vn -0.5056 0.0000 0.8628
vn 0.3161 0.8496 0.4222
vn 0.7173 -0.0000 0.6968
vn 0.5273 0.6778 0.5123
vn 0.8791 -0.0000 0.4767
vn -0.1917 0.6786 0.7091
vn -0.0000 -0.0000 1.0000
vn 0.5056 0.0000 0.8628
vn 0.5057 -0.0000 0.8627
vn -0.8789 0.0000 -0.4770
vn 0.0000 0.8308 -0.5565
vn 0.0000 1.0000 0.0000
vn -0.2134 0.8502 0.4813
vn -0.2610 -0.0000 0.9653
vn 1.0000 -0.0000 -0.0000
vn -0.5057 0.0000 0.8627
g computerMouse_computerMouse_metalDark.023
usemtl metalDark.023
s 1
f 1/1/1 2/2/1 3/3/1
f 18/4/2 20/5/3 7/6/3
f 28/7/4 16/8/5 15/9/4
f 17/10/6 29/11/7 30/12/8
f 25/13/9 11/14/10 24/15/11
f 17/16/6 19/17/12 5/18/13
f 3/19/14 7/20/14 17/21/14
f 19/22/15 2/23/15 6/24/15
f 28/25/4 14/26/16 27/27/16
f 23/28/17 9/29/18 22/30/19
f 20/31/3 8/32/20 7/33/3
f 26/34/21 12/35/22 25/36/9
f 24/37/11 10/38/23 23/39/24
f 4/40/25 5/41/25 6/42/25
f 4/43/26 2/44/26 1/45/26
f 25/46/9 24/47/11 18/48/27
f 21/49/20 9/50/18 8/51/20
f 27/52/28 13/53/29 26/54/21
f 7/6/3 3/55/30 18/4/2
f 3/55/30 2/56/30 18/4/2
f 28/7/4 29/57/7 16/8/5
f 17/10/6 16/58/5 29/11/7
f 25/13/9 12/59/22 11/14/10
f 30/60/8 19/17/12 17/16/6
f 19/17/12 6/61/13 5/18/13
f 7/20/14 8/62/14 9/63/14
f 9/63/14 10/64/14 7/20/14
f 10/64/14 11/65/14 7/20/14
f 11/65/14 12/66/14 7/20/14
f 12/66/14 13/67/14 17/21/14
f 7/20/14 12/66/14 17/21/14
f 13/67/14 14/68/14 17/21/14
f 14/68/14 15/69/14 17/21/14
f 15/69/14 16/70/14 17/21/14
f 17/21/14 5/71/14 3/19/14
f 5/71/14 4/72/14 3/19/14
f 4/72/14 1/73/14 3/19/14
f 19/22/15 18/74/15 2/23/15
f 28/25/4 15/75/4 14/26/16
f 23/28/17 10/76/23 9/29/18
f 20/31/3 21/77/20 8/32/20
f 26/34/21 13/78/29 12/35/22
f 24/37/11 11/79/10 10/38/23
f 4/43/26 6/80/26 2/44/26
f 24/47/11 23/81/17 18/48/27
f 23/81/17 22/82/19 18/48/27
f 22/82/19 21/83/27 18/48/27
f 21/83/27 20/84/27 18/48/27
f 18/48/27 19/85/12 25/46/9
f 19/85/12 30/86/8 29/87/7
f 29/87/7 28/88/27 19/85/12
f 28/88/27 27/89/28 19/85/12
f 27/89/28 26/90/21 19/85/12
f 26/90/21 25/46/9 19/85/12
f 21/49/20 22/91/19 9/50/18
f 27/52/28 14/92/31 13/53/29
