# Blender v2.93.10 OBJ File: 'untitled.blend'
# www.blender.org
mtllib shutter.mtl
o door-wide-closed.001
v 1.485000 1.390710 0.049999
v -1.485000 1.390710 0.050000
v -1.485000 0.695355 0.050000
v 1.485000 0.463570 0.050000
v -1.485000 0.463570 0.050000
v 1.485000 0.695355 0.049999
v -1.485000 1.158925 0.049999
v 1.485000 0.927140 0.049999
v -1.485000 0.927140 0.050000
v 1.485000 1.158925 0.050000
v -0.117887 0.068579 0.049999
v -1.485000 0.231785 0.049999
v -0.117887 0.163206 0.050000
v 0.117887 0.163206 0.049999
v -1.485000 -0.000000 0.050000
v 1.485000 0.231785 0.050000
v 1.485000 -0.000000 0.050000
v 0.117887 0.068579 0.050000
v -1.485000 1.600000 0.050000
v 1.485000 1.809290 0.049999
v -1.485000 1.809290 0.050000
v 1.485000 1.600000 0.050000
v -1.485000 2.504645 0.050000
v 1.485000 2.736430 0.050000
v -1.485000 2.736430 0.050000
v 1.485000 2.504645 0.050000
v -1.485000 2.041075 0.050000
v 1.485000 2.272860 0.050000
v -1.485000 2.272860 0.050000
v 1.485000 2.041075 0.050000
v -1.485000 2.968215 0.050000
v 1.485000 2.968215 0.050000
v 1.485000 1.390710 -0.049998
v -1.485000 1.390710 -0.050000
v -1.485000 0.695355 -0.050000
v 1.485000 0.463570 -0.050000
v -1.485000 0.463570 -0.050000
v 1.485000 0.695355 -0.049998
v -1.485000 1.158925 -0.049998
v 1.485000 0.927140 -0.049998
v -1.485000 0.927140 -0.050000
v 1.485000 1.158925 -0.050000
v -0.117887 0.068579 -0.049998
v -1.485000 0.231785 -0.049998
v -0.117887 0.163206 -0.050000
v 0.117887 0.163206 -0.049998
v -1.485000 0.000000 -0.050000
v 1.485000 0.231785 -0.050000
v 1.485000 0.000000 -0.050000
v 0.117887 0.068579 -0.050000
v -1.485000 1.600000 -0.050000
v 1.485000 1.809290 -0.049998
v -1.485000 1.809290 -0.050000
v 1.485000 1.600000 -0.050000
v -1.485000 2.504645 -0.050000
v 1.485000 2.736430 -0.050000
v -1.485000 2.736430 -0.050000
v 1.485000 2.504645 -0.050000
v -1.485000 2.041075 -0.050000
v 1.485000 2.272860 -0.050000
v -1.485000 2.272860 -0.050000
v 1.485000 2.041075 -0.050000
v -1.485000 2.968215 -0.050000
v 1.485000 2.968215 -0.050000
vt 35.433071 54.752361
vt -35.433071 54.752361
vt 35.433071 62.992130
vt -35.433071 62.992130
vt 35.433071 18.250790
vt -35.433071 18.250790
vt 35.433071 27.376181
vt -35.433071 27.376181
vt 35.433071 45.626968
vt 35.433071 36.501579
vt -35.433071 36.501579
vt -35.433071 45.626968
vt 4.641223 2.699966
vt 35.433071 9.125394
vt 35.433071 0.000000
vt -4.641223 2.699966
vt -35.433071 0.000000
vt 4.641223 6.425428
vt -4.641223 6.425428
vt -35.433071 9.125394
vt 35.433071 54.752361
vt -35.433071 54.752361
vt 35.433071 18.250790
vt 35.433071 27.376181
vt -35.433071 18.250790
vt -35.433071 27.376181
vt 35.433071 45.626968
vt -35.433071 36.501579
vt 35.433071 36.501579
vt -35.433071 45.626968
vt 35.433071 54.752361
vt 35.433071 62.992130
vt -35.433071 54.752361
vt -35.433071 62.992130
vt 35.433071 18.250790
vt 35.433071 27.376181
vt -35.433071 18.250790
vt -35.433071 27.376181
vt 35.433071 45.626968
vt -35.433071 36.501579
vt 35.433071 36.501579
vt -35.433071 45.626968
vt 4.641223 2.699966
vt 35.433071 0.000000
vt 35.433071 9.125394
vt -4.641223 2.699966
vt -35.433071 0.000000
vt 4.641223 6.425428
vt -4.641223 6.425428
vt -35.433071 9.125394
vt 35.433071 54.752361
vt -35.433071 54.752361
vt 35.433071 18.250790
vt -35.433071 18.250790
vt 35.433071 27.376181
vt -35.433071 27.376181
vt 35.433071 45.626968
vt 35.433071 36.501579
vt -35.433071 36.501579
vt -35.433071 45.626968
vt -35.433071 9.125394
vt 35.433071 9.125394
vt 35.433071 9.125394
vt -35.433071 9.125394
vn -0.7071 -0.0000 0.7071
vn 0.7071 0.0000 0.7071
vn -0.0000 0.0000 1.0000
vn -0.5773 -0.5773 0.5774
vn -0.0000 -0.0001 1.0000
vn 0.5774 -0.5774 0.5773
vn 0.0000 0.0001 1.0000
vn -0.7071 -0.0000 -0.7071
vn 0.7071 -0.0000 -0.7071
vn -0.0000 0.0000 -1.0000
vn -0.5773 -0.5773 -0.5774
vn -0.0000 -0.0001 -1.0000
vn 0.5774 -0.5774 -0.5773
vn 0.0000 0.0001 -1.0000
vn 0.5773 0.5774 0.5774
vn -0.5774 0.5774 0.5774
vn -0.5773 0.5774 -0.5774
vn 0.5774 0.5774 -0.5774
g door-wide-closed.001_door-wide-closed.001_striping.010
usemtl striping.010
s 1
f 2/1/1 1/2/2 19/3/1
f 22/4/2 19/3/1 1/2/2
f 5/5/1 4/6/2 3/7/1
f 6/8/2 3/7/1 4/6/2
f 7/9/1 9/10/1 8/11/2
f 8/11/2 10/12/2 7/9/1
f 11/13/3 12/14/1 15/15/4
f 18/16/5 11/13/3 17/17/6
f 13/18/7 12/14/1 11/13/3
f 14/19/3 12/14/1 13/18/7
f 12/14/1 14/19/3 16/20/2
f 17/17/6 11/13/3 15/15/4
f 14/19/3 18/16/5 16/20/2
f 16/20/2 18/16/5 17/17/6
f 21/21/1 19/3/1 20/22/2
f 22/4/2 20/22/2 19/3/1
f 25/23/1 23/24/1 24/25/2
f 26/26/2 24/25/2 23/24/1
f 27/27/1 28/28/2 29/29/1
f 28/28/2 27/27/1 30/30/2
f 34/31/8 51/32/8 33/33/9
f 54/34/9 33/33/9 51/32/8
f 37/35/8 35/36/8 36/37/9
f 38/38/9 36/37/9 35/36/8
f 39/39/8 40/40/9 41/41/8
f 40/40/9 39/39/8 42/42/9
f 43/43/10 47/44/11 44/45/8
f 50/46/12 49/47/13 43/43/10
f 45/48/14 43/43/10 44/45/8
f 46/49/10 45/48/14 44/45/8
f 44/45/8 48/50/9 46/49/10
f 49/47/13 47/44/11 43/43/10
f 46/49/10 48/50/9 50/46/12
f 48/50/9 49/47/13 50/46/12
f 53/51/8 52/52/9 51/32/8
f 54/34/9 51/32/8 52/52/9
f 57/53/8 56/54/9 55/55/8
f 58/56/9 55/55/8 56/54/9
f 59/57/8 61/58/8 60/59/9
f 60/59/9 62/60/9 59/57/8
f 3/7/1 37/35/8 5/5/1
f 4/6/2 38/38/9 6/8/2
f 7/9/1 41/41/8 9/10/1
f 8/11/2 42/42/9 10/12/2
f 12/14/1 47/44/11 15/15/4
f 15/15/4 49/47/13 17/17/6
f 17/17/6 48/50/9 16/20/2
f 21/21/1 51/32/8 19/3/1
f 20/22/2 54/34/9 52/52/9
f 25/23/1 55/55/8 23/24/1
f 26/26/2 56/54/9 24/25/2
f 29/29/1 59/57/8 27/27/1
f 28/28/2 62/60/9 60/59/9
f 19/3/1 34/31/8 2/1/1
f 1/2/2 54/34/9 22/4/2
f 3/7/1 35/36/8 37/35/8
f 4/6/2 36/37/9 38/38/9
f 7/9/1 39/39/8 41/41/8
f 8/11/2 40/40/9 42/42/9
f 12/14/1 44/45/8 47/44/11
f 15/15/4 47/44/11 49/47/13
f 17/17/6 49/47/13 48/50/9
f 21/21/1 53/51/8 51/32/8
f 20/22/2 22/4/2 54/34/9
f 25/23/1 57/53/8 55/55/8
f 26/26/2 58/56/9 56/54/9
f 29/29/1 61/58/8 59/57/8
f 28/28/2 30/30/2 62/60/9
f 19/3/1 51/32/8 34/31/8
f 1/2/2 33/33/9 54/34/9
g door-wide-closed.001_door-wide-closed.001_striping-dark
usemtl striping-dark
f 3/7/1 6/8/2 9/10/1
f 8/11/2 9/10/1 6/8/2
f 2/1/1 7/9/1 10/12/2
f 10/12/2 1/2/2 2/1/1
f 5/5/1 12/14/1 16/20/2
f 16/20/2 4/6/2 5/5/1
f 23/24/1 29/29/1 26/26/2
f 28/28/2 26/26/2 29/29/1
f 21/21/1 30/30/2 27/27/1
f 30/30/2 21/21/1 20/22/2
f 25/23/1 32/61/15 31/62/16
f 32/61/15 25/23/1 24/25/2
f 35/36/8 41/41/8 38/38/9
f 40/40/9 38/38/9 41/41/8
f 34/31/8 42/42/9 39/39/8
f 42/42/9 34/31/8 33/33/9
f 37/35/8 48/50/9 44/45/8
f 48/50/9 37/35/8 36/37/9
f 55/55/8 58/56/9 61/58/8
f 60/59/9 61/58/8 58/56/9
f 53/51/8 59/57/8 62/60/9
f 62/60/9 52/52/9 53/51/8
f 57/53/8 63/63/17 64/64/18
f 64/64/18 56/54/9 57/53/8
f 2/1/1 39/39/8 7/9/1
f 10/12/2 33/33/9 1/2/2
f 9/10/1 35/36/8 3/7/1
f 6/8/2 40/40/9 8/11/2
f 5/5/1 44/45/8 12/14/1
f 16/20/2 36/37/9 4/6/2
f 27/27/1 53/51/8 21/21/1
f 32/61/15 63/63/17 31/62/16
f 30/30/2 52/52/9 62/60/9
f 23/24/1 61/58/8 29/29/1
f 26/26/2 60/59/9 58/56/9
f 31/62/16 57/53/8 25/23/1
f 32/61/15 56/54/9 64/64/18
f 2/1/1 34/31/8 39/39/8
f 10/12/2 42/42/9 33/33/9
f 9/10/1 41/41/8 35/36/8
f 6/8/2 38/38/9 40/40/9
f 5/5/1 37/35/8 44/45/8
f 16/20/2 48/50/9 36/37/9
f 27/27/1 59/57/8 53/51/8
f 32/61/15 64/64/18 63/63/17
f 30/30/2 20/22/2 52/52/9
f 23/24/1 55/55/8 61/58/8
f 26/26/2 28/28/2 60/59/9
f 31/62/16 63/63/17 57/53/8
f 32/61/15 24/25/2 56/54/9
g door-wide-closed.001_door-wide-closed.001_grey.024
usemtl grey.024
f 13/18/7 11/13/3 18/16/5
f 14/19/3 13/18/7 18/16/5
f 45/48/14 50/46/12 43/43/10
f 46/49/10 50/46/12 45/48/14
