# Blender v2.83.20 OBJ File: ''
# www.blender.org
mtllib slide door lock.mtl
o Cube.001
v -0.125000 -0.250000 0.100000
v -0.125000 0.250000 0.100000
v -0.125000 -0.250000 -0.100000
v -0.125000 0.250000 -0.100000
v 0.125000 -0.250000 0.100000
v 0.125000 0.250000 0.100000
v 0.125000 -0.250000 -0.100000
v 0.125000 0.250000 -0.100000
v -0.125000 -0.350000 0.000000
v -0.125000 0.350000 0.000000
v 0.125000 -0.350000 0.000000
v 0.125000 0.350000 0.000000
vt -2.500000 0.300000
vt -2.500000 -0.700000
vt -2.000000 -0.900000
vt 0.000000 0.300000
vt 1.000000 -0.700000
vt 0.000000 -0.700000
vt 1.000000 0.300000
vt 0.000000 -0.700000
vt 1.000000 -0.700000
vt 1.000000 -2.000000
vt 0.000000 -2.500000
vt 0.000000 -2.000000
vt 0.000000 -2.000000
vt 1.000000 -2.500000
vt 1.000000 -2.000000
vt 0.000000 -1.500000
vt 1.000000 -1.500000
vt 1.000000 -1.500000
vt 0.000000 -1.500000
vt -1.500000 0.300000
vt -1.500000 -0.700000
vt -2.000000 -0.900000
vt -1.500000 -0.700000
vt -1.500000 0.300000
vt -2.000000 0.500000
vt 1.000000 0.300000
vt 0.000000 0.300000
vt 1.000000 -2.500000
vt 0.000000 -2.500000
vt -2.500000 -0.700000
vt -2.500000 0.300000
vt -2.000000 0.500000
vn 1.0000 0.0000 0.0000
vn 0.0000 0.0000 -1.0000
vn 0.0000 0.0000 1.0000
vn 0.0000 -0.7071 0.7071
vn 0.0000 0.7071 0.7071
vn 0.0000 0.7071 -0.7071
vn 0.0000 -0.7071 -0.7071
vn -1.0000 0.0000 0.0000
usemtl None
s off
f 6/1/1 5/2/1 11/3/1
f 4/4/2 7/5/2 3/6/2
f 6/7/3 1/8/3 5/9/3
f 11/10/4 1/11/4 9/12/4
f 10/13/5 6/14/5 12/15/5
f 4/16/6 12/15/6 8/17/6
f 7/18/7 9/12/7 3/19/7
f 4/20/8 3/21/8 9/22/8
f 11/3/1 7/23/1 8/24/1
f 8/24/1 12/25/1 11/3/1
f 12/25/1 6/1/1 11/3/1
f 4/4/2 8/26/2 7/5/2
f 6/7/3 2/27/3 1/8/3
f 11/10/4 5/28/4 1/11/4
f 10/13/5 2/29/5 6/14/5
f 4/16/6 10/13/6 12/15/6
f 7/18/7 11/10/7 9/12/7
f 9/22/8 1/30/8 2/31/8
f 2/31/8 10/32/8 9/22/8
f 10/32/8 4/20/8 9/22/8
