# Blender v2.83.20 OBJ File: ''
# www.blender.org
mtllib slide door.mtl
o Cube
v -0.100000 -2.000000 0.500000
v -0.100000 2.000000 0.500000
v -0.100000 -2.000000 -0.500000
v -0.100000 2.000000 -0.500000
v 0.100000 -2.000000 0.500000
v 0.100000 2.000000 0.500000
v 0.100000 -2.000000 -0.500000
v 0.100000 2.000000 -0.500000
v -0.100000 0.350000 -0.500000
v -0.100000 -0.350000 -0.500000
v 0.100000 0.350000 -0.500000
v 0.100000 -0.350000 -0.500000
v -0.100000 0.250000 -0.400000
v -0.100000 -0.250000 -0.400000
v 0.100000 0.250000 -0.400000
v 0.100000 -0.250000 -0.400000
vt 0.550000 1.325000
vt 0.450000 -0.675000
vt 0.550000 -0.675000
vt 0.450000 1.325000
vt 0.550000 0.500000
vt 0.450000 0.500000
vt 0.450000 0.200000
vt 0.450000 0.450000
vt 0.000000 -0.675000
vt 0.550000 0.500000
vt 0.450000 0.000000
vt 0.450000 0.500000
vt 0.450000 0.500000
vt 0.550000 0.000000
vt 0.550000 0.500000
vt 0.450000 0.150000
vt 0.550000 -0.675000
vt 0.450000 -0.675000
vt 0.550000 0.450000
vt 0.450000 0.450000
vt 0.450000 0.200000
vt 0.000000 -0.675000
vt 0.450000 0.450000
vt 0.550000 0.500000
vt 0.450000 0.500000
vt 0.550000 0.200000
vt 0.450000 1.325000
vt 0.550000 1.325000
vt 0.500000 0.500000
vt 0.000000 1.325000
vt 0.500000 1.325000
vt 0.500000 -0.675000
vt 0.500000 0.150000
vt 0.550000 0.000000
vt 0.450000 0.000000
vt 0.550000 0.150000
vt 0.000000 1.325000
vt 0.500000 1.325000
vt 0.500000 0.500000
vt 0.500000 0.150000
vt 0.500000 -0.675000
vt 0.550000 0.450000
vn 0.0000 0.0000 1.0000
vn 0.0000 0.0000 -1.0000
vn 1.0000 0.0000 0.0000
vn 0.0000 -1.0000 0.0000
vn 0.0000 1.0000 0.0000
vn 0.0000 -0.7071 -0.7071
vn -1.0000 0.0000 -0.0000
vn 0.0000 0.7071 -0.7071
usemtl Material
s off
f 6/1/1 1/2/1 5/3/1
f 4/4/2 11/5/2 9/6/2
f 16/7/3 15/8/3 5/9/3
f 7/10/4 1/11/4 3/12/4
f 4/13/5 6/14/5 8/15/5
f 10/16/2 7/17/2 3/18/2
f 9/6/6 15/19/6 13/20/6
f 13/20/7 14/21/7 1/22/7
f 14/23/8 12/24/8 10/25/8
f 13/20/2 16/26/2 14/21/2
f 6/1/1 2/27/1 1/2/1
f 4/4/2 8/28/2 11/5/2
f 15/8/3 11/29/3 6/30/3
f 11/29/3 8/31/3 6/30/3
f 6/30/3 5/9/3 15/8/3
f 5/9/3 7/32/3 12/33/3
f 5/9/3 12/33/3 16/7/3
f 7/10/4 5/34/4 1/11/4
f 4/13/5 2/35/5 6/14/5
f 10/16/2 12/36/2 7/17/2
f 9/6/6 11/5/6 15/19/6
f 1/22/7 2/37/7 13/20/7
f 2/37/7 4/38/7 9/39/7
f 13/20/7 2/37/7 9/39/7
f 14/21/7 10/40/7 1/22/7
f 10/40/7 3/41/7 1/22/7
f 14/23/8 16/42/8 12/24/8
f 13/20/2 15/19/2 16/26/2
