# Blender v2.93.10 OBJ File: 'vaginium.blend'
# www.blender.org
mtllib slide door.mtl
o Cube.015_Cube.001
v 0.100000 2.000000 0.500000
v -0.100000 -2.000000 0.500000
v 0.100000 -2.000000 0.500000
v -0.100000 2.000000 -0.371844
v 0.100000 0.351488 -0.371844
v -0.100000 0.351488 -0.371844
v 0.100000 -2.000000 -0.154943
v -0.100000 -2.000000 -0.154943
v 0.100000 2.000000 -0.371844
v 0.100000 -0.347014 -0.154942
v -0.100000 -0.347014 -0.154942
v -0.100000 -0.347014 -0.830116
v -0.100000 0.351488 -0.830116
v 0.100000 -0.347014 -0.830116
v -0.100000 2.000000 0.500000
v 0.100000 0.351488 -0.830116
vt 0.512500 0.500000
vt 0.487500 0.500000
vt 0.512500 0.500000
vt 0.500000 0.375000
vt 1.000000 0.625000
vt 0.250000 0.375000
vt 0.487500 0.250000
vt 0.512500 0.250000
vt 0.487500 0.250000
vt 0.487500 0.500000
vt 0.487500 0.625000
vt 0.512500 0.375000
vt 0.487500 0.375000
vt 0.500000 0.375000
vt 0.250000 0.375000
vt 0.250000 0.375000
vt 0.512500 0.625000
vt 0.487500 0.375000
vt 0.512500 0.375000
vt 0.487500 0.000000
vt 0.487500 1.000000
vt 0.512500 0.000000
vt 0.512500 1.000000
vt 0.512500 1.000000
vt 0.487500 1.000000
vt 1.000000 0.375000
vt 0.000000 0.625000
vt 0.000000 0.375000
vt 0.250000 0.375000
vt 0.500000 0.375000
vt 0.512500 0.250000
vt 0.512500 0.625000
vt 0.000000 0.625000
vt 1.000000 0.625000
vt 1.000000 0.375000
vt 0.500000 0.375000
vt 0.000000 0.375000
vt 0.487500 0.625000
vt 0.512500 0.000000
vt 0.487500 0.000000
vn 0.0000 1.0000 0.0000
vn 1.0000 0.0000 0.0000
vn 0.0000 -1.0000 -0.0000
vn 0.0000 0.0000 -1.0000
vn -1.0000 0.0000 0.0000
vn 0.0000 -0.0000 1.0000
g Cube.015_Cube.001_Cube.015_Cube.001_Material.001
usemtl Material.001
s 1
f 16/1/1 6/2/1 5/3/1
f 5/4/2 1/5/2 10/6/2
f 12/7/3 10/8/3 11/9/3
f 16/1/4 12/7/4 13/10/4
f 15/11/1 9/12/1 4/13/1
f 6/14/5 12/15/5 11/16/5
f 3/17/3 8/18/3 7/19/3
f 10/8/4 8/20/4 11/9/4
f 15/21/6 3/22/6 1/23/6
f 9/24/4 6/2/4 4/25/4
f 16/1/1 13/10/1 6/2/1
f 5/4/2 9/26/2 1/5/2
f 1/5/2 3/27/2 10/6/2
f 3/27/2 7/28/2 10/6/2
f 10/6/2 14/29/2 5/4/2
f 14/29/2 16/30/2 5/4/2
f 12/7/3 14/31/3 10/8/3
f 16/1/4 14/31/4 12/7/4
f 15/11/1 1/32/1 9/12/1
f 2/33/5 15/34/5 11/16/5
f 15/34/5 4/35/5 6/14/5
f 6/14/5 13/36/5 12/15/5
f 15/34/5 6/14/5 11/16/5
f 11/16/5 8/37/5 2/33/5
f 3/17/3 2/38/3 8/18/3
f 10/8/4 7/39/4 8/20/4
f 15/21/6 2/40/6 3/22/6
f 9/24/4 5/3/4 6/2/4
