# Blender v2.93.10 OBJ File: 'birdupleg 0.blend'
# www.blender.org
mtllib birdupleg 0.mtl
o Cube.001_Cube.002
v -0.070192 -0.324390 0.073990
v -0.083597 0.202000 0.099132
v -0.083270 0.215591 -0.068195
v 0.070192 -0.324390 0.073990
v 0.083597 0.202000 0.099132
v 0.083270 0.215591 -0.068195
v 0.000000 -0.518082 -0.012865
v -0.063885 0.442261 0.096947
v -0.063885 0.453396 -0.030337
v 0.063885 0.453396 -0.030337
v 0.063885 0.442261 0.096947
v -0.066959 -0.322201 -0.073872
v 0.066959 -0.322201 -0.073872
v -0.078484 -0.061041 0.088150
v 0.078484 -0.061041 0.088150
v -0.076450 -0.053460 -0.073007
v 0.076450 -0.053460 -0.073007
v -0.080583 0.064908 0.091384
v -0.114721 0.208795 0.015468
v 0.114721 0.208795 0.015468
v 0.078090 -0.187131 0.086678
v -0.079552 0.075864 -0.071594
v 0.000000 0.218140 -0.099569
v 0.000000 -0.320796 0.104173
v -0.000000 0.199451 0.130505
v -0.077884 0.466338 0.034925
v 0.077884 0.466338 0.034925
v 0.000000 0.473126 -0.042664
v 0.000000 0.459550 0.112513
v 0.081334 0.347442 0.106595
v -0.081334 0.347442 0.106595
v -0.081293 0.361497 -0.055551
v 0.081293 0.361497 -0.055551
v 0.075062 -0.182644 -0.076085
v 0.000000 -0.317751 -0.103406
v -0.096256 -0.319273 0.000384
v 0.096256 -0.319273 0.000384
v -0.078090 -0.187131 0.086678
v 0.080583 0.064908 0.091384
v -0.075062 -0.182644 -0.076085
v 0.079552 0.075864 -0.071594
v 0.106517 -0.057251 0.007572
v -0.106517 -0.057251 0.007572
v 0.000000 -0.052038 -0.103224
v 0.000000 -0.062463 0.118367
v -0.044298 -0.461995 0.038396
v -0.042441 -0.461119 -0.055703
v 0.042441 -0.461119 -0.055703
v 0.044299 -0.461995 0.038396
v 0.000000 -0.187472 0.117503
v -0.000000 0.346624 0.137243
v 0.000000 -0.181298 -0.106829
v 0.000000 -0.436813 0.071460
v -0.105538 -0.184385 0.005337
v -0.000000 0.505181 0.038323
v -0.111893 0.356295 0.025682
v 0.000000 0.365965 -0.085880
v 0.111893 0.356295 0.025682
v 0.105538 -0.184385 0.005337
v 0.110093 0.070386 0.009895
v -0.110093 0.070386 0.009895
v 0.000000 0.077919 -0.102152
v 0.000000 0.062854 0.121943
v 0.072139 -0.436059 -0.006771
v -0.072139 -0.436059 -0.006771
v 0.000000 -0.435306 -0.085002
vt 0.501302 0.875000
vt 0.452148 0.749421
vt 0.510417 0.750000
vt 0.437500 1.000000
vt 0.440755 0.873843
vt 0.392687 0.862269
vt 0.375000 0.750000
vt 0.606120 0.875000
vt 0.625000 1.000000
vt 0.625000 1.000000
vt 0.623481 0.750000
vt 0.622857 0.875000
vt 0.625000 0.750000
vt 0.625000 0.875000
vt 0.625000 1.000000
vt 0.552083 0.500000
vt 0.528501 0.373843
vt 0.559896 0.375000
vt 0.517759 0.499421
vt 0.501664 0.362269
vt 0.517614 0.249421
vt 0.552083 0.250000
vt 0.377604 0.831597
vt 0.375000 0.750000
vt 0.375000 1.000000
vt 0.375000 0.875000
vt 0.375000 0.750000
vt 0.529948 0.125000
vt 0.443830 0.112269
vt 0.483579 0.123843
vt 0.437500 0.000000
vt 0.500000 0.000000
vt 0.625000 0.500000
vt 0.753472 0.625000
vt 0.659722 0.625000
vt 0.875000 0.500000
vt 0.750000 0.500000
vt 0.875000 0.750000
vt 0.750000 0.750000
vt 0.612847 0.250000
vt 0.623454 0.125000
vt 0.623481 0.250000
vt 0.610894 0.125000
vt 0.625000 0.000000
vt 0.625000 0.000000
vt 0.625000 0.125000
vt 0.625000 0.250000
vt 0.614149 0.375000
vt 0.624349 0.500000
vt 0.612847 0.500000
vt 0.623644 0.375000
vt 0.625000 0.375000
vt 0.609375 0.625000
vt 0.605903 0.750000
vt 0.626519 0.625000
vt 0.450521 0.612269
vt 0.500000 0.500000
vt 0.531250 0.625000
vt 0.485677 0.623843
vt 0.576172 0.625000
vt 0.587023 0.500000
vt 0.565321 0.750000
vt 0.587023 0.250000
vt 0.575928 0.125000
vt 0.562500 0.000000
vt 0.625000 0.000000
vt 0.591092 0.375000
vt 0.562500 1.000000
vt 0.561008 0.875000
vt 0.500000 1.000000
vt 0.439453 0.581597
vt 0.468750 0.500000
vt 0.406250 0.625000
vt 0.437500 0.500000
vt 0.375000 0.000000
vt 0.417752 0.081597
vt 0.375000 0.000000
vt 0.500000 0.250000
vt 0.437500 0.125000
vt 0.375000 0.000000
vt 0.479601 0.331597
vt 0.468750 0.250000
vt 0.468750 0.375000
vt 0.437500 0.250000
vt 0.875000 0.625000
vn 0.0000 -0.0195 0.9998
vn 0.7226 -0.0526 0.6892
vn 0.7192 -0.0206 0.6945
vn -0.7226 -0.0526 0.6892
vn 0.0000 -0.0528 0.9986
vn 0.0000 -0.1854 0.9827
vn 0.7166 -0.1854 0.6724
vn 0.0000 -0.0548 0.9985
vn -0.7017 0.0805 0.7078
vn -0.7114 -0.0412 0.7015
vn 0.7017 0.0805 0.7078
vn 0.0000 0.0685 0.9977
vn 0.6080 0.4573 0.6490
vn 0.0000 0.5924 0.8056
vn -0.6080 0.4573 0.6490
vn 0.7144 0.0008 -0.6997
vn 0.0000 -0.0010 -1.0000
vn 0.0000 0.0158 -0.9998
vn 0.7184 -0.0177 -0.6954
vn 0.0000 -0.0917 -0.9958
vn -0.7184 -0.0177 -0.6954
vn -0.7144 0.0008 -0.6997
vn 0.0000 -0.4781 0.8783
vn 0.5731 -0.6218 0.5338
vn -0.7166 -0.1854 0.6724
vn -0.5731 -0.6218 0.5338
vn 0.0000 -0.9989 -0.0464
vn -0.9998 -0.0164 -0.0109
vn -0.9908 -0.1339 -0.0181
vn -0.9992 -0.0364 -0.0144
vn -0.7192 -0.0206 0.6945
vn 0.6081 0.5606 -0.5621
vn 0.0000 0.9962 0.0871
vn 0.7521 0.6565 0.0572
vn -0.6081 0.5606 -0.5621
vn 0.0000 0.7212 -0.6926
vn -0.7068 0.0352 -0.7064
vn -0.9898 0.1418 0.0106
vn -0.7008 0.1867 -0.6885
vn -0.9999 -0.0063 -0.0049
vn -0.7521 0.6565 0.0572
vn 0.0000 0.0553 -0.9984
vn 0.7008 0.1867 -0.6885
vn 0.7068 0.0352 -0.7064
vn 0.0000 0.2195 -0.9756
vn 0.9999 -0.0063 -0.0049
vn 0.7114 -0.0412 0.7015
vn 0.9898 0.1418 0.0106
vn 0.9908 -0.1339 -0.0181
vn 0.7155 -0.1173 -0.6887
vn 0.9998 -0.0164 -0.0109
vn 0.9992 -0.0364 -0.0144
vn 0.9995 -0.0294 -0.0089
vn 0.7091 -0.0045 -0.7050
vn 0.7152 -0.0436 0.6975
vn -0.7091 -0.0045 -0.7050
vn -0.9995 -0.0294 -0.0089
vn -0.7152 -0.0436 0.6975
vn 0.0000 0.0120 -0.9999
vn 0.0000 -0.0465 0.9989
vn 0.9084 -0.4172 -0.0256
vn 0.5820 -0.5655 -0.5843
vn -0.9084 -0.4172 -0.0256
vn -0.7155 -0.1173 -0.6887
vn -0.5820 -0.5655 -0.5843
vn 0.0000 -0.3864 -0.9223
g Cube.001_Cube.002_Material.002
usemtl Material.002
s 1
f 45/1/1 21/2/2 15/3/3
f 45/1/1 38/4/4 50/5/5
f 38/4/4 24/6/6 50/5/5
f 21/2/2 24/6/6 4/7/7
f 25/8/8 31/9/9 2/10/10
f 25/8/8 30/11/11 51/12/12
f 51/12/12 11/13/13 29/14/14
f 51/12/12 8/15/15 31/9/9
f 17/16/16 52/17/17 44/18/18
f 34/19/19 35/20/20 52/17/17
f 35/20/20 40/21/21 52/17/17
f 52/17/17 16/22/22 44/18/18
f 4/7/7 53/23/23 49/24/24
f 1/25/25 53/23/23 24/6/6
f 49/24/24 46/26/26 7/27/27
f 40/21/21 43/28/28 16/22/22
f 40/21/21 36/29/29 54/30/30
f 36/29/29 38/31/4 54/30/30
f 54/30/30 14/32/31 43/28/28
f 10/33/32 55/34/33 27/35/34
f 9/36/35 55/34/33 28/37/36
f 55/34/33 8/38/15 29/39/14
f 55/34/33 11/13/13 27/35/34
f 3/40/37 56/41/38 32/42/39
f 19/43/40 31/44/9 56/41/38
f 56/41/38 8/45/15 26/46/41
f 56/41/38 9/47/35 32/42/39
f 23/48/42 33/49/43 6/50/44
f 23/48/42 32/42/39 57/51/45
f 57/51/45 9/47/35 28/52/36
f 57/51/45 10/33/32 33/49/43
f 20/53/46 30/11/11 5/54/47
f 6/50/44 58/55/48 20/53/46
f 58/55/48 10/33/32 27/35/34
f 58/55/48 11/13/13 30/11/11
f 34/19/19 37/56/49 13/57/50
f 34/19/19 42/58/51 59/59/52
f 59/59/52 15/3/3 21/2/2
f 37/56/49 21/2/2 4/7/7
f 17/16/16 60/60/53 42/58/51
f 41/61/54 20/53/46 60/60/53
f 60/60/53 5/54/47 39/62/55
f 42/58/51 39/62/55 15/3/3
f 22/63/56 19/43/40 3/40/37
f 16/22/22 61/64/57 22/63/56
f 43/28/28 18/65/58 61/64/57
f 61/64/57 2/66/10 19/43/40
f 6/50/44 62/67/59 23/48/42
f 41/61/54 44/18/18 62/67/59
f 44/18/18 22/63/56 62/67/59
f 62/67/59 3/40/37 23/48/42
f 25/8/8 39/62/55 5/54/47
f 25/8/8 18/68/58 63/69/60
f 63/69/60 14/70/31 45/1/1
f 63/69/60 15/3/3 39/62/55
f 4/7/7 64/71/61 37/56/49
f 48/72/62 49/73/24 7/74/27
f 13/57/50 64/71/61 48/72/62
f 1/75/25 65/76/63 46/77/26
f 12/78/64 65/76/63 36/29/29
f 46/77/26 47/79/65 7/80/27
f 12/78/64 66/81/66 47/82/65
f 13/57/50 66/81/66 35/20/20
f 47/82/65 48/83/62 7/84/27
f 45/1/1 50/5/5 21/2/2
f 45/1/1 14/70/31 38/4/4
f 38/4/4 1/25/25 24/6/6
f 21/2/2 50/5/5 24/6/6
f 25/8/8 51/12/12 31/9/9
f 25/8/8 5/54/47 30/11/11
f 51/12/12 30/11/11 11/13/13
f 51/12/12 29/14/14 8/15/15
f 17/16/16 34/19/19 52/17/17
f 34/19/19 13/57/50 35/20/20
f 35/20/20 12/78/64 40/21/21
f 52/17/17 40/21/21 16/22/22
f 4/7/7 24/6/6 53/23/23
f 1/25/25 46/26/26 53/23/23
f 49/24/24 53/23/23 46/26/26
f 40/21/21 54/30/30 43/28/28
f 40/21/21 12/78/64 36/29/29
f 36/29/29 1/75/25 38/31/4
f 54/30/30 38/31/4 14/32/31
f 10/33/32 28/37/36 55/34/33
f 9/36/35 26/85/41 55/34/33
f 55/34/33 26/85/41 8/38/15
f 55/34/33 29/39/14 11/13/13
f 3/40/37 19/43/40 56/41/38
f 19/43/40 2/66/10 31/44/9
f 56/41/38 31/44/9 8/45/15
f 56/41/38 26/46/41 9/47/35
f 23/48/42 57/51/45 33/49/43
f 23/48/42 3/40/37 32/42/39
f 57/51/45 32/42/39 9/47/35
f 57/51/45 28/52/36 10/33/32
f 20/53/46 58/55/48 30/11/11
f 6/50/44 33/49/43 58/55/48
f 58/55/48 33/49/43 10/33/32
f 58/55/48 27/35/34 11/13/13
f 34/19/19 59/59/52 37/56/49
f 34/19/19 17/16/16 42/58/51
f 59/59/52 42/58/51 15/3/3
f 37/56/49 59/59/52 21/2/2
f 17/16/16 41/61/54 60/60/53
f 41/61/54 6/50/44 20/53/46
f 60/60/53 20/53/46 5/54/47
f 42/58/51 60/60/53 39/62/55
f 22/63/56 61/64/57 19/43/40
f 16/22/22 43/28/28 61/64/57
f 43/28/28 14/32/31 18/65/58
f 61/64/57 18/65/58 2/66/10
f 6/50/44 41/61/54 62/67/59
f 41/61/54 17/16/16 44/18/18
f 44/18/18 16/22/22 22/63/56
f 62/67/59 22/63/56 3/40/37
f 25/8/8 63/69/60 39/62/55
f 25/8/8 2/10/10 18/68/58
f 63/69/60 18/68/58 14/70/31
f 63/69/60 45/1/1 15/3/3
f 4/7/7 49/73/24 64/71/61
f 48/72/62 64/71/61 49/73/24
f 13/57/50 37/56/49 64/71/61
f 1/75/25 36/29/29 65/76/63
f 12/78/64 47/79/65 65/76/63
f 46/77/26 65/76/63 47/79/65
f 12/78/64 35/20/20 66/81/66
f 13/57/50 48/83/62 66/81/66
f 47/82/65 66/81/66 48/83/62
