# Blender v2.93.10 OBJ File: 'spider foot.blend'
# www.blender.org
mtllib spider foot.mtl
o foot_Cone
v 0.006923 -0.438501 0.060351
v 0.030813 -0.500978 -0.026360
v 0.071329 0.727902 -0.167036
v -0.095904 0.693030 -0.170437
v -0.075221 0.788613 -0.118213
v -0.054782 0.832680 -0.054782
v -0.138539 0.788075 -0.014627
v -0.149164 0.766448 0.065253
v -0.114309 0.725581 0.140679
v -0.054950 0.831365 0.054951
v -0.028117 0.768712 0.156795
v 0.080478 0.725379 0.161561
v 0.059614 0.833761 0.048924
v 0.172196 0.728257 -0.052111
v 0.088050 0.638351 -0.175616
v 0.029607 0.844713 -0.036076
v -0.000059 -0.876287 -0.000000
v -0.188052 0.649469 0.048543
v 0.090369 0.639431 0.174291
v 0.179673 0.686996 0.073503
v -0.019045 0.639149 -0.193719
v -0.067015 -0.237000 -0.095316
v -0.151580 0.645167 -0.120438
v -0.102870 -0.268693 -0.055066
v -0.186669 0.696764 -0.053111
v -0.112364 -0.311216 -0.008931
v -0.080753 -0.310484 0.077452
v -0.121762 0.647561 0.155136
v -0.018424 0.638888 0.193787
v -0.022884 -0.004794 0.116518
v 0.023724 -0.126485 0.050072
v 0.053552 0.133227 0.071923
v 0.029450 -0.126405 -0.033173
v 0.062746 0.125769 -0.041466
v 0.186301 0.637560 -0.055924
v 0.001849 0.026143 -0.105395
v 0.083660 0.790745 0.109149
v 0.138743 0.790533 0.000484
v 0.072487 0.794861 -0.115290
vt 0.435773 0.107630
vt 0.218702 0.092652
vt 0.120299 0.058776
vt 0.101782 0.188606
vt 0.007365 0.239438
vt 0.042213 0.135394
vt 0.079158 0.081679
vt 0.140285 0.043010
vt 0.065061 0.098856
vt 0.010176 0.248218
vt 0.012268 0.226974
vt 0.022222 0.183656
vt 0.038924 0.361778
vt 0.047199 0.377260
vt 0.031517 0.347921
vt 0.026244 0.319196
vt 0.079158 0.418321
vt 0.051583 0.384721
vt 0.145119 0.459565
vt 0.271301 0.487902
vt 0.202625 0.482769
vt 0.218702 0.407348
vt 0.308096 0.468373
vt 0.044510 0.136998
vt 0.189212 0.028285
vt 0.036996 0.148251
vt 0.027634 0.322977
vt 0.124206 0.451019
vt 0.027874 0.323518
vt 0.271724 0.012140
vt 0.179455 0.021966
vt 0.035724 0.144208
vt 0.031517 0.152080
vt 0.047199 0.122740
vt 0.068426 0.405244
vt 0.339130 0.383393
vt 0.432671 0.393641
vt 0.383393 0.339130
vt 0.481174 0.262005
vt 0.398218 0.188606
vt 0.251782 0.489825
vt 0.289965 0.486064
vt 0.256857 0.489325
vt 0.434565 0.401600
vt 0.448417 0.384721
vt 0.420842 0.418321
vt 0.467297 0.346544
vt 0.468483 0.347921
vt 0.452801 0.377260
vt 0.968483 0.347920
vt 0.807240 0.307483
vt 0.952801 0.377260
vt 0.482726 0.205934
vt 0.485564 0.204960
vt 0.489825 0.248218
vt 0.987578 0.225413
vt 0.809811 0.190409
vt 0.717808 0.289129
vt 0.973731 0.164749
vt 0.983388 0.196585
vt 0.395361 0.066533
vt 0.463912 0.143527
vt 0.340130 0.027749
vt 0.689312 0.199956
vt 0.531517 0.152080
vt 0.547199 0.122740
vt 0.521187 0.318499
vt 0.547199 0.377260
vt 0.531517 0.347921
vt 0.336392 0.471451
vt 0.245088 0.010484
vt 0.295040 0.485564
vt 0.756857 0.489325
vt 0.789965 0.486064
vt 0.433183 0.403284
vt 0.487578 0.225413
vt 0.450397 0.118242
vt 0.401329 0.065213
vt 0.388663 0.054818
vt 0.414380 0.075923
vt 0.914380 0.075923
vt 0.888663 0.054818
vt 0.310820 0.018858
vt 0.770436 0.012013
vt 0.210035 0.013936
vt 0.743143 0.010675
vt 0.710035 0.013936
vt 0.725409 0.487578
vn -0.0060 -0.1365 0.9906
vn 0.9512 -0.0570 0.3031
vn 0.6913 0.1831 0.6990
vn 0.6861 0.4345 0.5835
vn 0.9054 0.4164 0.0829
vn 0.6644 0.6573 -0.3557
vn 0.7436 0.1431 -0.6531
vn 0.1663 0.1248 -0.9782
vn 0.3868 -0.0962 -0.9171
vn 0.9662 -0.2204 0.1337
vn 0.7245 -0.1869 0.6635
vn 0.7980 -0.0231 0.6022
vn 0.1646 -0.1190 -0.9792
vn 0.6736 -0.1384 0.7260
vn 0.8088 -0.1257 -0.5745
vn 0.8541 -0.2195 -0.4715
vn -0.0422 -0.1188 0.9920
vn 0.9976 0.0049 0.0686
vn 0.9887 -0.1210 0.0881
vn 0.3300 -0.1222 -0.9360
vn 0.1732 0.1638 0.9712
vn 0.7411 0.5572 0.3746
vn 0.9880 0.1540 -0.0082
vn 0.7578 0.2010 -0.6207
vn 0.6722 0.4454 -0.5914
vn 0.1757 -0.1185 0.9773
vn 0.7599 -0.1787 -0.6250
vn 0.7768 -0.1786 0.6039
vn 0.9318 -0.0032 -0.3629
vn 0.9551 -0.0418 0.2932
vn 0.0066 -0.1280 0.9918
vn 0.9894 -0.1284 0.0679
vn 0.9684 -0.2311 0.0937
vn 0.5265 -0.1697 -0.8331
vn -0.6610 -0.1779 -0.7290
vn -0.9137 -0.1873 -0.3607
vn -0.9236 -0.1782 0.3395
vn -0.0102 0.6116 -0.7911
vn -0.7595 0.2610 -0.5959
vn -0.7103 0.5562 -0.4313
vn -0.5640 0.7522 -0.3408
vn -0.9467 0.2968 0.1252
vn -0.4663 0.8846 0.0099
vn -0.1437 0.9896 0.0116
vn -0.5499 0.8218 0.1493
vn -0.8301 0.2017 0.5198
vn -0.3281 0.2023 0.9227
vn -0.0138 0.9911 0.1325
vn 0.5918 0.7488 0.2985
vn 0.4567 0.8884 -0.0468
vn 0.4969 0.8300 -0.2533
vn -0.9960 -0.0756 -0.0487
vn -0.6259 -0.0821 -0.7756
vn -0.9347 -0.0941 0.3428
vn -0.9073 -0.0779 -0.4132
vn -0.3437 -0.0862 -0.9351
vn 0.0689 0.2781 0.9581
vn -0.0506 0.3345 -0.9411
vn -0.0849 0.4918 -0.8665
vn -0.0237 0.8246 -0.5652
vn -0.6978 0.4538 -0.5542
vn -0.8859 0.4637 0.0077
vn -0.8553 0.1723 0.4886
vn -0.4492 0.6820 0.5771
vn -0.4311 0.7134 0.5525
vn -0.2938 0.2416 0.9248
vn 0.0096 0.8528 0.5221
vn 0.2080 0.6057 0.7680
vn 0.0757 0.8255 0.5594
vn -0.0023 0.8458 -0.5335
vn -0.9584 -0.0826 -0.2734
vn -0.3555 -0.0906 0.9303
vn -0.7084 -0.0879 -0.7003
vn -0.8472 -0.0789 0.5254
g foot_Cone_Material
usemtl Material
s off
f 27/1/1 17/2/1 1/3/1
f 1/3/2 17/4/2 2/5/2
f 20/6/3 12/7/3 19/8/3
f 20/6/4 37/9/4 12/7/4
f 14/10/5 38/11/5 20/12/5
f 14/13/6 39/14/6 38/15/6
f 35/16/7 3/17/7 14/18/7
f 15/19/8 21/20/8 3/21/8
f 2/5/9 17/22/9 22/23/9
f 35/16/10 20/6/10 32/24/10
f 32/24/11 19/8/11 30/25/11
f 1/3/12 31/26/12 30/25/12
f 22/23/13 21/20/13 15/19/13
f 31/26/14 32/24/14 30/25/14
f 33/27/15 36/28/15 34/29/15
f 34/29/16 36/28/16 35/16/16
f 30/25/17 29/30/17 27/1/17
f 2/5/18 33/27/18 31/26/18
f 31/26/19 34/29/19 32/24/19
f 22/23/20 36/28/20 2/5/20
f 19/8/21 12/31/21 29/30/21
f 20/32/22 38/33/22 37/34/22
f 35/16/23 14/10/23 20/12/23
f 35/16/24 15/19/24 3/17/24
f 14/18/25 3/17/25 39/35/25
f 30/25/26 19/8/26 29/30/26
f 35/16/27 36/28/27 15/19/27
f 32/24/28 20/6/28 19/8/28
f 2/5/29 36/28/29 33/27/29
f 1/3/30 2/5/30 31/26/30
f 27/1/31 1/3/31 30/25/31
f 31/26/32 33/27/32 34/29/32
f 34/29/33 35/16/33 32/24/33
f 36/28/34 22/23/34 15/19/34
g foot_Cone_Material.007
usemtl Material.007
f 22/23/35 17/36/35 24/37/35
f 24/37/36 17/38/36 26/39/36
f 26/39/37 17/40/37 27/1/37
f 3/41/38 5/42/38 39/43/38
f 23/44/39 25/45/39 4/46/39
f 25/47/40 7/48/40 5/49/40
f 7/50/41 6/51/41 5/52/41
f 18/53/42 8/54/42 25/55/42
f 7/56/43 10/57/43 6/51/43
f 6/51/44 10/57/44 16/58/44
f 8/59/45 10/57/45 7/60/45
f 28/61/46 8/62/46 18/53/46
f 29/30/47 9/63/47 28/61/47
f 10/57/48 13/64/48 16/58/48
f 38/65/49 13/64/49 37/66/49
f 38/67/50 16/58/50 13/64/50
f 39/68/51 16/58/51 38/69/51
f 26/39/52 18/53/52 25/47/52
f 22/23/53 23/44/53 4/70/53
f 27/1/54 18/53/54 26/39/54
f 24/37/55 25/47/55 23/44/55
f 22/23/56 4/70/56 21/20/56
f 12/31/57 11/71/57 29/30/57
f 21/20/58 4/72/58 3/41/58
f 3/41/59 4/72/59 5/42/59
f 39/73/60 5/74/60 6/51/60
f 4/46/61 25/45/61 5/75/61
f 25/55/62 8/54/62 7/76/62
f 28/61/63 9/77/63 8/62/63
f 9/78/64 11/79/64 8/80/64
f 8/81/65 11/82/65 10/57/65
f 29/30/66 11/83/66 9/63/66
f 11/84/67 13/64/67 10/57/67
f 12/31/68 37/85/68 11/71/68
f 11/86/69 37/87/69 13/64/69
f 39/88/70 6/51/70 16/58/70
f 24/37/71 26/39/71 25/47/71
f 27/1/72 29/30/72 28/61/72
f 22/23/73 24/37/73 23/44/73
f 27/1/74 28/61/74 18/53/74
o Cube.001_Cube
v 0.032059 -0.287583 -0.025128
v -0.006629 -0.309919 -0.025128
v 0.032059 -0.287583 0.019545
v -0.006629 -0.309919 0.019545
v 0.087170 -0.427711 -0.002791
v -0.002176 -0.272959 -0.002791
vt 0.375000 0.000000
vt 0.625000 0.250000
vt 0.375000 0.250000
vt 0.625000 0.500000
vt 0.375000 0.500000
vt 0.625000 0.750000
vt 0.375000 0.750000
vt 0.625000 1.000000
vt 0.375000 1.000000
vt 0.375000 0.500000
vt 0.375000 0.250000
vt 0.375000 0.750000
vt 0.375000 0.000000
vn 0.0742 -0.1285 -0.9889
vn -0.7823 -0.6229 0.0000
vn 0.0742 -0.1285 0.9889
vn 0.9306 0.3660 0.0000
vn -0.3000 0.5196 0.8000
vn -0.9928 0.1196 -0.0000
vn 0.3928 0.9196 0.0000
vn -0.3000 0.5196 -0.8000
g Cube.001_Cube_Material.002
usemtl Material.002
s off
f 40/89/75 44/90/75 41/91/75
f 41/91/76 44/92/76 43/93/76
f 43/93/77 44/94/77 42/95/77
f 42/95/78 44/96/78 40/97/78
f 43/93/79 42/95/79 45/98/79
f 41/91/80 43/93/80 45/99/80
f 42/95/81 40/97/81 45/100/81
f 40/89/82 41/91/82 45/101/82
o Cube.002_Cube
v 0.044376 -0.338762 0.015957
v 0.014390 -0.356074 0.015957
v 0.044376 -0.338762 0.050582
v 0.014390 -0.356074 0.050582
v 0.087091 -0.447372 0.033269
v 0.017841 -0.327427 0.033269
vt 0.375000 0.000000
vt 0.625000 0.250000
vt 0.375000 0.250000
vt 0.625000 0.500000
vt 0.375000 0.500000
vt 0.625000 0.750000
vt 0.375000 0.750000
vt 0.625000 1.000000
vt 0.375000 1.000000
vt 0.375000 0.500000
vt 0.375000 0.250000
vt 0.375000 0.750000
vt 0.375000 0.000000
vn 0.0742 -0.1285 -0.9889
vn -0.7823 -0.6229 -0.0000
vn 0.0742 -0.1285 0.9889
vn 0.9306 0.3660 0.0000
vn -0.3000 0.5196 0.8000
vn -0.9928 0.1196 -0.0000
vn 0.3928 0.9196 0.0000
vn -0.3000 0.5196 -0.8000
g Cube.002_Cube_Material.002
usemtl Material.002
s off
f 46/102/83 50/103/83 47/104/83
f 47/104/84 50/105/84 49/106/84
f 49/106/85 50/107/85 48/108/85
f 48/108/86 50/109/86 46/110/86
f 49/106/87 48/108/87 51/111/87
f 47/104/88 49/106/88 51/112/88
f 48/108/89 46/110/89 51/113/89
f 46/102/90 47/104/90 51/114/90
o Cube.003_Cube
v 0.065718 -0.087611 -0.028553
v 0.006353 -0.121885 -0.028553
v 0.065718 -0.087611 0.039995
v 0.006353 -0.121885 0.039995
v 0.150283 -0.302631 0.005721
v 0.013186 -0.065171 0.005721
vt 0.375000 0.000000
vt 0.625000 0.250000
vt 0.375000 0.250000
vt 0.625000 0.500000
vt 0.375000 0.500000
vt 0.625000 0.750000
vt 0.375000 0.750000
vt 0.625000 1.000000
vt 0.375000 1.000000
vt 0.375000 0.500000
vt 0.375000 0.250000
vt 0.375000 0.750000
vt 0.375000 0.000000
vn 0.0742 -0.1285 -0.9889
vn -0.7823 -0.6229 0.0000
vn 0.0742 -0.1285 0.9889
vn 0.9306 0.3660 0.0000
vn -0.3000 0.5196 0.8000
vn -0.9928 0.1196 -0.0000
vn 0.3928 0.9196 0.0000
vn -0.3000 0.5196 -0.8000
g Cube.003_Cube_Material.002
usemtl Material.002
s off
f 52/115/91 56/116/91 53/117/91
f 53/117/92 56/118/92 55/119/92
f 55/119/93 56/120/93 54/121/93
f 54/121/94 56/122/94 52/123/94
f 55/119/95 54/121/95 57/124/95
f 53/117/96 55/119/96 57/125/96
f 54/121/97 52/123/97 57/126/97
f 52/115/98 53/117/98 57/127/98
o Cube.004_Cube
v 0.038975 -0.511555 -0.017742
v 0.009988 -0.528290 -0.017742
v 0.038975 -0.511555 0.015729
v 0.009988 -0.528290 0.015729
v 0.080266 -0.616545 -0.001006
v 0.013324 -0.500598 -0.001006
vt 0.375000 0.000000
vt 0.625000 0.250000
vt 0.375000 0.250000
vt 0.625000 0.500000
vt 0.375000 0.500000
vt 0.625000 0.750000
vt 0.375000 0.750000
vt 0.625000 1.000000
vt 0.375000 1.000000
vt 0.375000 0.500000
vt 0.375000 0.250000
vt 0.375000 0.750000
vt 0.375000 0.000000
vn 0.0742 -0.1285 -0.9889
vn -0.7823 -0.6229 0.0000
vn 0.0742 -0.1285 0.9889
vn 0.9306 0.3660 0.0000
vn -0.3000 0.5196 0.8000
vn -0.9928 0.1196 0.0000
vn 0.3928 0.9196 0.0000
vn -0.3000 0.5196 -0.8000
g Cube.004_Cube_Material.002
usemtl Material.002
s off
f 58/128/99 62/129/99 59/130/99
f 59/130/100 62/131/100 61/132/100
f 61/132/101 62/133/101 60/134/101
f 60/134/102 62/135/102 58/136/102
f 61/132/103 60/134/103 63/137/103
f 59/130/104 61/132/104 63/138/104
f 60/134/105 58/136/105 63/139/105
f 58/128/106 59/130/106 63/140/106
o Cube.005_Cube
v 0.038866 -0.245761 0.005423
v 0.017141 -0.258303 0.005423
v 0.038866 -0.245761 0.030508
v 0.017141 -0.258303 0.030508
v 0.069812 -0.324446 0.017966
v 0.019642 -0.237549 0.017966
vt 0.375000 0.000000
vt 0.625000 0.250000
vt 0.375000 0.250000
vt 0.625000 0.500000
vt 0.375000 0.500000
vt 0.625000 0.750000
vt 0.375000 0.750000
vt 0.625000 1.000000
vt 0.375000 1.000000
vt 0.375000 0.500000
vt 0.375000 0.250000
vt 0.375000 0.750000
vt 0.375000 0.000000
vn 0.0742 -0.1285 -0.9889
vn -0.7823 -0.6229 -0.0000
vn 0.0742 -0.1285 0.9889
vn 0.9306 0.3660 0.0000
vn -0.3000 0.5196 0.8000
vn -0.9928 0.1196 -0.0000
vn 0.3928 0.9196 0.0000
vn -0.3000 0.5196 -0.8000
g Cube.005_Cube_Material.002
usemtl Material.002
s off
f 64/141/107 68/142/107 65/143/107
f 65/143/108 68/144/108 67/145/108
f 67/145/109 68/146/109 66/147/109
f 66/147/110 68/148/110 64/149/110
f 67/145/111 66/147/111 69/150/111
f 65/143/112 67/145/112 69/151/112
f 66/147/113 64/149/113 69/152/113
f 64/141/114 65/143/114 69/153/114
o Cube.006_Cube
v 0.054987 -0.444336 -0.013579
v 0.008869 -0.470962 -0.013579
v 0.054987 -0.444336 0.039673
v 0.008869 -0.470962 0.039673
v 0.120681 -0.611374 0.013047
v 0.014178 -0.426904 0.013047
vt 0.375000 0.000000
vt 0.625000 0.250000
vt 0.375000 0.250000
vt 0.625000 0.500000
vt 0.375000 0.500000
vt 0.625000 0.750000
vt 0.375000 0.750000
vt 0.625000 1.000000
vt 0.375000 1.000000
vt 0.375000 0.500000
vt 0.375000 0.250000
vt 0.375000 0.750000
vt 0.375000 0.000000
vn 0.0742 -0.1285 -0.9889
vn -0.7823 -0.6229 0.0000
vn 0.0742 -0.1285 0.9889
vn 0.9306 0.3660 0.0000
vn -0.3000 0.5196 0.8000
vn -0.9928 0.1196 -0.0000
vn 0.3928 0.9196 0.0000
vn -0.3000 0.5196 -0.8000
g Cube.006_Cube_Material.002
usemtl Material.002
s off
f 70/154/115 74/155/115 71/156/115
f 71/156/116 74/157/116 73/158/116
f 73/158/117 74/159/117 72/160/117
f 72/160/118 74/161/118 70/162/118
f 73/158/119 72/160/119 75/163/119
f 71/156/120 73/158/120 75/164/120
f 72/160/121 70/162/121 75/165/121
f 70/154/122 71/156/122 75/166/122
o Cube.007_Cube
v 0.050669 -0.244385 -0.051644
v 0.005338 -0.270556 -0.051644
v 0.050669 -0.244385 0.000699
v 0.005338 -0.270556 0.000699
v 0.115242 -0.408572 -0.025473
v 0.010556 -0.227250 -0.025473
vt 0.375000 0.000000
vt 0.625000 0.250000
vt 0.375000 0.250000
vt 0.625000 0.500000
vt 0.375000 0.500000
vt 0.625000 0.750000
vt 0.375000 0.750000
vt 0.625000 1.000000
vt 0.375000 1.000000
vt 0.375000 0.500000
vt 0.375000 0.250000
vt 0.375000 0.750000
vt 0.375000 0.000000
vn 0.0742 -0.1285 -0.9889
vn -0.7823 -0.6229 0.0000
vn 0.0742 -0.1285 0.9889
vn 0.9306 0.3660 0.0000
vn -0.3000 0.5196 0.8000
vn -0.9928 0.1196 -0.0000
vn 0.3928 0.9196 0.0000
vn -0.3000 0.5196 -0.8000
g Cube.007_Cube_Material.002
usemtl Material.002
s off
f 76/167/123 80/168/123 77/169/123
f 77/169/124 80/170/124 79/171/124
f 79/171/125 80/172/125 78/173/125
f 78/173/126 80/174/126 76/175/126
f 79/171/127 78/173/127 81/176/127
f 77/169/128 79/171/128 81/177/128
f 78/173/129 76/175/129 81/178/129
f 76/167/130 77/169/130 81/179/130
o Cube.008_Cube
v 0.039130 -0.569519 -0.037159
v -0.007261 -0.596303 -0.037159
v 0.039130 -0.569519 0.016408
v -0.007261 -0.596303 0.016408
v 0.105213 -0.737546 -0.010375
v -0.001921 -0.551984 -0.010375
vt 0.375000 0.000000
vt 0.625000 0.250000
vt 0.375000 0.250000
vt 0.625000 0.500000
vt 0.375000 0.500000
vt 0.625000 0.750000
vt 0.375000 0.750000
vt 0.625000 1.000000
vt 0.375000 1.000000
vt 0.375000 0.500000
vt 0.375000 0.250000
vt 0.375000 0.750000
vt 0.375000 0.000000
vn 0.0742 -0.1285 -0.9889
vn -0.7823 -0.6229 0.0000
vn 0.0742 -0.1285 0.9889
vn 0.9306 0.3660 0.0000
vn -0.3000 0.5196 0.8000
vn -0.9928 0.1196 0.0000
vn 0.3928 0.9196 0.0000
vn -0.3000 0.5196 -0.8000
g Cube.008_Cube_Material.002
usemtl Material.002
s off
f 82/180/131 86/181/131 83/182/131
f 83/182/132 86/183/132 85/184/132
f 85/184/133 86/185/133 84/186/133
f 84/186/134 86/187/134 82/188/134
f 85/184/135 84/186/135 87/189/135
f 83/182/136 85/184/136 87/190/136
f 84/186/137 82/188/137 87/191/137
f 82/180/138 83/182/138 87/192/138
o Cube.009_Cube
v 0.039401 -0.150801 0.030783
v 0.016606 -0.163962 0.030783
v 0.039401 -0.150801 0.057105
v 0.016606 -0.163962 0.057105
v 0.071874 -0.233368 0.043944
v 0.019229 -0.142184 0.043944
vt 0.375000 0.000000
vt 0.625000 0.250000
vt 0.375000 0.250000
vt 0.625000 0.500000
vt 0.375000 0.500000
vt 0.625000 0.750000
vt 0.375000 0.750000
vt 0.625000 1.000000
vt 0.375000 1.000000
vt 0.375000 0.500000
vt 0.375000 0.250000
vt 0.375000 0.750000
vt 0.375000 0.000000
vn 0.0742 -0.1285 -0.9889
vn -0.7823 -0.6229 0.0000
vn 0.0742 -0.1285 0.9889
vn 0.9306 0.3660 0.0000
vn -0.3000 0.5196 0.8000
vn -0.9928 0.1196 -0.0000
vn 0.3928 0.9196 0.0000
vn -0.3000 0.5196 -0.8000
g Cube.009_Cube_Material.002
usemtl Material.002
s off
f 88/193/139 92/194/139 89/195/139
f 89/195/140 92/196/140 91/197/140
f 91/197/141 92/198/141 90/199/141
f 90/199/142 92/200/142 88/201/142
f 91/197/143 90/199/143 93/202/143
f 89/195/144 91/197/144 93/203/144
f 90/199/145 88/201/145 93/204/145
f 88/193/146 89/195/146 93/205/146
o Cube.010_Cube
v 0.049149 -0.386436 -0.041700
v 0.017794 -0.404539 -0.041700
v 0.049149 -0.386436 -0.005495
v 0.017794 -0.404539 -0.005495
v 0.093813 -0.500002 -0.023597
v 0.021403 -0.374585 -0.023597
vt 0.375000 0.000000
vt 0.625000 0.250000
vt 0.375000 0.250000
vt 0.625000 0.500000
vt 0.375000 0.500000
vt 0.625000 0.750000
vt 0.375000 0.750000
vt 0.625000 1.000000
vt 0.375000 1.000000
vt 0.375000 0.500000
vt 0.375000 0.250000
vt 0.375000 0.750000
vt 0.375000 0.000000
vn 0.0742 -0.1285 -0.9889
vn -0.7823 -0.6229 0.0000
vn 0.0742 -0.1285 0.9889
vn 0.9306 0.3660 0.0000
vn -0.3000 0.5196 0.8000
vn -0.9928 0.1196 -0.0000
vn 0.3928 0.9196 0.0000
vn -0.3000 0.5196 -0.8000
g Cube.010_Cube_Material.002
usemtl Material.002
s off
f 94/206/147 98/207/147 95/208/147
f 95/208/148 98/209/148 97/210/148
f 97/210/149 98/211/149 96/212/149
f 96/212/150 98/213/150 94/214/150
f 97/210/151 96/212/151 99/215/151
f 95/208/152 97/210/152 99/216/152
f 96/212/153 94/214/153 99/217/153
f 94/206/154 95/208/154 99/218/154
