# Blender v2.93.10 OBJ File: 'spider leg root.blend'
# www.blender.org
mtllib spider leg root.mtl
o Cylinder
v 0.043790 0.633511 0.210839
v -0.049778 0.803568 0.164097
v 0.094900 -0.843681 0.100986
v 0.114290 -0.670296 0.288110
v 0.093859 -0.535728 0.306229
v 0.159892 -0.781985 0.196773
v 0.138062 0.638415 0.163198
v 0.092289 0.802163 0.139375
v 0.115901 0.724102 0.172324
v 0.199411 0.637119 0.079329
v 0.155933 0.803220 0.055885
v 0.231568 -0.537650 0.225784
v 0.237549 -0.782422 0.070771
v 0.296013 -0.665556 0.091803
v 0.052556 0.844477 0.078657
v 0.190680 0.724698 0.084193
v 0.306827 -0.535288 0.089913
v -0.194465 0.718008 0.081807
v -0.088494 -0.844105 0.107830
v -0.212772 -0.782497 0.143782
v -0.285416 -0.668997 0.122435
v -0.307399 -0.399266 0.106335
v -0.153062 0.803144 0.063401
v -0.242463 -0.419865 0.215369
v -0.198983 -0.665570 0.236916
v -0.070133 0.843154 0.057557
v -0.148488 -0.465585 0.285910
v -0.024631 -0.782512 0.250084
v -0.015141 0.729696 0.208225
v -0.056110 -0.667581 0.307225
v -0.049371 -0.520250 0.316314
v 0.237251 -0.666910 0.198342
v -0.188082 0.548413 0.111821
v -0.105226 0.717177 0.183331
v 0.045476 0.362778 0.180093
v -0.004009 -0.000447 0.211939
v 0.027821 -0.150919 0.199514
v 0.136255 -0.129440 0.155246
v 0.114856 -0.257500 0.185432
v 0.181128 0.133163 0.097424
v 0.174825 -0.253702 0.100026
v 0.114300 0.381265 0.089142
v 0.102226 0.008645 0.191091
v 0.200556 0.000444 0.076103
v -0.260283 -0.002354 0.067861
v -0.216452 -0.034638 0.144971
v -0.140717 -0.107500 0.205928
v -0.056806 -0.212837 0.242745
v -0.072132 0.356943 0.209894
v -0.194210 0.180230 0.156959
v -0.060652 0.169784 0.251179
v 0.043790 0.633511 -0.210839
v -0.049371 -0.520250 -0.316314
v -0.049778 0.803568 -0.164096
v 0.094900 -0.843681 -0.100986
v 0.114290 -0.670296 -0.288110
v 0.093859 -0.535727 -0.306229
v 0.159892 -0.781985 -0.196774
v 0.138062 0.638415 -0.163198
v 0.092289 0.802163 -0.139375
v 0.115901 0.724102 -0.172323
v 0.199411 0.637119 -0.079328
v 0.231568 -0.537650 -0.225785
v 0.237549 -0.782422 -0.070772
v 0.296013 -0.665556 -0.091803
v 0.052556 0.844477 -0.078656
v 0.190680 0.724698 -0.084192
v 0.306827 -0.535288 -0.089914
v 0.216099 0.691091 0.000000
v 0.057113 0.850117 0.000000
v 0.318750 -0.536361 -0.000000
v 0.130770 -0.842851 -0.000000
v 0.246903 -0.782074 -0.000000
v 0.307975 -0.666500 -0.000000
v -0.092363 -0.853764 -0.000000
v -0.148219 0.820565 0.000000
v -0.246903 -0.782074 -0.000000
v -0.313329 -0.653934 -0.000000
v -0.194465 0.718008 -0.081807
v -0.088494 -0.844105 -0.107831
v -0.212772 -0.782497 -0.143783
v -0.285416 -0.668997 -0.122436
v -0.307399 -0.399265 -0.106335
v -0.153062 0.803144 -0.063400
v -0.242463 -0.419865 -0.215370
v -0.198983 -0.665570 -0.236916
v -0.070133 0.843154 -0.057556
v -0.148488 -0.465584 -0.285911
v -0.024631 -0.782512 -0.250084
v -0.056110 -0.667580 -0.307226
v -0.015141 0.729696 -0.208224
v -0.318750 -0.326673 -0.000000
v 0.237251 -0.666909 -0.198343
v -0.188082 0.548413 -0.111820
v 0.155933 0.803220 -0.055884
v 0.164602 0.802333 0.000000
v -0.105226 0.717177 -0.183331
v 0.045476 0.362778 -0.180093
v -0.004009 -0.000447 -0.211939
v 0.027821 -0.150919 -0.199514
v 0.136255 -0.129440 -0.155246
v 0.114856 -0.257500 -0.185432
v 0.181128 0.133163 -0.097424
v 0.174825 -0.253702 -0.100026
v 0.114300 0.381265 -0.089142
v 0.191336 -0.253279 -0.000000
v 0.127500 0.383115 0.000000
v 0.102226 0.008645 -0.191091
v 0.200556 0.000444 -0.076103
v 0.212968 0.061910 0.000000
v -0.267497 -0.002284 -0.000000
v -0.204823 0.707602 0.000000
v -0.260283 -0.002354 -0.067861
v -0.216452 -0.034638 -0.144971
v -0.140717 -0.107500 -0.205929
v -0.056806 -0.212837 -0.242745
v -0.072132 0.356944 -0.209894
v -0.194210 0.180230 -0.156959
v -0.060652 0.169784 -0.251179
vt 0.026093 0.537593
vt 0.000000 0.637319
vt 0.000000 0.562199
vt 0.952663 0.937801
vt 0.898635 0.862681
vt 0.985351 0.804013
vt 0.872848 0.937801
vt 0.821248 0.862681
vt 0.795362 0.937801
vt 0.750000 0.862696
vt 0.999472 0.963319
vt 0.940467 0.963319
vt 0.888231 0.562199
vt 0.815896 0.536681
vt 0.905146 0.536681
vt 0.797836 0.963319
vt 0.861358 0.963319
vt 0.816022 1.000000
vt 0.750316 0.546930
vt 0.810331 0.562199
vt 0.777728 0.500000
vt 0.750000 0.937801
vt 0.750528 0.963319
vt 0.777728 1.000000
vt 0.753522 1.000000
vt 1.000000 0.750117
vt 0.923712 0.747888
vt 0.750000 0.637319
vt 0.828668 0.712440
vt 0.827034 0.637319
vt 0.885291 0.787560
vt 0.809193 0.749795
vt 0.945557 0.637319
vt 0.967582 0.562199
vt 0.750000 0.731928
vt 0.041017 0.717494
vt 0.000000 0.750117
vt 0.026093 0.537593
vt 0.000000 0.637319
vt 0.050664 0.651015
vt 0.898635 0.862681
vt 0.952663 0.937801
vt 0.985351 0.804013
vt 0.821248 0.862681
vt 0.872848 0.937801
vt 0.795362 0.937801
vt 0.999472 0.963319
vt 1.000000 0.937801
vt 0.888231 0.562199
vt 0.815896 0.536681
vt 0.810331 0.562199
vt 0.797836 0.963319
vt 0.777728 0.500000
vt 0.777728 1.000000
vt 0.827034 0.637319
vt 0.828668 0.712440
vt 0.809193 0.749795
vt 0.945557 0.637319
vt 0.885291 0.787560
vt 0.923712 0.747888
vt 0.041017 0.717494
vt 0.000000 0.804013
vt 0.031250 0.836676
vt 0.050664 0.651015
vt 1.000000 0.937801
vt 0.983185 0.536681
vt 0.753522 0.500000
vt 0.000000 0.804013
vt 0.031250 0.836676
vt 0.025392 0.934523
vt 0.000000 0.562199
vt 0.940467 0.963319
vt 0.983185 0.536681
vt 0.905146 0.536681
vt 0.967582 0.562199
vt 0.861358 0.963319
vt 0.816022 1.000000
vt 1.000000 0.750117
vt 0.025392 0.934523
vt 0.000000 0.750117
vt 0.249554 0.541921
vt 0.171584 0.583788
vt 0.188408 0.539217
vt 0.986207 1.000000
vt 0.312526 0.316261
vt 0.193656 0.319482
vt 0.180932 0.250000
vt 0.941022 0.500000
vt 0.965228 0.500000
vt 0.836770 0.473270
vt 0.797918 0.320897
vt 0.801896 0.483849
vt 0.946189 0.387436
vt 0.923069 0.415607
vt 0.989480 0.255277
vt 0.985908 0.291545
vt 0.485908 0.291545
vt 0.348462 0.250000
vt 0.489480 0.255277
vt 0.246478 0.500000
vt 0.547586 0.253890
vt 0.677909 0.309292
vt 0.814063 0.250000
vt 0.249524 0.960785
vt 0.185760 0.963319
vt 0.202172 0.911578
vt 0.222272 1.000000
vt 0.010520 0.255277
vt 0.014092 0.291545
vt 0.140050 0.915346
vt 0.101133 0.542952
vt 0.152728 0.500000
vt 0.141222 1.000000
vt 0.111134 0.963319
vt 0.080634 0.924083
vt 0.078125 0.500000
vt 0.029028 0.963319
vt 0.090228 1.000000
vt 0.066022 1.000000
vt 0.121339 0.452052
vt 0.153480 0.469232
vt 0.681122 0.478698
vt 0.871478 0.500000
vt 0.205872 0.748489
vt 0.250000 0.896686
vt 0.143962 0.760116
vt 0.084024 0.796399
vt 0.139101 0.700544
vt 0.986207 1.000000
vt 0.312526 0.316261
vt 0.193656 0.319482
vt 0.941022 0.500000
vt 0.797918 0.320897
vt 0.836770 0.473270
vt 0.801896 0.483849
vt 0.336770 0.473270
vt 0.301896 0.483849
vt 0.946189 0.387436
vt 0.923069 0.415607
vt 0.469232 0.346520
vt 0.452052 0.378661
vt 0.985908 0.291545
vt 0.485908 0.291545
vt 0.188408 0.539217
vt 0.677909 0.309292
vt 0.222272 1.000000
vt 0.185760 0.963319
vt 0.014092 0.291545
vt 0.202172 0.911578
vt 0.140050 0.915346
vt 0.101133 0.542952
vt 0.171584 0.583788
vt 0.128522 0.500000
vt 0.553811 0.387436
vt 0.576931 0.415607
vt 0.141222 1.000000
vt 0.111134 0.963319
vt 0.080634 0.924083
vt 0.078125 0.500000
vt 0.029028 0.963319
vt 0.090228 1.000000
vt 0.121339 0.452052
vt 0.153480 0.469232
vt 0.840228 1.000000
vt 0.891373 1.000000
vt 0.871478 0.500000
vt 0.205872 0.748489
vt 0.250000 0.746273
vt 0.143962 0.760116
vt 0.084024 0.796399
vt 0.139101 0.700544
vt 0.270665 0.487965
vt 0.965228 1.000000
vt 0.941022 1.000000
vt 0.336770 0.473270
vt 0.301896 0.483849
vt 0.469232 0.346520
vt 0.452052 0.378661
vt 0.222272 0.500000
vt 0.514092 0.291545
vt 0.246478 1.000000
vt 0.128522 0.500000
vt 0.553811 0.387436
vt 0.576931 0.415607
vt 0.840228 1.000000
vt 0.891373 1.000000
vt 0.847272 0.500000
vt 0.270665 0.487965
vt 0.965228 0.500000
vt 0.941022 1.000000
vt 0.965228 1.000000
vt 0.222272 0.500000
vt 0.514092 0.291545
vt 0.152728 0.500000
vt 0.066022 1.000000
vt 0.681122 0.478698
vt 0.847272 0.500000
vn -0.0176 0.2818 0.9593
vn 0.5193 0.0302 0.8540
vn 0.1396 -0.0327 0.9897
vn 0.2987 0.1111 0.9478
vn 0.6206 0.2559 0.7412
vn 0.3841 0.0730 0.9203
vn 0.7141 0.1326 0.6873
vn 0.9003 0.1890 0.3920
vn 0.9398 0.1627 0.3005
vn 0.9841 0.1777 0.0000
vn -0.1855 -0.2874 0.9397
vn 0.3404 -0.2880 0.8951
vn 0.6671 -0.0577 0.7427
vn 0.8644 0.2962 0.4063
vn 0.5267 0.2808 0.8023
vn 0.9138 -0.2700 0.3033
vn 0.7414 -0.2754 0.6119
vn 0.6811 -0.6952 0.2298
vn 0.9948 0.1021 0.0000
vn 0.9295 -0.1370 0.3424
vn 0.6644 0.7064 0.2442
vn 0.9863 0.1647 0.0000
vn 0.9610 -0.2764 0.0000
vn 0.7182 -0.6959 0.0000
vn 0.5254 0.0590 0.8488
vn 0.4920 0.0151 0.8704
vn 0.9996 -0.0263 0.0000
vn 0.8732 0.1666 0.4580
vn 0.9148 -0.0243 0.4031
vn 0.6450 -0.0066 0.7641
vn 0.9215 -0.0067 0.3883
vn 0.9949 0.1006 0.0000
vn -0.0199 0.0682 0.9975
vn -0.0176 0.2818 -0.9593
vn 0.5193 0.0302 -0.8540
vn -0.1944 0.1100 -0.9747
vn 0.6206 0.2559 -0.7412
vn 0.2987 0.1111 -0.9478
vn 0.3841 0.0730 -0.9203
vn 0.9003 0.1890 -0.3920
vn 0.7141 0.1326 -0.6873
vn 0.9398 0.1627 -0.3005
vn -0.1855 -0.2874 -0.9397
vn -0.0819 0.0842 -0.9931
vn 0.6671 -0.0577 -0.7427
vn 0.8644 0.2962 -0.4063
vn 0.9295 -0.1370 -0.3424
vn 0.9138 -0.2700 -0.3033
vn 0.6644 0.7064 -0.2442
vn 0.6811 -0.6952 -0.2298
vn 0.9148 -0.0243 -0.4031
vn 0.8732 0.1666 -0.4580
vn 0.9215 -0.0067 -0.3883
vn 0.6450 -0.0066 -0.7641
vn 0.4920 0.0151 -0.8704
vn -0.0199 0.0682 -0.9975
vn 0.0748 0.1677 -0.9830
vn -0.1944 0.1100 0.9747
vn -0.0819 0.0842 0.9931
vn 0.7146 0.6995 0.0000
vn 0.0748 0.1677 0.9830
vn 0.1396 -0.0327 -0.9897
vn 0.3404 -0.2880 -0.8951
vn 0.5267 0.2808 -0.8023
vn 0.7414 -0.2754 -0.6119
vn 0.5254 0.0590 -0.8488
vn -0.9745 0.2243 0.0000
vn -0.8347 0.0635 0.5470
vn -0.8930 0.2573 0.3691
vn -0.0840 -0.6978 0.7113
vn 0.1923 -0.9530 0.2340
vn -0.1950 -0.9462 0.2581
vn -0.2082 -0.9781 -0.0001
vn 0.3922 0.6732 0.6268
vn -0.2158 0.7039 0.6767
vn 0.1726 0.9478 0.2681
vn 0.2852 -0.9585 0.0000
vn -0.6165 0.7873 0.0000
vn -0.2146 0.9666 0.1403
vn 0.1861 0.9825 0.0000
vn -0.9668 -0.2556 0.0000
vn -0.8870 -0.2807 0.3665
vn -0.9406 0.0454 0.3364
vn -0.5944 -0.6868 0.4183
vn -0.7151 -0.6990 -0.0001
vn -0.7209 0.0738 0.6891
vn -0.5300 0.2467 0.8113
vn -0.6818 0.6581 0.3194
vn -0.5908 -0.2907 0.7526
vn -0.4064 0.0852 0.9097
vn -0.9414 0.1125 0.3179
vn -0.9959 0.0900 0.0000
vn -0.7350 0.0958 0.6712
vn -0.4653 0.0907 0.8805
vn -0.7257 0.0793 0.6834
vn -0.0840 -0.6978 -0.7113
vn 0.1923 -0.9530 -0.2340
vn -0.1952 -0.9462 -0.2580
vn 0.3922 0.6732 -0.6268
vn 0.1726 0.9478 -0.2681
vn -0.2253 0.7017 -0.6759
vn 0.4472 -0.6868 -0.5730
vn -0.8878 0.2655 -0.3759
vn -0.2146 0.9666 -0.1403
vn -0.5944 -0.6869 -0.4182
vn -0.8870 -0.2807 -0.3665
vn -0.9406 0.0454 -0.3364
vn -0.7209 0.0738 -0.6891
vn -0.5362 0.2597 -0.8031
vn -0.8347 0.0635 -0.5470
vn -0.6818 0.6507 -0.3343
vn -0.5908 -0.2907 -0.7526
vn -0.4064 0.0852 -0.9097
vn -0.9414 0.1125 -0.3179
vn -0.9925 0.1223 0.0000
vn -0.7350 0.0958 -0.6712
vn -0.4653 0.0907 -0.8805
vn -0.7257 0.0793 -0.6834
vn 0.4472 -0.6868 0.5730
g Cylinder_Cylinder_Material
usemtl Material
s 1
f 29/1/1 35/2/2 1/3/3
f 5/4/4 39/5/5 37/6/6
f 12/7/7 41/8/8 39/5/5
f 17/9/9 106/10/10 41/8/8
f 5/4/4 30/11/11 4/12/12
f 7/13/13 16/14/14 9/15/15
f 12/7/7 14/16/16 17/9/9
f 14/16/16 32/17/17 13/18/18
f 69/19/19 16/14/14 10/20/20
f 69/19/19 11/21/21 16/14/14
f 71/22/22 14/16/16 74/23/23
f 74/23/23 13/24/18 73/25/24
f 36/26/25 37/6/6 43/27/26
f 10/20/20 107/28/27 69/19/19
f 40/29/28 107/28/27 42/30/29
f 38/31/30 41/8/8 44/32/31
f 7/13/13 42/30/29 10/20/20
f 40/29/28 42/30/29 35/33/2
f 38/31/30 44/32/31 43/27/26
f 1/34/3 35/33/2 7/13/13
f 44/32/31 110/35/32 40/29/28
f 35/2/2 51/36/33 36/37/25
f 91/38/34 98/39/35 117/40/36
f 102/41/37 57/42/38 100/43/39
f 104/44/40 63/45/41 102/41/37
f 106/10/10 68/46/42 104/44/40
f 57/42/38 90/47/43 53/48/44
f 59/49/45 67/50/46 62/51/47
f 65/52/48 63/45/41 68/46/42
f 67/50/46 69/19/19 62/51/47
f 95/53/49 69/19/19 67/50/46
f 71/22/22 65/52/48 68/46/42
f 74/23/23 64/54/50 65/52/48
f 62/51/47 107/28/27 105/55/51
f 107/28/27 103/56/52 105/55/51
f 109/57/53 106/10/10 104/44/40
f 59/49/45 105/55/51 98/58/35
f 105/55/51 103/56/52 98/58/35
f 109/57/53 101/59/54 108/60/55
f 101/59/54 104/44/40 102/41/37
f 101/59/54 102/41/37 100/43/39
f 110/35/32 109/57/53 103/56/52
f 98/39/35 119/61/56 117/40/36
f 100/62/39 116/63/57 119/61/56
f 29/1/1 49/64/58 35/2/2
f 5/4/4 12/7/7 39/5/5
f 12/7/7 17/9/9 41/8/8
f 17/9/9 71/22/22 106/10/10
f 31/65/59 5/4/4 37/6/6
f 5/4/4 31/65/59 30/11/11
f 1/34/3 9/15/15 29/66/1
f 9/15/15 1/34/3 7/13/13
f 12/7/7 5/4/4 4/12/12
f 12/7/7 4/12/12 32/17/17
f 7/13/13 10/20/20 16/14/14
f 12/7/7 32/17/17 14/16/16
f 69/19/19 96/67/60 11/21/21
f 71/22/22 17/9/9 14/16/16
f 74/23/23 14/16/16 13/24/18
f 36/26/25 43/27/26 35/33/2
f 37/6/6 38/31/30 43/27/26
f 10/20/20 42/30/29 107/28/27
f 40/29/28 110/35/32 107/28/27
f 44/32/31 106/10/10 110/35/32
f 44/32/31 41/8/8 106/10/10
f 7/13/13 35/33/2 42/30/29
f 38/31/30 39/5/5 41/8/8
f 43/27/26 40/29/28 35/33/2
f 38/31/30 37/6/6 39/5/5
f 43/27/26 44/32/31 40/29/28
f 37/68/6 48/69/61 31/70/59
f 35/2/2 49/64/58 51/36/33
f 37/68/6 36/37/25 51/36/33
f 51/36/33 48/69/61 37/68/6
f 91/38/34 52/71/62 98/39/35
f 102/41/37 63/45/41 57/42/38
f 104/44/40 68/46/42 63/45/41
f 106/10/10 71/22/22 68/46/42
f 100/43/39 57/42/38 53/48/44
f 57/42/38 56/72/63 90/47/43
f 91/73/34 61/74/64 52/75/62
f 59/49/45 52/75/62 61/74/64
f 57/42/38 63/45/41 56/72/63
f 93/76/65 56/72/63 63/45/41
f 59/49/45 61/74/64 67/50/46
f 65/52/48 93/76/65 63/45/41
f 65/52/48 64/77/50 93/76/65
f 95/53/49 96/67/60 69/19/19
f 71/22/22 74/23/23 65/52/48
f 74/23/23 73/25/24 64/54/50
f 98/58/35 108/60/55 99/78/66
f 99/78/66 108/60/55 100/43/39
f 108/60/55 101/59/54 100/43/39
f 62/51/47 69/19/19 107/28/27
f 107/28/27 110/35/32 103/56/52
f 110/35/32 106/10/10 109/57/53
f 101/59/54 109/57/53 104/44/40
f 59/49/45 62/51/47 105/55/51
f 98/58/35 103/56/52 108/60/55
f 52/75/62 59/49/45 98/58/35
f 103/56/52 109/57/53 108/60/55
f 116/63/57 100/62/39 53/79/44
f 98/39/35 99/80/66 119/61/56
f 119/61/56 99/80/66 100/62/39
g Cylinder_Cylinder_Material.007
usemtl Material.007
f 112/81/67 33/82/68 18/83/69
f 30/11/11 28/84/70 4/12/12
f 3/85/71 19/86/72 75/87/73
f 29/66/1 8/88/74 2/89/75
f 8/90/74 15/91/76 2/92/75
f 11/93/21 15/91/76 8/94/74
f 96/95/60 15/91/76 11/96/21
f 13/97/18 72/98/77 73/99/24
f 72/98/77 3/85/71 75/87/73
f 18/83/69 76/100/78 112/81/67
f 76/101/78 26/102/79 70/103/80
f 78/104/81 21/105/82 22/106/83
f 78/104/81 20/107/84 21/105/82
f 77/108/85 19/86/72 20/109/84
f 22/106/83 21/105/82 24/110/86
f 34/111/87 23/112/88 18/83/69
f 21/105/82 20/113/84 25/114/89
f 24/110/86 25/114/89 27/115/90
f 29/1/1 2/116/75 34/111/87
f 30/117/11 20/118/84 28/119/70
f 20/120/84 19/86/72 28/121/70
f 2/122/75 15/91/76 26/102/79
f 26/102/79 15/91/76 70/103/80
f 16/14/14 8/123/74 9/15/15
f 45/124/91 92/125/92 22/106/83
f 46/126/93 22/106/83 24/110/86
f 47/127/94 24/110/86 27/115/90
f 34/111/87 49/64/58 29/1/1
f 33/82/68 49/64/58 34/111/87
f 50/128/95 47/127/94 51/36/33
f 45/124/91 46/126/93 50/128/95
f 112/81/67 45/124/91 33/82/68
f 48/69/61 27/115/90 31/70/59
f 50/128/95 51/36/33 49/64/58
f 47/127/94 48/69/61 51/36/33
f 89/129/96 90/47/43 56/72/63
f 55/130/97 75/87/73 80/131/98
f 91/73/34 60/132/99 61/74/64
f 66/133/100 60/134/99 54/135/101
f 58/136/102 55/130/97 89/137/96
f 66/133/100 95/138/49 60/139/99
f 64/140/50 55/130/97 58/141/102
f 66/133/100 96/95/60 95/142/49
f 72/98/77 64/143/50 73/99/24
f 72/98/77 75/87/73 55/130/97
f 76/100/78 79/144/103 112/81/67
f 76/101/78 70/103/80 87/145/104
f 81/146/105 78/104/81 82/147/106
f 81/148/105 75/87/73 77/108/85
f 82/147/106 83/149/107 85/150/108
f 79/144/103 97/151/109 94/152/110
f 79/144/103 54/153/101 97/151/109
f 84/154/111 87/145/104 54/155/101
f 81/156/105 82/147/106 86/157/112
f 86/157/112 85/150/108 88/158/113
f 54/159/101 91/38/34 97/151/109
f 90/160/43 81/161/105 86/157/112
f 80/131/98 81/162/105 89/163/96
f 87/145/104 70/103/80 66/133/100
f 53/79/44 90/160/43 88/158/113
f 64/77/50 58/164/102 93/76/65
f 83/149/107 78/104/81 92/125/92
f 93/76/65 58/165/102 56/72/63
f 60/166/99 67/50/46 61/74/64
f 113/167/114 92/125/92 111/168/115
f 114/169/116 83/149/107 113/167/114
f 115/170/117 85/150/108 114/169/116
f 117/40/36 94/152/110 97/151/109
f 115/170/117 118/171/118 119/61/56
f 114/169/116 113/167/114 118/171/118
f 113/167/114 112/81/67 94/152/110
f 116/63/57 88/158/113 115/170/117
f 113/167/114 111/168/115 112/81/67
f 119/61/56 118/171/118 117/40/36
f 115/170/117 119/61/56 116/63/57
f 28/172/70 19/86/72 3/85/71
f 29/66/1 9/15/15 8/88/74
f 4/12/12 28/173/70 6/174/119
f 6/175/119 28/176/70 3/85/71
f 13/177/18 6/178/119 3/85/71
f 96/95/60 70/103/80 15/91/76
f 13/97/18 3/85/71 72/98/77
f 18/83/69 23/179/88 76/100/78
f 23/180/88 26/102/79 76/101/78
f 78/104/81 77/181/85 20/107/84
f 77/108/85 75/87/73 19/86/72
f 33/82/68 34/111/87 18/83/69
f 34/111/87 2/182/75 23/112/88
f 23/183/88 2/184/75 26/102/79
f 24/110/86 21/105/82 25/114/89
f 27/115/90 25/114/89 30/117/11
f 30/117/11 25/114/89 20/118/84
f 31/70/59 27/115/90 30/117/11
f 13/18/18 32/17/17 6/185/119
f 22/106/83 92/125/92 78/104/81
f 32/17/17 4/12/12 6/186/119
f 16/14/14 11/187/21 8/123/74
f 45/124/91 111/168/115 92/125/92
f 46/126/93 45/124/91 22/106/83
f 47/127/94 46/126/93 24/110/86
f 33/82/68 50/128/95 49/64/58
f 50/128/95 46/126/93 47/127/94
f 33/82/68 45/124/91 50/128/95
f 48/69/61 47/127/94 27/115/90
f 45/124/91 112/81/67 111/168/115
f 112/81/67 79/144/103 94/152/110
f 55/130/97 80/131/98 89/188/96
f 91/73/34 54/189/101 60/132/99
f 58/190/102 89/191/96 56/72/63
f 66/133/100 70/103/80 96/95/60
f 72/98/77 55/130/97 64/143/50
f 76/100/78 84/192/111 79/144/103
f 76/101/78 87/145/104 84/193/111
f 83/149/107 82/147/106 78/104/81
f 81/146/105 77/181/85 78/104/81
f 81/148/105 80/131/98 75/87/73
f 79/144/103 84/194/111 54/153/101
f 86/157/112 82/147/106 85/150/108
f 90/160/43 86/157/112 88/158/113
f 90/160/43 89/195/96 81/161/105
f 54/196/101 87/145/104 66/133/100
f 60/166/99 95/197/49 67/50/46
f 113/167/114 83/149/107 92/125/92
f 114/169/116 85/150/108 83/149/107
f 115/170/117 88/158/113 85/150/108
f 91/38/34 117/40/36 97/151/109
f 117/40/36 118/171/118 94/152/110
f 115/170/117 114/169/116 118/171/118
f 118/171/118 113/167/114 94/152/110
f 116/63/57 53/79/44 88/158/113
