{
    "asset" : {
        "generator" : "Khronos glTF Blender I/O v1.6.16",
        "version" : "2.0"
    },
    "scene" : 0,
    "scenes" : [
        {
            "name" : "Scene",
            "nodes" : [
                0,
                1,
                2
            ]
        }
    ],
    "nodes" : [
        {
            "mesh" : 0,
            "name" : "Sphere.003",
            "rotation" : [
                0.7071068286895752,
                0,
                0,
                0.7071068286895752
            ],
            "scale" : [
                0.5,
                0.5,
                0.5
            ]
        },
        {
            "mesh" : 1,
            "name" : "Sphere.004",
            "rotation" : [
                0.7071068286895752,
                0,
                0,
                0.7071068286895752
            ],
            "scale" : [
                0.5,
                0.5,
                0.5
            ]
        },
        {
            "mesh" : 2,
            "name" : "Cube.024",
            "rotation" : [
                -0.154667928814888,
                0.3709038197994232,
                -0.5912084579467773,
                0.6992716193199158
            ],
            "scale" : [
                0.5448666214942932,
                0.544866681098938,
                0.544866681098938
            ],
            "translation" : [
                -0.3290477991104126,
                0.17941051721572876,
                -0.32549381256103516
            ]
        }
    ],
    "materials" : [
        {
            "doubleSided" : true,
            "emissiveFactor" : [
                1,
                1,
                0.06620970368385315
            ],
            "name" : "Material.006",
            "pbrMetallicRoughness" : {
                "baseColorFactor" : [
                    1,
                    0.6038272380828857,
                    0.033104851841926575,
                    1
                ],
                "metallicFactor" : 0,
                "roughnessFactor" : 0.5
            }
        },
        {
            "doubleSided" : true,
            "name" : "Material.007",
            "pbrMetallicRoughness" : {
                "baseColorFactor" : [
                    0.07036013901233673,
                    0.11443538963794708,
                    0.26225072145462036,
                    1
                ],
                "metallicFactor" : 0,
                "roughnessFactor" : 0.5
            }
        }
    ],
    "meshes" : [
        {
            "extras" : {
                "targetNames" : [
                    "Key 1"
                ]
            },
            "name" : "Sphere.006",
            "primitives" : [
                {
                    "attributes" : {
                        "POSITION" : 0,
                        "NORMAL" : 1,
                        "TEXCOORD_0" : 2
                    },
                    "indices" : 3,
                    "material" : 0,
                    "targets" : [
                        {
                            "POSITION" : 4,
                            "NORMAL" : 5
                        }
                    ]
                },
                {
                    "attributes" : {
                        "POSITION" : 6,
                        "NORMAL" : 7,
                        "TEXCOORD_0" : 8
                    },
                    "indices" : 9,
                    "material" : 1,
                    "targets" : [
                        {
                            "POSITION" : 10,
                            "NORMAL" : 11
                        }
                    ]
                }
            ],
            "weights" : [
                1
            ]
        },
        {
            "name" : "Sphere.007",
            "primitives" : [
                {
                    "attributes" : {
                        "POSITION" : 12,
                        "NORMAL" : 13,
                        "TEXCOORD_0" : 14
                    },
                    "indices" : 15,
                    "material" : 1
                },
                {
                    "attributes" : {
                        "POSITION" : 16,
                        "NORMAL" : 17,
                        "TEXCOORD_0" : 18
                    },
                    "indices" : 19,
                    "material" : 0
                }
            ]
        },
        {
            "name" : "Cube.001",
            "primitives" : [
                {
                    "attributes" : {
                        "POSITION" : 20,
                        "NORMAL" : 21,
                        "TEXCOORD_0" : 22
                    },
                    "indices" : 23,
                    "material" : 0
                }
            ]
        }
    ],
    "accessors" : [
        {
            "bufferView" : 0,
            "componentType" : 5126,
            "count" : 311,
            "max" : [
                0.9499996900558472,
                0.949999988079071,
                0.8381196856498718
            ],
            "min" : [
                -0.5046558976173401,
                -0.04056172072887421,
                -0.838119626045227
            ],
            "type" : "VEC3"
        },
        {
            "bufferView" : 1,
            "componentType" : 5126,
            "count" : 311,
            "type" : "VEC3"
        },
        {
            "bufferView" : 2,
            "componentType" : 5126,
            "count" : 311,
            "type" : "VEC2"
        },
        {
            "bufferView" : 3,
            "componentType" : 5123,
            "count" : 1239,
            "type" : "SCALAR"
        },
        {
            "bufferView" : 4,
            "componentType" : 5126,
            "count" : 311,
            "max" : [
                0,
                0,
                0.06676816940307617
            ],
            "min" : [
                0,
                0,
                -0.023604214191436768
            ],
            "type" : "VEC3"
        },
        {
            "bufferView" : 5,
            "componentType" : 5126,
            "count" : 311,
            "type" : "VEC3"
        },
        {
            "bufferView" : 6,
            "componentType" : 5126,
            "count" : 105,
            "max" : [
                0.706391453742981,
                0.8676628470420837,
                0.4803459346294403
            ],
            "min" : [
                -0.19810037314891815,
                0.3223918378353119,
                -0.6206763982772827
            ],
            "type" : "VEC3"
        },
        {
            "bufferView" : 7,
            "componentType" : 5126,
            "count" : 105,
            "type" : "VEC3"
        },
        {
            "bufferView" : 8,
            "componentType" : 5126,
            "count" : 105,
            "type" : "VEC2"
        },
        {
            "bufferView" : 9,
            "componentType" : 5123,
            "count" : 312,
            "type" : "SCALAR"
        },
        {
            "bufferView" : 10,
            "componentType" : 5126,
            "count" : 105,
            "max" : [
                0,
                0,
                0.0625154972076416
            ],
            "min" : [
                0,
                0,
                0
            ],
            "type" : "VEC3"
        },
        {
            "bufferView" : 11,
            "componentType" : 5126,
            "count" : 105,
            "type" : "VEC3"
        },
        {
            "bufferView" : 12,
            "componentType" : 5126,
            "count" : 666,
            "max" : [
                0.9957945346832275,
                1,
                0.9999994039535522
            ],
            "min" : [
                -0.9999990463256836,
                -1,
                -0.9999987483024597
            ],
            "type" : "VEC3"
        },
        {
            "bufferView" : 13,
            "componentType" : 5126,
            "count" : 666,
            "type" : "VEC3"
        },
        {
            "bufferView" : 14,
            "componentType" : 5126,
            "count" : 666,
            "type" : "VEC2"
        },
        {
            "bufferView" : 15,
            "componentType" : 5123,
            "count" : 2748,
            "type" : "SCALAR"
        },
        {
            "bufferView" : 16,
            "componentType" : 5126,
            "count" : 97,
            "max" : [
                -0.35669949650764465,
                0.7437326908111572,
                -0.2531954050064087
            ],
            "min" : [
                -0.742741584777832,
                0.3526575267314911,
                -0.6482890248298645
            ],
            "type" : "VEC3"
        },
        {
            "bufferView" : 17,
            "componentType" : 5126,
            "count" : 97,
            "type" : "VEC3"
        },
        {
            "bufferView" : 18,
            "componentType" : 5126,
            "count" : 97,
            "type" : "VEC2"
        },
        {
            "bufferView" : 19,
            "componentType" : 5123,
            "count" : 234,
            "type" : "SCALAR"
        },
        {
            "bufferView" : 20,
            "componentType" : 5126,
            "count" : 550,
            "max" : [
                1.6201211214065552,
                1.7219535112380981,
                1.7424299716949463
            ],
            "min" : [
                -1.0721244812011719,
                -1.0405727624893188,
                -0.6078109741210938
            ],
            "type" : "VEC3"
        },
        {
            "bufferView" : 21,
            "componentType" : 5126,
            "count" : 550,
            "type" : "VEC3"
        },
        {
            "bufferView" : 22,
            "componentType" : 5126,
            "count" : 550,
            "type" : "VEC2"
        },
        {
            "bufferView" : 23,
            "componentType" : 5123,
            "count" : 900,
            "type" : "SCALAR"
        }
    ],
    "bufferViews" : [
        {
            "buffer" : 0,
            "byteLength" : 3732,
            "byteOffset" : 0
        },
        {
            "buffer" : 0,
            "byteLength" : 3732,
            "byteOffset" : 3732
        },
        {
            "buffer" : 0,
            "byteLength" : 2488,
            "byteOffset" : 7464
        },
        {
            "buffer" : 0,
            "byteLength" : 2478,
            "byteOffset" : 9952
        },
        {
            "buffer" : 0,
            "byteLength" : 3732,
            "byteOffset" : 12432
        },
        {
            "buffer" : 0,
            "byteLength" : 3732,
            "byteOffset" : 16164
        },
        {
            "buffer" : 0,
            "byteLength" : 1260,
            "byteOffset" : 19896
        },
        {
            "buffer" : 0,
            "byteLength" : 1260,
            "byteOffset" : 21156
        },
        {
            "buffer" : 0,
            "byteLength" : 840,
            "byteOffset" : 22416
        },
        {
            "buffer" : 0,
            "byteLength" : 624,
            "byteOffset" : 23256
        },
        {
            "buffer" : 0,
            "byteLength" : 1260,
            "byteOffset" : 23880
        },
        {
            "buffer" : 0,
            "byteLength" : 1260,
            "byteOffset" : 25140
        },
        {
            "buffer" : 0,
            "byteLength" : 7992,
            "byteOffset" : 26400
        },
        {
            "buffer" : 0,
            "byteLength" : 7992,
            "byteOffset" : 34392
        },
        {
            "buffer" : 0,
            "byteLength" : 5328,
            "byteOffset" : 42384
        },
        {
            "buffer" : 0,
            "byteLength" : 5496,
            "byteOffset" : 47712
        },
        {
            "buffer" : 0,
            "byteLength" : 1164,
            "byteOffset" : 53208
        },
        {
            "buffer" : 0,
            "byteLength" : 1164,
            "byteOffset" : 54372
        },
        {
            "buffer" : 0,
            "byteLength" : 776,
            "byteOffset" : 55536
        },
        {
            "buffer" : 0,
            "byteLength" : 468,
            "byteOffset" : 56312
        },
        {
            "buffer" : 0,
            "byteLength" : 6600,
            "byteOffset" : 56780
        },
        {
            "buffer" : 0,
            "byteLength" : 6600,
            "byteOffset" : 63380
        },
        {
            "buffer" : 0,
            "byteLength" : 4400,
            "byteOffset" : 69980
        },
        {
            "buffer" : 0,
            "byteLength" : 1800,
            "byteOffset" : 74380
        }
    ],
    "buffers" : [
        {
            "byteLength" : 76180,
            "uri" : "data:application/octet-stream;base64,"
        }
    ]
}
