# Blender v2.93.10 OBJ File: 'untitled.blend'
# www.blender.org
mtllib admin.mtl
o result.003_Cube.018
v 6.500000 0.000000 -51.000000
v 9.500000 0.000000 -51.000000
v 6.500000 5.000000 -51.000000
v 9.500000 5.000000 -51.000000
v 6.000000 0.000000 -70.000000
v 6.000000 20.000000 -70.000000
v 10.000000 0.000000 -70.000000
v 10.000000 20.000000 -70.000000
v 6.500000 5.000000 -70.000000
v 6.500000 0.000000 -70.000000
v 9.500000 0.000000 -70.000000
v 9.500000 5.000000 -70.000000
v -15.750010 32.500000 -42.500000
v -15.750010 32.500000 -42.450005
v -25.750010 32.500000 -42.450005
v -25.750010 32.500000 -42.500000
v -2.000000 0.000000 -80.000000
v -1.234633 0.000000 -76.152245
v -0.585786 0.000000 -76.585785
v -0.543600 0.000000 -76.629272
v -1.775829 0.000000 -78.044601
v -0.422220 0.000000 -74.190903
v 2.190904 0.000000 -71.577782
v 0.660170 0.000000 -72.660164
v -1.234635 20.000000 -76.152245
v -2.000000 20.000000 -80.000000
v -1.775830 20.000000 -78.044601
v 2.190903 20.000000 -71.577782
v -0.422222 20.000000 -74.190903
v 0.660170 20.000000 -72.660164
v -1.234635 0.000000 -83.847755
v -0.843965 0.000000 -80.367950
v -0.585786 0.000000 -83.414215
v -1.775830 0.000000 -81.955399
v 8.000000 0.000000 -90.000000
v 4.152241 0.000000 -89.234634
v 4.585786 0.000000 -88.585785
v 6.049984 0.000000 -88.000626
v 6.044590 0.000000 -89.775833
v 2.190903 0.000000 -88.422218
v -0.422222 0.000000 -85.809097
v 0.660170 0.000000 -87.339836
v 4.152242 20.000000 -89.234634
v 8.000000 20.000000 -90.000000
v 6.044591 20.000000 -89.775833
v -1.234633 20.000000 -83.847755
v -1.775829 20.000000 -81.955399
v -0.422220 20.000000 -85.809097
v 2.190904 20.000000 -88.422218
v 0.660170 20.000000 -87.339836
v 17.234634 0.000000 -76.152245
v 16.543600 0.000000 -76.629272
v 16.585787 0.000000 -76.585785
v 17.775829 0.000000 -78.044601
v 13.809097 0.000000 -71.577782
v 16.422222 0.000000 -74.190903
v 15.339830 0.000000 -72.660164
v 17.234632 20.000000 -76.152245
v 17.775831 20.000000 -78.044601
v 16.422220 20.000000 -74.190903
v 13.809095 20.000000 -71.577782
v 15.339828 20.000000 -72.660164
v 11.847757 0.000000 -89.234634
v 9.655239 0.000000 -88.029938
v 9.950016 0.000000 -88.000626
v 11.414213 0.000000 -88.585785
v 9.955409 0.000000 -89.775833
v 18.000000 0.000000 -80.000000
v 17.234632 0.000000 -83.847755
v 16.585787 0.000000 -83.414215
v 16.843966 0.000000 -80.367950
v 17.775831 0.000000 -81.955399
v 16.422220 0.000000 -85.809097
v 13.809095 0.000000 -88.422218
v 15.339828 0.000000 -87.339836
v 17.234634 20.000000 -83.847755
v 18.000000 20.000000 -80.000000
v 17.775829 20.000000 -81.955399
v 11.847759 20.000000 -89.234634
v 9.955410 20.000000 -89.775833
v 13.809097 20.000000 -88.422218
v 16.422222 20.000000 -85.809097
v 15.339830 20.000000 -87.339836
vt 0.514470 0.184337
vt 0.660129 0.298390
vt 0.514470 0.314683
vt 1.000000 0.619142
vt 0.951447 0.000000
vt 1.000000 0.000000
vt 0.951447 0.000000
vt 0.902894 0.619142
vt 0.902894 0.000000
vt 0.902894 0.438808
vt 0.708682 0.374895
vt 0.902894 0.374895
vt 0.708682 0.124125
vt 0.902894 0.060212
vt 0.902894 0.124125
vt 0.708682 0.060212
vt 0.514470 0.060212
vt 0.514470 0.623152
vt 0.708682 0.559237
vt 0.708682 0.623152
vt 0.902894 0.559237
vt 0.708682 0.623152
vt 0.708682 0.559237
vt 0.708682 0.314683
vt 0.514470 0.438808
vt 0.514470 0.937835
vt 0.708682 0.873920
vt 0.708682 0.937835
vt 0.514470 0.683365
vt 0.708682 0.683365
vt 0.514470 0.748536
vt 0.708682 0.000000
vt 0.708682 0.499024
vt 0.514470 0.559237
vt 0.514470 0.499024
vt 0.902894 0.748536
vt 0.708682 0.813707
vt 0.708682 0.748536
vt 0.902894 0.813707
vt 0.708682 0.873920
vt 0.902894 0.314683
vt 0.708682 0.314683
vt 0.902894 0.249510
vt 0.708682 0.748536
vt 0.514470 0.813707
vt 0.708682 0.813707
vt 0.514470 0.873920
vt 0.514470 0.998048
vt 0.708682 0.499020
vt 0.902894 0.499020
vt 0.902894 0.937834
vt 0.708682 0.998048
vt 0.708682 0.937834
vt 0.514470 0.499020
vt 0.708682 0.438808
vt 0.708682 0.499020
vt 0.902894 0.623152
vt 0.708682 0.683365
vt 0.902894 0.683365
vt 0.708682 0.249510
vt 0.902894 0.184337
vt 0.708682 0.060212
vt 0.902894 0.000000
vt 0.902894 0.499024
vt 0.708682 0.499024
vt 0.902894 0.873920
vt 0.708682 0.184337
vt 0.660129 0.200630
vt 0.708682 0.200630
vt 0.708682 0.298390
vt 0.951447 0.619142
vt 0.951447 0.619142
vt 0.708682 0.438808
vt 0.514470 0.000000
vt 0.708682 0.998048
vt 0.902894 0.998048
vt 0.708682 0.184337
vt 0.708682 0.000000
vt 0.097113 0.142231
vt 0.151563 0.085326
vt 0.230152 0.380412
vt 0.259455 0.017374
vt 0.280996 0.035816
vt 0.273277 0.053077
vt 0.305508 0.244918
vt 0.287581 0.286592
vt 0.305661 0.162297
vt 0.032675 0.202063
vt 0.058370 0.157854
vt 0.067979 0.161333
vt 0.047411 0.434212
vt 0.025155 0.379192
vt 0.184959 0.428150
vt 0.112705 0.084378
vt 0.320259 1.000000
vt 0.320259 0.651732
vt 0.372048 0.651732
vt 0.232587 0.000000
vt 0.177425 0.436113
vt 0.092812 0.147390
vt 0.060804 0.471281
vt 0.039263 0.452839
vt 0.046982 0.435580
vt 0.291614 0.097693
vt 0.304820 0.162274
vt 0.237682 0.372449
vt 0.014598 0.326358
vt 0.570896 0.000000
vt 0.275066 0.732059
vt 0.319332 0.120035
vt 0.305668 0.162276
vt 0.299510 0.053182
vt 0.301289 0.053190
vt 0.144612 0.052557
vt 0.170845 0.052663
vt 0.162139 0.052628
vt 0.020857 0.435382
vt 0.096954 0.141945
vt 0.090930 0.131160
vt 0.084238 0.119179
vt 0.002088 0.372125
vt 0.000000 0.371485
vt 0.235890 0.010116
vt 0.174299 0.035385
vt 0.207698 0.017165
vt 0.317492 0.158906
vt 0.314554 0.203207
vt 0.014748 0.243737
vt 0.002766 0.329749
vt 0.005702 0.285448
vt 0.009485 0.403475
vt 0.112561 0.471493
vt 0.084369 0.478540
vt 0.310774 0.085180
vt 0.301289 0.053190
vt 0.039259 0.452853
vt 0.018970 0.435465
vt 0.000000 0.371485
vt 0.398378 0.007305
vt 0.436354 0.644425
vt 0.322436 0.389583
vt 0.514469 0.260691
vt 0.454730 0.626789
vt 0.454730 0.024940
vt 0.514469 0.391037
vt 0.499150 0.515162
vt 0.488640 0.565043
vt 0.473775 0.600315
vt 0.417366 0.651730
vt 0.398378 0.644425
vt 0.380003 0.626789
vt 0.360957 0.600315
vt 0.327692 0.451248
vt 0.346092 0.565043
vt 0.335581 0.515162
vt 0.320259 0.325864
vt 0.322436 0.262144
vt 0.327692 0.200479
vt 0.335581 0.136566
vt 0.380002 0.024940
vt 0.346092 0.086685
vt 0.360957 0.051414
vt 0.417366 0.000000
vt 0.436354 0.007305
vt 0.473775 0.051414
vt 0.499150 0.136566
vt 0.488640 0.086685
vn 0.0000 0.0000 -1.0000
vn 1.0000 0.0000 0.0000
vn -1.0000 0.0000 0.0000
vn -0.3827 0.0000 0.9239
vn 0.3827 -0.0000 0.9239
vn -0.3827 0.0000 -0.9239
vn -0.9239 0.0000 -0.3827
vn 0.9239 -0.0000 0.3827
vn 0.3827 0.0000 -0.9239
vn -0.9239 0.0000 0.3827
vn -0.9615 -0.0000 -0.2750
vn -0.9935 0.0000 -0.1139
vn -0.5773 -0.0000 -0.8165
vn -0.8165 -0.0000 -0.5773
vn 0.9935 0.0000 -0.1139
vn 0.9615 0.0000 -0.2750
vn -0.2750 0.0000 0.9615
vn -0.1139 0.0000 0.9935
vn -0.9935 0.0000 0.1139
vn -0.9615 -0.0000 0.2750
vn -0.8165 0.0000 0.5773
vn -0.5773 0.0000 0.8165
vn 0.8165 0.0000 -0.5773
vn 0.5773 0.0000 -0.8165
vn 0.9615 -0.0000 0.2750
vn 0.9935 -0.0000 0.1139
vn 0.1139 0.0000 0.9935
vn 0.2750 -0.0000 0.9615
vn 0.5773 -0.0000 0.8165
vn 0.8165 -0.0000 0.5773
vn 0.9239 0.0000 -0.3827
vn 0.0000 1.0000 0.0000
vn 0.0000 -1.0000 0.0000
g result.003_Cube.018_acid.001
usemtl acid.001
s off
f 8/1/1 9/2/1 6/3/1
f 10/4/2 3/5/2 1/6/2
f 11/7/3 4/8/3 12/9/3
f 74/10/4 79/11/4 63/12/4
f 43/13/5 40/14/5 36/15/5
f 55/16/6 8/1/6 61/17/6
f 51/18/7 60/19/7 58/20/7
f 48/21/8 31/22/8 41/23/8
f 5/24/9 28/25/9 6/3/9
f 73/26/10 76/27/10 82/28/10
f 58/20/11 54/29/11 51/18/11
f 59/30/12 68/31/12 54/29/12
f 61/17/13 57/32/13 55/16/13
f 62/33/14 56/34/14 57/35/14
f 26/36/15 21/37/15 17/38/15
f 27/39/16 18/40/16 21/37/16
f 79/11/17 67/41/17 63/12/17
f 80/42/18 35/43/18 67/41/18
f 77/44/19 72/45/19 68/31/19
f 78/46/20 69/47/20 72/45/20
f 82/28/21 75/48/21 73/26/21
f 83/49/22 74/10/22 75/50/22
f 29/51/23 24/52/23 22/53/23
f 30/54/24 23/55/24 24/56/24
f 46/57/25 34/58/25 31/22/25
f 47/59/26 17/38/26 34/58/26
f 44/60/27 39/61/27 35/43/27
f 39/61/28 43/13/28 36/15/28
f 49/62/29 42/63/29 40/14/29
f 50/64/30 41/23/30 42/65/30
f 25/66/31 22/53/31 18/40/31
f 8/1/1 7/67/1 12/68/1
f 7/67/1 11/69/1 12/68/1
f 10/70/1 5/24/1 9/2/1
f 5/24/1 6/3/1 9/2/1
f 8/1/1 12/68/1 9/2/1
f 10/4/2 9/71/2 3/5/2
f 11/7/3 2/72/3 4/8/3
f 74/10/4 81/73/4 79/11/4
f 43/13/5 49/62/5 40/14/5
f 55/16/6 7/67/6 8/1/6
f 51/18/7 56/34/7 60/19/7
f 48/21/8 46/57/8 31/22/8
f 5/24/9 23/55/9 28/25/9
f 73/26/10 69/47/10 76/27/10
f 58/20/11 59/30/11 54/29/11
f 59/30/12 77/44/12 68/31/12
f 61/17/13 62/74/13 57/32/13
f 62/33/14 60/19/14 56/34/14
f 26/36/15 27/39/15 21/37/15
f 27/39/16 25/66/16 18/40/16
f 79/11/17 80/42/17 67/41/17
f 80/42/18 44/60/18 35/43/18
f 77/44/19 78/46/19 72/45/19
f 78/46/20 76/27/20 69/47/20
f 82/28/21 83/75/21 75/48/21
f 83/49/22 81/73/22 74/10/22
f 29/51/23 30/76/23 24/52/23
f 30/54/24 28/25/24 23/55/24
f 46/57/25 47/59/25 34/58/25
f 47/59/26 26/36/26 17/38/26
f 44/60/27 45/77/27 39/61/27
f 39/61/28 45/77/28 43/13/28
f 49/62/29 50/78/29 42/63/29
f 50/64/30 48/21/30 41/23/30
f 25/66/31 29/51/31 22/53/31
g result.003_Cube.018_wood
usemtl wood
f 64/79/32 38/80/32 10/81/32
f 41/82/32 31/83/32 33/84/32
f 24/85/32 23/86/32 19/87/32
f 74/88/32 63/89/32 66/90/32
f 52/91/32 71/92/32 11/93/32
f 64/79/32 35/94/32 38/80/32
f 3/95/33 9/96/33 12/97/33
f 3/95/33 12/97/33 4/98/33
f 7/99/32 52/91/32 11/93/32
f 64/79/32 11/93/32 65/100/32
f 56/101/32 51/102/32 53/103/32
f 32/104/32 38/80/32 33/84/32
f 20/105/32 5/106/32 10/81/32
f 32/104/32 20/105/32 10/81/32
f 70/107/32 66/90/32 65/100/32
f 10/81/32 1/108/32 11/93/32
f 2/109/32 11/93/32 1/108/32
f 21/110/32 19/87/32 20/111/32
f 34/112/32 32/113/32 33/84/32
f 39/114/32 37/115/32 38/116/32
f 54/117/32 52/91/32 53/103/32
f 65/118/32 66/119/32 67/120/32
f 72/121/32 70/122/32 71/92/32
f 33/84/32 37/115/32 42/123/32
f 37/115/32 36/124/32 40/125/32
f 42/123/32 37/115/32 40/125/32
f 42/123/32 41/82/32 33/84/32
f 5/106/32 19/87/32 23/86/32
f 19/87/32 18/126/32 22/127/32
f 24/85/32 19/87/32 22/127/32
f 66/90/32 70/107/32 75/128/32
f 70/107/32 69/129/32 73/130/32
f 75/128/32 70/107/32 73/130/32
f 75/128/32 74/88/32 66/90/32
f 52/91/32 68/131/32 71/92/32
f 7/99/32 53/103/32 52/91/32
f 64/79/32 10/81/32 11/93/32
f 53/103/32 7/99/32 55/132/32
f 55/132/32 57/133/32 53/103/32
f 57/133/32 56/101/32 53/103/32
f 10/81/32 38/80/32 32/104/32
f 38/80/32 37/115/32 33/84/32
f 20/105/32 19/87/32 5/106/32
f 32/104/32 17/134/32 20/105/32
f 11/93/32 71/92/32 65/100/32
f 71/92/32 70/107/32 65/100/32
f 20/111/32 17/134/32 21/110/32
f 21/110/32 18/126/32 19/87/32
f 33/84/32 31/83/32 34/112/32
f 34/112/32 17/135/32 32/113/32
f 38/116/32 35/94/32 39/114/32
f 39/114/32 36/124/32 37/115/32
f 53/103/32 51/136/32 54/117/32
f 54/117/32 68/137/32 52/91/32
f 66/119/32 63/89/32 67/120/32
f 67/120/32 35/94/32 64/79/32
f 64/79/32 65/118/32 67/120/32
f 71/92/32 68/131/32 72/121/32
f 72/121/32 69/138/32 70/122/32
g result.003_Cube.018__defaultMat.024
usemtl _defaultMat.024
f 78/139/33 27/140/33 45/141/33
f 8/142/33 25/143/33 58/144/33
f 6/145/33 28/146/33 25/143/33
f 8/142/33 6/145/33 25/143/33
f 28/146/33 30/147/33 29/148/33
f 29/148/33 25/143/33 28/146/33
f 25/143/33 27/140/33 58/144/33
f 27/140/33 26/149/33 47/150/33
f 47/150/33 46/151/33 45/141/33
f 46/151/33 48/152/33 43/153/33
f 45/141/33 46/151/33 43/153/33
f 48/152/33 50/154/33 49/155/33
f 49/155/33 43/153/33 48/152/33
f 45/141/33 44/156/33 80/157/33
f 80/157/33 79/158/33 78/139/33
f 79/158/33 81/159/33 76/160/33
f 78/139/33 79/158/33 76/160/33
f 81/159/33 83/161/33 82/162/33
f 82/162/33 76/160/33 81/159/33
f 78/139/33 77/163/33 59/164/33
f 59/164/33 58/144/33 27/140/33
f 58/144/33 60/165/33 61/166/33
f 60/165/33 62/167/33 61/166/33
f 61/166/33 8/142/33 58/144/33
f 27/140/33 47/150/33 45/141/33
f 45/141/33 80/157/33 78/139/33
f 78/139/33 59/164/33 27/140/33
l 13 14
l 16 15
