# Blender v2.93.10 OBJ File: 'untitled.blend'
# www.blender.org
mtllib camera room collision.mtl
o result.001_Cube.016
v 4.000000 0.000000 -11.000000
v 4.000000 5.000000 -11.000000
v 4.000000 0.000000 -51.000000
v 4.000000 5.000000 -51.000000
v 12.000000 0.000000 -11.000000
v 12.000000 5.000000 -11.000000
v 12.000000 0.000000 -51.000000
v 12.000000 5.000000 -51.000000
v 12.000000 0.000000 -13.799999
v 12.000000 3.199972 -13.799999
v 12.000000 0.000000 -12.200051
v 12.000000 3.199972 -12.200051
v 4.000000 0.000000 -30.000000
v 4.000000 3.000000 -30.000000
v 4.000000 0.000000 -28.000000
v 4.000000 3.000000 -28.000000
v 4.000000 0.000000 -41.000000
v 4.000000 3.000000 -41.000000
v 7.200011 0.000000 -11.000000
v 7.200011 3.199970 -11.000000
v 4.000000 0.000000 -39.000000
v 4.000000 3.000000 -39.000000
v 8.799994 0.000000 -11.000000
v 8.799994 3.199970 -11.000000
v 4.000000 0.000000 -50.000000
v 4.000000 3.000000 -50.000000
v 12.000000 0.000000 -23.799994
v 12.000000 3.199972 -23.799994
v 4.000000 0.000000 -48.000000
v 4.000000 3.000000 -48.000000
v 12.000000 0.000000 -22.199991
v 12.000000 3.199972 -22.199991
v 12.000000 0.000000 -34.500000
v 12.000000 3.000000 -34.500000
v 12.000000 0.000000 -32.500000
v 12.000000 3.000000 -32.500000
v 4.000000 0.000000 -17.000000
v 4.000000 0.000000 -19.000000
v 4.000000 3.000000 -17.000000
v 4.000000 3.000000 -19.000000
v 6.500000 0.000000 -51.000000
v 9.500000 0.000000 -51.000000
v 12.000000 0.000000 -44.799873
v 12.000000 3.199937 -44.799873
v 6.500000 5.000000 -51.000000
v 9.500000 5.000000 -51.000000
v 12.000000 0.000000 -43.200127
v 12.000000 3.199937 -43.200127
vt 0.935324 0.125000
vt 0.892206 0.200001
vt 0.892206 0.000000
vt 0.784412 1.000000
vt 0.827530 0.462502
vt 0.827530 0.662498
vt 0.676617 1.000000
vt 0.719735 0.462500
vt 0.719735 0.662500
vt 0.997931 0.263726
vt 0.892208 0.327451
vt 0.892208 0.263726
vt 0.465177 0.509804
vt 0.338310 0.490685
vt 0.338310 0.465195
vt 0.338310 0.108334
vt 0.338310 0.082844
vt 0.676619 0.146568
vt 0.997928 0.263726
vt 0.892206 0.200000
vt 0.997928 0.200000
vt 0.000000 0.509804
vt 0.000000 0.000000
vt 0.105721 0.000000
vt 1.000000 0.125000
vt 1.000000 0.200001
vt 1.000000 0.000000
vt 0.935324 0.075001
vt 1.000000 0.075001
vt 0.827530 0.962502
vt 0.892207 0.962502
vt 0.892207 1.000000
vt 0.784412 0.000000
vt 0.892207 0.000000
vt 0.827530 0.162498
vt 0.892207 0.162498
vt 0.892207 0.712502
vt 0.892207 0.912498
vt 0.827530 0.912498
vt 0.827530 0.212502
vt 0.892207 0.212502
vt 0.892207 0.412498
vt 0.827530 0.412498
vt 0.827530 0.712502
vt 0.892207 0.462502
vt 0.892207 0.662498
vt 0.338310 0.337746
vt 0.676619 0.299511
vt 0.676619 0.401470
vt 0.676619 0.044609
vt 0.444033 0.000000
vt 0.570896 0.000000
vt 0.676619 0.000000
vt 0.676619 0.019119
vt 0.549752 0.509804
vt 0.676619 0.426960
vt 0.338310 0.363235
vt 0.676619 0.509804
vt 0.719735 0.962500
vt 0.784412 0.962500
vt 0.784412 1.000000
vt 0.676617 0.000000
vt 0.784412 0.000000
vt 0.719735 0.162500
vt 0.784412 0.162500
vt 0.784412 0.712500
vt 0.784412 0.912500
vt 0.719735 0.912500
vt 0.719735 0.212500
vt 0.784412 0.212500
vt 0.784412 0.412500
vt 0.719735 0.412500
vt 0.719735 0.712500
vt 0.784412 0.462500
vt 0.784412 0.662500
vt 0.997931 0.327451
vt 0.338310 0.509804
vt 0.338310 0.235783
vt 0.676619 0.274021
vt 0.338310 0.210293
vt 0.676619 0.172058
vt 0.338310 0.000000
vt 0.892206 0.263726
vt 0.232587 0.000000
vt 0.338308 0.000000
vt 0.338308 0.509804
vn 0.0000 0.0000 -1.0000
vn -1.0000 0.0000 0.0000
vn 1.0000 0.0000 0.0000
vn 0.0000 0.0000 1.0000
vn 0.0000 1.0000 0.0000
vn 0.0000 -1.0000 0.0000
g result.001_Cube.016_acid
usemtl acid
s off
f 20/1/1 2/2/1 6/3/1
f 6/4/2 36/5/2 28/6/2
f 4/7/3 14/8/3 22/9/3
f 7/10/4 46/11/4 42/12/4
f 23/13/5 11/14/5 9/15/5
f 47/16/5 43/17/5 17/18/5
f 45/19/4 3/20/4 41/21/4
f 2/22/6 4/23/6 45/24/6
f 20/1/1 19/25/1 1/26/1
f 6/3/1 5/27/1 24/28/1
f 5/27/1 23/29/1 24/28/1
f 20/1/1 1/26/1 2/2/1
f 6/3/1 24/28/1 20/1/1
f 12/30/2 11/31/2 5/32/2
f 8/33/2 7/34/2 44/35/2
f 7/34/2 43/36/2 44/35/2
f 12/30/2 5/32/2 6/4/2
f 31/37/2 9/38/2 10/39/2
f 10/39/2 12/30/2 6/4/2
f 6/4/2 8/33/2 36/5/2
f 8/33/2 44/35/2 48/40/2
f 48/40/2 47/41/2 33/42/2
f 8/33/2 48/40/2 34/43/2
f 31/37/2 10/39/2 32/44/2
f 10/39/2 6/4/2 32/44/2
f 48/40/2 33/42/2 34/43/2
f 36/5/2 35/45/2 27/46/2
f 8/33/2 34/43/2 36/5/2
f 36/5/2 27/46/2 28/6/2
f 28/6/2 32/44/2 6/4/2
f 27/47/5 15/48/5 38/49/5
f 29/50/5 42/51/5 41/52/5
f 41/52/5 3/53/5 25/54/5
f 29/50/5 41/52/5 25/54/5
f 19/55/5 9/15/5 37/56/5
f 9/15/5 31/57/5 37/56/5
f 37/56/5 1/58/5 19/55/5
f 37/56/5 31/57/5 38/49/5
f 27/47/5 38/49/5 31/57/5
f 26/59/3 25/60/3 3/61/3
f 2/62/3 1/63/3 39/64/3
f 1/63/3 37/65/3 39/64/3
f 26/59/3 3/61/3 4/7/3
f 17/66/3 29/67/3 30/68/3
f 30/68/3 26/59/3 4/7/3
f 4/7/3 2/62/3 14/8/3
f 2/62/3 39/64/3 40/69/3
f 40/69/3 38/70/3 15/71/3
f 2/62/3 40/69/3 16/72/3
f 17/66/3 30/68/3 18/73/3
f 30/68/3 4/7/3 18/73/3
f 40/69/3 15/71/3 16/72/3
f 14/8/3 13/74/3 21/75/3
f 2/62/3 16/72/3 14/8/3
f 14/8/3 21/75/3 22/9/3
f 22/9/3 18/73/3 4/7/3
f 7/10/4 8/76/4 46/11/4
f 23/13/5 5/77/5 11/14/5
f 19/55/5 23/13/5 9/15/5
f 15/48/5 27/47/5 35/78/5
f 15/48/5 35/78/5 13/79/5
f 35/78/5 33/80/5 13/79/5
f 13/79/5 33/80/5 21/81/5
f 33/80/5 47/16/5 21/81/5
f 43/17/5 7/82/5 42/51/5
f 42/51/5 29/50/5 43/17/5
f 29/50/5 17/18/5 43/17/5
f 21/81/5 47/16/5 17/18/5
f 45/19/4 4/83/4 3/20/4
f 45/24/6 46/84/6 2/22/6
f 46/84/6 8/85/6 6/86/6
f 2/22/6 46/84/6 6/86/6
