# Blender v2.93.10 OBJ File: 'untitled.blend'
# www.blender.org
mtllib disposal pit collision.mtl
o result.003_Cube.018
v 15.050000 -2.000000 20.950001
v 15.050000 28.000000 20.950001
v 15.050000 -2.000000 1.050000
v 15.050000 28.000000 1.050000
v 34.950001 -2.000000 20.950001
v 34.950001 28.000000 20.950001
v 34.950001 28.000000 1.050000
v 15.050000 0.000000 10.799999
v 13.000000 0.000000 10.799999
v 13.000000 3.199990 10.799999
v 15.050000 3.199990 10.799999
v 13.000000 0.000000 9.199999
v 15.050000 0.000000 9.199999
v 15.050000 3.199990 9.199999
v 13.000000 3.199990 9.199999
v 18.000000 22.500000 1.050000
v 18.000000 22.500000 -2.000000
v 18.000000 26.000000 1.050000
v 18.000000 26.000000 -2.000000
v 34.950001 13.000000 17.500000
v 20.000000 22.500000 -2.000000
v 20.000000 22.500000 1.050000
v 20.000000 26.000000 1.050000
v 20.000000 26.000000 -2.000000
v 34.950001 13.000000 14.500000
v 34.950001 13.000000 16.900000
v 31.200001 0.000000 0.000000
v 32.799999 0.000000 0.000000
v 31.200001 3.199994 0.000000
v 32.799999 3.199994 0.000000
v 31.200001 0.000000 1.050000
v 31.200001 3.199994 1.050000
v 32.799999 0.000000 1.050000
v 34.950001 -2.000000 1.050000
v 32.799999 3.199994 1.050000
vt 0.529167 0.934781
vt 0.529167 0.869564
vt 0.547917 0.869564
vt 0.093750 0.793478
vt 0.187500 0.869564
vt 0.000000 0.869564
vt 0.604167 0.869564
vt 0.604167 0.934779
vt 0.585417 0.934779
vt 0.375000 0.434782
vt 0.187500 0.000000
vt 0.375000 0.000000
vt 0.604167 0.923912
vt 0.622917 0.869564
vt 0.622917 0.923912
vt 0.175000 0.358695
vt 0.187500 0.000000
vt 0.187500 0.434782
vt 0.660417 0.869564
vt 0.641667 0.923912
vt 0.641667 0.869564
vt 0.410417 0.869565
vt 0.441667 0.934782
vt 0.410417 0.934782
vt 0.547917 0.934781
vt 0.750000 0.000000
vt 0.750000 0.434782
vt 0.737500 0.206520
vt 0.175000 0.423913
vt 0.143750 0.423913
vt 0.472917 0.869565
vt 0.472917 0.934782
vt 0.441667 0.934782
vt 0.093750 0.728260
vt 0.034375 0.032608
vt 0.003125 0.032608
vt 0.000000 0.000000
vt 0.566667 0.934779
vt 0.585417 0.869564
vt 0.585417 0.934779
vt 0.566667 0.869564
vt 0.143750 0.358695
vt 0.000000 0.434782
vt 0.562500 0.434782
vt 0.562500 0.000000
vt 0.718750 0.206520
vt 0.718750 0.271739
vt 0.737500 0.271739
vt 0.441667 0.869565
vt 0.003125 0.097825
vt 0.034375 0.097825
vt 0.622917 0.869564
vt 0.641667 0.923912
vt 0.622917 0.923912
vt 0.679167 0.923912
vt 0.660417 0.869564
vt 0.679167 0.869564
vt 0.875000 0.000000
vt 0.875000 0.434782
vt 0.750000 0.434782
vt 0.875000 0.000000
vt 1.000000 0.000000
vt 1.000000 0.434782
vt 0.379167 0.934782
vt 0.379167 0.869565
vt 0.410417 0.869565
vt 0.547917 0.934779
vt 0.566667 0.869564
vt 0.566667 0.934779
vt 0.660417 0.923912
vt 0.093750 0.780434
vt 0.547917 0.869564
vt 0.641667 0.869564
vt 0.585417 0.869564
vt 0.472917 0.934782
vt 0.472917 0.869565
vt 0.504167 0.869565
vt 0.750000 0.000000
vt 0.875000 0.434782
vt 0.410417 0.934782
vt 0.504167 0.934782
vt 0.441667 0.869565
vt 0.187500 0.434782
vt 0.604167 0.869564
vt 0.660417 0.923912
vn 0.0000 -1.0000 0.0000
vn -1.0000 0.0000 0.0000
vn 0.0000 0.0000 -1.0000
vn 0.0000 0.0000 1.0000
vn 1.0000 0.0000 0.0000
vn 0.0000 1.0000 0.0000
g result.003_Cube.018_acid
usemtl acid
s off
f 23/1/1 18/2/1 19/3/1
f 20/4/2 5/5/2 6/6/2
f 29/7/1 30/8/1 35/9/1
f 1/10/3 6/11/3 5/12/3
f 14/13/4 12/14/4 13/15/4
f 31/16/4 3/17/4 34/18/4
f 15/19/1 11/20/1 10/21/1
f 30/22/2 33/23/2 35/24/2
f 23/1/1 19/3/1 24/25/1
f 1/26/5 3/27/5 8/28/5
f 33/29/4 34/18/4 35/30/4
f 16/31/5 17/32/5 19/33/5
f 25/34/2 20/4/2 6/6/2
f 16/35/4 18/36/4 4/37/4
f 31/38/6 28/39/6 27/40/6
f 16/35/4 4/37/4 3/17/4
f 31/38/6 33/41/6 28/39/6
f 3/17/4 31/16/4 32/42/4
f 32/42/4 35/30/4 7/43/4
f 4/44/5 2/45/5 11/46/5
f 1/26/5 8/28/5 11/46/5
f 3/27/5 14/47/5 13/48/5
f 4/44/5 11/46/5 14/47/5
f 16/31/5 19/33/5 18/49/5
f 23/50/4 22/51/4 7/43/4
f 11/52/3 9/53/3 10/54/3
f 12/55/6 8/56/6 13/57/6
f 34/58/6 3/59/6 1/60/6
f 2/61/1 4/62/1 7/63/1
f 7/43/2 34/18/2 25/34/2
f 6/6/2 7/43/2 25/34/2
f 29/64/5 32/65/5 31/66/5
f 16/67/6 21/68/6 17/69/6
f 12/55/6 9/70/6 8/56/6
f 26/71/2 5/5/2 20/4/2
f 34/18/4 7/43/4 35/30/4
f 16/67/6 22/72/6 21/68/6
f 32/42/4 22/51/4 3/17/4
f 11/52/3 8/73/3 9/53/3
f 26/71/2 34/18/2 5/5/2
f 29/7/1 35/9/1 32/74/1
f 23/50/4 7/43/4 4/37/4
f 23/75/2 24/76/2 21/77/2
f 34/58/6 1/60/6 5/78/6
f 2/61/1 7/63/1 6/79/1
f 32/42/4 7/43/4 22/51/4
f 29/64/5 31/66/5 27/80/5
f 34/18/2 26/71/2 25/34/2
f 22/51/4 16/35/4 3/17/4
f 23/75/2 21/77/2 22/81/2
f 30/22/2 28/82/2 33/23/2
f 3/27/5 13/48/5 8/28/5
f 1/10/3 2/83/3 6/11/3
f 14/13/4 15/84/4 12/14/4
f 4/44/5 14/47/5 3/27/5
f 18/36/4 23/50/4 4/37/4
f 15/19/1 14/85/1 11/20/1
f 33/29/4 31/16/4 34/18/4
f 2/45/5 1/26/5 11/46/5
