# Blender v2.93.10 OBJ File: 'untitled.blend'
# www.blender.org
mtllib map path finding.mtl
o result.001_Cube.016
v 15.050000 -2.000000 20.950001
v 15.050000 -2.000000 1.050000
v 34.950001 -2.000000 20.950001
v 15.050000 0.000000 10.799999
v 15.050000 0.000000 9.199999
v 18.000000 22.500000 1.050000
v 18.000000 22.500000 -2.000000
v 20.000000 22.500000 -2.000000
v 20.000000 22.500000 1.050000
v 31.200001 0.000000 1.050000
v 32.799999 0.000000 1.050000
v 34.950001 -2.000000 1.050000
v 4.000000 0.000000 -11.000000
v 4.000000 0.000000 -51.000000
v 12.000000 0.000000 -11.000000
v 12.000000 0.000000 -51.000000
v 6.000000 0.000000 -70.000000
v -2.000000 0.000000 -78.000000
v 0.343145 0.000000 -72.343147
v -2.000000 0.000000 -82.000000
v 6.000000 0.000000 -90.000000
v 0.343145 0.000000 -87.656853
v 18.000000 0.000000 -78.000000
v 10.000000 0.000000 -70.000000
v 15.656855 0.000000 -72.343147
v 10.000000 0.000000 -90.000000
v 18.000000 0.000000 -82.000000
v 15.656855 0.000000 -87.656853
v 3.000000 0.000000 -39.000000
v 3.000000 0.000000 -41.000000
v -18.500008 30.000000 -18.649939
v -18.500008 30.000000 -21.349981
v -18.000000 0.000000 -47.000000
v -18.000000 0.000000 -57.000000
v 2.000001 0.000000 -47.000000
v 2.000001 0.000000 -57.000000
v 2.000001 0.000000 -50.000000
v 2.000001 0.000000 -48.000000
v 1.999991 22.500000 -23.500000
v 1.999995 22.500000 -13.500000
v -16.000010 22.500000 -24.499992
v -16.000006 22.500000 -12.499993
v -16.000006 22.500000 -13.499993
v -16.000010 22.500000 -23.499992
v -18.000000 0.000000 -36.000000
v -18.000000 0.000000 -46.000000
v 2.000000 0.000000 -36.000000
v 2.000000 0.000000 -46.000000
v 2.000000 0.000000 -41.000000
v 2.000000 0.000000 -39.000000
v 1.999992 0.000000 -23.949846
v 1.999995 0.000000 -13.150173
v -17.949522 0.000000 -23.949846
v -17.949522 0.000000 -13.150173
v 1.999994 0.000000 -17.000000
v 1.999993 0.000000 -19.000000
v 24.000000 0.000000 -41.000000
v 1.999991 0.000000 -34.950165
v 1.999994 0.000000 -24.500000
v -18.000010 0.000000 -34.950165
v 3.000001 0.000000 -48.000000
v -18.000006 0.000000 -24.499992
v 3.000001 0.000000 -50.000000
v 1.999992 0.000000 -30.000000
v 1.999993 0.000000 -28.000000
v 25.000000 0.000000 -2.000000
v 25.000000 0.000000 -32.000000
v 35.000000 0.000000 -2.000000
v 35.000000 0.000000 -32.000000
v 31.200001 0.000000 -32.000000
v 32.799999 0.000000 -32.000000
v 31.200001 0.000000 -2.000000
v 32.799999 0.000000 -2.000000
v 32.799999 0.000000 -38.500000
v 91.000000 0.000000 -35.000000
v 41.000000 0.000000 -35.000000
v 91.000000 0.000000 -45.000000
v 41.000000 0.000000 -45.000000
v 29.900002 0.000000 -40.800003
v 41.000000 0.000000 -40.800003
v 41.000000 0.000000 -39.200001
v 81.000000 0.000000 -13.000000
v 81.000000 0.000000 -33.000000
v 91.000000 0.000000 -13.000000
v 91.000000 0.000000 -33.000000
v 78.500000 0.000000 -21.500000
v 78.500000 0.000000 -24.500000
v 85.000000 0.000000 -33.000000
v 87.000000 0.000000 -33.000000
v 85.000000 0.000000 -35.000000
v 87.000000 0.000000 -35.000000
v 31.200001 0.000000 -38.500000
v 81.000000 0.000000 -24.500000
v 81.000000 0.000000 -21.500000
v 33.600002 0.000000 -39.200001
v 29.900002 0.000000 -39.209999
v 30.724545 0.000000 -38.932598
v -3.000000 0.000000 29.000000
v -3.000000 0.000000 -1.000000
v 13.000000 0.000000 29.000000
v 13.000000 0.000000 -1.000000
v 13.000000 0.000000 10.800000
v 13.000000 0.000000 9.200000
v -8.300140 30.000000 -31.449999
v -8.300140 30.000000 -16.500002
v -18.199999 30.000000 -31.449999
v -18.250006 30.000000 -16.499998
v -18.299999 30.000000 -31.449999
v -18.299999 30.000000 -23.549999
v -28.199999 30.000000 -31.449999
v -8.300140 30.000000 -42.410900
v -8.300140 30.000000 -31.549999
v -28.199999 30.000000 -42.450005
v -28.199999 30.000000 -31.549999
v -18.250006 30.000000 -18.650000
v -18.199999 30.000000 -21.350000
v -18.199999 30.000000 -28.070700
v -18.199999 30.000000 -28.929300
v -11.679300 30.000000 -31.449999
v -10.764000 30.000000 -31.449999
v -9.391400 32.500004 -42.410900
v -15.750010 32.500000 -42.450005
v -25.750010 32.500000 -42.450005
v -18.299999 30.000000 -28.070700
v -18.299999 30.000000 -28.929300
v -26.108601 30.000000 -31.449999
v -20.391399 30.000000 -31.449999
v -26.108601 30.000000 -31.549999
v -11.679300 30.000000 -31.549999
v -10.764000 30.000000 -31.549999
v -20.391399 30.000000 -31.549999
v -11.108600 32.500004 -42.450005
v -26.820700 30.000000 -23.549999
v -28.199846 30.000000 -16.549892
v -23.299965 30.000000 -23.450184
v -23.299965 30.000000 -16.549892
v -10.820700 30.000000 -23.549999
v -11.679300 30.000000 -23.549999
v -11.679300 30.000000 -23.449999
v -10.820700 30.000000 -23.449999
v 1.949757 0.000000 -12.949998
v 1.949757 0.000000 -3.049991
v -17.949625 0.000000 -12.949998
v -17.949625 0.000000 -3.049991
v -0.800000 0.000000 -1.000000
v 0.800000 0.000000 -1.000000
v -0.800000 0.000000 -3.049991
v 0.800000 0.000000 -3.049991
v 16.000000 22.500000 -31.000000
v 13.000000 22.500000 -33.000000
v -19.999994 22.500000 -55.000004
v 36.000008 22.500000 -55.000004
v -19.999994 22.500000 -75.000000
v 36.000008 22.500000 -75.000000
v 7.000006 22.500000 -9.000004
v 9.000006 22.500000 -9.000004
v 4.000000 22.500000 -9.000004
v 13.000006 22.500000 -9.000004
v 13.000006 22.500000 9.999996
v 4.000000 22.500000 9.999996
v 13.000000 22.500000 -48.000000
v 13.000000 22.500000 -46.000000
v 0.999993 22.500000 -54.500000
v 0.999993 22.500000 -36.500000
v -20.000008 22.500000 -54.500000
v -20.000008 22.500000 -36.500000
v 11.000004 22.500000 -52.000004
v 5.000004 22.500000 -55.000004
v 16.000000 22.500000 -40.000000
v 16.000000 22.500000 -54.000000
v 36.000000 22.500000 -40.000000
v 36.000000 22.500000 -54.000000
v 16.000000 22.500000 -39.000000
v 16.000000 22.500000 -25.000000
v 36.000000 22.500000 -39.000000
v 36.000000 22.500000 -25.000000
v 15.000000 22.500000 -2.000000
v 15.000000 22.500000 -22.000000
v 25.000000 22.500000 -2.000000
v 25.000000 22.500000 -22.000000
v 4.000000 22.500000 -11.000000
v 4.000000 22.500000 -51.000000
v 12.000000 22.500000 -11.000000
v 12.000000 22.500000 -51.000000
v 1.999992 22.500000 -31.500000
v 1.999991 22.500000 -33.500000
v 13.000000 0.000000 -34.500000
v 13.000000 0.000000 -32.500000
v 25.000000 0.000000 -22.199991
v 25.000000 0.000000 -23.799994
v 13.000000 0.000000 -23.799994
v 13.000000 0.000000 -22.199991
v 1.999992 22.500000 -12.500000
v 13.000000 0.000000 -12.200050
v 25.000000 0.000000 -12.200051
v 13.000000 0.000000 -13.799999
v -18.000004 22.500000 -2.499993
v 25.000000 0.000000 -13.799999
v 8.800000 0.000000 -1.000000
v 2.000000 22.500000 -4.500000
v 7.200000 0.000000 -10.000000
v 4.000000 22.500000 -2.500000
v 4.000000 22.500000 -4.500000
v 7.200000 0.000000 -1.000000
v 8.799994 0.000000 -10.000000
v 2.999996 0.000000 -19.000000
v 1.999990 22.500000 -34.500000
v 2.999997 0.000000 -17.000000
v 1.999994 22.500000 -24.500000
v -18.000010 22.500000 -34.499992
v 2.999997 0.000000 -28.000000
v 2.999996 0.000000 -30.000000
v 14.000000 0.000000 -31.000000
v 14.000000 0.000000 -41.000000
v 24.000000 0.000000 -31.000000
v 14.000000 0.000000 -32.500000
v 14.000000 0.000000 -34.500000
v 13.000000 0.000000 -44.799873
v 41.000000 0.000000 -44.799873
v 13.000000 0.000000 -43.200127
v 41.000000 0.000000 -43.200127
v -0.800000 0.000000 -1.512498
v 0.800000 0.000000 -1.512498
v -0.800000 0.000000 -2.537493
v 0.800000 0.000000 -2.537493
v 9.500000 0.000000 -69.000000
v 6.500000 0.000000 -69.000000
v 6.500000 0.000000 -52.000000
v 9.500000 0.000000 -52.000000
v 15.000000 22.500000 -18.000000
v 15.000000 22.500000 -16.000000
v 13.000000 22.500000 -16.000000
v 13.000000 22.500000 -18.000000
v 7.000006 22.500000 -10.000000
v 9.000006 22.500000 -10.000000
v 1.999994 22.500000 -17.500000
v 1.999993 22.500000 -19.500000
v 3.000000 22.500000 -17.500000
v 3.000000 22.500000 -19.500000
v 3.000000 22.500000 -31.500000
v 3.000000 22.500000 -33.500000
v 0.999993 22.500000 -47.500000
v 0.999993 22.500000 -45.500000
v 3.000000 22.500000 -45.500000
v 3.000000 22.500000 -47.500000
v 16.000000 22.500000 -46.000000
v 16.000000 22.500000 -48.000000
v 11.000004 22.500000 -55.000004
v 5.000004 22.500000 -52.000004
v 16.000000 22.500000 -33.000000
v 13.000000 22.500000 -31.000000
vt 0.401747 0.333332
vt 0.331878 0.333332
vt 0.323144 0.299999
vt 0.000000 0.331372
vt 0.003780 0.048020
vt 0.660417 0.923912
vt 0.217948 0.166666
vt 0.256410 0.166666
vt 0.256410 1.000000
vt 0.750000 0.434782
vt 0.875000 0.000000
vt 0.875000 0.434782
vt 0.231441 0.016666
vt 0.318778 0.016666
vt 0.318778 0.099998
vt 0.338310 0.000000
vt 0.676619 0.509804
vt 0.338310 0.509804
vt 0.174999 0.909092
vt 0.124999 0.909092
vt 0.124999 0.909092
vt 0.287135 0.697674
vt 0.000000 0.511627
vt 0.287135 0.511627
vt 0.401747 0.349998
vt 0.331878 0.349998
vt 0.898951 0.755814
vt 0.898951 0.709301
vt 0.898951 0.709301
vt 0.750000 0.000000
vt 0.323144 0.000000
vt 0.410481 0.013922
vt 0.410481 0.053691
vt 0.143567 0.790699
vt 0.129210 0.790699
vt 0.143567 0.790699
vt 0.318778 0.299999
vt 0.323144 0.099998
vt 0.128206 0.909092
vt 0.000000 0.909092
vt 0.000000 0.000000
vt 0.256408 0.000000
vt 0.179486 0.909092
vt 0.269190 0.046513
vt 0.240475 0.465115
vt 0.226118 0.465115
vt 0.139977 0.465115
vt 0.139977 0.511627
vt 0.125622 0.465115
vt 0.190227 0.046513
vt 0.190227 0.465115
vt 0.000000 1.000000
vt 0.166667 0.166666
vt 0.142834 0.052550
vt 0.239162 0.000000
vt 0.301289 0.053190
vt 0.478706 0.447388
vt 0.711830 0.357221
vt 0.493380 0.447698
vt 0.419214 0.349998
vt 0.445415 0.349998
vt 0.454148 0.683334
vt 0.275066 0.732059
vt 0.230152 0.380412
vt 0.570896 0.000000
vt 0.494621 0.465225
vt 0.486458 0.465147
vt 0.488094 0.464812
vt 0.323544 0.169934
vt 0.323544 0.169934
vt 0.000000 0.000000
vt 0.000000 0.000000
vt 0.000000 0.000000
vt 0.208173 1.000000
vt 0.236885 0.767441
vt 0.251242 0.767441
vt 0.128206 0.909092
vt 0.171333 0.500000
vt 0.338310 0.337746
vt 0.067935 0.500000
vt 0.566667 0.869564
vt 0.547917 0.934779
vt 0.547917 0.869564
vt 0.419214 0.333332
vt 0.445415 0.333332
vt 0.884594 0.709301
vt 0.898951 0.709301
vt 0.898951 0.755814
vt 0.496439 0.464894
vt 0.359492 0.679739
vt 0.237682 0.372449
vt 0.177425 0.436113
vt 0.018970 0.435465
vt 0.660417 0.869564
vt 0.679167 0.869564
vt 0.348150 0.511627
vt 0.885147 0.000000
vt 0.834484 0.790697
vt 0.323144 0.483334
vt 0.118443 0.000000
vt 0.348150 0.000000
vt 0.197406 0.046513
vt 0.025001 0.000000
vt 0.274999 0.000000
vt 0.570491 0.437873
vt 0.223032 0.890244
vt 0.565102 0.440693
vt 0.118443 0.465115
vt 0.423523 0.474236
vt 0.246893 0.731707
vt 0.021536 0.790699
vt 0.035891 0.790699
vt 0.021536 0.790699
vt 0.025124 0.441860
vt 0.039481 0.441860
vt 0.039481 0.511627
vt 0.000000 0.371485
vt 0.008469 0.243712
vt 0.082577 0.116206
vt 0.465177 0.509804
vt 0.131814 0.169934
vt 0.083881 0.169934
vt 0.528869 0.448447
vt 0.564386 0.449197
vt 0.129210 0.790699
vt 0.143567 0.697674
vt 0.143567 0.790699
vt 0.244983 0.909090
vt 0.244983 0.909090
vt 0.193410 0.909090
vt 0.483401 0.465772
vt 0.443048 0.465404
vt 0.898951 0.755814
vt 0.256408 0.909092
vt 0.301492 0.627907
vt 0.812949 0.744186
vt 0.333795 0.511627
vt 0.223032 0.000000
vt 0.566667 0.869564
vt 0.246893 0.000000
vt 0.223032 0.731707
vt 0.171333 0.731707
vt 0.171333 0.000000
vt 0.166667 0.166666
vt 0.217948 0.166666
vt 0.003780 0.048020
vt 0.536369 0.464553
vt 0.540056 0.464096
vt 0.548678 0.464680
vt 0.036859 0.148515
vt 0.036859 0.148515
vt 0.040640 0.049505
vt 0.676619 0.000000
vt 0.333795 0.465115
vt 0.276366 0.465115
vt 0.276366 0.046513
vt 0.288258 0.009897
vt 0.250454 1.000000
vt 0.035891 0.790699
vt 0.323144 0.333332
vt 0.320259 0.117170
vt 0.410481 0.053691
vt 0.514875 0.448152
vt 0.000000 0.000000
vt 0.257880 0.000000
vt 0.193410 0.909090
vt 0.476850 0.447349
vt 0.025001 0.909092
vt 0.729984 0.748746
vt 0.410481 0.333332
vt 0.000000 0.909090
vt 0.000000 0.166666
vt 0.129210 0.697674
vt 0.207317 0.909092
vt 0.158535 0.909092
vt 0.158535 0.909092
vt 0.323144 0.683334
vt 0.323144 0.583332
vt 0.323144 0.349998
vt 0.269190 0.465115
vt 0.042530 0.000000
vt 0.040640 0.049505
vt 0.000000 0.169934
vt 0.231441 0.683334
vt 0.311787 0.244943
vt 0.566667 0.934779
vt 0.274999 0.909092
vt 0.410481 0.053691
vt 0.491224 0.465844
vt 0.359492 0.169934
vt 0.081097 0.488655
vt 0.025124 0.441860
vt 0.039481 0.441860
vt 0.025124 0.441860
vt 0.171333 0.256097
vt 0.171333 0.304878
vt 0.338310 0.465195
vt 0.884594 0.639534
vt 0.554219 0.441444
vt 0.240475 0.511627
vt 0.226118 0.511627
vt 0.318778 0.483334
vt 0.243900 0.000000
vt 0.207317 0.909092
vt 0.552887 0.436037
vt 0.571630 0.436599
vt 0.025124 0.511627
vt 0.257880 0.909090
vt 0.318778 0.583332
vt 0.566667 0.934779
vt 0.000000 0.000000
vt 0.834484 0.790697
vt 0.000000 0.909092
vt 0.000000 0.000000
vt 0.287135 0.581394
vt 0.351740 1.000000
vt 0.067935 0.256097
vt 0.318778 0.683334
vt 0.197406 0.465115
vt 0.243900 0.909092
vt 0.500342 0.464182
vt 0.351740 0.767441
vt 0.174999 0.909092
vt 0.035891 0.790699
vt 0.021536 0.790699
vt 0.021536 0.697674
vt 0.208173 0.767441
vt 0.171333 0.548781
vt 0.184959 0.428150
vt 0.236885 0.697674
vt 0.251242 0.697674
vt 0.000000 0.679739
vt 0.338310 0.082844
vt 0.179486 0.909092
vt 0.250870 0.731707
vt 0.129210 0.790699
vt 0.287135 0.627907
vt 0.454148 0.349998
vt 0.039481 0.441860
vt 0.004726 0.990103
vt 0.565254 0.466520
vt 0.131814 0.000000
vt 0.250870 0.000000
vt 0.125622 0.511627
vt 0.035891 0.697674
vt 0.582460 0.465027
vt 0.552709 0.464230
vn 0.0000 1.0000 0.0000
g result.001_Cube.016_acid
usemtl acid
s off
f 124/1/1 125/2/1 127/3/1
f 103/4/1 146/5/1 102/6/1
f 216/7/1 213/8/1 215/9/1
f 1/10/1 12/11/1 2/12/1
f 113/13/1 114/14/1 128/15/1
f 16/16/1 13/17/1 15/18/1
f 55/19/1 206/20/1 56/21/1
f 183/22/1 182/23/1 181/24/1
f 124/1/1 117/25/1 118/26/1
f 153/27/1 152/28/1 154/29/1
f 1/10/1 3/30/1 12/11/1
f 110/31/1 134/32/1 133/33/1
f 176/34/1 173/35/1 174/36/1
f 131/37/1 128/15/1 126/38/1
f 64/39/1 58/40/1 60/41/1
f 62/42/1 65/43/1 64/39/1
f 43/44/1 236/45/1 237/46/1
f 185/47/1 240/48/1 186/49/1
f 41/50/1 209/51/1 185/47/1
f 215/9/1 57/52/1 217/53/1
f 21/54/1 22/55/1 20/56/1
f 219/57/1 220/58/1 221/59/1
f 116/60/1 115/61/1 105/62/1
f 229/63/1 227/64/1 228/65/1
f 89/66/1 91/67/1 90/68/1
f 146/5/1 222/69/1 145/70/1
f 139/71/1 137/72/1 138/73/1
f 180/74/1 230/75/1 231/76/1
f 65/43/1 212/77/1 64/39/1
f 189/78/1 191/79/1 192/80/1
f 8/81/1 6/82/1 9/83/1
f 32/84/1 31/85/1 115/61/1
f 167/86/1 248/87/1 168/88/1
f 89/66/1 90/68/1 88/89/1
f 145/70/1 98/90/1 102/6/1
f 17/91/1 24/92/1 23/93/1
f 4/94/1 5/95/1 103/4/1
f 202/96/1 160/97/1 159/98/1
f 117/25/1 116/60/1 119/99/1
f 210/100/1 197/101/1 44/102/1
f 53/103/1 54/104/1 56/21/1
f 97/105/1 92/106/1 74/107/1
f 186/49/1 207/108/1 210/100/1
f 167/86/1 168/88/1 249/109/1
f 127/3/1 131/37/1 126/38/1
f 92/106/1 71/110/1 74/107/1
f 170/111/1 171/112/1 172/113/1
f 242/114/1 243/115/1 244/116/1
f 27/117/1 28/118/1 26/119/1
f 205/120/1 204/121/1 199/122/1
f 81/123/1 76/124/1 90/68/1
f 250/125/1 251/126/1 149/127/1
f 124/1/1 118/26/1 125/2/1
f 185/47/1 186/49/1 210/100/1
f 38/128/1 61/129/1 63/130/1
f 75/131/1 77/132/1 91/67/1
f 60/41/1 62/42/1 64/39/1
f 153/27/1 151/133/1 152/28/1
f 62/42/1 59/134/1 65/43/1
f 156/135/1 155/136/1 203/137/1
f 116/60/1 32/84/1 115/61/1
f 72/138/1 11/139/1 73/140/1
f 70/141/1 67/142/1 66/143/1
f 187/144/1 188/145/1 216/7/1
f 146/5/1 223/146/1 222/69/1
f 93/147/1 87/148/1 94/149/1
f 147/150/1 224/151/1 148/152/1
f 16/16/1 14/153/1 13/17/1
f 44/102/1 197/101/1 43/44/1
f 200/154/1 193/155/1 42/156/1
f 133/33/1 124/1/1 126/38/1
f 141/157/1 143/158/1 147/150/1
f 170/111/1 169/159/1 171/112/1
f 125/2/1 108/160/1 127/3/1
f 26/119/1 21/54/1 18/161/1
f 134/32/1 136/162/1 133/33/1
f 80/163/1 81/123/1 90/68/1
f 34/164/1 33/165/1 37/166/1
f 78/167/1 80/163/1 90/68/1
f 51/168/1 53/103/1 56/21/1
f 155/136/1 157/169/1 203/137/1
f 133/33/1 109/170/1 124/1/1
f 36/171/1 34/164/1 37/166/1
f 57/52/1 214/172/1 217/53/1
f 250/125/1 150/173/1 251/126/1
f 29/174/1 30/175/1 49/176/1
f 105/62/1 104/177/1 120/178/1
f 119/99/1 106/179/1 118/26/1
f 126/38/1 110/31/1 133/33/1
f 43/44/1 40/180/1 236/45/1
f 18/161/1 21/54/1 20/56/1
f 41/50/1 210/100/1 44/102/1
f 148/152/1 142/181/1 141/157/1
f 224/151/1 225/182/1 148/152/1
f 202/96/1 203/137/1 200/154/1
f 103/4/1 101/183/1 146/5/1
f 146/5/1 145/70/1 102/6/1
f 43/44/1 237/46/1 44/102/1
f 113/13/1 131/37/1 111/184/1
f 18/161/1 19/185/1 17/91/1
f 72/138/1 10/186/1 11/139/1
f 54/104/1 52/187/1 55/19/1
f 197/101/1 200/154/1 42/156/1
f 136/162/1 135/188/1 133/33/1
f 94/149/1 85/189/1 93/147/1
f 145/70/1 99/190/1 98/90/1
f 24/92/1 25/191/1 23/93/1
f 117/25/1 119/99/1 118/26/1
f 165/192/1 164/193/1 163/194/1
f 195/195/1 198/196/1 196/197/1
f 183/22/1 184/198/1 182/23/1
f 95/199/1 81/123/1 80/163/1
f 238/200/1 239/201/1 236/45/1
f 129/202/1 119/99/1 120/178/1
f 45/203/1 50/204/1 49/176/1
f 79/205/1 96/206/1 97/105/1
f 216/7/1 215/9/1 217/53/1
f 242/114/1 244/116/1 245/207/1
f 33/165/1 35/208/1 38/128/1
f 129/202/1 120/178/1 130/209/1
f 8/81/1 7/210/1 6/82/1
f 139/71/1 140/211/1 137/72/1
f 50/204/1 29/174/1 49/176/1
f 158/212/1 156/135/1 202/96/1
f 70/141/1 73/140/1 71/110/1
f 49/176/1 48/213/1 46/214/1
f 89/66/1 88/89/1 93/147/1
f 156/135/1 234/215/1 155/136/1
f 179/216/1 180/74/1 231/76/1
f 195/195/1 196/197/1 194/217/1
f 197/101/1 42/156/1 43/44/1
f 27/117/1 26/119/1 18/161/1
f 92/106/1 70/141/1 71/110/1
f 77/132/1 78/167/1 90/68/1
f 102/6/1 4/94/1 103/4/1
f 130/209/1 112/218/1 111/184/1
f 217/53/1 187/144/1 216/7/1
f 126/38/1 124/1/1 127/3/1
f 54/104/1 55/19/1 56/21/1
f 237/46/1 39/219/1 44/102/1
f 79/205/1 97/105/1 95/199/1
f 131/37/1 113/13/1 128/15/1
f 33/165/1 38/128/1 37/166/1
f 45/203/1 47/220/1 50/204/1
f 88/89/1 83/221/1 93/147/1
f 231/76/1 177/222/1 179/216/1
f 130/209/1 111/184/1 129/202/1
f 55/19/1 208/223/1 206/20/1
f 46/214/1 45/203/1 49/176/1
f 202/96/1 156/135/1 203/137/1
f 246/224/1 247/225/1 161/226/1
f 120/178/1 119/99/1 116/60/1
f 180/74/1 178/227/1 230/75/1
f 79/205/1 95/199/1 80/163/1
f 189/78/1 190/228/1 191/79/1
f 229/63/1 226/229/1 227/64/1
f 230/75/1 233/230/1 232/231/1
f 98/90/1 100/232/1 102/6/1
f 219/57/1 218/233/1 220/58/1
f 23/93/1 27/117/1 17/91/1
f 65/43/1 211/234/1 212/77/1
f 73/140/1 69/235/1 71/110/1
f 176/34/1 175/236/1 173/35/1
f 156/135/1 235/237/1 234/215/1
f 115/61/1 107/238/1 105/62/1
f 165/192/1 166/239/1 164/193/1
f 239/201/1 237/46/1 236/45/1
f 131/37/1 129/202/1 111/184/1
f 95/199/1 97/105/1 74/107/1
f 41/50/1 185/47/1 210/100/1
f 105/62/1 120/178/1 116/60/1
f 70/141/1 66/143/1 72/138/1
f 159/98/1 158/212/1 202/96/1
f 197/101/1 202/96/1 200/154/1
f 70/141/1 72/138/1 73/140/1
f 143/158/1 144/240/1 147/150/1
f 230/75/1 232/231/1 231/76/1
f 148/152/1 141/157/1 147/150/1
f 84/241/1 85/189/1 94/149/1
f 205/120/1 201/242/1 204/121/1
f 18/161/1 17/91/1 27/117/1
f 77/132/1 90/68/1 91/67/1
f 38/128/1 63/130/1 37/166/1
f 73/140/1 68/243/1 69/235/1
f 240/48/1 241/244/1 186/49/1
f 246/224/1 161/226/1 162/245/1
f 82/246/1 84/241/1 94/149/1
f 85/189/1 89/66/1 93/147/1
f 87/148/1 86/247/1 94/149/1
l 121 132
