# Blender v2.93.10 OBJ File: 'linear bearing.blend'
# www.blender.org
mtllib map path finding.mtl
o result.002_Cube.025
v 16.000000 22.500006 -40.499996
v 35.500000 22.500010 -53.499996
v 16.000000 22.500010 -53.499996
v 34.450001 -2.000003 20.450001
v 15.550000 -2.000000 1.550000
v 15.550000 -2.000003 20.450001
v 16.000000 22.500004 -25.499996
v 35.500000 22.500006 -38.499996
v 16.000000 22.500006 -38.499996
v -17.449522 0.000003 -19.787455
v -21.000008 0.000003 -20.212465
v -21.000008 0.000003 -19.787455
v -19.000008 -29.999996 -21.500002
v -22.000008 -29.999996 -18.500002
v -19.000008 -29.999996 -18.500002
v 35.500008 22.500010 -55.000000
v -19.499994 22.500011 -74.500000
v -19.499994 22.500010 -55.000000
v 1.500000 22.500000 -3.999996
v 1.500000 22.500000 -2.999995
v 2.024937 22.500000 -3.649997
v -17.500008 22.500004 -24.999989
v -16.500010 22.500004 -24.999989
v -17.390108 22.500006 -33.999989
v 0.999993 22.500010 -53.999996
v -19.500008 22.500006 -36.999996
v 0.999993 22.500006 -36.999996
v -17.449522 22.500858 -19.787451
v -21.000008 22.500858 -20.212461
v -21.000008 22.500858 -19.787451
v 19.250000 22.500000 -1.999996
v 18.750000 22.500000 -1.999996
v 19.250000 22.500000 2.550004
v 31.850000 -0.000000 1.550000
v 32.150002 -2.000000 2.550000
v 32.150002 -0.000000 1.550000
v 15.549999 -0.000002 10.150000
v 16.549999 -2.000002 9.849999
v 15.549999 -0.000002 9.849999
v 8.650000 0.000000 -0.500000
v 8.150000 0.000000 -1.000000
v 7.849999 0.000000 -1.000000
v 25.000000 0.000002 -13.150012
v 12.000000 0.000002 -13.150012
v 18.750000 22.500000 2.550004
v 19.250000 -1.996059 2.550000
v 4.500000 22.500008 -47.149998
v 4.000000 22.500008 -46.349995
v 4.500000 22.500008 -45.849995
v -16.500010 22.500004 -22.999989
v -17.125008 22.500004 -23.333324
v -17.500008 22.500004 -22.999989
v -17.125008 22.500004 -24.666656
v -16.875008 22.500004 -23.333324
v -17.500006 22.500002 -13.999990
v -16.875006 22.500002 -13.666656
v -16.500006 22.500002 -13.999990
v 1.499993 22.500002 -11.999996
v -16.500006 22.500002 -11.999990
v -17.125006 22.500002 -12.333323
v -16.875006 22.500002 -12.333323
v -17.125006 22.500002 -13.666656
v 35.500000 22.500006 -40.499996
v 34.450001 -2.000000 1.550000
v 35.500000 22.500004 -25.499996
v -17.449522 0.000003 -20.212465
v -22.000008 -29.999996 -21.500002
v 35.500008 22.500011 -74.500000
v -17.500004 22.500000 -3.052483
v -19.500008 22.500010 -53.999996
v -17.449522 22.500858 -20.212461
v 19.750000 22.500000 -2.499996
v 18.250000 22.500000 -2.499996
v 31.850000 -2.000000 2.550000
v 11.500000 0.000002 -11.500000
v 12.000000 0.000002 -12.850039
v 7.849999 0.000002 -11.000000
v 8.149996 0.000002 -11.000000
v 4.500000 0.000002 -11.500000
v 25.000000 0.000002 -12.850039
v 25.500000 0.000002 -12.350039
v 1.499995 0.000002 -13.650173
v 12.000000 0.000004 -22.909992
v 25.500000 0.000004 -22.409992
v 25.500000 0.000002 -13.643369
v 34.500000 0.000005 -31.500000
v 33.920876 0.000000 -2.500000
v 34.500000 0.000001 -3.363368
v 32.650002 0.000005 -31.500000
v 25.500000 0.000004 -23.589993
v 32.150002 0.000005 -32.000000
v 31.350000 0.000005 -31.500000
v 25.000000 0.000004 -22.909992
v 31.850000 0.000005 -32.000000
v 25.500000 0.000005 -31.500000
v 1.449757 0.000001 -3.549991
v 1.449757 0.000002 -12.449998
v 25.000000 0.000004 -23.089993
v 12.000000 0.000004 -23.089993
v 7.349999 0.000000 -0.500000
v 13.000000 -0.000002 9.850000
v 12.500000 -0.000002 9.350000
v 13.202242 -0.000002 10.150000
v 12.500000 -0.000002 11.012005
v -2.500000 -0.000005 28.500000
v 12.500000 -0.000005 28.500000
v -2.500000 0.000000 -0.500000
v 14.500000 0.000005 -31.500000
v 23.500000 0.000005 -31.500000
v 23.500000 0.000007 -40.500000
v 14.500000 0.000007 -40.500000
v -17.449625 0.000002 -12.449998
v -17.449625 0.000001 -3.549991
v -17.449522 0.000002 -13.650173
v -17.449522 0.000004 -23.449846
v 1.499992 0.000004 -23.449846
v 1.500000 0.000007 -45.500000
v 1.500000 0.000006 -36.500000
v 16.549999 -2.000002 10.150000
v 12.500000 0.000000 -0.500000
v 31.850000 0.000000 -2.349999
v 32.150002 0.000000 -2.349999
v 25.500000 0.000000 -2.500000
v 31.700001 0.000000 -2.500000
v 32.300003 0.000000 -2.500000
v 18.750000 -1.996059 2.550000
v 4.500000 22.500000 -2.999996
v 4.500000 22.499998 9.500000
v 12.500006 22.499998 9.500000
v 12.500006 22.500002 -8.500000
v 8.650005 22.500002 -8.500000
v 8.150005 22.500002 -9.000000
v 7.850006 22.500002 -9.000000
v 4.500000 22.500000 -3.999996
v 2.024937 22.500000 -3.349996
v 4.000000 22.500000 -3.649997
v 4.000000 22.500000 -3.349996
v 7.350006 22.500002 -8.500000
v 4.500000 22.500002 -8.500000
v 8.650005 22.500002 -11.499996
v 11.500000 22.500002 -11.499996
v 11.500000 22.500002 -16.349997
v 8.150005 22.500002 -10.999996
v 7.350006 22.500002 -11.499996
v 15.500000 22.500002 -16.349997
v 15.500000 22.500000 -2.499996
v 24.500000 22.500000 -2.499996
v 24.500000 22.500004 -21.499996
v 15.500000 22.500004 -21.499996
v 15.500000 22.500004 -17.649996
v 15.000000 22.500002 -17.149996
v 15.000000 22.500002 -16.849997
v 12.000000 22.500002 -17.149996
v 12.000000 22.500002 -16.849997
v 11.500000 22.500004 -17.649996
v 4.500000 22.500004 -17.849997
v 11.500000 22.500006 -31.349997
v 4.500000 22.500004 -19.149996
v 7.850006 22.500002 -10.999996
v 4.500000 22.500002 -11.499996
v 1.499995 22.500002 -13.999996
v 1.499994 22.500004 -17.849997
v 1.499993 22.500004 -19.149996
v 1.499992 22.500004 -22.999996
v 1.999994 22.500004 -18.349997
v 1.999993 22.500004 -18.649996
v 4.000000 22.500004 -18.349997
v 4.000000 22.500004 -18.649996
v 15.500000 22.500006 -31.849997
v 16.000000 22.500006 -31.549997
v 15.500000 22.500006 -32.149998
v 16.000000 22.500006 -32.450001
v 12.000000 22.500006 -31.849997
v 12.000000 22.500006 -32.149998
v 11.500000 22.500006 -32.649998
v 4.500000 22.500006 -31.849995
v 11.500000 22.500008 -46.349995
v 4.500000 22.500006 -33.149998
v 15.500000 22.500008 -46.849995
v 16.000000 22.500008 -45.999996
v 16.000000 22.500008 -47.999996
v 15.500000 22.500008 -47.149998
v 12.000000 22.500008 -46.849995
v 12.000000 22.500008 -47.149998
v 11.500000 22.500008 -47.649998
v 11.500000 22.500008 -50.499996
v 8.937504 22.500008 -50.500004
v 1.499994 22.500004 -24.999996
v 1.499992 22.500006 -31.849995
v 1.499991 22.500006 -33.999996
v 1.499991 22.500006 -33.149998
v 1.999991 22.500006 -32.349995
v 1.999991 22.500006 -32.649998
v 4.000000 22.500006 -32.649998
v 4.000000 22.500006 -32.349995
v 7.062504 22.500008 -50.500000
v 8.375004 22.500008 -51.000004
v 8.375004 22.500010 -54.500000
v 8.937504 22.500010 -55.000000
v 7.062504 22.500010 -55.000000
v 7.625004 22.500008 -51.000000
v 7.625004 22.500010 -54.500000
v 4.500000 22.500008 -50.499996
v 1.499993 22.500008 -46.649998
v 0.999993 22.500008 -47.499996
v 0.999993 22.500008 -45.499996
v 1.499993 22.500008 -46.349995
v 4.000000 22.500008 -46.649998
v -16.875008 22.500004 -24.666656
v -17.500006 22.500002 -11.999990
v 31.850000 0.000006 -39.349998
v 32.150002 0.000006 -39.349998
v 30.400002 0.000007 -40.150002
v 30.400002 0.000006 -39.849998
v 31.350000 0.000006 -39.849998
v 32.650002 0.000006 -39.849998
v 41.000000 0.000007 -40.150002
v 41.000000 0.000006 -39.849998
v 41.500000 0.000007 -40.650002
v 41.500000 0.000006 -39.349998
v 41.500000 0.000006 -35.500000
v 85.349998 0.000006 -35.500000
v 41.500000 0.000007 -44.500000
v 1.500001 0.000008 -47.500000
v 1.499991 0.000006 -34.450165
v 1.499994 0.000004 -25.000000
v 85.349998 0.000005 -32.500000
v 81.500000 0.000005 -32.500000
v 81.500000 0.000004 -23.700001
v 81.000000 0.000004 -23.200001
v 79.000000 0.000004 -23.200001
v 79.000000 0.000004 -22.799999
v 85.849998 0.000005 -33.000000
v 86.650002 0.000005 -32.500000
v 81.000000 0.000004 -22.799999
v 81.500000 0.000004 -22.299999
v 81.500000 0.000002 -13.500000
v 90.500000 0.000002 -13.500000
v 90.500000 0.000005 -32.500000
v 86.150002 0.000005 -33.000000
v 85.849998 0.000006 -35.000000
v 86.150002 0.000006 -35.000000
v 86.650002 0.000006 -35.500000
v 90.500000 0.000006 -35.500000
v 90.500000 0.000007 -44.500000
v 11.500000 0.000008 -50.500000
v 8.800000 0.000008 -50.500000
v 7.200000 0.000008 -50.500000
v 8.300000 0.000008 -51.000000
v 8.800000 0.000011 -70.500000
v 9.900551 0.000011 -70.500000
v 17.500000 0.000013 -78.099457
v 15.274168 0.000012 -72.725830
v 17.500000 0.000013 -81.900543
v 15.274168 0.000014 -87.274170
v 9.900551 0.000015 -89.500000
v 6.099450 0.000015 -89.500000
v 7.200000 0.000011 -70.500000
v 0.725831 0.000014 -87.274170
v -1.500000 0.000013 -81.900543
v -1.500000 0.000013 -78.099457
v 0.725832 0.000012 -72.725830
v 6.099450 0.000011 -70.500000
v 7.700000 0.000011 -70.000000
v 8.300000 0.000011 -70.000000
v -17.500010 0.000006 -34.450165
v -17.500006 0.000004 -24.999992
v 7.700000 0.000008 -51.000000
v 4.500000 0.000008 -50.500000
v 1.500001 0.000009 -56.500000
v -17.500000 0.000009 -56.500000
v -17.500000 0.000008 -47.500000
v -17.500000 0.000007 -45.500000
v -17.500000 0.000006 -36.500000
vt 0.249855 0.011957
vt 0.203718 0.043783
vt 0.170771 0.011686
vt 0.558828 0.918476
vt 0.550990 0.918475
vt 0.550990 0.885868
vt 0.035378 0.790699
vt 0.021536 0.790699
vt 0.034994 0.790699
vt 0.165095 0.011667
vt 0.199059 0.040817
vt 0.234774 0.363617
vt 0.145180 0.060914
vt 0.296488 0.061674
vt 0.727996 0.725202
vt 0.396589 0.541370
vt 0.577791 0.682942
vt 0.333726 0.451684
vt 0.283620 0.035664
vt 0.345138 0.012283
vt 0.358668 0.605267
vt 0.648472 0.696220
vt 0.346088 0.624763
vt 0.488426 0.461899
vt 0.495358 0.462383
vt 0.487512 0.462220
vt 0.344561 0.463679
vt 0.337383 0.499999
vt 0.337383 0.465695
vt 0.726315 0.668281
vt 0.092504 0.524925
vt 0.234315 0.682626
vt 0.010290 0.967232
vt 0.248128 0.235298
vt 0.253343 0.999271
vt 0.344561 0.499999
vt 0.344561 0.437450
vt 0.159418 0.011648
vt 0.241194 0.356590
vt 0.209149 0.390000
vt 0.824547 0.107272
vt 0.753637 0.107272
vt 0.753637 0.015325
vt 0.270686 0.035446
vt 0.025523 0.441860
vt 0.039082 0.441860
vt 0.039481 0.441860
vt 0.145303 0.464573
vt 0.146170 0.511028
vt 0.137651 0.464752
vt 0.022048 0.790699
vt 0.100995 0.688761
vt 0.138037 0.522920
vt 0.138858 0.685641
vt 0.524464 0.437413
vt 0.514082 0.437720
vt 0.519409 0.437128
vt 0.036838 0.453867
vt 0.045846 0.453861
vt 0.081656 0.513863
vt 0.878691 0.738426
vt 0.898951 0.749562
vt 0.834481 0.731719
vt 0.217947 1.270172
vt 0.010895 0.972801
vt 0.055305 0.014979
vt 0.242344 0.763204
vt 0.243909 0.774502
vt 0.237010 0.763679
vt 0.031162 0.779782
vt 0.035534 0.779239
vt 0.127238 0.699023
vt 0.526447 0.804467
vt 0.526342 0.779441
vt 0.526447 0.804467
vt 0.036291 0.441860
vt 0.037886 0.441860
vt 0.694239 0.533017
vt 0.305041 0.444541
vt 0.394321 0.317094
vt 0.238053 0.364063
vt 0.315033 0.122450
vt 0.526342 0.779441
vt 0.212312 0.157744
vt 0.248968 0.718248
vt 0.183146 0.494716
vt 0.558828 0.885868
vt 0.566667 0.918476
vt 0.496213 0.462127
vt 0.498568 0.462334
vt 0.496900 0.462732
vt 0.392730 0.517646
vt 0.861869 0.781531
vt 0.227650 0.518471
vt 0.237874 0.516747
vt 0.236038 0.682116
vt 0.211434 0.987805
vt 0.233832 0.775696
vt 0.950456 0.253872
vt 0.952582 0.253872
vt 0.952582 0.283386
vt 0.197672 0.398616
vt 0.087853 0.121282
vt 0.284813 0.162835
vt 0.287693 0.154766
vt 0.122946 0.014160
vt 0.153742 0.011628
vt 0.188157 0.056030
vt 0.197337 1.255515
vt -0.006281 0.911034
vt 0.126390 0.000000
vt 0.871859 0.010924
vt 0.871859 0.423858
vt 0.753141 0.423858
vt 0.226353 0.709914
vt 0.178508 0.540610
vt 0.240217 0.714285
vt 0.550990 0.918475
vt 0.550990 0.885868
vt 0.547534 0.462255
vt 0.564191 0.465861
vt 0.493672 0.465104
vt 0.646079 0.861270
vt 0.617211 0.828972
vt 0.646079 0.861270
vt 0.599999 0.850561
vt 0.550845 0.790163
vt 0.541746 0.097259
vt 0.396643 0.365944
vt 0.302078 0.625857
vt 0.247963 0.681848
vt 0.281861 0.571606
vt 0.299147 0.764692
vt 0.343728 0.985644
vt 0.149689 0.217087
vt 0.198871 0.180081
vt 0.187419 0.099464
vt 0.143055 0.790699
vt 0.129723 0.790699
vt 0.129210 0.790699
vt 0.824548 0.015325
vt 0.238098 0.725758
vt 0.231376 0.724502
vt 0.549199 0.428233
vt 0.558930 0.428947
vt 0.557843 0.428132
vt 0.025125 0.790699
vt 0.952582 0.253872
vt 0.952582 0.283386
vt 0.248237 0.033616
vt 0.267964 0.012019
vt 0.768313 0.760792
vt 0.005891 0.385049
vt 0.367963 0.164089
vt 0.347961 0.671571
vt 0.262708 0.450225
vt 0.240365 0.448494
vt 0.535648 0.462072
vt 0.950456 0.283386
vt 0.009757 0.363004
vt 0.017296 0.242352
vt 0.445699 0.464633
vt 0.482848 0.443184
vt 0.487296 0.461665
vt 0.182110 0.527661
vt 0.203251 0.469999
vt 0.182288 0.512308
vt 0.091057 0.700238
vt 0.175786 0.294637
vt 0.343453 0.466280
vt 0.181334 0.280620
vt 0.228176 0.449523
vt 0.558521 0.096440
vt 0.273300 0.683825
vt 0.194401 0.037851
vt 0.149545 0.522479
vt -0.004148 0.919202
vt 0.010458 0.023356
vt 0.264354 0.029156
vt 0.178281 0.264484
vt 0.538335 0.462276
vt 0.549780 0.463516
vt 0.546527 0.462409
vt 0.270105 0.126900
vt 0.950456 0.253872
vt 0.950456 0.283386
vt 0.015980 0.891375
vt -0.017181 0.022804
vt 0.242265 0.022632
vt 0.211846 0.778374
vt 0.149881 0.685264
vt 0.148020 0.452961
vt 0.132804 0.453234
vt 0.504739 0.748914
vt 0.132398 0.214800
vt 0.155404 0.213072
vt 0.471100 0.552439
vt 0.551380 0.431629
vt 0.145188 0.697082
vt 0.134899 0.774834
vt 0.131619 0.775062
vt 0.527292 0.438835
vt 0.558910 0.446183
vt 0.263324 -0.261655
vt 0.898951 0.709716
vt 0.898951 0.755398
vt 0.898951 0.755814
vt 0.383188 0.568307
vt 0.736870 0.679732
vt 0.025922 0.441860
vt 0.132800 0.790699
vt 0.139449 0.511198
vt 0.244921 0.693295
vt 0.238940 0.693667
vt 0.035413 0.017408
vt 0.183272 0.416187
vt 0.088067 0.472317
vt 0.028206 0.423199
vt 0.167679 0.217620
vt 0.355139 0.056724
vt 0.236713 0.011279
vt 0.082626 0.514303
vt 0.168299 0.686894
vt 0.469392 0.548852
vt 0.273104 0.113848
vt 0.230861 0.506776
vt 0.237281 0.459779
vt 0.236549 0.505819
vt 0.279308 0.035591
vt 0.255891 0.011978
vt 0.261928 0.011998
vt 0.261414 0.368687
vt 0.278467 0.539534
vt 0.097336 0.515108
vt 0.202289 0.452836
vt 0.231402 0.460630
vt 0.139145 0.697210
vt 0.010641 0.672160
vt 0.835931 0.751866
vt 0.090731 0.525750
vt 0.485137 0.462502
vt 0.753141 0.010924
vt 0.501936 0.661063
vt -0.010535 0.218829
vt 0.178794 0.013331
vt 0.579572 0.464411
vt 0.207992 0.930119
vt -0.006005 0.029105
vt 0.259618 0.022863
vt 0.248839 0.020850
vt 0.870125 0.055634
vt 0.188209 0.452989
vt 0.228084 -0.335402
vt 0.257031 0.509346
vt 0.242644 0.887262
vt 0.018193 0.182943
vt 0.898951 0.710051
vt -0.061104 0.930029
vt 0.273528 0.448116
vt 0.259005 0.431414
vt 0.274997 0.035518
vt 0.769986 0.654483
vt 0.142670 0.790699
vt 0.307289 0.244230
vt 0.130108 0.790699
vt 0.501712 0.463491
vt 0.481955 0.464985
vt 0.566667 0.885868
vt 0.023330 0.790699
vt 0.617211 0.828972
vt 0.541370 0.463415
vt 0.125328 0.453393
vt 0.238552 0.953527
vt 0.898951 0.752313
vt 0.606395 0.128868
vn 0.0000 1.0000 0.0000
vn 0.0000 0.4472 0.8944
vn 0.0000 -0.0000 1.0000
vn 0.8944 0.4472 0.0000
vn -1.0000 0.0000 0.0000
g result.002_Cube.025_result.002_Cube.025_acid
usemtl acid
s 1
f 55/1/1 50/2/1 52/3/1
f 32/4/1 45/5/1 33/6/1
f 63/7/1 3/8/1 1/9/1
f 51/10/1 52/3/1 54/11/1
f 258/12/1 257/13/1 260/14/1
f 138/15/1 134/16/1 131/17/1
f 19/18/1 59/19/1 69/20/1
f 159/21/1 133/22/1 143/23/1
f 241/24/1 240/25/1 242/26/1
f 135/27/1 136/28/1 21/29/1
f 187/30/1 47/31/1 185/32/1
f 110/33/1 108/34/1 109/35/1
f 135/27/1 137/36/1 136/28/1
f 20/37/1 135/27/1 19/18/1
f 54/11/1 53/38/1 51/10/1
f 258/12/1 264/39/1 265/40/1
f 67/41/1 14/42/1 15/43/1
f 50/2/1 55/1/1 57/44/1
f 70/45/1 26/46/1 27/47/1
f 192/48/1 195/49/1 193/50/1
f 63/7/1 2/51/1 3/8/1
f 177/52/1 178/53/1 175/54/1
f 218/55/1 219/56/1 217/57/1
f 185/32/1 47/31/1 177/52/1
f 204/58/1 207/59/1 48/60/1
f 198/61/1 199/62/1 202/63/1
f 112/64/1 113/65/1 96/66/1
f 152/67/1 145/68/1 151/69/1
f 179/70/1 182/71/1 184/72/1
f 74/73/2 36/74/2 34/75/2
f 205/76/1 206/77/1 207/59/1
f 79/78/1 75/79/1 247/80/1
f 263/81/1 258/12/1 261/82/1
f 74/73/2 35/83/2 36/74/2
f 85/84/1 86/85/1 84/86/1
f 204/58/1 205/76/1 207/59/1
f 32/4/1 31/87/1 73/88/1
f 233/89/1 227/90/1 234/91/1
f 127/92/1 130/93/1 131/17/1
f 158/94/1 156/95/1 155/96/1
f 148/97/1 150/98/1 145/68/1
f 71/99/1 29/100/1 30/101/1
f 258/12/1 250/102/1 256/103/1
f 121/104/1 34/75/1 122/105/1
f 24/106/1 22/107/1 23/108/1
f 21/29/1 19/18/1 135/27/1
f 82/109/1 116/110/1 66/111/1
f 257/13/1 258/12/1 256/103/1
f 64/112/1 5/113/1 6/114/1
f 92/115/1 90/116/1 89/117/1
f 126/118/3 46/119/3 33/6/3
f 236/120/1 238/121/1 239/122/1
f 119/123/4 39/124/4 37/125/4
f 103/126/1 39/124/1 101/127/1
f 264/39/1 268/128/1 249/129/1
f 140/130/1 142/131/1 144/132/1
f 145/68/1 146/133/1 147/134/1
f 41/135/1 78/136/1 77/137/1
f 233/89/1 234/91/1 240/25/1
f 65/138/1 8/139/1 9/140/1
f 67/41/1 15/43/1 13/141/1
f 89/117/1 91/142/1 94/143/1
f 241/24/1 233/89/1 240/25/1
f 213/144/1 214/145/1 215/146/1
f 179/70/1 180/147/1 182/71/1
f 23/108/1 22/107/1 53/38/1
f 11/148/5 12/149/5 30/101/5
f 133/22/1 138/15/1 131/17/1
f 88/150/1 86/85/1 85/84/1
f 210/151/1 69/20/1 59/19/1
f 138/15/1 139/152/1 134/16/1
f 104/153/1 103/126/1 101/127/1
f 107/154/1 105/155/1 104/153/1
f 57/44/1 161/156/1 162/157/1
f 89/117/1 94/143/1 92/115/1
f 227/90/1 229/158/1 234/91/1
f 71/99/1 30/101/1 28/159/1
f 254/160/1 255/161/1 256/103/1
f 245/162/1 223/163/1 222/164/1
f 98/165/1 83/166/1 93/167/1
f 183/168/1 179/70/1 184/72/1
f 155/96/1 156/95/1 142/131/1
f 98/165/1 93/167/1 84/86/1
f 156/95/1 144/132/1 142/131/1
f 43/169/1 44/170/1 80/171/1
f 84/86/1 86/85/1 90/116/1
f 163/172/1 50/2/1 57/44/1
f 248/173/1 79/78/1 247/80/1
f 250/102/1 254/160/1 256/103/1
f 69/20/1 20/37/1 19/18/1
f 140/130/1 141/174/1 142/131/1
f 209/175/1 23/108/1 53/38/1
f 178/53/1 176/176/1 175/54/1
f 270/177/1 271/178/1 272/179/1
f 88/150/1 85/84/1 81/180/1
f 230/181/1 232/182/1 235/183/1
f 124/184/1 121/104/1 122/105/1
f 66/185/1 12/149/1 10/186/1
f 225/187/1 266/188/1 267/189/1
f 148/97/1 149/190/1 150/98/1
f 175/54/1 176/176/1 157/191/1
f 189/192/1 191/193/1 24/106/1
f 102/194/1 40/195/1 100/196/1
f 34/75/1 36/74/1 122/105/1
f 212/197/1 216/198/1 215/146/1
f 173/199/1 169/200/1 171/201/1
f 220/202/1 221/203/1 222/164/1
f 114/204/1 82/109/1 66/111/1
f 68/205/1 17/206/1 18/207/1
f 202/63/1 201/208/1 197/209/1
f 260/14/1 261/82/1 258/12/1
f 176/176/1 158/94/1 157/191/1
f 158/94/1 155/96/1 157/191/1
f 70/45/1 27/47/1 25/210/1
f 222/164/1 241/24/1 242/26/1
f 217/57/1 213/144/1 216/198/1
f 213/144/1 215/146/1 216/198/1
f 169/200/1 170/211/1 171/201/1
f 195/49/1 194/212/1 193/50/1
f 104/153/1 101/127/1 102/194/1
f 154/213/1 152/67/1 153/214/1
f 116/110/1 115/215/1 66/111/1
f 251/216/1 253/217/1 252/218/1
f 40/195/1 41/135/1 42/219/1
f 75/79/1 246/220/1 247/80/1
f 259/221/1 260/14/1 257/13/1
f 43/169/1 80/171/1 85/84/1
f 208/222/1 204/58/1 48/60/1
f 92/115/1 95/223/1 90/116/1
f 229/158/1 235/183/1 236/120/1
f 212/197/1 215/146/1 211/224/1
f 197/209/1 198/61/1 202/63/1
f 41/135/1 77/137/1 42/219/1
f 125/225/1 88/150/1 124/184/1
f 168/226/1 165/227/1 167/228/1
f 61/229/1 62/230/1 60/231/1
f 152/67/1 151/69/1 153/214/1
f 250/102/1 251/216/1 252/218/1
f 44/170/1 76/232/1 80/171/1
f 196/233/1 203/234/1 47/31/1
f 59/19/1 61/229/1 60/231/1
f 163/172/1 164/235/1 50/2/1
f 162/157/1 165/227/1 166/236/1
f 166/236/1 163/172/1 162/157/1
f 171/201/1 174/237/1 173/199/1
f 105/155/1 106/238/1 104/153/1
f 134/16/1 136/28/1 137/36/1
f 127/92/1 129/239/1 130/93/1
f 49/240/1 178/53/1 177/52/1
f 218/55/1 220/202/1 219/56/1
f 57/44/1 162/157/1 163/172/1
f 222/164/1 243/241/1 245/162/1
f 216/198/1 218/55/1 217/57/1
f 64/112/1 6/114/1 4/242/1
f 220/202/1 222/164/1 219/56/1
f 122/105/1 125/225/1 124/184/1
f 133/22/1 132/243/1 143/23/1
f 264/39/1 249/129/1 265/40/1
f 110/33/1 111/244/1 108/34/1
f 189/192/1 192/48/1 191/193/1
f 81/180/1 123/245/1 124/184/1
f 66/185/1 11/148/1 12/149/1
f 80/171/1 81/180/1 85/84/1
f 60/231/1 210/151/1 59/19/1
f 236/120/1 237/246/1 238/121/1
f 212/197/1 211/224/1 94/143/1
f 118/247/1 273/248/1 274/249/1
f 145/68/1 150/98/1 151/69/1
f 134/16/1 137/36/1 127/92/1
f 126/118/3 33/6/3 45/5/3
f 87/250/1 88/150/1 125/225/1
f 11/148/5 30/101/5 29/100/5
f 127/92/1 128/251/1 129/239/1
f 23/108/1 188/252/1 189/192/1
f 192/48/1 193/50/1 191/193/1
f 229/158/1 236/120/1 239/122/1
f 112/64/1 96/66/1 97/253/1
f 23/108/1 189/192/1 24/106/1
f 219/56/1 222/164/1 223/163/1
f 42/219/1 100/196/1 40/195/1
f 57/44/1 55/1/1 62/230/1
f 124/184/1 88/150/1 81/180/1
f 156/95/1 160/254/1 144/132/1
f 225/187/1 267/189/1 226/255/1
f 107/154/1 104/153/1 102/194/1
f 102/194/1 120/256/1 40/195/1
f 50/2/1 54/11/1 52/3/1
f 103/126/1 37/125/1 39/124/1
f 68/205/1 18/207/1 16/257/1
f 54/11/1 209/175/1 53/38/1
f 86/85/1 89/117/1 90/116/1
f 91/142/1 212/197/1 94/143/1
f 229/158/1 230/181/1 235/183/1
f 234/91/1 229/158/1 239/122/1
f 118/247/1 117/258/1 273/248/1
f 252/218/1 254/160/1 250/102/1
f 19/18/1 58/259/1 59/19/1
f 98/165/1 99/260/1 83/166/1
f 61/229/1 56/261/1 62/230/1
f 147/134/1 148/97/1 145/68/1
f 185/32/1 186/262/1 187/30/1
f 65/138/1 9/140/1 7/263/1
f 134/16/1 127/92/1 131/17/1
f 100/196/1 107/154/1 102/194/1
f 168/226/1 166/236/1 165/227/1
f 262/264/1 263/81/1 261/82/1
f 258/12/1 265/40/1 250/102/1
f 170/211/1 172/265/1 171/201/1
f 227/90/1 228/266/1 229/158/1
f 90/116/1 98/165/1 84/86/1
f 56/261/1 57/44/1 62/230/1
f 47/31/1 49/240/1 177/52/1
f 243/241/1 244/267/1 245/162/1
f 31/87/1 72/268/1 73/88/1
f 32/4/1 33/6/1 31/87/1
f 180/147/1 181/269/1 182/71/1
f 119/123/4 38/270/4 39/124/4
f 230/181/1 231/271/1 232/182/1
f 47/31/1 187/30/1 196/233/1
f 191/193/1 190/272/1 24/106/1
f 270/177/1 272/179/1 224/273/1
f 199/62/1 200/274/1 202/63/1
f 222/164/1 242/26/1 243/241/1
f 133/22/1 131/17/1 132/243/1
f 248/173/1 269/275/1 79/78/1
