# Blender v2.93.10 OBJ File: 'untitled.blend'
# www.blender.org
mtllib map path finding.mtl
o result.002_Cube.025
v 15.550000 -2.000000 20.450001
v 15.550000 -2.000000 1.550000
v 34.450001 -2.000000 20.450001
v 14.550000 0.000000 10.299999
v 14.550000 0.000000 9.699999
v 18.500000 22.500000 0.550000
v 18.500000 22.500000 -2.000000
v 19.500000 22.500000 -2.000000
v 19.500000 22.500000 0.550000
v 31.700001 0.000000 0.550000
v 32.299999 0.000000 0.550000
v 34.450001 -2.000000 1.550000
v 4.500000 0.000000 -11.500000
v 4.500000 0.000000 -50.500000
v 11.500000 0.000000 -11.500000
v 11.500000 0.000000 -50.500000
v 4.500000 0.000000 -29.792892
v 2.792890 0.000000 -29.500000
v 4.500000 0.000000 -39.500000
v 8.299994 0.000000 -11.500000
v 4.500000 0.000000 -48.500000
v 11.500000 0.000000 -22.699991
v 11.500000 0.000000 -34.000000
v 11.500000 0.000000 -33.000000
v 4.500000 0.000000 -17.500000
v 4.500000 0.000000 -18.500000
v 7.000000 0.000000 -50.500000
v 9.000000 0.000000 -50.500000
v 11.500000 0.000000 -44.299873
v 6.099450 0.000000 -70.500000
v -1.500000 0.000000 -78.099457
v 0.725832 0.000000 -72.725830
v -1.500000 0.000000 -81.900543
v 6.099450 0.000000 -89.500000
v 0.725831 0.000000 -87.274170
v 17.500000 0.000000 -78.099457
v 9.900551 0.000000 -70.500000
v 15.274168 0.000000 -72.725830
v 9.900551 0.000000 -89.500000
v 17.500000 0.000000 -81.900543
v 15.274168 0.000000 -87.274170
v 7.000000 0.000000 -70.500000
v 9.000000 0.000000 -70.500000
v -19.000008 -30.000000 -21.499996
v -19.000008 -30.000000 -18.499996
v -22.000008 -30.000000 -21.499996
v -22.000008 -30.000000 -18.499996
v -18.000008 0.000000 -19.149939
v -18.000008 0.000000 -20.849981
v -17.449522 0.000000 -19.149939
v -17.449522 0.000000 -20.849981
v -17.500000 0.000000 -47.500000
v -17.500000 0.000000 -56.500000
v 1.500001 0.000000 -47.500000
v 1.500001 0.000000 -56.500000
v 4.500000 0.000000 -49.500000
v 1.500001 0.000000 -49.500000
v 1.500001 0.000000 -48.500000
v -16.500000 0.000000 -45.500000
v -13.500000 0.000000 -45.500000
v -16.500000 0.000000 -47.500000
v -13.500000 0.000000 -47.500000
v 1.499992 22.500000 -23.000000
v 1.499995 22.500000 -14.000000
v -16.500010 22.500000 -24.450485
v -15.590107 22.500000 -24.999992
v -16.500006 22.500000 -11.999993
v 1.499994 22.500000 -18.000000
v 1.499993 22.500000 -19.000000
v -16.500006 22.500000 -13.999993
v -16.118046 22.500000 -22.999992
v -16.500010 22.500000 -24.309011
v -17.500000 0.000000 -36.500000
v -17.500000 0.000000 -45.500000
v 1.500000 0.000000 -36.500000
v 1.190983 0.000000 -45.500000
v 1.500000 0.000000 -43.881966
v 1.500000 0.000000 -40.500000
v 4.067503 0.000000 -40.500000
v 4.500000 0.000000 -41.656071
v 1.500000 0.000000 -39.500000
v -4.500000 0.000000 -36.500000
v -2.190983 0.000000 -36.500000
v -3.500000 0.000000 -36.118034
v -4.500000 0.000000 -34.450165
v 1.499992 0.000000 -23.449846
v 1.499995 0.000000 -13.650173
v -17.449522 0.000000 -23.449846
v -17.449522 0.000000 -13.650173
v -17.449522 0.000000 -18.650192
v 1.499994 0.000000 -17.500000
v 1.499993 0.000000 -18.500000
v -12.500000 0.000000 -13.650173
v -8.500000 0.000000 -23.449846
v -7.500000 0.000000 -23.449846
v -7.000000 0.000000 -24.999996
v -7.500000 0.000000 -23.999996
v 23.500000 0.000000 -40.500000
v 1.499991 0.000000 -34.450165
v 1.499994 0.000000 -25.000000
v -17.500010 0.000000 -34.450165
v -17.500006 0.000000 -24.999992
v 1.499992 0.000000 -29.500000
v 4.500000 0.000000 -28.500000
v 3.207103 0.000000 -28.500000
v 1.499993 0.000000 -28.207108
v -8.500000 0.000000 -23.999996
v -9.000000 0.000000 -24.999996
v -3.500000 0.000000 -34.450165
v 25.500000 0.000000 -2.500000
v 25.500000 0.000000 -31.500000
v 33.920876 0.000000 -2.500000
v 34.500000 0.000000 -3.363368
v 34.500000 0.000000 -31.500000
v 24.768332 0.000000 -13.299999
v 25.500000 0.000000 -13.983368
v 12.135174 0.000000 -13.299999
v 11.500000 0.000000 -14.087184
v 25.500000 0.000000 -12.700051
v 11.500000 0.000000 -12.700051
v 11.500000 0.000000 -23.299994
v 25.500000 0.000000 -23.299994
v 25.500000 0.000000 -22.699991
v 31.700001 0.000000 -31.500000
v 32.299999 0.000000 -31.500000
v 31.700001 0.000000 -2.500000
v 32.299999 0.000000 -2.500000
v 32.299999 0.000000 -38.000000
v 32.612133 0.000000 -39.000000
v 90.500000 0.000000 -35.500000
v 41.500000 0.000000 -35.500000
v 90.500000 0.000000 -44.500000
v 41.500000 0.000000 -44.500000
v 30.400002 0.000000 -40.300003
v 41.500000 0.000000 -40.300003
v 41.500000 0.000000 -39.700001
v 81.500000 0.000000 -13.500000
v 81.500000 0.000000 -32.500000
v 90.500000 0.000000 -13.500000
v 90.500000 0.000000 -32.500000
v 79.000000 0.000000 -22.000000
v 79.000000 0.000000 -24.000000
v 85.500000 0.000000 -32.500000
v 86.500000 0.000000 -32.500000
v 41.500000 0.000000 -44.299873
v 11.932496 0.000000 -43.700127
v 11.500000 0.000000 -42.544056
v 41.500000 0.000000 -43.700127
v 85.500000 0.000000 -35.500000
v 86.500000 0.000000 -35.500000
v 31.700001 0.000000 -38.000000
v 31.393425 0.000000 -39.000000
v 81.500000 0.000000 -24.000000
v 81.500000 0.000000 -22.000000
v 33.412136 0.000000 -39.700001
v 30.400002 0.000000 -39.569321
v 30.983425 0.000000 -39.373039
v -2.500000 0.000000 28.500000
v -2.500000 0.000000 -0.500000
v 12.500000 0.000000 28.500000
v 12.500000 0.000000 -0.500000
v 12.500000 0.000000 11.012005
v 13.202242 0.000000 10.300000
v 12.500000 0.000000 9.700000
v 7.700000 0.000000 -0.500000
v 7.700000 0.000000 -10.712814
v 7.064825 0.000000 -11.500000
v 8.300000 0.000000 -0.500000
v 1.449757 0.000000 -12.449998
v 1.449757 0.000000 -3.549991
v -17.449625 0.000000 -12.449998
v -17.449625 0.000000 -3.549991
v -0.300000 0.000000 -0.500000
v 0.300000 0.000000 -0.787995
v 2.036140 0.000000 -0.500000
v -0.300000 0.000000 -3.549991
v 0.300000 0.000000 -3.549991
v -11.500000 0.000000 -13.650173
v -12.500000 0.000000 -12.449998
v -11.500000 0.000000 -12.449998
v 5.500004 22.500000 -55.000004
v 10.500004 22.500000 -50.500008
v 11.000004 22.500000 -55.000004
v 10.500004 22.500000 -54.500004
v -19.499994 22.500000 -55.000004
v 35.500008 22.500000 -55.000004
v -19.499994 22.500000 -74.500000
v 35.500008 22.500000 -74.500000
v 7.500006 22.500000 -8.500004
v 8.500006 22.500000 -8.500004
v 4.500000 22.500000 -8.500004
v 12.500006 22.500000 -8.500004
v 12.500006 22.500000 9.499996
v 4.500000 22.500000 9.499996
v 0.999993 22.500000 -47.500000
v 1.499993 22.500000 -47.000000
v 0.999993 22.500000 -46.000000
v 4.500000 22.500000 -46.000000
v 4.500000 22.500000 -47.000000
v 0.999993 22.500000 -54.000000
v 0.999993 22.500000 -37.000000
v -19.500008 22.500000 -54.000000
v -19.500008 22.500000 -37.000000
v 11.500000 22.500000 -46.500000
v 11.500000 22.500000 -47.500000
v 16.000000 22.500000 -46.000000
v 15.500000 22.500000 -46.500000
v 16.000000 22.500000 -47.500000
v 16.000000 22.500000 -40.500000
v 16.000000 22.500000 -53.500000
v 35.500000 22.500000 -40.500000
v 35.500000 22.500000 -53.500000
v 11.500000 22.500000 -32.500000
v 16.000000 22.500000 -31.000000
v 15.500000 22.500000 -31.500000
v 16.000000 22.500000 -32.500000
v 16.000000 22.500000 -38.500000
v 16.000000 22.500000 -25.500000
v 35.500000 22.500000 -38.500000
v 35.500000 22.500000 -25.500000
v 15.500000 22.500000 -2.500000
v 15.500000 22.500000 -21.500000
v 24.500000 22.500000 -2.500000
v 24.500000 22.500000 -21.500000
v 15.500000 22.500000 -17.500000
v 15.500000 22.500000 -16.500000
v 4.500000 22.500000 -11.500000
v 4.500000 22.500000 -50.500000
v 11.500000 22.500000 -11.500000
v 11.500000 22.500000 -50.500000
v 11.500000 22.500000 -16.500000
v 11.500000 22.500000 -17.500000
v 11.500000 22.500000 -31.500000
v 5.500004 22.500000 -50.500004
v 1.499991 22.500000 -32.000000
v 1.499991 22.500000 -33.000000
v 4.500000 22.500000 -18.000000
v 4.500000 22.500000 -19.000000
v 4.500000 22.500000 -32.000000
v 4.500000 22.500000 -33.000000
v 7.500006 22.500000 -11.500000
v 8.500006 22.500000 -11.500000
v 1.499993 22.500000 -12.000000
v -17.500004 22.500000 -3.052487
v -7.975067 22.500000 -2.999996
v 1.500000 22.500000 -4.952494
v 2.024937 22.500000 -4.000000
v 4.500000 22.500000 -2.500000
v 3.500000 22.500000 -3.000000
v 3.500000 22.500000 -4.000000
v 4.500000 22.500000 -4.500000
v 1.499991 22.500000 -34.000000
v 1.499994 22.500000 -25.000000
v -17.500008 22.500000 -29.450478
v -17.390108 22.500000 -33.999992
v 14.500000 0.000000 -31.500000
v 14.500000 0.000000 -40.500000
v 23.500000 0.000000 -31.500000
v 14.500000 0.000000 -33.000000
v 14.500000 0.000000 -34.000000
v -18.000008 22.500854 -19.149939
v -18.000008 22.500854 -20.849981
v -17.449522 22.500854 -19.149939
v -17.449522 22.500854 -20.849981
vt 0.034994 0.790699
vt 0.022048 0.790699
vt 0.021536 0.790699
vt 0.753141 0.010924
vt 0.871859 0.423858
vt 0.753141 0.423858
vt 0.550990 0.885868
vt 0.566667 0.918476
vt 0.550990 0.918475
vt 0.142670 0.790699
vt 0.129723 0.790699
vt 0.129210 0.790699
vt 0.950456 0.283386
vt 0.952582 0.253872
vt 0.952582 0.283386
vt 0.824548 0.015325
vt 0.753637 0.107272
vt 0.753637 0.015325
vt 0.898951 0.710051
vt 0.898951 0.755398
vt 0.898951 0.755814
vt 0.233284 0.363415
vt 0.145180 0.060914
vt 0.296488 0.061674
vt 0.333726 0.451684
vt 0.344561 0.233137
vt 0.337383 0.465695
vt 0.617211 0.828972
vt 0.599999 0.850561
vt 0.646079 0.861270
vt 0.139899 0.522809
vt 0.145087 0.452959
vt 0.146387 0.522641
vt 0.147230 0.218937
vt 0.166692 0.223527
vt 0.529437 0.777644
vt 0.153742 0.011628
vt 0.188157 0.056030
vt 0.122946 0.014160
vt 0.193909 0.127097
vt 0.305041 0.444541
vt 0.264494 0.372075
vt 0.225957 0.235769
vt 0.351792 0.475632
vt 0.178254 0.277232
vt 0.272315 0.129647
vt 0.275350 0.122455
vt 0.025922 0.441860
vt 0.039082 0.441860
vt 0.039481 0.441860
vt 0.950456 0.283386
vt 0.952582 0.253872
vt 0.952582 0.283386
vt 0.035378 0.790699
vt 0.871859 0.010924
vt 0.566667 0.885868
vt 0.143055 0.790699
vt 0.950456 0.253872
vt 0.824547 0.107272
vt 0.898951 0.709716
vt 0.225917 0.890244
vt 0.232118 0.875952
vt 0.241041 0.876294
vt 0.556307 0.432493
vt 0.549199 0.428233
vt 0.558930 0.428947
vt 0.557271 0.427703
vt 0.543871 0.430311
vt 0.582066 0.196713
vt 0.696742 0.112231
vt 0.556700 0.191726
vt 0.639387 0.276195
vt 0.191992 0.233255
vt 0.238552 0.953527
vt 0.239456 0.897651
vt 0.218990 0.665819
vt -0.061104 0.930029
vt 0.234988 0.624516
vt 0.199430 0.233103
vt 0.130165 0.891479
vt 0.015980 0.891375
vt 0.164555 0.668660
vt 0.523186 0.437881
vt 0.558910 0.446183
vt 0.486480 0.461842
vt 0.518004 0.437548
vt 0.490158 0.438774
vt 0.498159 0.462184
vt 0.501712 0.463491
vt 0.537576 0.461992
vt 0.541370 0.463415
vt 0.549780 0.463516
vt 0.545714 0.462133
vt 0.579572 0.464411
vt 0.564191 0.465861
vt 0.497319 0.462424
vt 0.493672 0.465104
vt 0.485551 0.462179
vt 0.481955 0.464985
vt 0.445699 0.464633
vt 0.482848 0.443184
vt 0.484937 0.441508
vt 0.287726 0.777723
vt 0.205618 0.870273
vt 0.136592 0.947186
vt 0.241080 0.500492
vt 0.242644 0.887262
vt 0.165793 0.889528
vt 0.004064 0.429301
vt 0.003263 0.475308
vt 0.000000 0.409092
vt -0.017181 0.022804
vt 0.242265 0.022632
vt 0.040441 0.622530
vt 0.355139 0.056724
vt 0.401577 0.365311
vt -0.006005 0.029105
vt 0.259618 0.022863
vt 0.041152 0.085653
vt 0.010458 0.023356
vt 0.264354 0.029156
vt 0.220905 0.085756
vt -0.004148 0.919202
vt 0.213405 0.871943
vt 0.549655 0.090434
vt 0.606395 0.128868
vt 0.482006 0.384769
vt 0.307289 0.244230
vt 0.238053 0.364063
vt 0.315033 0.122450
vt 0.204215 0.390633
vt 0.183272 0.416187
vt 0.028206 0.423199
vt 0.088067 0.472317
vt 0.236713 0.011279
vt 0.087853 0.121282
vt 0.009757 0.363004
vt 0.017296 0.242352
vt 0.345138 0.012283
vt 0.392730 0.517646
vt 0.870125 0.055634
vt 0.835931 0.751866
vt 0.861869 0.781531
vt 0.540898 0.670138
vt 0.307126 0.615688
vt 0.273300 0.683825
vt 0.245351 0.681644
vt 0.344561 0.499999
vt 0.396589 0.541370
vt 0.337383 0.499999
vt 0.241914 0.774856
vt 0.299147 0.764692
vt 0.343728 0.985644
vt 0.211434 0.987805
vt 0.211846 0.778374
vt 0.236688 0.775348
vt 0.239262 0.681998
vt 0.236366 0.517329
vt 0.146737 0.685379
vt 0.230725 0.518313
vt 0.286217 0.582529
vt 0.141321 0.778874
vt 0.132800 0.790699
vt 0.130108 0.790699
vt 0.140275 0.685524
vt 0.099613 0.688875
vt 0.720923 0.718958
vt 0.768313 0.760792
vt 0.257031 0.509346
vt 0.031162 0.779782
vt 0.025125 0.790699
vt 0.022433 0.790699
vt 0.140338 0.687564
vt 0.769986 0.654483
vt 0.716610 0.671347
vt 0.270686 0.035446
vt 0.262708 0.450225
vt 0.237464 0.448269
vt 0.273528 0.448116
vt 0.283620 0.035664
vt 0.189743 0.034884
vt 0.190736 0.034884
vt 0.231537 0.449093
vt 0.202289 0.452836
vt 0.203718 0.043783
vt 0.091783 0.526390
vt 0.088818 0.525864
vt 0.318718 0.544962
vt 0.886116 0.708712
vt 0.898951 0.746811
vt 0.898951 0.755063
vt 0.097336 0.515108
vt 0.036838 0.453867
vt 0.036291 0.441860
vt 0.038684 0.441860
vt 0.188209 0.452989
vt 0.125328 0.453393
vt 0.137202 0.453140
vt 0.215593 0.297801
vt 0.187419 0.099464
vt 0.018193 0.182943
vt 0.058945 0.882947
vt 0.229812 0.720175
vt 0.207992 0.930119
vt 0.166299 0.881722
vt 0.158368 0.855245
vt 0.338310 0.108334
vt 0.172750 0.929493
vt 0.341784 0.162151
vt 0.216471 0.868134
vt 0.408230 0.531630
vt 0.316350 0.273659
vt 0.010290 0.967232
vt -0.010535 0.218829
vt 0.172736 0.297212
vt 0.253343 0.999271
vt 0.261685 0.192707
vt 0.398566 0.618833
vt 0.212630 0.298455
vt 0.248128 0.235298
vt 0.289732 0.793004
vt 0.261963 0.427712
vt 0.107634 0.900038
vt -0.006281 0.911034
vt 0.007900 0.473815
vt 0.009473 0.427122
vt 0.035413 0.017408
vt 0.126390 0.000000
vt 0.105579 0.954948
vt 0.145251 0.256728
vt 0.173134 0.004710
vt 0.263324 -0.261655
vt 0.162124 0.419184
vt 0.121271 0.699429
vt 0.217947 1.270172
vt 0.010895 0.972801
vt 0.119918 0.753367
vt 0.041337 0.100942
vt 0.204677 0.125161
vt 0.367963 0.164089
vt 0.005891 0.385049
vt 0.347961 0.671571
vt 0.010641 0.672160
vt 0.003505 0.072370
vt 0.090585 0.087736
vt 0.054194 0.065340
vt 0.055305 0.014979
vt 0.228084 -0.335402
vt 0.231315 0.711881
vt 0.168299 0.686894
vt 0.179153 0.531363
vt 0.197337 1.255515
vt 0.248237 0.033616
vt 0.248968 0.718248
vt 0.212312 0.157744
vt 0.237852 0.713214
vt 0.181482 0.513935
vt 0.248839 0.020850
vt 0.204057 0.468372
vt 0.512478 0.573077
vt 0.694239 0.533017
vt 0.566359 0.522132
vt 0.343453 0.466280
vt 0.175786 0.294637
vt 0.288890 0.413007
vt 0.526447 0.804467
vt 0.526342 0.779441
vt 0.178794 0.013331
vt 0.025523 0.441860
vt 0.950456 0.253872
vn 0.0000 1.0000 0.0000
vn 0.0000 -1.0000 0.0000
g result.002_Cube.025_acid
usemtl acid
s off
f 209/1/1 212/2/1 210/3/1
f 3/4/1 2/5/1 1/6/1
f 9/7/1 7/8/1 6/9/1
f 218/10/1 219/11/1 217/12/1
f 50/13/1 49/14/1 48/15/1
f 44/16/1 47/17/1 45/18/1
f 186/19/1 187/20/1 185/21/1
f 42/22/1 34/23/1 33/24/1
f 246/25/1 245/26/1 247/27/1
f 5/28/1 163/29/1 4/30/1
f 240/31/1 235/32/1 239/33/1
f 168/34/1 165/35/1 164/36/1
f 254/37/1 66/38/1 255/39/1
f 20/40/1 15/41/1 120/42/1
f 20/43/1 120/42/1 118/44/1
f 119/45/1 126/46/1 127/47/1
f 165/35/2 163/29/2 164/36/2
f 200/48/1 203/49/1 201/50/1
f 263/51/1 262/52/1 261/53/1
f 209/1/1 211/54/1 212/2/1
f 3/4/1 12/55/1 2/5/1
f 9/7/1 8/56/1 7/8/1
f 218/10/1 220/57/1 219/11/1
f 50/13/1 51/58/1 49/14/1
f 44/16/1 46/59/1 47/17/1
f 186/19/1 188/60/1 187/20/1
f 152/61/1 151/62/1 128/63/1
f 152/61/1 128/63/1 129/64/1
f 134/65/1 156/66/1 157/67/1
f 157/67/1 152/61/1 129/64/1
f 157/67/1 129/64/1 155/68/1
f 21/69/1 80/70/1 29/71/1
f 80/70/1 146/72/1 29/71/1
f 62/73/1 54/74/1 58/75/1
f 84/76/1 76/77/1 82/78/1
f 76/77/1 60/79/1 82/78/1
f 103/80/1 99/81/1 109/82/1
f 134/65/1 157/67/1 155/68/1
f 136/83/1 131/84/1 149/85/1
f 134/65/1 155/68/1 135/86/1
f 155/68/1 136/83/1 135/86/1
f 135/86/1 136/83/1 149/85/1
f 148/87/1 135/86/1 149/85/1
f 143/88/1 138/89/1 153/90/1
f 153/90/1 142/91/1 141/92/1
f 154/93/1 137/94/1 139/95/1
f 153/90/1 141/92/1 154/93/1
f 143/88/1 153/90/1 144/96/1
f 153/90/1 154/93/1 140/97/1
f 144/96/1 153/90/1 140/97/1
f 154/93/1 139/95/1 140/97/1
f 150/98/1 130/99/1 132/100/1
f 143/88/1 144/96/1 150/98/1
f 149/85/1 143/88/1 150/98/1
f 150/98/1 132/100/1 149/85/1
f 132/100/1 133/101/1 149/85/1
f 133/101/1 145/102/1 149/85/1
f 148/87/1 149/85/1 145/102/1
f 105/103/1 17/104/1 18/105/1
f 96/106/1 100/107/1 106/108/1
f 106/108/1 105/103/1 18/105/1
f 106/108/1 18/105/1 103/80/1
f 107/109/1 97/110/1 96/106/1
f 96/106/1 106/108/1 103/80/1
f 96/106/1 103/80/1 109/82/1
f 108/111/1 107/109/1 96/106/1
f 101/112/1 102/113/1 108/111/1
f 85/114/1 101/112/1 108/111/1
f 108/111/1 96/106/1 85/114/1
f 96/106/1 109/82/1 85/114/1
f 29/71/1 16/115/1 28/116/1
f 148/87/1 145/102/1 146/72/1
f 145/102/1 29/71/1 146/72/1
f 109/82/1 84/76/1 85/114/1
f 82/78/1 85/114/1 84/76/1
f 74/117/1 73/118/1 59/119/1
f 73/118/1 82/78/1 60/79/1
f 59/119/1 73/118/1 60/79/1
f 53/120/1 52/121/1 61/122/1
f 61/122/1 59/119/1 60/79/1
f 61/122/1 60/79/1 62/73/1
f 55/123/1 53/120/1 62/73/1
f 53/120/1 61/122/1 62/73/1
f 57/124/1 55/123/1 62/73/1
f 62/73/1 58/75/1 57/124/1
f 27/125/1 14/126/1 56/127/1
f 56/127/1 57/124/1 58/75/1
f 56/127/1 58/75/1 21/69/1
f 27/125/1 56/127/1 21/69/1
f 27/125/1 21/69/1 28/116/1
f 21/69/1 29/71/1 28/116/1
f 32/128/1 30/129/1 31/130/1
f 30/129/1 42/22/1 31/130/1
f 42/22/1 27/125/1 28/116/1
f 43/131/1 37/132/1 36/133/1
f 37/132/1 38/134/1 36/133/1
f 42/22/1 28/116/1 43/131/1
f 35/135/1 33/24/1 34/23/1
f 33/24/1 31/130/1 42/22/1
f 34/23/1 42/22/1 39/136/1
f 40/137/1 41/138/1 39/136/1
f 36/133/1 40/137/1 43/131/1
f 43/131/1 40/137/1 39/136/1
f 42/22/1 43/131/1 39/136/1
f 246/25/1 244/139/1 245/26/1
f 5/28/1 164/36/1 163/29/1
f 248/140/1 194/141/1 193/142/1
f 193/142/1 192/143/1 248/140/1
f 192/143/1 190/144/1 248/140/1
f 242/145/1 229/146/1 231/147/1
f 249/148/1 248/140/1 251/149/1
f 248/140/1 190/144/1 251/149/1
f 247/27/1 245/26/1 249/148/1
f 250/150/1 247/27/1 249/148/1
f 226/151/1 221/152/1 223/153/1
f 223/153/1 224/154/1 226/151/1
f 224/154/1 222/155/1 225/156/1
f 224/154/1 225/156/1 226/151/1
f 226/151/1 225/156/1 232/157/1
f 231/147/1 226/151/1 232/157/1
f 231/147/1 232/157/1 237/158/1
f 232/157/1 233/159/1 238/160/1
f 231/147/1 237/158/1 241/161/1
f 242/145/1 231/147/1 241/161/1
f 237/158/1 232/157/1 238/160/1
f 215/162/1 214/163/1 216/164/1
f 233/159/1 215/162/1 213/165/1
f 215/162/1 216/164/1 213/165/1
f 233/159/1 213/165/1 239/33/1
f 213/165/1 204/166/1 240/31/1
f 251/149/1 250/150/1 249/148/1
f 189/167/1 191/168/1 251/149/1
f 237/158/1 227/169/1 241/161/1
f 189/167/1 251/149/1 190/144/1
f 189/167/1 190/144/1 242/145/1
f 241/161/1 189/167/1 242/145/1
f 238/160/1 233/159/1 239/33/1
f 207/170/1 206/171/1 208/172/1
f 204/166/1 207/170/1 205/173/1
f 207/170/1 208/172/1 205/173/1
f 205/173/1 230/174/1 182/175/1
f 70/176/1 64/177/1 68/178/1
f 246/25/1 243/179/1 67/180/1
f 244/139/1 246/25/1 67/180/1
f 65/181/1 254/37/1 72/182/1
f 254/37/1 244/139/1 70/176/1
f 72/182/1 254/37/1 70/176/1
f 244/139/1 67/180/1 70/176/1
f 69/183/1 63/184/1 71/185/1
f 71/185/1 72/182/1 70/176/1
f 71/185/1 70/176/1 68/178/1
f 69/183/1 71/185/1 68/178/1
f 204/166/1 205/173/1 199/186/1
f 204/166/1 199/186/1 198/187/1
f 205/173/1 182/175/1 234/188/1
f 69/183/1 68/178/1 237/158/1
f 238/160/1 69/183/1 237/158/1
f 239/33/1 213/165/1 240/31/1
f 182/175/1 184/189/1 234/188/1
f 184/189/1 183/190/1 181/191/1
f 234/188/1 228/192/1 199/186/1
f 184/189/1 181/191/1 234/188/1
f 240/31/1 204/166/1 198/187/1
f 234/188/1 199/186/1 205/173/1
f 196/193/1 195/194/1 197/195/1
f 199/186/1 196/193/1 198/187/1
f 196/193/1 197/195/1 198/187/1
f 66/38/1 253/196/1 235/32/1
f 252/197/1 255/39/1 236/198/1
f 255/39/1 66/38/1 235/32/1
f 236/198/1 255/39/1 235/32/1
f 240/31/1 236/198/1 235/32/1
f 168/34/1 20/199/1 166/200/1
f 164/36/1 161/201/1 168/34/1
f 168/34/1 166/200/1 165/35/1
f 254/37/1 65/181/1 66/38/1
f 77/202/1 76/77/1 84/76/1
f 83/203/1 75/204/1 81/205/1
f 77/202/1 84/76/1 83/203/1
f 78/206/1 77/202/1 83/203/1
f 78/206/1 83/203/1 81/205/1
f 146/207/1 80/208/1 147/209/1
f 80/208/1 79/210/1 19/211/1
f 147/209/1 80/208/1 19/211/1
f 79/210/1 78/206/1 81/205/1
f 79/210/1 81/205/1 19/211/1
f 23/212/1 147/209/1 19/211/1
f 98/213/1 257/214/1 260/215/1
f 23/212/1 19/211/1 17/104/1
f 258/216/1 98/213/1 260/215/1
f 23/212/1 17/104/1 24/217/1
f 17/104/1 105/103/1 104/218/1
f 17/104/1 104/218/1 24/217/1
f 258/216/1 260/215/1 259/219/1
f 260/215/1 23/212/1 259/219/1
f 259/219/1 256/220/1 258/216/1
f 104/218/1 26/221/1 121/222/1
f 24/217/1 104/218/1 121/222/1
f 92/223/1 86/224/1 95/225/1
f 95/225/1 97/110/1 107/109/1
f 94/226/1 88/227/1 51/228/1
f 95/225/1 107/109/1 94/226/1
f 92/223/1 95/225/1 91/229/1
f 95/225/1 94/226/1 178/230/1
f 91/229/1 95/225/1 178/230/1
f 94/226/1 51/228/1 90/231/1
f 90/231/1 89/232/1 93/233/1
f 179/234/1 171/235/1 172/236/1
f 94/226/1 90/231/1 178/230/1
f 90/231/1 93/233/1 178/230/1
f 179/234/1 172/236/1 180/237/1
f 172/236/1 176/238/1 180/237/1
f 93/233/1 179/234/1 178/230/1
f 173/239/1 159/240/1 162/241/1
f 159/240/1 158/242/1 162/241/1
f 158/242/1 160/243/1 162/241/1
f 162/241/1 163/29/1 165/35/1
f 162/241/1 165/35/1 175/244/1
f 173/239/1 162/241/1 175/244/1
f 173/239/1 175/244/1 174/245/1
f 176/238/1 173/239/1 174/245/1
f 177/246/1 170/247/1 169/248/1
f 176/238/1 174/245/1 177/246/1
f 24/217/1 259/219/1 23/212/1
f 124/249/1 111/250/1 122/251/1
f 176/238/1 177/246/1 169/248/1
f 180/237/1 176/238/1 169/248/1
f 178/230/1 87/252/1 91/229/1
f 179/234/1 180/237/1 178/230/1
f 128/63/1 151/62/1 124/249/1
f 113/253/1 114/254/1 116/255/1
f 114/254/1 125/256/1 122/251/1
f 123/257/1 114/254/1 122/251/1
f 125/256/1 128/63/1 124/249/1
f 125/256/1 124/249/1 122/251/1
f 112/258/1 113/253/1 116/255/1
f 114/254/1 123/257/1 116/255/1
f 22/259/1 123/257/1 122/251/1
f 25/260/1 13/261/1 167/262/1
f 92/223/1 91/229/1 25/260/1
f 26/221/1 92/223/1 25/260/1
f 25/260/1 167/262/1 20/43/1
f 167/262/1 166/200/1 20/43/1
f 121/222/1 26/221/1 22/259/1
f 26/221/1 25/260/1 118/44/1
f 22/259/1 26/221/1 118/44/1
f 22/259/1 122/251/1 121/222/1
f 118/44/1 25/260/1 20/43/1
f 120/42/1 119/45/1 117/263/1
f 120/42/1 117/263/1 118/44/1
f 127/47/1 112/258/1 119/45/1
f 112/258/1 116/255/1 119/45/1
f 115/264/1 117/265/1 119/45/1
f 10/266/1 11/267/1 127/47/1
f 119/45/1 110/268/1 126/46/1
f 126/46/1 10/266/1 127/47/1
f 116/255/1 115/264/1 119/45/1
f 200/48/1 202/269/1 203/49/1
f 263/51/1 264/270/1 262/52/1
