# Blender v2.93.10 OBJ File: ''
# www.blender.org
mtllib map path finding.mtl
o result.002_Cube.025
v -17.500006 22.500004 -13.999987
v -17.500008 22.500008 -22.999985
v 18.750000 22.500000 2.550008
v 19.250000 22.500000 2.550008
v 35.500000 22.500011 -40.499992
v 16.000000 22.500019 -53.499992
v 16.000000 22.500011 -40.499992
v -17.125008 22.500008 -22.999985
v -16.875008 22.500008 -22.999985
v 7.700000 0.000022 -70.500000
v 6.099450 0.000030 -89.500000
v -1.500000 0.000026 -81.900543
v -16.875006 22.500004 -11.999987
v -17.500004 22.500000 -3.052480
v 85.849998 0.000012 -35.000000
v 86.150002 0.000012 -35.000000
v 23.500000 0.000014 -40.500000
v 14.500000 0.000010 -31.500000
v 23.500000 0.000010 -31.500000
v 1.500000 22.500000 -2.999991
v -17.125008 22.500008 -24.999985
v -16.875006 22.500004 -13.999987
v -19.500008 22.500019 -53.999992
v -19.500008 22.500011 -36.999992
v 0.999993 22.500011 -36.999992
v 35.500000 22.500019 -53.499992
v 41.500000 0.000014 -40.150002
v 0.999993 22.500015 -46.349991
v 8.375004 22.500019 -54.999996
v -17.449625 0.000004 -12.449998
v -17.449625 0.000002 -3.549991
v 1.449757 0.000002 -3.549991
v 15.500000 22.500004 -16.849993
v 14.500000 22.500015 -47.149994
v 32.150002 -0.000000 1.550000
v 31.850000 -0.000000 1.550000
v 0.999993 22.500015 -46.649994
v 4.500000 0.000004 -11.500000
v 11.500000 0.000004 -11.500000
v 6.099450 0.000022 -70.500000
v -1.500000 0.000026 -78.099457
v 25.500000 0.000004 -13.150012
v 34.500000 0.000010 -31.500000
v 25.500000 0.000008 -22.909992
v 18.750000 22.500000 -2.499992
v 85.849998 0.000010 -32.500000
v 86.150002 0.000010 -32.500000
v 12.500006 22.500004 -8.499996
v 24.500000 22.500008 -21.499992
v 15.500000 22.500006 -17.149992
v 8.300000 0.000022 -70.500000
v 9.900551 0.000030 -89.500000
v -17.390108 22.500011 -33.999985
v -17.500008 22.500008 -24.999985
v 1.499995 0.000004 -13.650173
v 1.499992 0.000008 -23.449846
v 34.450001 -2.000000 1.550000
v 15.550000 -2.000000 1.550000
v 15.550000 -2.000006 20.450001
v 31.850000 0.000010 -31.500000
v 25.500000 0.000008 -23.089993
v 32.150002 0.000010 -31.500000
v 81.500000 0.000008 -22.799999
v 90.500000 0.000004 -13.500000
v 90.500000 0.000010 -32.500000
v 15.549999 -0.000004 9.849999
v 15.549999 -0.000004 10.150000
v 7.700000 0.000017 -53.500000
v 8.300000 0.000017 -53.500000
v 15.500000 22.500000 -2.499992
v 24.500000 22.500000 -2.499992
v 8.149996 0.000003 -8.500000
v 7.849999 0.000003 -8.500000
v 35.500000 22.500008 -25.499992
v 35.500000 22.500011 -38.499992
v 16.000000 22.500011 -38.499992
v 30.400002 0.000014 -40.150002
v 30.400002 0.000012 -39.849998
v 31.850000 0.000012 -39.849998
v 16.000000 22.500015 -46.849991
v -17.500006 22.500004 -11.999987
v 4.500000 22.500004 -8.499996
v 12.500000 -0.000004 10.150000
v -2.500000 0.000000 -0.500000
v -2.500000 -0.000010 28.500000
v 1.499995 22.500004 -13.999992
v 81.500000 0.000008 -23.200001
v 17.500000 0.000026 -81.900543
v 15.274168 0.000028 -87.274170
v 90.500000 0.000014 -44.500000
v 41.500000 0.000014 -44.500000
v 85.849998 0.000012 -35.500000
v 14.500000 0.000008 -22.909992
v 14.500000 22.500015 -46.849991
v 14.500000 0.000004 -13.150012
v 11.500000 22.500004 -11.499992
v -16.875008 22.500008 -24.999985
v 1.500001 0.000018 -56.500000
v -17.500000 0.000018 -56.500000
v -17.500000 0.000016 -47.500000
v 25.500000 0.000004 -12.850039
v 79.000000 0.000008 -22.799999
v 31.850000 0.000000 -2.500000
v 1.499991 0.000012 -34.450165
v -17.500010 0.000012 -34.450165
v -17.500006 0.000008 -24.999992
v 15.500000 22.500008 -21.499992
v 12.500000 -0.000004 9.850000
v 8.150000 0.000000 -0.500000
v 7.849999 0.000000 -0.500000
v 32.150002 0.000012 -39.849998
v 14.500000 22.500011 -31.849993
v 41.500000 0.000012 -39.849998
v 41.500000 0.000012 -35.500000
v -17.449522 0.000004 -13.650173
v 35.500008 22.500023 -74.500000
v -19.499994 22.500023 -74.500000
v -19.499994 22.500019 -54.999996
v 7.625004 22.500017 -53.499996
v 8.375004 22.500017 -53.499996
v 0.999993 22.500019 -53.999992
v 16.000000 22.500011 -31.849993
v 14.500000 22.500004 -16.849993
v 14.500000 22.500004 -17.149992
v -17.449522 0.000008 -23.449846
v 9.900551 0.000022 -70.500000
v 15.274168 0.000024 -72.725830
v 17.500000 0.000026 -78.099457
v 11.500000 0.000016 -50.500000
v 0.725831 0.000028 -87.274170
v 25.500000 0.000010 -31.500000
v 32.150002 0.000000 -2.500000
v -17.125006 22.500004 -13.999987
v -17.125006 22.500004 -11.999987
v 14.500000 0.000004 -12.850039
v 4.500000 22.500015 -50.499992
v 1.499992 22.500008 -22.999992
v 14.500000 22.500011 -32.149994
v 12.500000 -0.000010 28.500000
v 12.500006 22.499996 9.500004
v 86.150002 0.000012 -35.500000
v 34.450001 -2.000006 20.450001
v 14.500000 0.000014 -40.500000
v 25.500000 0.000000 -2.500000
v 81.500000 0.000004 -13.500000
v 1.500000 0.000012 -36.500000
v -17.500000 0.000014 -45.500000
v -17.500000 0.000012 -36.500000
v 34.500000 0.000000 -2.500000
v 4.500000 22.499996 9.500004
v 1.499994 22.500008 -24.999992
v 1.449757 0.000004 -12.449998
v 4.500000 22.500004 -11.499992
v 1.499994 0.000008 -25.000000
v 12.500000 0.000000 -0.500000
v 35.500008 22.500019 -54.999996
v 1.500000 0.000014 -45.500000
v 1.499993 22.500004 -11.999992
v 14.500000 0.000008 -23.089993
v 11.500000 22.500015 -50.499992
v 16.000000 22.500008 -25.499992
v 0.725832 0.000024 -72.725830
v 16.000000 22.500011 -32.149994
v 81.500000 0.000010 -32.500000
v 90.500000 0.000012 -35.500000
v 19.250000 22.500000 -2.499992
v 16.000000 22.500015 -47.149994
v 79.000000 0.000008 -23.200001
v 1.499991 22.500011 -33.999992
v 1.500001 0.000016 -47.500000
v 7.625004 22.500019 -54.999996
v 4.500000 0.000016 -50.500000
v 41.500000 0.000014 -43.750000
v 41.500000 0.000014 -44.250000
v 14.500000 0.000015 -43.750000
v 14.500000 0.000015 -44.250000
v 85.849998 0.000011 -34.000000
v 86.150002 0.000011 -34.000000
vt 0.097336 0.515108
vt 0.273300 0.683825
vt 0.769986 0.654483
vt 0.898951 0.710051
vt 0.898951 0.755398
vt 0.898951 0.755814
vt 0.132398 0.214800
vt 0.198871 0.180081
vt 0.155404 0.213072
vt 0.355139 0.056724
vt 0.694239 0.533017
vt 0.305041 0.444541
vt 0.566667 0.885868
vt 0.550990 0.918475
vt 0.550990 0.885868
vt 0.228084 -0.335402
vt 0.010895 0.972801
vt 0.055305 0.014979
vt 0.238552 0.953527
vt 0.010458 0.023356
vt 0.264354 0.029156
vt 0.023330 0.790699
vt 0.091057 0.700238
vt 0.025125 0.790699
vt 0.233832 0.775696
vt 0.244921 0.693295
vt 0.243909 0.774502
vt -0.010535 0.218829
vt 0.253343 0.999271
vt 0.010290 0.967232
vt 0.242265 0.022632
vt 0.015980 0.891375
vt -0.017181 0.022804
vt 0.142670 0.790699
vt 0.129723 0.790699
vt 0.129210 0.790699
vt 0.898951 0.752313
vt 0.736870 0.679732
vt 0.898951 0.749562
vt 0.025922 0.441860
vt 0.039082 0.441860
vt 0.039481 0.441860
vt 0.261928 0.011998
vt 0.345138 0.012283
vt 0.283620 0.035664
vt 0.022048 0.790699
vt 0.034994 0.790699
vt 0.035378 0.790699
vt 0.197337 1.255515
vt 0.035413 0.017408
vt 0.263324 -0.261655
vt -0.061104 0.930029
vt 0.259618 0.022863
vt 0.207992 0.930119
vt 0.753141 0.010924
vt 0.871859 0.423858
vt 0.753141 0.423858
vt 0.132800 0.790699
vt 0.139145 0.697210
vt 0.145188 0.697082
vt 0.197672 0.398616
vt 0.087853 0.121282
vt 0.234774 0.363617
vt 0.535648 0.462072
vt 0.541370 0.463415
vt 0.547534 0.462255
vt 0.178281 0.264484
vt 0.270105 0.126900
vt 0.273104 0.113848
vt 0.870125 0.055634
vt 0.861869 0.781531
vt 0.768313 0.760792
vt 0.257031 0.509346
vt 0.898951 0.709716
vt 0.005891 0.385049
vt 0.646079 0.861270
vt 0.617211 0.828972
vt 0.504739 0.748914
vt 0.018193 0.182943
vt 0.347961 0.671571
vt 0.010641 0.672160
vt 0.367963 0.164089
vt 0.187419 0.099464
vt 0.606395 0.128868
vt 0.566667 0.918476
vt 0.217947 1.270172
vt -0.004148 0.919202
vt 0.127238 0.699023
vt 0.343728 0.985644
vt 0.211434 0.987805
vt 0.211846 0.778374
vt 0.238940 0.693667
vt 0.299147 0.764692
vt 0.248128 0.235298
vt 0.242644 0.887262
vt 0.143055 0.790699
vt 0.383188 0.568307
vt 0.025523 0.441860
vt 0.270686 0.035446
vt 0.262708 0.450225
vt 0.202289 0.452836
vt 0.199059 0.040817
vt 0.344561 0.437450
vt 0.273528 0.448116
vt 0.255891 0.011978
vt 0.194401 0.037851
vt 0.188209 0.452989
vt 0.125328 0.453393
vt 0.122946 0.014160
vt 0.153742 0.011628
vt 0.159418 0.011648
vt 0.165095 0.011667
vt 0.170771 0.011686
vt 0.249855 0.011957
vt 0.267964 0.012019
vt 0.021536 0.790699
vt -0.006281 0.911034
vt -0.006005 0.029105
vt 0.871859 0.010924
vt 0.130108 0.790699
vt 0.236713 0.011279
vt 0.296488 0.061674
vt 0.145180 0.060914
vt 0.315033 0.122450
vt 0.307289 0.244230
vt 0.238053 0.364063
vt 0.541746 0.097259
vt 0.396643 0.365944
vt 0.017296 0.242352
vt 0.009757 0.363004
vt 0.028206 0.423199
vt 0.183272 0.416187
vt 0.088067 0.472317
vt 0.564191 0.465861
vt 0.493672 0.465104
vt 0.496900 0.462732
vt 0.491435 0.462301
vt 0.492319 0.462013
vt 0.498568 0.462334
vt 0.501712 0.463491
vt 0.579572 0.464411
vt 0.549780 0.463516
vt 0.487296 0.461665
vt 0.488426 0.461899
vt 0.487512 0.462220
vt 0.485137 0.462502
vt 0.481955 0.464985
vt 0.445699 0.464633
vt 0.527292 0.438835
vt 0.558910 0.446183
vt 0.514082 0.437720
vt 0.503671 0.439541
vt 0.482848 0.443184
vt 0.493259 0.441363
vt 0.493259 0.441363
vt 0.503671 0.439541
vt 0.549199 0.428233
vt 0.551380 0.431629
vt 0.558930 0.428947
vt 0.557843 0.428132
vt 0.226353 0.709914
vt 0.168299 0.686894
vt 0.178508 0.540610
vt 0.259005 0.431414
vt 0.203251 0.469999
vt 0.183146 0.494716
vt 0.240217 0.714285
vt 0.248968 0.718248
vt 0.212312 0.157744
vt 0.343453 0.466280
vt 0.261414 0.368687
vt 0.248839 0.020850
vt 0.526447 0.804467
vt 0.526342 0.779441
vt 0.178794 0.013331
vt 0.835931 0.751866
vn 0.0000 1.0000 0.0000
g result.002_Cube.025_result.002_Cube.025_acid
usemtl acid
s 1
f 136/1/1 96/2/1 160/3/1
f 156/4/1 117/5/1 118/6/1
f 109/7/1 72/8/1 110/9/1
f 129/10/1 38/11/1 39/12/1
f 166/13/1 3/14/1 4/15/1
f 152/16/1 31/17/1 32/18/1
f 170/19/1 99/20/1 100/21/1
f 167/22/1 94/23/1 80/24/1
f 50/25/1 123/26/1 33/27/1
f 143/28/1 19/29/1 17/30/1
f 106/31/1 104/32/1 105/33/1
f 161/34/1 75/35/1 76/36/1
f 171/37/1 120/38/1 29/39/1
f 121/40/1 24/41/1 25/42/1
f 134/43/1 14/44/1 13/45/1
f 26/46/1 7/47/1 5/48/1
f 55/49/1 125/50/1 115/51/1
f 157/52/1 148/53/1 146/54/1
f 142/55/1 58/56/1 59/57/1
f 122/58/1 138/59/1 112/60/1
f 51/61/1 52/62/1 10/63/1
f 87/64/1 168/65/1 63/66/1
f 101/67/1 103/68/1 132/69/1
f 150/70/1 48/71/1 82/72/1
f 136/1/1 153/73/1 96/2/1
f 156/4/1 116/74/1 117/5/1
f 83/75/1 67/76/1 66/77/1
f 108/78/1 155/79/1 109/7/1
f 83/75/1 66/77/1 108/78/1
f 85/80/1 139/81/1 83/75/1
f 110/9/1 84/82/1 108/78/1
f 84/82/1 85/80/1 83/75/1
f 72/8/1 73/83/1 110/9/1
f 83/75/1 108/78/1 84/82/1
f 108/78/1 109/7/1 110/9/1
f 129/10/1 172/84/1 38/11/1
f 166/13/1 45/85/1 3/14/1
f 152/16/1 30/86/1 31/17/1
f 170/19/1 98/87/1 99/20/1
f 167/22/1 34/88/1 94/23/1
f 71/89/1 49/90/1 33/27/1
f 49/90/1 107/91/1 50/25/1
f 50/25/1 124/92/1 123/26/1
f 49/90/1 50/25/1 33/27/1
f 33/27/1 70/93/1 71/89/1
f 143/28/1 18/94/1 19/29/1
f 106/31/1 154/95/1 104/32/1
f 161/34/1 74/96/1 75/35/1
f 171/37/1 119/97/1 120/38/1
f 121/40/1 23/98/1 24/41/1
f 22/99/1 86/100/1 137/101/1
f 22/99/1 137/101/1 9/102/1
f 20/103/1 158/104/1 13/45/1
f 13/45/1 22/99/1 133/105/1
f 22/99/1 9/102/1 133/105/1
f 97/106/1 151/107/1 169/108/1
f 97/106/1 169/108/1 53/109/1
f 53/109/1 54/110/1 21/111/1
f 8/112/1 2/113/1 1/114/1
f 97/106/1 53/109/1 21/111/1
f 8/112/1 1/114/1 133/105/1
f 97/106/1 21/111/1 8/112/1
f 9/102/1 97/106/1 8/112/1
f 9/102/1 8/112/1 133/105/1
f 14/44/1 20/103/1 13/45/1
f 134/43/1 81/115/1 14/44/1
f 13/45/1 133/105/1 134/43/1
f 26/46/1 6/116/1 7/47/1
f 55/49/1 56/117/1 125/50/1
f 157/52/1 147/118/1 148/53/1
f 142/55/1 57/119/1 58/56/1
f 122/58/1 163/120/1 138/59/1
f 130/121/1 12/122/1 11/123/1
f 12/122/1 41/124/1 10/63/1
f 11/123/1 12/122/1 10/63/1
f 41/124/1 162/125/1 40/126/1
f 10/63/1 68/127/1 69/128/1
f 41/124/1 40/126/1 10/63/1
f 89/129/1 52/62/1 88/130/1
f 52/62/1 11/123/1 10/63/1
f 52/62/1 51/61/1 88/130/1
f 128/131/1 88/130/1 51/61/1
f 126/132/1 127/133/1 128/131/1
f 10/63/1 69/128/1 51/61/1
f 51/61/1 126/132/1 128/131/1
f 64/134/1 65/135/1 63/66/1
f 65/135/1 47/136/1 87/64/1
f 63/66/1 65/135/1 87/64/1
f 47/136/1 178/137/1 177/138/1
f 46/139/1 164/140/1 87/64/1
f 47/136/1 177/138/1 46/139/1
f 145/141/1 64/134/1 63/66/1
f 168/65/1 102/142/1 63/66/1
f 47/136/1 46/139/1 87/64/1
f 92/143/1 15/144/1 16/145/1
f 141/146/1 165/147/1 90/148/1
f 92/143/1 16/145/1 141/146/1
f 113/149/1 114/150/1 92/143/1
f 113/149/1 92/143/1 27/151/1
f 92/143/1 141/146/1 90/148/1
f 27/151/1 92/143/1 173/152/1
f 90/148/1 91/153/1 92/143/1
f 174/154/1 176/155/1 175/156/1
f 91/153/1 174/154/1 92/143/1
f 174/154/1 175/156/1 173/152/1
f 27/151/1 77/157/1 111/158/1
f 77/157/1 78/159/1 79/160/1
f 174/154/1 173/152/1 92/143/1
f 77/157/1 79/160/1 111/158/1
f 60/161/1 131/162/1 61/163/1
f 61/163/1 159/164/1 93/165/1
f 61/163/1 93/165/1 44/166/1
f 60/161/1 61/163/1 62/167/1
f 61/163/1 44/166/1 43/168/1
f 62/167/1 61/163/1 43/168/1
f 42/169/1 95/170/1 135/171/1
f 44/166/1 42/169/1 43/168/1
f 111/158/1 113/149/1 27/151/1
f 149/172/1 43/168/1 42/169/1
f 132/69/1 149/172/1 101/67/1
f 62/167/1 111/158/1 79/160/1
f 62/167/1 79/160/1 60/161/1
f 36/173/1 35/174/1 132/69/1
f 149/172/1 42/169/1 101/67/1
f 42/169/1 135/171/1 101/67/1
f 103/68/1 36/173/1 132/69/1
f 101/67/1 144/175/1 103/68/1
f 150/70/1 140/176/1 48/71/1
l 37 28
