# Blender v2.93.10 OBJ File: ''
# www.blender.org
mtllib power manager.mtl
o result.005_Cube.004
v 12.000000 0.000000 -34.500000
v 12.000000 0.000000 -32.500000
v 12.000000 3.000000 -34.500000
v 12.000000 3.000000 -32.500000
v 14.250000 4.000000 -31.000000
v 14.000000 4.000000 -31.250000
v 14.000000 4.000000 -40.750000
v 14.250000 4.000000 -41.000000
v 24.000000 4.000000 -31.250000
v 23.750000 4.000000 -31.000000
v 24.000000 0.000000 -40.750000
v 23.750000 0.000000 -41.000000
v 23.750000 4.000000 -41.000000
v 24.000000 4.000000 -40.750000
v 14.000000 0.000000 -31.250000
v 14.250000 0.000000 -31.000000
v 14.250000 0.000000 -41.000000
v 14.000000 0.000000 -40.750000
v 23.750000 0.000000 -31.000000
v 24.000000 0.000000 -31.250000
v 14.000000 3.100000 -32.400002
v 13.900000 3.000000 -32.500000
v 14.000000 3.100000 -34.599998
v 13.900000 3.000000 -34.500000
v 13.900000 0.000000 -32.500000
v 14.000000 0.000000 -32.400002
v 14.000000 0.000000 -34.599998
v 13.900000 0.000000 -34.500000
vt 0.615385 0.812499
vt 0.512820 0.020833
vt 0.615385 0.020833
vt 0.923077 0.324999
vt 1.000000 0.166666
vt 1.000000 0.324999
vt 0.820513 0.812503
vt 0.717949 0.020833
vt 0.820513 0.020833
vt 0.615385 0.020833
vt 0.717949 0.812501
vt 0.615385 0.812501
vt 0.923077 0.008333
vt 1.000000 0.166666
vt 0.923077 0.166666
vt 0.512820 0.812499
vt 0.923077 0.166666
vt 0.615385 0.833334
vt 0.717949 0.833334
vt 0.820513 0.020833
vt 0.923077 0.000000
vt 0.923077 0.020833
vt 0.820513 0.833332
vt 0.923077 0.812499
vt 0.923077 0.833332
vt 0.615385 0.000000
vt 0.923077 0.491667
vt 0.974358 0.333334
vt 0.974358 0.491667
vt 0.717949 0.812503
vt 0.717949 0.020833
vt 0.923077 0.500000
vt 1.000000 0.000000
vt 1.000000 0.008333
vt 1.000000 0.333332
vt 0.843590 0.300001
vt 0.820513 0.812499
vt 0.820513 0.000000
vt 0.512820 0.000000
vt 0.923077 0.333334
vt 0.974358 0.500000
vt 0.923077 0.000000
vt 0.923077 0.333332
vt 0.923077 0.300001
vt 0.843590 0.116667
vt 0.923077 0.116667
vt 0.172685 0.177181
vt 0.217948 0.158333
vt 0.220512 0.166666
vt 0.006410 1.000000
vt 0.000000 0.979167
vt 0.000000 0.187499
vt 0.006410 0.166666
vt 0.175249 0.168847
vt 0.338310 0.210293
vt 0.217948 0.000000
vt 0.250000 1.000000
vt 0.256410 0.187499
vt 0.256410 0.979167
vt 0.250000 0.166666
vt 0.262820 0.000000
vt 0.512820 0.020833
vt 0.506410 0.833334
vt 0.262820 0.833334
vt 0.256410 0.812501
vt 0.512820 0.812501
vt 0.256410 0.020833
vt 0.506410 0.000000
vn 0.0000 0.0000 -1.0000
vn 0.0000 0.0000 1.0000
vn -1.0000 0.0000 0.0000
vn -0.7071 0.0000 0.7071
vn 0.7071 0.0000 -0.7071
vn 0.7071 0.0000 0.7071
vn -0.7071 0.0000 -0.7071
vn 0.0000 -1.0000 0.0000
vn 0.7071 -0.7071 0.0000
vn 1.0000 0.0000 0.0000
vn 0.0000 1.0000 0.0000
g result.005_Cube.004_metalDark.001
usemtl metalDark.001
s off
f 16/1/1 10/2/1 19/3/1
f 24/4/2 1/5/2 28/6/2
f 20/7/3 14/8/3 11/9/3
f 8/10/2 12/11/2 13/12/2
f 22/13/1 2/14/1 4/15/1
f 16/1/1 5/16/1 10/2/1
f 24/4/2 3/17/2 1/5/2
f 14/18/4 12/11/4 11/19/4
f 6/20/5 16/21/5 15/22/5
f 8/23/6 18/24/6 17/25/6
f 10/2/7 20/26/7 19/3/7
f 22/27/8 3/28/8 24/29/8
f 20/7/3 9/30/3 14/8/3
f 8/10/2 17/31/2 12/11/2
f 24/29/9 21/32/9 22/27/9
f 22/13/5 26/33/5 25/34/5
f 27/35/6 24/4/6 28/6/6
f 23/36/10 7/37/10 6/20/10
f 22/13/1 25/34/1 2/14/1
f 14/18/4 13/12/4 12/11/4
f 6/20/5 5/38/5 16/21/5
f 8/23/6 7/37/6 18/24/6
f 10/2/7 9/39/7 20/26/7
f 22/27/8 4/40/8 3/28/8
f 24/29/9 23/41/9 21/32/9
f 22/13/5 21/42/5 26/33/5
f 27/35/6 23/43/6 24/4/6
f 23/36/10 27/44/10 18/24/10
f 6/20/10 15/22/10 21/45/10
f 15/22/10 26/46/10 21/45/10
f 23/36/10 18/24/10 7/37/10
f 6/20/10 21/45/10 23/36/10
g result.005_Cube.004_wood
usemtl wood
f 27/47/11 25/48/11 26/49/11
f 11/50/11 12/51/11 27/47/11
f 12/51/11 17/52/11 27/47/11
f 17/52/11 18/53/11 27/47/11
f 28/54/11 1/55/11 2/56/11
f 27/47/11 28/54/11 25/48/11
f 28/54/11 2/56/11 25/48/11
f 20/57/11 11/50/11 27/47/11
f 16/58/11 19/59/11 26/49/11
f 19/59/11 20/57/11 27/47/11
f 26/49/11 19/59/11 27/47/11
f 26/49/11 15/60/11 16/58/11
f 6/61/8 8/62/8 14/63/8
f 14/63/8 9/64/8 10/65/8
f 8/62/8 13/66/8 14/63/8
f 10/65/8 5/67/8 6/61/8
f 6/61/8 7/68/8 8/62/8
f 14/63/8 10/65/8 6/61/8
