# Blender v2.93.10 OBJ File: 'untitled.blend'
# www.blender.org
mtllib room 9.mtl
o wall.293_wall.015
v 0.850000 22.500000 -54.450001
v 0.849999 26.500000 -54.450001
v -0.050000 22.500000 -54.450001
v 0.950000 22.500000 -54.350002
v 0.950001 22.500000 -53.500000
v 0.950000 26.500000 -53.500000
v 0.949999 26.500000 -54.350002
v 1.050001 22.500000 -53.500000
v 1.050000 22.500000 -54.350002
v 1.049999 26.500000 -54.350002
v 1.050001 26.500000 -53.500000
v -0.000001 22.500000 -54.549999
v 0.849999 26.500000 -54.550003
v 0.849999 22.500000 -54.550003
v -0.000000 22.500000 -54.450001
v -0.000000 26.500000 -54.450001
v -0.000000 26.500000 -54.549999
vt -39.370079 1.968504
vt -39.370079 0.000000
vt 0.000000 0.000000
vt -17.716539 50.768970
vt 0.000000 0.000000
vt 0.000000 50.768970
vt -21.653540 50.768970
vt -3.937008 -0.000000
vt -3.937008 50.768970
vt -16.703310 -0.000000
vt -13.919430 50.768970
vt -16.703310 50.768970
vt -17.716539 0.000000
vt -21.653540 0.000000
vt -13.919430 0.000000
vt 19.685040 21.653540
vt 19.685040 3.937008
vt 21.653540 21.653540
vt 19.685040 21.653540
vt 19.685040 3.937008
vt 21.653540 21.653540
vt -17.716539 50.768970
vt -17.716539 50.768970
vt -17.716539 50.768970
vt 0.000000 50.768970
vt -21.653540 21.653540
vt -21.653540 21.653540
vt -19.685040 3.937008
vt -21.653540 21.653540
vt -21.653540 21.653540
vt -19.685040 3.937008
vt 0.000000 50.768970
vt -19.685040 3.937008
vt -19.685040 3.937008
vt 19.685040 3.937008
vt 17.716539 1.968504
vt 17.716539 0.000000
vt -21.653540 3.937008
vt -17.716539 0.000000
vt -19.685040 3.937008
vt 21.653540 3.937008
vt 21.653540 21.653540
vt 0.000000 1.968504
vt 0.000000 0.000000
vt -19.685040 21.653540
vt -21.653540 21.653540
vt 0.000000 0.000000
vt 0.000000 1.968504
vt -17.716539 1.968504
vn 1.0000 -0.0000 -0.0000
vn -1.0000 -0.0000 0.0000
vn 0.0000 0.0000 1.0000
vn -0.7071 -0.0000 0.7071
vn -0.8992 0.0108 -0.4373
vn -0.8944 0.0112 -0.4472
vn -0.9999 -0.0048 -0.0123
vn -0.9999 0.0005 -0.0123
vn -0.8992 0.0155 -0.4373
vn 0.7071 0.0000 -0.7071
vn -0.0000 -0.0000 -1.0000
vn 0.0000 1.0000 0.0000
vn 0.0000 -1.0000 0.0000
g wall.293_wall.015__defaultMat.023
usemtl _defaultMat.023
s 1
f 16/1/1 15/2/1 12/3/1
g wall.293_wall.015_metalDark.030
usemtl metalDark.030
f 7/4/2 5/5/2 6/6/2
f 16/7/3 1/8/3 2/9/3
f 1/10/4 7/11/4 2/12/4
f 7/4/2 4/13/2 5/5/2
f 16/7/3 3/14/3 1/8/3
f 1/10/4 4/15/4 7/11/4
g wall.293_wall.015__defaultMat.021
usemtl _defaultMat.021
f 12/16/5 3/17/6 16/18/7
f 16/19/8 17/20/2 12/21/9
f 5/22/3 11/23/3 6/6/3
f 9/24/1 11/23/1 8/25/1
f 9/26/10 13/27/10 10/28/10
f 17/29/11 14/30/11 12/31/11
f 5/22/3 8/25/3 11/23/3
f 9/24/1 10/32/1 11/23/1
f 9/26/10 14/33/10 13/27/10
f 17/29/11 13/34/11 14/30/11
g wall.293_wall.015_wood.083
usemtl wood.083
f 2/35/12 7/36/12 10/37/12
f 14/38/13 9/39/13 1/40/13
f 13/41/12 17/42/12 16/19/12
f 13/41/12 16/19/12 2/35/12
f 6/43/12 11/44/12 7/36/12
f 11/44/12 10/37/12 7/36/12
f 13/41/12 2/35/12 10/37/12
f 3/45/13 12/46/13 1/40/13
f 12/46/13 14/38/13 1/40/13
f 9/39/13 8/47/13 5/48/13
f 9/39/13 5/48/13 4/49/13
f 9/39/13 4/49/13 1/40/13
o wall.294_wall.015
v 0.950001 22.500000 -36.650002
v 0.950001 26.500000 -36.650002
v 0.950000 22.500000 -37.549999
v 0.850001 22.500000 -36.549999
v 0.000002 22.500000 -36.549999
v 0.000002 26.500000 -36.549999
v 0.850001 26.500000 -36.549999
v 0.000002 22.500000 -36.449997
v 0.850002 22.500000 -36.450001
v 0.850002 26.500000 -36.450001
v 0.000002 26.500000 -36.450001
v 1.050000 22.500000 -37.500000
v 1.050002 26.500000 -36.650002
v 1.050002 22.500000 -36.650002
v 0.950000 22.500000 -37.500000
v 0.950000 26.500000 -37.500000
v 1.050000 26.500000 -37.500000
vt -39.370079 1.968504
vt -39.370079 0.000000
vt 0.000000 0.000000
vt -17.716539 50.768970
vt 0.000000 0.000000
vt 0.000000 50.768970
vt -21.653540 50.768970
vt -3.937008 -0.000000
vt -3.937008 50.768970
vt -16.703310 -0.000000
vt -13.919430 50.768970
vt -16.703310 50.768970
vt -17.716539 0.000000
vt -21.653540 0.000000
vt -13.919430 0.000000
vt 19.685040 21.653540
vt 19.685040 3.937008
vt 21.653540 21.653540
vt 19.685040 21.653540
vt 19.685040 3.937008
vt 21.653540 21.653540
vt -17.716539 50.768970
vt -17.716539 50.768970
vt -17.716539 50.768970
vt 0.000000 50.768970
vt -21.653540 21.653540
vt -21.653540 21.653540
vt -19.685040 3.937008
vt -21.653540 21.653540
vt -21.653540 21.653540
vt -19.685040 3.937008
vt 0.000000 50.768970
vt -19.685040 3.937008
vt -19.685040 3.937008
vt 19.685040 3.937008
vt 17.716539 1.968504
vt 17.716539 0.000000
vt -21.653540 3.937008
vt -17.716539 0.000000
vt -19.685040 3.937008
vt 21.653540 3.937008
vt 21.653540 21.653540
vt 0.000000 1.968504
vt 0.000000 0.000000
vt -19.685040 21.653540
vt -21.653540 21.653540
vt 0.000000 0.000000
vt 0.000000 1.968504
vt -17.716539 1.968504
vn 0.0000 0.0000 1.0000
vn 0.0000 0.0000 -1.0000
vn -1.0000 0.0000 0.0000
vn -0.7071 0.0000 -0.7071
vn 0.4373 0.0108 -0.8992
vn 0.4472 0.0112 -0.8944
vn 0.0124 -0.0048 -0.9999
vn 0.0123 0.0005 -0.9999
vn 0.4373 0.0155 -0.8992
vn 0.7071 0.0000 0.7071
vn 1.0000 0.0000 -0.0000
vn 0.0000 1.0000 -0.0000
vn 0.0000 -1.0000 -0.0000
g wall.294_wall.015__defaultMat.023
usemtl _defaultMat.023
s 1
f 33/50/14 32/51/14 29/52/14
g wall.294_wall.015_metalDark.030
usemtl metalDark.030
f 24/53/15 22/54/15 23/55/15
f 33/56/16 18/57/16 19/58/16
f 18/59/17 24/60/17 19/61/17
f 24/53/15 21/62/15 22/54/15
f 33/56/16 20/63/16 18/57/16
f 18/59/17 21/64/17 24/60/17
g wall.294_wall.015__defaultMat.021
usemtl _defaultMat.021
f 29/65/18 20/66/19 33/67/20
f 33/68/21 34/69/15 29/70/22
f 22/71/16 28/72/16 23/55/16
f 26/73/14 28/72/14 25/74/14
f 26/75/23 30/76/23 27/77/23
f 34/78/24 31/79/24 29/80/24
f 22/71/16 25/74/16 28/72/16
f 26/73/14 27/81/14 28/72/14
f 26/75/23 31/82/23 30/76/23
f 34/78/24 30/83/24 31/79/24
g wall.294_wall.015_wood.083
usemtl wood.083
f 19/84/25 24/85/25 27/86/25
f 31/87/26 26/88/26 18/89/26
f 30/90/25 34/91/25 33/68/25
f 30/90/25 33/68/25 19/84/25
f 23/92/25 28/93/25 24/85/25
f 28/93/25 27/86/25 24/85/25
f 30/90/25 19/84/25 27/86/25
f 20/94/26 29/95/26 18/89/26
f 29/95/26 31/87/26 18/89/26
f 26/88/26 25/96/26 22/97/26
f 26/88/26 22/97/26 21/98/26
f 26/88/26 21/98/26 18/89/26
o wall.295_wall.015
v -19.850000 22.500000 -36.549999
v -19.850000 26.500000 -36.549999
v -18.950001 22.500000 -36.549999
v -19.950001 22.500000 -36.649998
v -19.950001 22.500000 -37.500000
v -19.950001 26.500000 -37.500000
v -19.950001 26.500000 -36.649998
v -20.050001 22.500000 -37.500000
v -20.049999 22.500000 -36.649998
v -20.049999 26.500000 -36.649998
v -20.050001 26.500000 -37.500000
v -19.000000 22.500000 -36.450001
v -19.850000 26.500000 -36.450001
v -19.850000 22.500000 -36.450001
v -19.000000 22.500000 -36.549999
v -19.000000 26.500000 -36.549999
v -19.000000 26.500000 -36.450001
vt -39.370079 1.968504
vt -39.370079 0.000000
vt 0.000000 0.000000
vt -17.716539 50.768970
vt 0.000000 0.000000
vt 0.000000 50.768970
vt -21.653540 50.768970
vt -3.937008 -0.000000
vt -3.937008 50.768970
vt -16.703310 -0.000000
vt -13.919430 50.768970
vt -16.703310 50.768970
vt -17.716539 0.000000
vt -21.653540 0.000000
vt -13.919430 0.000000
vt 19.685040 21.653540
vt 19.685040 3.937008
vt 21.653540 21.653540
vt 19.685040 21.653540
vt 19.685040 3.937008
vt 21.653540 21.653540
vt -17.716539 50.768970
vt -17.716539 50.768970
vt -17.716539 50.768970
vt 0.000000 50.768970
vt -21.653540 21.653540
vt -21.653540 21.653540
vt -19.685040 3.937008
vt -21.653540 21.653540
vt -21.653540 21.653540
vt -19.685040 3.937008
vt 0.000000 50.768970
vt -19.685040 3.937008
vt -19.685040 3.937008
vt 19.685040 3.937008
vt 17.716539 1.968504
vt 17.716539 0.000000
vt -21.653540 3.937008
vt -17.716539 0.000000
vt -19.685040 3.937008
vt 21.653540 3.937008
vt 21.653540 21.653540
vt 0.000000 1.968504
vt 0.000000 0.000000
vt -19.685040 21.653540
vt -21.653540 21.653540
vt 0.000000 0.000000
vt 0.000000 1.968504
vt -17.716539 1.968504
vn -1.0000 0.0000 0.0000
vn 1.0000 0.0000 0.0000
vn 0.0000 0.0000 -1.0000
vn 0.7071 0.0000 -0.7071
vn 0.8992 0.0108 0.4373
vn 0.8944 0.0112 0.4472
vn 0.9999 -0.0048 0.0123
vn 0.9999 0.0005 0.0123
vn 0.8992 0.0155 0.4373
vn -0.7071 0.0000 0.7071
vn 0.0000 0.0000 1.0000
vn 0.0000 1.0000 0.0000
vn 0.0000 -1.0000 0.0000
g wall.295_wall.015__defaultMat.023
usemtl _defaultMat.023
s 1
f 50/99/27 49/100/27 46/101/27
g wall.295_wall.015_metalDark.030
usemtl metalDark.030
f 41/102/28 39/103/28 40/104/28
f 50/105/29 35/106/29 36/107/29
f 35/108/30 41/109/30 36/110/30
f 41/102/28 38/111/28 39/103/28
f 50/105/29 37/112/29 35/106/29
f 35/108/30 38/113/30 41/109/30
g wall.295_wall.015__defaultMat.021
usemtl _defaultMat.021
f 46/114/31 37/115/32 50/116/33
f 50/117/34 51/118/28 46/119/35
f 39/120/29 45/121/29 40/104/29
f 43/122/27 45/121/27 42/123/27
f 43/124/36 47/125/36 44/126/36
f 51/127/37 48/128/37 46/129/37
f 39/120/29 42/123/29 45/121/29
f 43/122/27 44/130/27 45/121/27
f 43/124/36 48/131/36 47/125/36
f 51/127/37 47/132/37 48/128/37
g wall.295_wall.015_wood.083
usemtl wood.083
f 36/133/38 41/134/38 44/135/38
f 48/136/39 43/137/39 35/138/39
f 47/139/38 51/140/38 50/117/38
f 47/139/38 50/117/38 36/133/38
f 40/141/38 45/142/38 41/134/38
f 45/142/38 44/135/38 41/134/38
f 47/139/38 36/133/38 44/135/38
f 37/143/39 46/144/39 35/138/39
f 46/144/39 48/136/39 35/138/39
f 43/137/39 42/145/39 39/146/39
f 43/137/39 39/146/39 38/147/39
f 43/137/39 38/147/39 35/138/39
o wall.296_wall.015
v -19.950001 22.500000 -54.349998
v -19.950001 26.500000 -54.349998
v -19.949999 22.500000 -53.450001
v -19.850002 22.500000 -54.450001
v -19.000002 22.500000 -54.450001
v -19.000002 26.500000 -54.450001
v -19.850002 26.500000 -54.449997
v -19.000002 22.500000 -54.550003
v -19.850002 22.500000 -54.549999
v -19.850002 26.500000 -54.549999
v -19.000002 26.500000 -54.549999
v -20.049999 22.500000 -53.500000
v -20.050001 26.500000 -54.349998
v -20.050001 22.500000 -54.349998
v -19.950001 22.500000 -53.500000
v -19.950001 26.500000 -53.500000
v -20.049999 26.500000 -53.500000
vt -39.370079 1.968504
vt -39.370079 0.000000
vt 0.000000 0.000000
vt -17.716539 50.768970
vt 0.000000 0.000000
vt 0.000000 50.768970
vt -21.653540 50.768970
vt -3.937008 -0.000000
vt -3.937008 50.768970
vt -16.703310 -0.000000
vt -13.919430 50.768970
vt -16.703310 50.768970
vt -17.716539 0.000000
vt -21.653540 0.000000
vt -13.919430 0.000000
vt 19.685040 21.653540
vt 19.685040 3.937008
vt 21.653540 21.653540
vt 19.685040 21.653540
vt 19.685040 3.937008
vt 21.653540 21.653540
vt -17.716539 50.768970
vt -17.716539 50.768970
vt -17.716539 50.768970
vt 0.000000 50.768970
vt -21.653540 21.653540
vt -21.653540 21.653540
vt -19.685040 3.937008
vt -21.653540 21.653540
vt -21.653540 21.653540
vt -19.685040 3.937008
vt 0.000000 50.768970
vt -19.685040 3.937008
vt -19.685040 3.937008
vt 19.685040 3.937008
vt 17.716539 1.968504
vt 17.716539 0.000000
vt -21.653540 3.937008
vt -17.716539 0.000000
vt -19.685040 3.937008
vt 21.653540 3.937008
vt 21.653540 21.653540
vt 0.000000 1.968504
vt 0.000000 0.000000
vt -19.685040 21.653540
vt -21.653540 21.653540
vt 0.000000 0.000000
vt 0.000000 1.968504
vt -17.716539 1.968504
vn 0.0000 0.0000 -1.0000
vn 0.0000 -0.0000 1.0000
vn 1.0000 0.0000 -0.0000
vn 0.7071 -0.0000 0.7071
vn -0.4373 0.0108 0.8992
vn -0.4472 0.0112 0.8944
vn -0.0124 -0.0048 0.9999
vn -0.0123 0.0005 0.9999
vn -0.4373 0.0155 0.8992
vn -0.7071 0.0000 -0.7071
vn -1.0000 0.0000 0.0000
vn 0.0000 1.0000 0.0000
vn 0.0000 -1.0000 0.0000
g wall.296_wall.015__defaultMat.023
usemtl _defaultMat.023
s 1
f 67/148/40 66/149/40 63/150/40
g wall.296_wall.015_metalDark.030
usemtl metalDark.030
f 58/151/41 56/152/41 57/153/41
f 67/154/42 52/155/42 53/156/42
f 52/157/43 58/158/43 53/159/43
f 58/151/41 55/160/41 56/152/41
f 67/154/42 54/161/42 52/155/42
f 52/157/43 55/162/43 58/158/43
g wall.296_wall.015__defaultMat.021
usemtl _defaultMat.021
f 63/163/44 54/164/45 67/165/46
f 67/166/47 68/167/41 63/168/48
f 56/169/42 62/170/42 57/153/42
f 60/171/40 62/170/40 59/172/40
f 60/173/49 64/174/49 61/175/49
f 68/176/50 65/177/50 63/178/50
f 56/169/42 59/172/42 62/170/42
f 60/171/40 61/179/40 62/170/40
f 60/173/49 65/180/49 64/174/49
f 68/176/50 64/181/50 65/177/50
g wall.296_wall.015_wood.083
usemtl wood.083
f 53/182/51 58/183/51 61/184/51
f 65/185/52 60/186/52 52/187/52
f 64/188/51 68/189/51 67/166/51
f 64/188/51 67/166/51 53/182/51
f 57/190/51 62/191/51 58/183/51
f 62/191/51 61/184/51 58/183/51
f 64/188/51 53/182/51 61/184/51
f 54/192/52 63/193/52 52/187/52
f 63/193/52 65/185/52 52/187/52
f 60/186/52 59/194/52 56/195/52
f 60/186/52 56/195/52 55/196/52
f 60/186/52 55/196/52 52/187/52
o wall.297_wall.021
v 0.000000 22.500000 -54.550011
v 0.000000 22.500000 -54.450012
v -19.000000 22.500000 -54.450001
v -19.000000 22.500000 -54.549999
v 0.000000 26.500000 -54.450012
v 0.000000 26.500000 -54.550011
v -19.000000 26.500000 -54.549999
v -19.000000 26.500000 -54.449997
vt 0.000000 1.968504
vt 39.370079 0.000000
vt 39.370079 1.968504
vt -39.370079 0.000000
vt 0.000000 1.968504
vt -39.370079 1.968504
vt 0.000000 0.000000
vt 0.000000 0.000000
vt -39.370079 0.000000
vt -39.370079 0.000000
vt -39.370079 1.968504
vt -39.370079 50.768970
vt -39.370079 50.768970
vt 0.000000 50.768970
vt 39.370079 1.968504
vt 39.370079 0.000000
vt -39.370079 1.968504
vt 0.000000 50.768970
vt -39.370079 50.768970
vt 0.000000 0.000000
vt 0.000000 50.768970
vt -39.370079 0.000000
vn 0.0000 1.0000 0.0000
vn 0.0000 -1.0000 0.0000
vn 1.0000 0.0000 0.0000
vn -0.0000 0.0000 -1.0000
vn -1.0000 0.0000 0.0000
vn 0.0000 -0.0000 1.0000
g wall.297_wall.021_wood.087
usemtl wood.087
s 1
f 73/197/53 75/198/53 76/199/53
f 72/200/54 70/201/54 71/202/54
f 73/197/53 74/203/53 75/198/53
f 72/200/54 69/204/54 70/201/54
g wall.297_wall.021__defaultMat.023
usemtl _defaultMat.023
f 70/205/55 74/206/55 73/207/55
f 74/208/56 72/209/56 75/210/56
f 76/199/57 72/211/57 71/212/57
f 70/205/55 69/213/55 74/206/55
f 74/208/56 69/214/56 72/209/56
f 76/199/57 75/198/57 72/211/57
g wall.297_wall.021_metalDark.032
usemtl metalDark.032
f 76/215/58 70/216/58 73/217/58
f 76/215/58 71/218/58 70/216/58
o wall.298_wall.021
v -19.000000 22.500000 -36.449982
v -19.000000 22.500000 -36.549980
v -0.000000 22.500000 -36.549999
v 0.000000 22.500000 -36.450001
v -19.000000 26.500000 -36.549984
v -19.000000 26.500000 -36.449982
v 0.000000 26.500000 -36.450001
v -0.000000 26.500000 -36.550003
vt 0.000000 1.968504
vt 39.370079 0.000000
vt 39.370079 1.968504
vt -39.370079 0.000000
vt 0.000000 1.968504
vt -39.370079 1.968504
vt 0.000000 0.000000
vt 0.000000 0.000000
vt -39.370079 0.000000
vt -39.370079 0.000000
vt -39.370079 1.968504
vt -39.370079 50.768970
vt -39.370079 50.768970
vt 0.000000 50.768970
vt 39.370079 1.968504
vt 39.370079 0.000000
vt -39.370079 1.968504
vt 0.000000 50.768970
vt -39.370079 50.768970
vt 0.000000 0.000000
vt 0.000000 50.768970
vt -39.370079 0.000000
vn 0.0000 1.0000 0.0000
vn 0.0000 -1.0000 0.0000
vn -1.0000 0.0000 0.0000
vn 0.0000 0.0000 1.0000
vn 1.0000 0.0000 -0.0000
vn -0.0000 -0.0000 -1.0000
g wall.298_wall.021_wood.087
usemtl wood.087
s 1
f 81/219/59 83/220/59 84/221/59
f 80/222/60 78/223/60 79/224/60
f 81/219/59 82/225/59 83/220/59
f 80/222/60 77/226/60 78/223/60
g wall.298_wall.021__defaultMat.023
usemtl _defaultMat.023
f 78/227/61 82/228/61 81/229/61
f 82/230/62 80/231/62 83/232/62
f 84/221/63 80/233/63 79/234/63
f 78/227/61 77/235/61 82/228/61
f 82/230/62 77/236/62 80/231/62
f 84/221/63 83/220/63 80/233/63
g wall.298_wall.021_metalDark.032
usemtl metalDark.032
f 84/237/64 78/238/64 81/239/64
f 84/237/64 79/240/64 78/238/64
o wall.299_wall.021
v -20.050020 22.500000 -53.500000
v -19.950020 22.500000 -53.500000
v -19.949999 22.500000 -37.500000
v -20.049999 22.500000 -37.500000
v -19.950020 26.500000 -53.500000
v -20.050020 26.500000 -53.500000
v -20.049999 26.500000 -37.500000
v -19.949999 26.500000 -37.500000
vt 0.000000 1.968504
vt 39.370079 0.000000
vt 39.370079 1.968504
vt -39.370079 0.000000
vt 0.000000 1.968504
vt -39.370079 1.968504
vt 0.000000 0.000000
vt 0.000000 0.000000
vt -39.370079 0.000000
vt -39.370079 0.000000
vt -39.370079 1.968504
vt -39.370079 50.768970
vt -39.370079 50.768970
vt 0.000000 50.768970
vt 39.370079 1.968504
vt 39.370079 0.000000
vt -39.370079 1.968504
vt 0.000000 50.768970
vt -39.370079 50.768970
vt 0.000000 0.000000
vt 0.000000 50.768970
vt -39.370079 0.000000
vn 0.0000 1.0000 0.0000
vn 0.0000 -1.0000 0.0000
vn 0.0000 0.0000 -1.0000
vn -1.0000 0.0000 0.0000
vn 0.0000 0.0000 1.0000
vn 1.0000 0.0000 -0.0000
g wall.299_wall.021_wood.087
usemtl wood.087
s 1
f 89/241/65 91/242/65 92/243/65
f 88/244/66 86/245/66 87/246/66
f 89/241/65 90/247/65 91/242/65
f 88/244/66 85/248/66 86/245/66
g wall.299_wall.021__defaultMat.023
usemtl _defaultMat.023
f 86/249/67 90/250/67 89/251/67
f 90/252/68 88/253/68 91/254/68
f 92/243/69 88/255/69 87/256/69
f 86/249/67 85/257/67 90/250/67
f 90/252/68 85/258/68 88/253/68
f 92/243/69 91/242/69 88/255/69
g wall.299_wall.021_metalDark.032
usemtl metalDark.032
f 92/259/70 86/260/70 89/261/70
f 92/259/70 87/262/70 86/260/70
o wall.300_wall.021
v 1.050010 22.500000 -47.500000
v 0.950009 22.500000 -47.500000
v 0.949999 22.500000 -53.500000
v 1.049999 22.500000 -53.500000
v 0.950009 26.500000 -47.500000
v 1.050009 26.500000 -47.500000
v 1.049998 26.500000 -53.500000
v 0.949999 26.500000 -53.500000
vt 0.000000 1.968504
vt 39.370079 0.000000
vt 39.370079 1.968504
vt -39.370079 0.000000
vt 0.000000 1.968504
vt -39.370079 1.968504
vt 0.000000 0.000000
vt 0.000000 0.000000
vt -39.370079 0.000000
vt -39.370079 0.000000
vt -39.370079 1.968504
vt -39.370079 50.768970
vt -39.370079 50.768970
vt 0.000000 50.768970
vt 39.370079 1.968504
vt 39.370079 0.000000
vt -39.370079 1.968504
vt 0.000000 50.768970
vt -39.370079 50.768970
vt 0.000000 0.000000
vt 0.000000 50.768970
vt -39.370079 0.000000
vn 0.0000 1.0000 0.0000
vn 0.0000 -1.0000 0.0000
vn 0.0000 0.0000 1.0000
vn 1.0000 0.0000 -0.0000
vn 0.0000 0.0000 -1.0000
vn -1.0000 -0.0000 0.0000
g wall.300_wall.021_wood.087
usemtl wood.087
s 1
f 97/263/71 99/264/71 100/265/71
f 96/266/72 94/267/72 95/268/72
f 97/263/71 98/269/71 99/264/71
f 96/266/72 93/270/72 94/267/72
g wall.300_wall.021__defaultMat.023
usemtl _defaultMat.023
f 94/271/73 98/272/73 97/273/73
f 98/274/74 96/275/74 99/276/74
f 100/265/75 96/277/75 95/278/75
f 94/271/73 93/279/73 98/272/73
f 98/274/74 93/280/74 96/275/74
f 100/265/75 99/264/75 96/277/75
g wall.300_wall.021_metalDark.032
usemtl metalDark.032
f 100/281/76 94/282/76 97/283/76
f 100/281/76 95/284/76 94/282/76
o wall.301_wall.021
v 1.050013 22.500000 -37.500000
v 0.950012 22.500000 -37.500000
v 0.949999 22.500000 -45.500000
v 1.049999 22.500000 -45.500000
v 0.950012 26.500000 -37.500000
v 1.050012 26.500000 -37.500000
v 1.049998 26.500000 -45.500000
v 0.949999 26.500000 -45.500000
vt 0.000000 1.968504
vt 39.370079 0.000000
vt 39.370079 1.968504
vt -39.370079 0.000000
vt 0.000000 1.968504
vt -39.370079 1.968504
vt 0.000000 0.000000
vt 0.000000 0.000000
vt -39.370079 0.000000
vt -39.370079 0.000000
vt -39.370079 1.968504
vt -39.370079 50.768970
vt -39.370079 50.768970
vt 0.000000 50.768970
vt 39.370079 1.968504
vt 39.370079 0.000000
vt -39.370079 1.968504
vt 0.000000 50.768970
vt -39.370079 50.768970
vt 0.000000 0.000000
vt 0.000000 50.768970
vt -39.370079 0.000000
vn 0.0000 1.0000 -0.0000
vn 0.0000 -1.0000 0.0000
vn 0.0000 0.0000 1.0000
vn 1.0000 0.0000 -0.0000
vn 0.0000 0.0000 -1.0000
vn -1.0000 -0.0000 0.0000
g wall.301_wall.021_wood.087
usemtl wood.087
s 1
f 105/285/77 107/286/77 108/287/77
f 104/288/78 102/289/78 103/290/78
f 105/285/77 106/291/77 107/286/77
f 104/288/78 101/292/78 102/289/78
g wall.301_wall.021__defaultMat.023
usemtl _defaultMat.023
f 102/293/79 106/294/79 105/295/79
f 106/296/80 104/297/80 107/298/80
f 108/287/81 104/299/81 103/300/81
f 102/293/79 101/301/79 106/294/79
f 106/296/80 101/302/80 104/297/80
f 108/287/81 107/286/81 104/299/81
g wall.301_wall.021_metalDark.032
usemtl metalDark.032
f 108/303/82 102/304/82 105/305/82
f 108/303/82 103/306/82 102/304/82
o result.027_Cube.047
v 0.999993 22.500000 -54.500000
v 0.999993 25.500000 -54.500000
v 0.999993 22.500000 -36.500000
v 0.999993 25.500000 -36.500000
v -20.000008 22.500000 -54.500000
v -20.000008 25.500000 -54.500000
v -20.000008 22.500000 -36.500000
v -20.000008 25.500000 -36.500000
v 0.999993 22.500000 -48.500000
v 0.999993 22.500000 -42.500000
v 3.999993 22.500000 -48.500000
v 3.999993 22.500000 -42.500000
vt 0.025124 0.441860
vt 0.034695 0.441860
vt 0.029910 0.441860
vt 0.629488 0.702234
vt 0.643845 0.702234
vt 0.629488 0.702234
vt 0.643845 0.702234
vt 0.039481 0.441860
vt 0.039481 0.441860
vt 0.029910 0.441860
vt 0.025124 0.441860
vt 0.034695 0.441860
vn 0.0000 1.0000 0.0000
vn 0.0000 -1.0000 0.0000
g result.027_Cube.047_wood
usemtl wood
s off
f 113/307/83 118/308/83 117/309/83
f 116/310/84 110/311/84 112/312/84
f 116/310/84 114/313/84 110/311/84
f 113/307/83 115/314/83 111/315/83
f 118/308/83 119/316/83 117/309/83
f 113/307/83 111/315/83 118/308/83
f 117/309/83 109/317/83 113/307/83
f 118/308/83 120/318/83 119/316/83
