# Blender v2.93.10 OBJ File: 'map models.blend'
# www.blender.org
mtllib room 5.mtl
o result.004_Cube.004
v 4.000000 3.000000 -50.000000
v 4.000000 0.000000 -48.000000
v -18.000000 0.000000 -47.000000
v -18.000000 3.399993 -47.000000
v -18.000000 0.000000 -57.000000
v -18.000000 3.399993 -57.000000
v 2.000001 0.000000 -47.000000
v 2.000002 3.399993 -47.000000
v 2.000001 0.000000 -57.000000
v 2.000002 3.399993 -57.000000
v 4.000000 0.000000 -50.000000
v 2.000001 0.000000 -50.000000
v 2.000001 3.000000 -50.000000
v 2.000001 0.000000 -48.000000
v 2.000001 3.000000 -48.000000
v 4.000000 3.000000 -48.000000
v -17.000000 0.000000 -46.000000
v -13.000000 0.000000 -46.000000
v -17.000000 3.399993 -46.000000
v -17.000000 0.000000 -47.000000
v -17.000000 3.399993 -47.000000
v -13.000000 0.000000 -47.000000
v -13.000000 3.399993 -47.000000
v -13.000000 3.399993 -46.000000
vt 0.825211 0.454545
vt 0.902574 0.545455
vt 0.825211 0.545455
vt 1.000000 0.335227
vt 0.954152 0.258523
vt 1.000000 0.258523
vt 1.000000 0.258523
vt 0.954152 0.181818
vt 1.000000 0.181818
vt 0.567332 0.636364
vt 0.567332 0.818182
vt 0.541544 0.909091
vt 0.747847 0.545455
vt 0.825211 0.454545
vt 0.825211 0.545455
vt 0.644696 0.000000
vt 0.747847 0.909090
vt 0.644696 0.909090
vt 0.541544 0.000000
vt 0.773635 0.340912
vt 0.773635 0.431816
vt 0.747847 0.454544
vt 0.644696 0.636364
vt 0.644696 0.000000
vt 0.850999 0.000000
vt 0.954150 0.454544
vt 0.850999 0.454544
vt 0.644696 0.818182
vt 0.644696 0.909091
vt 0.747847 0.454545
vt 0.954152 0.258523
vt 0.902574 0.454545
vt 0.747847 0.000000
vt 0.747847 0.000000
vt 0.850999 0.000000
vt 0.850999 0.431816
vt 0.850999 0.454544
vt 0.954152 0.335227
vt 0.850999 0.340912
vt 0.954150 0.000000
vt 0.257880 0.090910
vt 0.257880 0.272728
vt 0.000000 0.000000
vt 0.000000 0.090908
vt 0.283666 0.272728
vt 0.257880 0.909090
vt 0.244983 0.909090
vt 0.676619 0.044609
vt 0.193410 1.000000
vt 0.193410 0.909090
vt 0.000000 0.909090
vt 0.257880 0.000000
vt 0.954148 0.000000
vt 0.979935 0.181818
vt 0.954148 0.181818
vt 0.902575 0.454545
vt 0.954152 0.545455
vt 0.902575 0.545455
vt 0.283666 0.000000
vt 0.541546 0.909090
vt 0.283666 0.909090
vt 0.979935 0.000000
vt 0.954152 0.454545
vt 0.541546 0.000000
vn 0.0000 0.0000 -1.0000
vn 1.0000 0.0000 0.0000
vn -1.0000 0.0000 0.0000
vn 0.0000 0.0000 1.0000
vn 0.0000 1.0000 0.0000
vn 0.0000 -1.0000 0.0000
g result.004_Cube.004_wall
usemtl wall
s off
f 16/1/1 14/2/1 15/3/1
f 21/4/2 17/5/2 20/6/2
f 24/7/3 22/8/3 18/9/3
f 23/10/1 21/11/1 4/12/1
f 1/13/4 12/14/4 11/15/4
f 6/16/4 9/17/4 10/18/4
f 8/19/4 23/10/4 4/12/4
f 13/20/3 15/21/3 8/22/3
f 22/23/1 8/19/1 7/24/1
f 4/25/2 5/26/2 6/27/2
f 4/12/1 20/28/1 3/29/1
f 1/13/4 13/30/4 12/14/4
f 24/7/3 23/31/3 22/8/3
f 16/1/1 2/32/1 14/2/1
f 6/16/4 5/33/4 9/17/4
f 10/34/3 9/35/3 13/20/3
f 14/36/3 7/37/3 15/21/3
f 21/4/2 19/38/2 17/5/2
f 9/35/3 12/39/3 13/20/3
f 7/37/3 8/22/3 15/21/3
f 10/34/3 13/20/3 8/22/3
f 22/23/1 23/10/1 8/19/1
f 4/25/2 3/40/2 5/26/2
f 4/12/1 21/11/1 20/28/1
g result.004_Cube.004_bottom
usemtl bottom
f 20/41/5 22/42/5 5/43/5
f 17/44/5 18/45/5 22/42/5
f 22/42/5 7/46/5 14/47/5
f 14/47/5 2/48/5 11/49/5
f 12/50/5 9/51/5 22/42/5
f 9/51/5 5/43/5 22/42/5
f 14/47/5 11/49/5 12/50/5
f 20/41/5 17/44/5 22/42/5
f 22/42/5 14/47/5 12/50/5
f 5/43/5 3/52/5 20/41/5
g result.004_Cube.004_top
usemtl top
f 19/53/6 23/54/6 24/55/6
f 15/56/6 1/57/6 16/58/6
f 4/59/6 10/60/6 8/61/6
f 19/53/6 21/62/6 23/54/6
f 15/56/6 13/63/6 1/57/6
f 4/59/6 6/64/6 10/60/6
