# Blender v2.93.10 OBJ File: ''
# www.blender.org
mtllib room 4.mtl
o result.005_Cube.004
v 4.000000 0.000000 -39.000000
v 4.000000 3.000000 -39.000000
v -17.000000 0.000000 -46.000000
v -13.000000 0.000000 -46.000000
v -17.000000 3.399993 -46.000000
v -18.000000 0.000000 -36.000000
v -18.000000 3.399993 -36.000000
v -18.000000 0.000000 -46.000000
v -18.000000 3.399993 -46.000000
v 2.000000 0.000000 -36.000000
v 2.000000 3.399993 -36.000000
v 2.000000 0.000000 -46.000000
v 2.000000 3.399993 -46.000000
v 2.000000 0.000000 -41.000000
v 4.000000 0.000000 -41.000000
v 4.000000 3.000000 -41.000000
v 2.000000 3.000000 -41.000000
v 2.000000 0.000000 -39.000000
v 2.000000 3.000000 -39.000000
v -13.000000 3.399993 -46.000000
v -5.000000 0.000000 -36.000000
v -3.000000 0.000000 -36.000000
v -5.000000 3.399993 -36.000000
v -3.000000 3.399993 -36.000000
v -5.000000 0.000000 -34.950165
v -5.000000 3.399993 -34.950165
v -3.000000 0.000000 -34.950165
v -3.000000 3.399993 -34.950165
vt 0.914635 0.411765
vt 0.963413 0.320856
vt 0.963413 0.411765
vt 0.986399 0.181818
vt 0.914635 0.251337
vt 0.914635 0.181818
vt 0.719511 0.227273
vt 0.621951 0.000000
vt 0.719511 0.000000
vt 0.621951 0.909091
vt 0.719511 0.318182
vt 0.719511 0.909091
vt 0.987804 0.090909
vt 0.914633 0.181818
vt 0.914633 0.090909
vt 0.914635 0.320856
vt 0.986399 0.251337
vt 0.986399 0.320856
vt 0.987804 0.090909
vt 0.914633 0.000000
vt 0.987804 0.000000
vt 0.524390 0.909092
vt 0.621951 0.272728
vt 0.621951 0.909092
vt 0.817072 0.000000
vt 0.914633 0.454544
vt 0.817072 0.454544
vt 0.743902 0.295456
vt 0.743902 0.386360
vt 0.719511 0.454544
vt 0.621951 0.090908
vt 0.524390 0.000000
vt 0.621951 0.000000
vt 0.914635 0.320856
vt 0.986399 0.251337
vt 0.646341 0.227273
vt 0.646341 0.318182
vt 0.987804 0.181818
vt 0.914635 0.251337
vt 0.914633 0.090909
vt 0.548780 0.272728
vt 0.914633 0.000000
vt 0.719511 0.000000
vt 0.817072 0.000000
vt 0.817072 0.295456
vt 0.817072 0.386360
vt 0.817072 0.454544
vt 0.548780 0.090908
vt 0.243900 0.681820
vt 0.243900 0.909092
vt 0.207317 0.909092
vt 0.158535 0.909092
vt 0.000000 0.909092
vt 0.158535 1.000000
vt 0.676619 0.172058
vt 0.000000 0.090908
vt 0.000000 0.000000
vt 0.243900 0.000000
vt 0.283666 0.272728
vt 0.243900 0.590908
vt 0.000000 0.590908
vt 0.280487 0.681820
vt 0.280487 0.000000
vt 0.280487 0.909092
vt 1.000000 0.411764
vt 0.963413 0.320855
vt 1.000000 0.320855
vt 0.963413 0.411764
vn 0.0000 -1.0000 0.0000
vn 1.0000 0.0000 0.0000
vn 0.0000 0.0000 -1.0000
vn 0.0000 0.0000 1.0000
vn -1.0000 0.0000 0.0000
vn 0.0000 1.0000 0.0000
g result.005_Cube.004_wall
usemtl wall
s off
f 2/1/1 17/2/1 16/3/1
f 21/4/2 26/5/2 25/6/2
f 22/7/3 11/8/3 10/9/3
f 7/10/3 21/11/3 6/12/3
f 14/13/4 16/14/4 17/15/4
f 24/16/5 27/17/5 28/18/5
f 18/19/3 2/20/3 1/21/3
f 13/22/4 4/23/4 12/24/4
f 7/25/2 8/26/2 9/27/2
f 17/28/5 19/29/5 11/30/5
f 3/31/4 9/32/4 8/33/4
f 2/1/1 19/34/1 17/2/1
f 21/4/2 23/35/2 26/5/2
f 22/7/3 24/36/3 11/8/3
f 7/10/3 23/37/3 21/11/3
f 14/13/4 15/38/4 16/14/4
f 24/16/5 22/39/5 27/17/5
f 18/19/3 19/40/3 2/20/3
f 13/22/4 20/41/4 4/23/4
f 7/25/2 6/42/2 8/26/2
f 13/43/5 12/44/5 17/28/5
f 12/44/5 14/45/5 17/28/5
f 18/46/5 10/47/5 19/29/5
f 10/47/5 11/30/5 19/29/5
f 13/43/5 17/28/5 11/30/5
f 3/31/4 5/48/4 9/32/4
g result.005_Cube.004_bottom
usemtl bottom
f 22/49/6 10/50/6 18/51/6
f 14/52/6 12/53/6 22/49/6
f 15/54/6 14/52/6 18/51/6
f 14/52/6 22/49/6 18/51/6
f 15/54/6 18/51/6 1/55/6
f 3/56/6 8/57/6 6/58/6
f 3/56/6 6/58/6 4/59/6
f 6/58/6 21/60/6 4/59/6
f 21/60/6 25/61/6 27/62/6
f 22/49/6 12/53/6 21/60/6
f 12/53/6 4/59/6 21/60/6
f 21/60/6 27/62/6 22/49/6
g result.005_Cube.004_top
usemtl top
f 7/63/1 13/22/1 11/64/1
f 24/65/1 26/66/1 23/67/1
f 7/63/1 9/32/1 13/22/1
f 24/65/1 28/68/1 26/66/1
