# Blender v2.93.10 OBJ File: 'map models.blend'
# www.blender.org
mtllib room 2.mtl
o result.003_Cube.003
v 18.000000 22.500000 1.050000
v 4.000000 0.000000 -17.000000
v 4.000000 0.000000 -19.000000
v 4.000000 3.000000 -17.000000
v 4.000000 3.000000 -19.000000
v -17.949522 0.000000 -18.649939
v -17.949522 2.399939 -18.649939
v -17.949522 0.000000 -21.349981
v -17.949522 2.399939 -21.349981
v 1.999992 0.000000 -23.949846
v 1.999990 3.399993 -23.949846
v 1.999995 0.000000 -13.150173
v 1.999994 3.399993 -13.150173
v -17.949522 0.000000 -23.949846
v -17.949522 3.399993 -23.949846
v -17.949522 0.000000 -13.150173
v -17.949522 3.399993 -13.150173
v 1.999994 0.000000 -17.000000
v 1.999993 0.000000 -19.000000
v 1.999994 3.000000 -17.000000
v 1.999993 3.000000 -19.000000
v -13.000000 0.000000 -13.150173
v -9.000000 0.000000 -23.949846
v -7.000000 0.000000 -23.949846
v -9.000000 3.000000 -23.949846
v -7.000000 3.000000 -23.949846
v -7.000000 0.000000 -24.499996
v -9.000000 3.000000 -24.499996
v -7.000000 3.000000 -24.499996
v -9.000000 0.000000 -24.499996
v -11.000000 0.000000 -13.150173
v -13.000000 3.000000 -13.150173
v -11.000000 3.000000 -13.150173
v 27.200005 7.999991 1.050000
vt 0.925002 0.272728
vt 0.974039 0.342247
vt 0.925002 0.342247
vt 0.925000 0.090909
vt 1.000000 0.000000
vt 1.000000 0.090909
vt 0.924999 0.181819
vt 0.974999 0.272728
vt 0.924999 0.272728
vt 0.925000 0.090909
vt 1.000000 0.181819
vt 0.850001 0.159092
vt 0.850001 0.295454
vt 0.825000 0.454546
vt 0.550000 0.590909
vt 0.550000 0.681818
vt 0.525000 0.909091
vt 0.750000 0.181820
vt 0.750000 0.272728
vt 0.725000 0.454544
vt 0.974039 0.342247
vt 0.925002 0.411765
vt 0.925002 0.342247
vt 0.650000 0.500000
vt 0.625000 0.909092
vt 0.625000 0.000000
vt 0.925001 0.295454
vt 0.925001 0.454546
vt 0.825000 0.000000
vt 0.925001 0.000000
vt 0.625000 0.000000
vt 0.625000 0.590909
vt 0.974039 0.272728
vt 0.974999 0.181819
vt 1.000000 0.090909
vt 0.925001 0.159092
vt 0.625000 0.681818
vt 0.625000 0.909091
vt 0.525000 0.000000
vt 0.925000 0.000000
vt 0.825000 0.272728
vt 0.825000 0.454544
vt 0.725000 0.000000
vt 0.825000 0.000000
vt 0.825000 0.181820
vt 0.974039 0.411765
vt 0.725000 0.000000
vt 0.650000 0.409092
vt 0.725000 0.409092
vt 0.725000 0.500000
vt 0.725000 0.909092
vt 0.174999 0.909092
vt 0.124999 0.909092
vt 0.025001 0.409092
vt 0.025001 0.000000
vt 0.950456 0.245192
vt 0.187500 0.000000
vt 0.274999 0.000000
vt 0.284478 0.753464
vt 0.000000 0.500000
vt 0.000000 0.409092
vt 0.025001 0.909092
vt 0.025001 0.500000
vt 0.274999 0.318184
vt 0.274999 0.909092
vt 0.124999 1.000000
vt 0.274999 0.909091
vt 0.974039 0.272728
vt 0.999040 0.363638
vt 0.974039 0.363638
vt 0.274999 0.000000
vt 0.999040 0.272728
vn 1.0000 0.0000 0.0000
vn 0.0000 0.0000 1.0000
vn 0.0000 -1.0000 0.0000
vn 0.0000 0.0000 -1.0000
vn -1.0000 -0.0000 0.0000
vn 0.0000 1.0000 0.0000
g result.003_Cube.003_wall
usemtl wall
s off
f 23/1/1 28/2/1 25/3/1
f 5/4/2 19/5/2 3/6/2
f 20/7/3 5/8/3 4/9/3
f 4/10/4 18/11/4 20/7/4
f 7/12/1 9/13/1 15/14/1
f 33/15/4 32/16/4 17/17/4
f 21/18/5 20/19/5 13/20/5
f 24/21/5 29/22/5 27/23/5
f 26/24/2 11/25/2 15/26/2
f 8/27/1 14/28/1 9/13/1
f 17/29/1 16/30/1 7/12/1
f 12/31/4 31/32/4 33/15/4
f 23/1/1 30/33/1 28/2/1
f 20/7/3 21/34/3 5/8/3
f 4/10/4 2/35/4 18/11/4
f 14/28/1 15/14/1 9/13/1
f 16/30/1 6/36/1 7/12/1
f 22/37/4 16/38/4 32/16/4
f 17/29/1 7/12/1 15/14/1
f 13/39/4 12/31/4 33/15/4
f 13/39/4 33/15/4 17/17/4
f 16/38/4 17/17/4 32/16/4
f 5/4/2 21/40/2 19/5/2
f 18/41/5 12/42/5 20/19/5
f 12/42/5 13/20/5 20/19/5
f 11/43/5 10/44/5 21/18/5
f 10/44/5 19/45/5 21/18/5
f 11/43/5 21/18/5 13/20/5
f 24/21/5 26/46/5 29/22/5
f 15/26/2 14/47/2 25/48/2
f 14/47/2 23/49/2 25/48/2
f 24/50/2 10/51/2 26/24/2
f 10/51/2 11/25/2 26/24/2
f 15/26/2 25/48/2 26/24/2
g result.003_Cube.003_bottom
usemtl bottom
f 18/52/6 2/35/6 19/53/6
f 23/54/6 14/55/6 8/56/6
f 6/57/6 16/58/6 22/59/6
f 23/54/6 8/56/6 6/57/6
f 27/60/6 30/61/6 23/54/6
f 19/53/6 10/62/6 24/63/6
f 24/63/6 27/60/6 23/54/6
f 23/54/6 6/57/6 22/59/6
f 31/64/6 12/65/6 18/52/6
f 23/54/6 22/59/6 31/64/6
f 19/53/6 24/63/6 18/52/6
f 24/63/6 23/54/6 31/64/6
f 18/52/6 24/63/6 31/64/6
f 2/35/6 3/66/6 19/53/6
g result.003_Cube.003_top
usemtl top
f 15/67/3 13/39/3 17/17/3
f 25/68/3 29/69/3 26/70/3
f 15/67/3 11/71/3 13/39/3
f 25/68/3 28/72/3 29/69/3
l 34 1
