# Blender v2.93.10 OBJ File: 'map models.blend'
# www.blender.org
mtllib room 12.mtl
o result.005_Cube.005
v 12.000000 22.500000 -33.000000
v 12.000000 25.500000 -33.000000
v 16.000000 22.500000 -31.000000
v 16.000000 25.500000 -31.000000
v 16.000000 22.500000 -33.000000
v 16.000000 25.500000 -33.000000
v 16.000000 22.500000 -39.000000
v 16.000000 22.500000 -25.000000
v 36.000000 22.500000 -39.000000
v 36.000000 22.500000 -25.000000
v 16.000000 27.500000 -25.000000
v 16.000000 27.500000 -39.000000
v 36.000000 27.500000 -25.000000
v 36.000000 27.500000 -39.000000
v 12.000000 22.500000 -31.000000
v 12.000000 25.500000 -31.000000
vt 0.351740 0.660284
vt 0.373275 0.660284
vt 0.373275 0.660284
vt 0.351740 0.753307
vt 0.394809 0.753305
vt 0.416344 0.753305
vt 0.416344 0.753305
vt 0.394809 0.753305
vt 0.416344 0.753305
vt 0.373275 0.660284
vt 0.351740 0.660284
vt 0.351740 0.660284
vt 0.394809 0.660282
vt 0.129210 0.790699
vt 0.143567 0.790699
vt 0.143567 0.790699
vt 0.898951 0.732557
vt 0.913309 0.732557
vt 0.913309 0.732557
vt 0.898951 0.779068
vt 0.920486 0.732559
vt 0.920486 0.779068
vt 0.129210 0.790699
vt 0.898951 0.732557
vt 0.373275 0.753307
vt 0.394809 0.753305
vt 0.416344 0.660282
vt 0.898951 0.732559
vt 0.129210 0.790699
vt 0.143567 0.697674
vt 0.129210 0.697674
vt 0.143567 0.790699
vt 0.898951 0.732557
vt 0.913309 0.732557
vt 0.898951 0.639534
vt 0.913309 0.639534
vn 1.0000 0.0000 0.0000
vn 0.0000 0.0000 -1.0000
vn 0.0000 0.0000 1.0000
vn -1.0000 0.0000 0.0000
vn 0.0000 1.0000 0.0000
vn 0.0000 -1.0000 0.0000
g result.005_Cube.005_wall
usemtl wall
s off
f 4/1/1 8/2/1 3/3/1
f 3/3/2 16/4/2 4/1/2
f 14/5/3 7/6/3 9/7/3
f 7/6/1 6/8/1 5/9/1
f 10/10/2 11/11/2 13/12/2
f 2/13/3 5/9/3 6/8/3
f 5/14/3 3/15/3 8/16/3
f 4/17/1 6/18/1 12/19/1
f 13/20/4 9/21/4 10/22/4
f 5/14/3 8/16/3 7/23/3
f 4/17/1 12/19/1 11/24/1
f 4/1/1 11/11/1 8/2/1
f 3/3/2 15/25/2 16/4/2
f 14/5/3 12/26/3 7/6/3
f 7/6/1 12/26/1 6/8/1
f 10/10/2 8/2/2 11/11/2
f 2/13/3 1/27/3 5/9/3
f 13/20/4 14/28/4 9/21/4
g result.005_Cube.005_bottom
usemtl bottom
f 8/16/5 9/29/5 7/23/5
f 15/30/5 5/14/5 1/31/5
f 15/30/5 3/15/5 5/14/5
f 8/16/5 10/32/5 9/29/5
g result.005_Cube.005_top
usemtl top
f 13/33/6 12/19/6 14/34/6
f 6/18/6 16/35/6 2/36/6
f 13/33/6 11/24/6 12/19/6
f 6/18/6 4/17/6 16/35/6
