# Blender v2.93.10 OBJ File: ''
# www.blender.org
mtllib room 3.mtl
o result.004_Cube.003
v 4.000000 0.000000 -30.000000
v -5.000000 0.000000 -34.950165
v -5.000000 3.399993 -34.950165
v -7.000000 0.000000 -24.499996
v -9.000000 3.000000 -24.499996
v -7.000000 3.000000 -24.499996
v 1.999991 0.000000 -34.950165
v 1.999991 3.399993 -34.950165
v 1.999994 0.000000 -24.500000
v 1.999994 3.399993 -24.500000
v -18.000010 0.000000 -34.950165
v -18.000010 3.399993 -34.950165
v -18.000006 0.000000 -24.499992
v -18.000006 3.399993 -24.499992
v 1.999992 0.000000 -30.000000
v 4.000000 3.000000 -30.000000
v 1.999992 3.000000 -30.000000
v 4.000000 0.000000 -28.000000
v 1.999993 0.000000 -28.000000
v 1.999993 3.000000 -28.000000
v 4.000000 3.000000 -28.000000
v -9.000000 0.000000 -24.499996
v -3.000000 0.000000 -34.950165
v -3.000000 3.399993 -34.950165
v -7.000000 3.399993 -24.499996
v -9.000000 3.399993 -24.499996
vt 0.974360 0.272728
vt 0.923077 0.181819
vt 0.974360 0.181819
vt 0.717949 0.454544
vt 0.820513 0.000000
vt 0.820513 0.454544
vt 0.615384 0.909092
vt 0.717949 0.681820
vt 0.717949 0.909092
vt 1.000000 0.000000
vt 0.923077 0.090909
vt 0.923077 0.000000
vt 0.512820 0.909091
vt 0.615384 0.500000
vt 0.615384 0.909091
vt 0.717949 0.590908
vt 0.615384 0.000000
vt 0.717949 0.000000
vt 0.615384 0.409091
vt 0.512820 0.000000
vt 0.615384 0.000000
vt 1.000000 0.181819
vt 0.923077 0.090909
vt 1.000000 0.090909
vt 0.846154 0.227272
vt 0.846154 0.318184
vt 0.820513 0.454544
vt 0.999040 0.272728
vt 0.999040 0.363638
vt 0.999040 0.363638
vt 0.923077 0.272728
vt 0.717949 0.000000
vt 0.641025 0.681820
vt 1.000000 0.090909
vt 0.538461 0.500000
vt 0.641025 0.590908
vt 0.538461 0.409091
vt 0.923077 0.318184
vt 0.923077 0.454544
vt 0.820513 0.000000
vt 0.923077 0.000000
vt 0.923077 0.227272
vt 0.999040 0.272728
vt 0.128206 1.000000
vt 0.179486 0.909092
vt 0.676619 0.299511
vt 0.256408 0.500000
vt 0.128206 0.909092
vt 0.000000 0.909092
vt 0.280487 0.681820
vt 0.000000 0.590908
vt 0.000000 0.000000
vt 0.256408 0.409092
vt 0.256408 0.000000
vt 0.256408 0.909092
vt 0.256408 0.000000
vt 0.256408 0.909091
vn 0.0000 -1.0000 0.0000
vn 1.0000 0.0000 -0.0000
vn 0.0000 0.0000 1.0000
vn 0.0000 0.0000 -1.0000
vn -1.0000 0.0000 0.0000
vn 0.0000 1.0000 0.0000
g result.004_Cube.003_wall
usemtl wall
s off
f 16/1/1 20/2/1 17/3/1
f 12/4/2 13/5/2 11/6/2
f 8/7/3 23/8/3 7/9/3
f 15/10/3 16/11/3 17/12/3
f 14/13/4 22/14/4 13/15/4
f 2/16/3 12/17/3 11/18/3
f 4/19/4 10/20/4 9/21/4
f 19/22/4 21/23/4 18/24/4
f 17/25/5 20/26/5 10/27/5
f 5/28/4 25/29/4 6/30/4
f 16/1/1 21/31/1 20/2/1
f 12/4/2 14/32/2 13/5/2
f 8/7/3 24/33/3 23/8/3
f 15/10/3 1/34/3 16/11/3
f 14/13/4 26/35/4 22/14/4
f 2/16/3 3/36/3 12/17/3
f 4/19/4 25/37/4 10/20/4
f 19/22/4 20/2/4 21/23/4
f 19/38/5 9/39/5 20/26/5
f 9/39/5 10/27/5 20/26/5
f 8/40/5 7/41/5 17/25/5
f 7/41/5 15/42/5 17/25/5
f 8/40/5 17/25/5 10/27/5
f 5/28/4 26/43/4 25/29/4
g result.004_Cube.003_bottom
usemtl bottom
f 1/44/6 19/45/6 18/46/6
f 4/47/6 19/45/6 15/48/6
f 7/49/6 23/50/6 15/48/6
f 23/50/6 2/51/6 4/47/6
f 15/48/6 23/50/6 4/47/6
f 2/51/6 11/52/6 22/53/6
f 11/52/6 13/54/6 22/53/6
f 22/53/6 4/47/6 2/51/6
f 4/47/6 9/55/6 19/45/6
f 19/45/6 1/44/6 15/48/6
g result.004_Cube.003_top
usemtl top
f 14/13/1 8/56/1 10/20/1
f 14/13/1 12/57/1 8/56/1
