# Blender v2.93.10 OBJ File: 'untitled.blend'
# www.blender.org
mtllib room 6.mtl
o wall.178_wall.021
v -17.000000 22.500000 -2.449993
v -17.000000 22.500000 -2.549994
v 4.000000 22.500000 -2.550001
v 4.000000 22.500000 -2.450001
v -17.000000 26.500000 -2.549994
v -17.000000 26.500000 -2.449994
v 4.000000 26.500000 -2.450001
v 4.000000 26.500000 -2.550001
vt 0.000000 1.968504
vt 39.370079 0.000000
vt 39.370079 1.968504
vt -39.370079 0.000000
vt 0.000000 1.968504
vt -39.370079 1.968504
vt 0.000000 0.000000
vt 0.000000 0.000000
vt -39.370079 0.000000
vt -39.370079 0.000000
vt -39.370079 1.968504
vt -39.370079 50.768970
vt -39.370079 50.768970
vt 0.000000 50.768970
vt 39.370079 1.968504
vt 39.370079 0.000000
vt -39.370079 1.968504
vt 0.000000 50.768970
vt -39.370079 50.768970
vt 0.000000 0.000000
vt 0.000000 50.768970
vt -39.370079 0.000000
vn 0.0000 1.0000 0.0000
vn 0.0000 -1.0000 0.0000
vn -1.0000 0.0000 0.0000
vn 0.0000 0.0000 1.0000
vn 1.0000 0.0000 0.0000
vn -0.0000 -0.0000 -1.0000
g wall.178_wall.021_wood.087
usemtl wood.087
s 1
f 5/1/1 7/2/1 8/3/1
f 4/4/2 2/5/2 3/6/2
f 5/1/1 6/7/1 7/2/1
f 4/4/2 1/8/2 2/5/2
g wall.178_wall.021__defaultMat.023
usemtl _defaultMat.023
f 2/9/3 6/10/3 5/11/3
f 6/12/4 4/13/4 7/14/4
f 8/3/5 4/15/5 3/16/5
f 2/9/3 1/17/3 6/10/3
f 6/12/4 1/18/4 4/13/4
f 8/3/5 7/2/5 4/15/5
g wall.178_wall.021_metalDark.032
usemtl metalDark.032
f 8/19/6 2/20/6 5/21/6
f 8/19/6 3/22/6 2/20/6
o wall.179_wall.021
v 2.050003 22.500000 -4.500000
v 1.950003 22.500000 -4.500000
v 1.949999 22.500000 -11.500000
v 2.049999 22.500000 -11.500000
v 1.950002 26.500000 -4.500000
v 2.050003 26.500000 -4.500000
v 2.049999 26.500000 -11.500000
v 1.949998 26.500000 -11.500000
vt 0.000000 1.968504
vt 39.370079 0.000000
vt 39.370079 1.968504
vt -39.370079 0.000000
vt 0.000000 1.968504
vt -39.370079 1.968504
vt 0.000000 0.000000
vt 0.000000 0.000000
vt -39.370079 0.000000
vt -39.370079 0.000000
vt -39.370079 1.968504
vt -39.370079 50.768970
vt -39.370079 50.768970
vt 0.000000 50.768970
vt 39.370079 1.968504
vt 39.370079 0.000000
vt -39.370079 1.968504
vt 0.000000 50.768970
vt -39.370079 50.768970
vt 0.000000 0.000000
vt 0.000000 50.768970
vt -39.370079 0.000000
vn 0.0000 1.0000 0.0000
vn 0.0000 -1.0000 0.0000
vn 0.0000 0.0000 1.0000
vn 1.0000 0.0000 -0.0000
vn 0.0000 0.0000 -1.0000
vn -1.0000 -0.0000 0.0000
g wall.179_wall.021_wood.087
usemtl wood.087
s 1
f 13/23/7 15/24/7 16/25/7
f 12/26/8 10/27/8 11/28/8
f 13/23/7 14/29/7 15/24/7
f 12/26/8 9/30/8 10/27/8
g wall.179_wall.021__defaultMat.023
usemtl _defaultMat.023
f 10/31/9 14/32/9 13/33/9
f 14/34/10 12/35/10 15/36/10
f 16/25/11 12/37/11 11/38/11
f 10/31/9 9/39/9 14/32/9
f 14/34/10 9/40/10 12/35/10
f 16/25/11 15/24/11 12/37/11
g wall.179_wall.021_metalDark.032
usemtl metalDark.032
f 16/41/12 10/42/12 13/43/12
f 16/41/12 11/44/12 10/42/12
o wall.180_wall.021
v 4.000000 22.500000 -4.550001
v 4.000000 22.500000 -4.450001
v 2.000000 22.500000 -4.449999
v 2.000000 22.500000 -4.549999
v 4.000000 26.500000 -4.450000
v 4.000000 26.500000 -4.550001
v 2.000000 26.500000 -4.549998
v 2.000000 26.500000 -4.449998
vt 0.000000 1.968504
vt 39.370079 0.000000
vt 39.370079 1.968504
vt -39.370079 0.000000
vt 0.000000 1.968504
vt -39.370079 1.968504
vt 0.000000 0.000000
vt 0.000000 0.000000
vt -39.370079 0.000000
vt -39.370079 0.000000
vt -39.370079 1.968504
vt -39.370079 50.768970
vt -39.370079 50.768970
vt 0.000000 50.768970
vt 39.370079 1.968504
vt 39.370079 0.000000
vt -39.370079 1.968504
vt 0.000000 50.768970
vt -39.370079 50.768970
vt 0.000000 0.000000
vt 0.000000 50.768970
vt -39.370079 0.000000
vn 0.0000 1.0000 0.0000
vn 0.0000 -1.0000 0.0000
vn 1.0000 0.0000 0.0000
vn -0.0000 0.0000 -1.0000
vn -1.0000 0.0000 0.0000
vn 0.0000 -0.0000 1.0000
g wall.180_wall.021_wood.087
usemtl wood.087
s 1
f 21/45/13 23/46/13 24/47/13
f 20/48/14 18/49/14 19/50/14
f 21/45/13 22/51/13 23/46/13
f 20/48/14 17/52/14 18/49/14
g wall.180_wall.021__defaultMat.023
usemtl _defaultMat.023
f 18/53/15 22/54/15 21/55/15
f 22/56/16 20/57/16 23/58/16
f 24/47/17 20/59/17 19/60/17
f 18/53/15 17/61/15 22/54/15
f 22/56/16 17/62/16 20/57/16
f 24/47/17 23/46/17 20/59/17
g wall.180_wall.021_metalDark.032
usemtl metalDark.032
f 24/63/18 18/64/18 21/65/18
f 24/63/18 19/66/18 18/64/18
o wall.182_wall.010
v 2.050000 25.500000 -2.500000
v 1.950000 25.500000 -2.500000
v 1.949999 25.500000 -4.500000
v 2.049999 25.500000 -4.500000
v 1.949999 28.542204 -2.500000
v 2.050000 28.542204 -2.500000
v 2.049999 28.542204 -4.500000
v 1.949999 28.542204 -4.500000
v 2.000000 25.500000 -2.450000
v 1.999999 28.542204 -4.550000
v 1.999999 25.500000 -4.550000
v 2.000000 28.542204 -2.450000
vt -39.370079 0.984252
vt -39.370079 0.000000
vt -39.370079 0.984252
vt 0.000000 0.000000
vt 39.370079 0.984252
vt 0.000000 0.984252
vt -39.370079 50.768970
vt -39.370079 50.768970
vt 0.000000 50.768970
vt -39.370079 0.000000
vt 0.000000 0.984252
vt -39.370079 0.984252
vt 39.370079 1.968504
vt 39.370079 0.984252
vt -39.370079 50.768970
vt 0.000000 0.000000
vt 0.000000 50.768970
vt 39.370079 1.968504
vt 39.370079 0.000000
vt 0.000000 1.968504
vt -39.370079 1.968504
vt 0.000000 1.968504
vt -39.370079 0.000000
vt -39.370079 1.968504
vt -39.370079 1.968504
vt 39.370079 0.000000
vt 0.000000 50.768970
vt 0.000000 0.000000
vt -39.370079 0.000000
vn 0.0000 -0.0000 1.0000
vn 0.7071 0.0000 0.7071
vn 0.0000 1.0000 -0.0000
vn 1.0000 0.0000 -0.0000
vn 0.0000 -1.0000 0.0000
vn 0.0000 0.0000 -1.0000
vn 0.7071 0.0000 -0.7071
vn -1.0000 -0.0000 0.0000
vn -0.7071 -0.0000 -0.7071
vn -0.7071 -0.0000 0.7071
g wall.182_wall.010_metalDark.032
usemtl metalDark.032
s 1
f 33/67/19 30/68/20 36/69/19
f 30/70/21 34/71/21 36/72/21
f 30/73/22 28/74/22 31/75/22
f 28/76/23 33/77/23 35/78/23
f 34/71/24 28/79/25 35/80/24
f 32/81/26 26/82/26 29/83/26
f 32/84/27 35/80/24 27/85/27
f 35/78/23 26/86/23 27/87/23
f 36/72/21 32/84/21 29/88/21
f 26/89/28 36/69/19 29/90/28
f 33/67/19 25/91/20 30/68/20
f 30/70/21 31/92/21 34/71/21
f 30/73/22 25/93/22 28/74/22
f 28/76/23 25/94/23 33/77/23
f 34/71/24 31/92/25 28/79/25
f 32/81/26 27/95/26 26/82/26
f 32/84/27 34/71/24 35/80/24
f 35/78/23 33/77/23 26/86/23
f 36/72/21 34/71/21 32/84/21
f 26/89/28 33/67/19 36/69/19
o wall.183_wall.010
v 4.000000 25.549999 -4.500000
v 4.000000 25.449999 -4.500000
v 2.000000 25.449999 -4.500000
v 2.000000 25.549999 -4.500000
v 4.000000 25.449999 -2.500000
v 4.000000 25.549999 -2.500000
v 2.000000 25.549997 -2.500000
v 2.000000 25.449999 -2.500000
v 4.050000 25.500000 -4.500000
v 1.950000 25.499998 -2.500000
v 1.950000 25.499998 -4.500000
v 4.050000 25.499998 -2.500000
vt -39.370079 0.984252
vt -39.370079 0.000000
vt -39.370079 0.984252
vt 0.000000 0.000000
vt 39.370079 0.984252
vt 0.000000 0.984252
vt -39.370079 50.768970
vt -39.370079 50.768970
vt 0.000000 50.768970
vt -39.370079 0.000000
vt 0.000000 0.984252
vt -39.370079 0.984252
vt 39.370079 1.968504
vt 39.370079 0.984252
vt -39.370079 50.768970
vt 0.000000 0.000000
vt 0.000000 50.768970
vt 39.370079 1.968504
vt 39.370079 0.000000
vt 0.000000 1.968504
vt -39.370079 1.968504
vt 0.000000 1.968504
vt -39.370079 0.000000
vt -39.370079 1.968504
vt -39.370079 1.968504
vt 39.370079 0.000000
vt 0.000000 50.768970
vt 0.000000 0.000000
vt -39.370079 0.000000
vn 1.0000 0.0000 0.0000
vn 0.7071 0.7071 0.0000
vn 0.0000 0.0000 1.0000
vn -0.0000 1.0000 0.0000
vn 0.0000 0.0000 -1.0000
vn -1.0000 -0.0000 0.0000
vn -0.7071 0.7071 0.0000
vn 0.0000 -1.0000 0.0000
vn -0.7071 -0.7071 0.0000
vn 0.7071 -0.7071 0.0000
g wall.183_wall.010_metalDark.032
usemtl metalDark.032
s 1
f 45/96/29 42/97/30 48/98/29
f 42/99/31 46/100/31 48/101/31
f 42/102/32 40/103/32 43/104/32
f 40/105/33 45/106/33 47/107/33
f 46/100/34 40/108/35 47/109/34
f 44/110/36 38/111/36 41/112/36
f 44/113/37 47/109/34 39/114/37
f 47/107/33 38/115/33 39/116/33
f 48/101/31 44/113/31 41/117/31
f 38/118/38 48/98/29 41/119/38
f 45/96/29 37/120/30 42/97/30
f 42/99/31 43/121/31 46/100/31
f 42/102/32 37/122/32 40/103/32
f 40/105/33 37/123/33 45/106/33
f 46/100/34 43/121/35 40/108/35
f 44/110/36 39/124/36 38/111/36
f 44/113/37 46/100/34 47/109/34
f 47/107/33 45/106/33 38/115/33
f 48/101/31 46/100/31 44/113/31
f 38/118/38 45/96/29 48/98/29
o wall.184_wall.021
v 1.000000 22.500000 -12.550011
v 1.000000 22.500000 -12.450010
v -16.000000 22.500000 -12.449999
v -16.000000 22.500000 -12.549999
v 1.000000 26.500000 -12.450010
v 1.000000 26.500000 -12.550011
v -16.000000 26.500000 -12.549998
v -16.000000 26.500000 -12.449999
vt 0.000000 1.968504
vt 39.370079 0.000000
vt 39.370079 1.968504
vt -39.370079 0.000000
vt 0.000000 1.968504
vt -39.370079 1.968504
vt 0.000000 0.000000
vt 0.000000 0.000000
vt -39.370079 0.000000
vt -39.370079 0.000000
vt -39.370079 1.968504
vt -39.370079 50.768970
vt -39.370079 50.768970
vt 0.000000 50.768970
vt 39.370079 1.968504
vt 39.370079 0.000000
vt -39.370079 1.968504
vt 0.000000 50.768970
vt -39.370079 50.768970
vt 0.000000 0.000000
vt 0.000000 50.768970
vt -39.370079 0.000000
vn 0.0000 1.0000 0.0000
vn 0.0000 -1.0000 0.0000
vn 1.0000 0.0000 0.0000
vn -0.0000 0.0000 -1.0000
vn -1.0000 0.0000 0.0000
vn 0.0000 0.0000 1.0000
g wall.184_wall.021_wood.087
usemtl wood.087
s 1
f 53/125/39 55/126/39 56/127/39
f 52/128/40 50/129/40 51/130/40
f 53/125/39 54/131/39 55/126/39
f 52/128/40 49/132/40 50/129/40
g wall.184_wall.021__defaultMat.023
usemtl _defaultMat.023
f 50/133/41 54/134/41 53/135/41
f 54/136/42 52/137/42 55/138/42
f 56/127/43 52/139/43 51/140/43
f 50/133/41 49/141/41 54/134/41
f 54/136/42 49/142/42 52/137/42
f 56/127/43 55/126/43 52/139/43
g wall.184_wall.021_metalDark.032
usemtl metalDark.032
f 56/143/44 50/144/44 53/145/44
f 56/143/44 51/146/44 50/144/44
o wall.185_wall.021
v -18.050007 22.500000 -12.500000
v -17.950006 22.500000 -12.500000
v -17.949999 22.500000 -3.500000
v -18.049999 22.500000 -3.500000
v -17.950006 26.500000 -12.500000
v -18.050007 26.500000 -12.500000
v -18.049999 26.500000 -3.500000
v -17.949999 26.500000 -3.500000
vt 0.000000 1.968504
vt 39.370079 0.000000
vt 39.370079 1.968504
vt -39.370079 0.000000
vt 0.000000 1.968504
vt -39.370079 1.968504
vt 0.000000 0.000000
vt 0.000000 0.000000
vt -39.370079 0.000000
vt -39.370079 0.000000
vt -39.370079 1.968504
vt -39.370079 50.768970
vt -39.370079 50.768970
vt 0.000000 50.768970
vt 39.370079 1.968504
vt 39.370079 0.000000
vt -39.370079 1.968504
vt 0.000000 50.768970
vt -39.370079 50.768970
vt 0.000000 0.000000
vt 0.000000 50.768970
vt -39.370079 0.000000
vn 0.0000 1.0000 0.0000
vn 0.0000 -1.0000 0.0000
vn 0.0000 0.0000 -1.0000
vn -1.0000 0.0000 0.0000
vn 0.0000 0.0000 1.0000
vn 1.0000 0.0000 -0.0000
g wall.185_wall.021_wood.087
usemtl wood.087
s 1
f 61/147/45 63/148/45 64/149/45
f 60/150/46 58/151/46 59/152/46
f 61/147/45 62/153/45 63/148/45
f 60/150/46 57/154/46 58/151/46
g wall.185_wall.021__defaultMat.023
usemtl _defaultMat.023
f 58/155/47 62/156/47 61/157/47
f 62/158/48 60/159/48 63/160/48
f 64/149/49 60/161/49 59/162/49
f 58/155/47 57/163/47 62/156/47
f 62/158/48 57/164/48 60/159/48
f 64/149/49 63/148/49 60/161/49
g wall.185_wall.021_metalDark.032
usemtl metalDark.032
f 64/165/50 58/166/50 61/167/50
f 64/165/50 59/168/50 58/166/50
o wall.177_wall.020
v 1.850000 22.500000 -12.450001
v 1.850000 26.500000 -12.450001
v 0.950000 22.500000 -12.450000
v 1.950000 22.500000 -12.350000
v 1.950001 22.500000 -11.500001
v 1.950001 26.500000 -11.500001
v 1.950000 26.500000 -12.350000
v 2.050001 22.500000 -11.500001
v 2.050000 22.500000 -12.350000
v 2.050000 26.500000 -12.350000
v 2.050001 26.500000 -11.500001
v 1.000000 22.500000 -12.549999
v 1.850000 26.500000 -12.550001
v 1.850000 22.500000 -12.550001
v 1.000000 22.500000 -12.450000
v 1.000000 26.500000 -12.450000
v 1.000000 26.500000 -12.549999
vt -39.370079 1.968504
vt -39.370079 0.000000
vt 0.000000 0.000000
vt -17.716539 50.768970
vt 0.000000 0.000000
vt 0.000000 50.768970
vt -21.653540 50.768970
vt -3.937008 -0.000000
vt -3.937008 50.768970
vt -16.703310 -0.000000
vt -13.919430 50.768970
vt -16.703310 50.768970
vt -17.716539 0.000000
vt -21.653540 0.000000
vt -13.919430 0.000000
vt 19.685040 21.653540
vt 19.685040 3.937008
vt 21.653540 21.653540
vt 19.685040 21.653540
vt 19.685040 3.937008
vt 21.653540 21.653540
vt -17.716539 50.768970
vt -17.716539 50.768970
vt -17.716539 50.768970
vt 0.000000 50.768970
vt -21.653540 21.653540
vt -21.653540 21.653540
vt -19.685040 3.937008
vt -21.653540 21.653540
vt -21.653540 21.653540
vt -19.685040 3.937008
vt 0.000000 50.768970
vt -19.685040 3.937008
vt -19.685040 3.937008
vt 19.685040 3.937008
vt 17.716539 1.968504
vt 17.716539 0.000000
vt -21.653540 3.937008
vt -17.716539 0.000000
vt -19.685040 3.937008
vt 21.653540 3.937008
vt 21.653540 21.653540
vt 0.000000 1.968504
vt 0.000000 0.000000
vt -19.685040 21.653540
vt -21.653540 21.653540
vt 0.000000 0.000000
vt 0.000000 1.968504
vt -17.716539 1.968504
vn 1.0000 -0.0000 -0.0000
vn -1.0000 -0.0000 0.0000
vn 0.0000 -0.0000 1.0000
vn -0.7071 -0.0000 0.7071
vn -0.8993 0.0108 -0.4373
vn -0.8944 0.0112 -0.4472
vn -0.9999 -0.0048 -0.0123
vn -0.9999 0.0005 -0.0123
vn -0.8992 0.0155 -0.4373
vn 0.7071 0.0000 -0.7071
vn -0.0000 0.0000 -1.0000
vn 0.0000 1.0000 0.0000
vn 0.0000 -1.0000 0.0000
g wall.177_wall.020__defaultMat.023
usemtl _defaultMat.023
s 1
f 80/169/51 79/170/51 76/171/51
g wall.177_wall.020_metalDark.030
usemtl metalDark.030
f 71/172/52 69/173/52 70/174/52
f 80/175/53 65/176/53 66/177/53
f 65/178/54 71/179/54 66/180/54
f 71/172/52 68/181/52 69/173/52
f 80/175/53 67/182/53 65/176/53
f 65/178/54 68/183/54 71/179/54
g wall.177_wall.020__defaultMat.021
usemtl _defaultMat.021
f 76/184/55 67/185/56 80/186/57
f 80/187/58 81/188/52 76/189/59
f 69/190/53 75/191/53 70/174/53
f 73/192/51 75/191/51 72/193/51
f 73/194/60 77/195/60 74/196/60
f 81/197/61 78/198/61 76/199/61
f 69/190/53 72/193/53 75/191/53
f 73/192/51 74/200/51 75/191/51
f 73/194/60 78/201/60 77/195/60
f 81/197/61 77/202/61 78/198/61
g wall.177_wall.020_wood.083
usemtl wood.083
f 66/203/62 71/204/62 74/205/62
f 78/206/63 73/207/63 65/208/63
f 77/209/62 81/210/62 80/187/62
f 77/209/62 80/187/62 66/203/62
f 70/211/62 75/212/62 71/204/62
f 75/212/62 74/205/62 71/204/62
f 77/209/62 66/203/62 74/205/62
f 67/213/63 76/214/63 65/208/63
f 76/214/63 78/206/63 65/208/63
f 73/207/63 72/215/63 69/216/63
f 73/207/63 69/216/63 68/217/63
f 73/207/63 68/217/63 65/208/63
o wall.314_wall.020
v -17.850000 22.500000 -2.549999
v -17.850000 26.500000 -2.549999
v -16.950001 22.500000 -2.550000
v -17.950001 22.500000 -2.649999
v -17.950001 22.500000 -3.499999
v -17.950001 26.500000 -3.499999
v -17.949999 26.500000 -2.649999
v -18.050001 22.500000 -3.499999
v -18.049999 22.500000 -2.649999
v -18.049999 26.500000 -2.649999
v -18.050001 26.500000 -3.499999
v -17.000000 22.500000 -2.450000
v -17.850000 26.500000 -2.449999
v -17.850000 22.500000 -2.449999
v -17.000000 22.500000 -2.550000
v -17.000000 26.500000 -2.550000
v -17.000000 26.500000 -2.450000
vt -39.370079 1.968504
vt -39.370079 0.000000
vt 0.000000 0.000000
vt -17.716539 50.768970
vt 0.000000 0.000000
vt 0.000000 50.768970
vt -21.653540 50.768970
vt -3.937008 -0.000000
vt -3.937008 50.768970
vt -16.703310 -0.000000
vt -13.919430 50.768970
vt -16.703310 50.768970
vt -17.716539 0.000000
vt -21.653540 0.000000
vt -13.919430 0.000000
vt 19.685040 21.653540
vt 19.685040 3.937008
vt 21.653540 21.653540
vt 19.685040 21.653540
vt 19.685040 3.937008
vt 21.653540 21.653540
vt -17.716539 50.768970
vt -17.716539 50.768970
vt -17.716539 50.768970
vt 0.000000 50.768970
vt -21.653540 21.653540
vt -21.653540 21.653540
vt -19.685040 3.937008
vt -21.653540 21.653540
vt -21.653540 21.653540
vt -19.685040 3.937008
vt 0.000000 50.768970
vt -19.685040 3.937008
vt -19.685040 3.937008
vt 19.685040 3.937008
vt 17.716539 1.968504
vt 17.716539 0.000000
vt -21.653540 3.937008
vt -17.716539 0.000000
vt -19.685040 3.937008
vt 21.653540 3.937008
vt 21.653540 21.653540
vt 0.000000 1.968504
vt 0.000000 0.000000
vt -19.685040 21.653540
vt -21.653540 21.653540
vt 0.000000 0.000000
vt 0.000000 1.968504
vt -17.716539 1.968504
vn -1.0000 0.0000 0.0000
vn 1.0000 0.0000 -0.0000
vn -0.0000 -0.0000 -1.0000
vn 0.7071 -0.0000 -0.7071
vn 0.8993 0.0108 0.4373
vn 0.8944 0.0112 0.4472
vn 0.9999 -0.0048 0.0123
vn 0.9999 0.0005 0.0123
vn 0.8992 0.0155 0.4373
vn -0.7071 0.0000 0.7071
vn 0.0000 0.0000 1.0000
vn 0.0000 1.0000 0.0000
vn 0.0000 -1.0000 0.0000
g wall.314_wall.020__defaultMat.023
usemtl _defaultMat.023
s 1
f 97/218/64 96/219/64 93/220/64
g wall.314_wall.020_metalDark.030
usemtl metalDark.030
f 88/221/65 86/222/65 87/223/65
f 97/224/66 82/225/66 83/226/66
f 82/227/67 88/228/67 83/229/67
f 88/221/65 85/230/65 86/222/65
f 97/224/66 84/231/66 82/225/66
f 82/227/67 85/232/67 88/228/67
g wall.314_wall.020__defaultMat.021
usemtl _defaultMat.021
f 93/233/68 84/234/69 97/235/70
f 97/236/71 98/237/65 93/238/72
f 86/239/66 92/240/66 87/223/66
f 90/241/64 92/240/64 89/242/64
f 90/243/73 94/244/73 91/245/73
f 98/246/74 95/247/74 93/248/74
f 86/239/66 89/242/66 92/240/66
f 90/241/64 91/249/64 92/240/64
f 90/243/73 95/250/73 94/244/73
f 98/246/74 94/251/74 95/247/74
g wall.314_wall.020_wood.083
usemtl wood.083
f 83/252/75 88/253/75 91/254/75
f 95/255/76 90/256/76 82/257/76
f 94/258/75 98/259/75 97/236/75
f 94/258/75 97/236/75 83/252/75
f 87/260/75 92/261/75 88/253/75
f 92/261/75 91/254/75 88/253/75
f 94/258/75 83/252/75 91/254/75
f 84/262/76 93/263/76 82/257/76
f 93/263/76 95/255/76 82/257/76
f 90/256/76 89/264/76 86/265/76
f 90/256/76 86/265/76 85/266/76
f 90/256/76 85/266/76 82/257/76
o result.031_Cube.051
v 1.999992 22.500000 -12.500000
v 1.999992 26.500000 -12.500000
v 1.999996 26.500000 -2.500000
v -18.000008 22.500000 -12.499992
v -18.000008 26.500000 -12.499992
v -18.000004 22.500000 -2.499993
v -18.000004 26.500000 -2.499993
v 2.000000 22.500000 -4.500000
v 4.000000 22.500000 -2.500000
v 4.000000 22.500000 -4.500000
vt 0.348150 0.511627
vt 0.333795 0.511627
vt 0.333795 0.465115
vt 0.276366 0.000000
vt 0.348150 0.000000
vt 0.820542 0.465116
vt 0.748758 0.000000
vt 0.820542 0.000000
vt 0.748758 0.465116
vt 0.276366 0.465115
vn 0.0000 1.0000 0.0000
vn 0.0000 -1.0000 0.0000
g result.031_Cube.051_wood
usemtl wood
s off
f 107/267/77 108/268/77 106/269/77
f 102/270/77 104/271/77 106/269/77
f 104/271/77 107/267/77 106/269/77
f 105/272/78 100/273/78 101/274/78
f 105/272/78 103/275/78 100/273/78
f 106/269/77 99/276/77 102/270/77
