# Blender v2.93.10 OBJ File: 'map models.blend'
# www.blender.org
mtllib room 10.mtl
o result.006_Cube.006
v 7.000006 22.500000 -9.000004
v 9.000006 22.500000 -9.000004
v 4.000000 26.500000 -9.000004
v 4.000000 22.500000 -9.000004
v 13.000006 22.500000 -9.000004
v 13.000006 22.500000 9.999996
v 4.000000 22.500000 9.999996
v 7.000006 25.500000 -9.000004
v 9.000006 25.500000 -9.000004
v 4.000000 26.500000 9.999996
v 13.000006 26.500000 -9.000004
v 13.000006 26.500000 9.999996
v 7.000006 22.500000 -11.000000
v 7.000006 25.500000 -11.000000
v 9.000006 22.500000 -11.000000
v 9.000006 25.500000 -11.000000
v 4.000000 22.500000 -2.500000
v 4.000000 22.500000 -4.500000
v 4.000000 25.500000 -2.500000
v 4.000000 25.500000 -4.500000
vt 0.920487 0.604651
vt 0.708449 0.748746
vt 0.708449 0.748746
vt 0.791414 0.744186
vt 0.812950 0.790697
vt 0.812950 0.790697
vt 0.812950 0.790697
vt 0.834484 0.790697
vt 0.834484 0.790697
vt 0.863612 0.000000
vt 0.812949 0.744186
vt 0.791414 0.790697
vt 0.791414 0.744186
vt 0.834484 0.744186
vt 0.812950 0.744186
vt 0.729984 0.748746
vt 0.729984 0.748746
vt 0.885147 0.000000
vt 0.812949 0.744186
vt 0.927665 0.639535
vt 0.885147 0.000000
vt 0.834484 0.790697
vt 0.812949 0.790697
vt 0.333795 0.511627
vt 0.348150 0.511627
vt 0.301492 0.627907
vt 0.287135 0.627907
vt 0.287135 0.581394
vt 0.834484 0.790697
vt 0.812949 0.744186
vt 0.834484 0.790697
vt 0.927665 0.686047
vt 0.942022 0.639535
vt 0.942022 0.686047
vt 0.885147 0.000000
vn 1.0000 0.0000 0.0000
vn 0.0000 0.0000 1.0000
vn -1.0000 0.0000 0.0000
vn 0.0000 0.0000 -1.0000
vn 0.0000 1.0000 0.0000
vn 0.0000 -1.0000 0.0000
g result.006_Cube.006_wall
usemtl wall
s off
f 19/1/1 20/2/1 3/3/1
f 3/4/2 9/5/2 11/6/2
f 12/7/3 5/8/3 6/9/3
f 6/9/4 10/10/4 12/7/4
f 1/11/1 14/12/1 8/13/1
f 15/14/3 9/5/3 16/15/3
f 18/16/1 4/17/1 20/2/1
f 10/10/1 7/18/1 19/1/1
f 10/10/1 19/1/1 3/3/1
f 4/17/1 3/3/1 20/2/1
f 4/19/2 1/11/2 8/20/2
f 3/4/2 4/19/2 8/20/2
f 7/18/1 17/21/1 19/1/1
f 2/22/2 5/8/2 9/5/2
f 5/8/2 11/6/2 9/5/2
f 3/4/2 8/20/2 9/5/2
f 12/7/3 11/6/3 5/8/3
f 6/9/4 7/18/4 10/10/4
f 1/11/1 13/23/1 14/12/1
f 15/14/3 2/22/3 9/5/3
g result.006_Cube.006_bottom
usemtl bottom
f 18/24/5 17/25/5 2/26/5
f 2/26/5 15/27/5 13/28/5
f 1/11/5 4/17/5 18/24/5
f 2/26/5 13/28/5 1/11/5
f 6/9/5 5/8/5 17/25/5
f 5/8/5 2/26/5 17/25/5
f 17/25/5 7/18/5 6/9/5
f 1/11/5 18/24/5 2/26/5
g result.006_Cube.006_top
usemtl top
f 12/29/6 3/30/6 11/31/6
f 9/32/6 14/33/6 16/34/6
f 12/29/6 10/35/6 3/30/6
f 9/32/6 8/20/6 14/33/6
