# Blender v2.93.10 OBJ File: 'map models.blend'
# www.blender.org
mtllib room 9.mtl
o result.007_Cube.007
v 0.999993 22.500000 -47.500000
v 0.999993 25.500000 -47.500000
v 0.999993 22.500000 -45.500000
v 0.999993 25.500000 -45.500000
v 4.000000 25.500000 -47.500000
v 4.000000 22.500000 -45.500000
v 4.000000 22.500000 -47.500000
v 0.999993 22.500000 -54.500000
v 0.999993 25.500000 -54.500000
v 0.999993 22.500000 -36.500000
v 0.999993 25.500000 -36.500000
v -20.000008 22.500000 -54.500000
v -20.000008 25.500000 -54.500000
v -20.000008 22.500000 -36.500000
v -20.000008 25.500000 -36.500000
v 4.000000 25.500000 -45.500000
vt 0.834898 0.662791
vt 0.856433 0.662791
vt 0.856433 0.662791
vt 0.856433 0.732558
vt 0.928216 0.465118
vt 0.906682 0.511627
vt 0.906682 0.465118
vt 0.586416 0.767442
vt 0.564882 0.767442
vt 0.564882 0.767442
vt 0.039481 0.441860
vt 0.025124 0.441860
vt 0.039481 0.441860
vt 0.025124 0.441860
vt 0.643845 0.702234
vt 0.629488 0.702234
vt 0.643845 0.702234
vt 0.586416 0.767442
vt 0.564882 0.697674
vt 0.586416 0.697674
vt 0.629488 0.702234
vt 0.834898 0.662791
vt 0.856433 0.662791
vt 0.834898 0.732558
vt 0.928216 0.511627
vt 0.586416 0.767442
vt 0.564882 0.767442
vt 0.834898 0.662791
vt 0.039481 0.441860
vt 0.025124 0.441860
vt 0.039481 0.511627
vt 0.025124 0.511627
vt 0.629488 0.772002
vt 0.643845 0.772002
vt 0.643845 0.702234
vt 0.629488 0.702234
vn -1.0000 0.0000 0.0000
vn 0.0000 0.0000 1.0000
vn 1.0000 0.0000 0.0000
vn 0.0000 0.0000 -1.0000
vn 0.0000 1.0000 0.0000
vn 0.0000 -1.0000 0.0000
g result.007_Cube.007_wall
usemtl wall
s off
f 2/1/1 8/2/1 1/3/1
f 7/4/2 2/1/2 1/3/2
f 14/5/3 13/6/3 15/7/3
f 10/8/4 15/9/4 11/10/4
f 3/11/2 8/12/2 10/13/2
f 3/11/2 1/14/2 8/12/2
f 2/15/2 11/16/2 9/17/2
f 3/18/4 16/19/4 6/20/4
f 2/15/2 4/21/2 11/16/2
f 11/10/1 3/18/1 10/8/1
f 9/22/2 12/23/2 8/2/2
f 2/1/1 9/22/1 8/2/1
f 7/4/2 5/24/2 2/1/2
f 14/5/3 12/25/3 13/6/3
f 10/8/4 14/26/4 15/9/4
f 3/18/4 4/27/4 16/19/4
f 11/10/1 4/27/1 3/18/1
f 9/22/2 13/28/2 12/23/2
g result.007_Cube.007_bottom
usemtl bottom
f 14/29/5 8/12/5 12/30/5
f 1/14/5 3/11/5 6/31/5
f 7/32/5 1/14/5 6/31/5
f 14/29/5 10/13/5 8/12/5
g result.007_Cube.007_top
usemtl top
f 16/33/6 2/15/6 5/34/6
f 13/35/6 11/16/6 15/36/6
f 16/33/6 4/21/6 2/15/6
f 13/35/6 9/17/6 11/16/6
