# Blender v2.93.10 OBJ File: 'map models.blend'
# www.blender.org
mtllib room 8.mtl
o result.009_Cube.009
v -16.000010 22.500000 -24.499992
v -18.000008 25.500000 -23.499992
v -16.000010 22.500000 -23.499992
v -16.000010 25.500000 -23.499992
v 1.999992 22.500000 -31.500000
v 1.999991 22.500000 -33.500000
v 1.999992 25.500000 -31.500000
v 1.999991 25.500000 -33.500000
v 4.000000 22.500000 -31.500000
v 4.000000 25.500000 -31.500000
v 4.000000 22.500000 -33.500000
v 4.000000 25.500000 -33.500000
v 1.999990 22.500000 -34.500000
v 1.999990 26.500000 -34.500000
v 1.999994 22.500000 -24.500000
v 1.999994 26.500000 -24.500000
v -18.000010 22.500000 -34.499992
v -18.000010 26.500000 -34.499992
v -18.000006 26.500000 -24.499992
v -16.000010 25.500000 -24.499992
v -18.000006 25.500000 -24.499992
v -18.000006 22.500000 -23.499992
vt 0.791414 0.697674
vt 0.812949 0.744186
vt 0.791414 0.744186
vt 0.856433 0.783401
vt 0.870513 0.747833
vt 0.870513 0.783401
vt 0.913860 0.000000
vt 0.913860 0.418605
vt 0.892326 0.418605
vt 0.423523 0.474236
vt 0.430701 0.544006
vt 0.423523 0.706795
vt 0.834484 0.744186
vt 0.812950 0.697674
vt 0.834484 0.697674
vt 0.942573 0.000000
vt 0.971287 0.465115
vt 0.942573 0.465115
vt 0.536168 0.802322
vt 0.536168 0.569767
vt 0.543347 0.605401
vt 0.607952 0.697674
vt 0.564882 0.581837
vt 0.564882 0.802322
vt 0.812949 0.697674
vt 0.856433 0.747833
vt 0.892326 0.465116
vt 0.885147 0.465116
vt 0.885147 0.000000
vt 0.452236 0.474236
vt 0.430701 0.497490
vt 0.452236 0.497490
vt 0.452236 0.544006
vt 0.452236 0.706795
vt 0.812950 0.744186
vt 0.971287 0.000000
vt 0.186501 0.000000
vt 0.190227 0.046513
vt 0.118443 0.000000
vt 0.190227 0.465115
vt 0.139977 0.465115
vt 0.118443 0.465115
vt 0.125622 0.465115
vt 0.125622 0.511627
vt 0.139977 0.511627
vt 0.197406 0.046513
vt 0.459416 0.753306
vt 0.445058 0.706794
vt 0.459416 0.706794
vt 0.884595 0.653899
vt 0.856434 0.642043
vt 0.884595 0.642043
vt 0.679736 0.702234
vt 0.607952 0.237118
vt 0.679736 0.237118
vt 0.445058 0.753306
vt 0.856434 0.653899
vt 0.607952 0.702234
vn 0.0000 0.0000 1.0000
vn -1.0000 0.0000 0.0000
vn -0.0000 0.0000 -1.0000
vn 1.0000 0.0000 -0.0000
vn 0.0000 1.0000 0.0000
vn 0.0000 -1.0000 0.0000
g result.009_Cube.009_wall
usemtl wall
s off
f 8/1/1 11/2/1 12/3/1
f 20/4/2 3/5/2 4/6/2
f 15/7/3 1/8/3 20/9/3
f 14/10/2 7/11/2 16/12/2
f 5/13/3 10/14/3 9/15/3
f 18/16/1 13/17/1 14/18/1
f 18/19/4 19/20/4 21/21/4
f 21/21/4 2/22/4 22/23/4
f 17/24/4 18/19/4 21/21/4
f 22/23/4 17/24/4 21/21/4
f 8/1/1 6/25/1 11/2/1
f 20/4/2 1/26/2 3/5/2
f 20/9/3 21/27/3 19/28/3
f 19/28/3 16/29/3 20/9/3
f 16/29/3 15/7/3 20/9/3
f 14/10/2 13/30/2 8/31/2
f 13/30/2 6/32/2 8/31/2
f 5/33/2 15/34/2 7/11/2
f 15/34/2 16/12/2 7/11/2
f 14/10/2 8/31/2 7/11/2
f 5/13/3 7/35/3 10/14/3
f 18/16/1 17/36/1 13/17/1
g result.009_Cube.009_bottom
usemtl bottom
f 22/37/5 1/38/5 17/39/5
f 1/38/5 15/40/5 5/41/5
f 13/42/5 17/39/5 6/43/5
f 17/39/5 1/38/5 5/41/5
f 6/43/5 17/39/5 5/41/5
f 11/44/5 6/43/5 5/41/5
f 11/44/5 5/41/5 9/45/5
f 22/37/5 3/46/5 1/38/5
g result.009_Cube.009_top
usemtl top
f 12/47/6 7/48/6 8/49/6
f 21/50/6 4/51/6 2/52/6
f 19/53/6 14/54/6 16/55/6
f 12/47/6 10/56/6 7/48/6
f 21/50/6 20/57/6 4/51/6
f 19/53/6 18/58/6 14/54/6
