# Blender v2.93.10 OBJ File: 'drill_clamp.blend'
# www.blender.org
mtllib room 8.mtl
o wall.202_wall.021
v 1.950002 26.500004 -25.499996
v 2.049999 26.500006 -31.499996
v 1.949998 26.500006 -31.499996
v 2.049999 22.500006 -31.499996
v 1.950002 22.500004 -25.499996
v 1.949999 22.500006 -31.499996
v 2.050002 26.500004 -25.499996
v 2.050003 22.500004 -25.499996
vt 0.000000 1.968504
vt 39.370079 0.000000
vt 39.370079 1.968504
vt -39.370079 0.000000
vt 0.000000 1.968504
vt -39.370079 1.968504
vt 0.000000 0.000000
vt 0.000000 0.000000
vt -39.370079 0.000000
vt -39.370079 0.000000
vt -39.370079 1.968504
vt -39.370079 50.768970
vt -39.370079 50.768970
vt 0.000000 50.768970
vt 39.370079 1.968504
vt 39.370079 0.000000
vt -39.370079 1.968504
vt 0.000000 50.768970
vt -39.370079 50.768970
vt 0.000000 0.000000
vt 0.000000 50.768970
vt -39.370079 0.000000
vn 0.0000 1.0000 0.0000
vn 0.0000 -1.0000 -0.0000
vn 0.0000 0.0000 1.0000
vn 1.0000 0.0000 -0.0000
vn 0.0000 0.0000 -1.0000
vn -1.0000 -0.0000 0.0000
g wall.202_wall.021_wall.202_wall.021_wood.087
usemtl wood.087
s 1
f 1/1/1 2/2/1 3/3/1
f 4/4/2 5/5/2 6/6/2
f 1/1/1 7/7/1 2/2/1
f 4/4/2 8/8/2 5/5/2
g wall.202_wall.021_wall.202_wall.021__defaultMat.023
usemtl _defaultMat.023
f 5/9/3 7/10/3 1/11/3
f 7/12/4 4/13/4 2/14/4
f 3/3/5 4/15/5 6/16/5
f 5/9/3 8/17/3 7/10/3
f 7/12/4 8/18/4 4/13/4
f 3/3/5 2/2/5 4/15/5
g wall.202_wall.021_wall.202_wall.021_metalDark.032
usemtl metalDark.032
f 3/19/6 5/20/6 1/21/6
f 3/19/6 6/22/6 5/20/6
o wall.204_wall.021
v 1.000000 26.500006 -34.450008
v -17.000000 26.500006 -34.549995
v -17.000000 26.500006 -34.449993
v -17.000000 22.500006 -34.549995
v 1.000000 22.500006 -34.450008
v -17.000000 22.500006 -34.449997
v 1.000000 26.500006 -34.550007
v 1.000000 22.500006 -34.550007
vt 0.000000 1.968504
vt 39.370079 0.000000
vt 39.370079 1.968504
vt -39.370079 0.000000
vt 0.000000 1.968504
vt -39.370079 1.968504
vt 0.000000 0.000000
vt 0.000000 0.000000
vt -39.370079 0.000000
vt -39.370079 0.000000
vt -39.370079 1.968504
vt -39.370079 50.768970
vt -39.370079 50.768970
vt 0.000000 50.768970
vt 39.370079 1.968504
vt 39.370079 0.000000
vt -39.370079 1.968504
vt 0.000000 50.768970
vt -39.370079 50.768970
vt 0.000000 0.000000
vt 0.000000 50.768970
vt -39.370079 0.000000
vn 0.0000 1.0000 0.0000
vn 0.0000 -1.0000 0.0000
vn 1.0000 0.0000 0.0000
vn -0.0000 0.0000 -1.0000
vn -1.0000 0.0000 0.0000
vn 0.0000 -0.0000 1.0000
g wall.204_wall.021_wall.204_wall.021_wood.087
usemtl wood.087
s 1
f 9/23/7 10/24/7 11/25/7
f 12/26/8 13/27/8 14/28/8
f 9/23/7 15/29/7 10/24/7
f 12/26/8 16/30/8 13/27/8
g wall.204_wall.021_wall.204_wall.021__defaultMat.023
usemtl _defaultMat.023
f 13/31/9 15/32/9 9/33/9
f 15/34/10 12/35/10 10/36/10
f 11/25/11 12/37/11 14/38/11
f 13/31/9 16/39/9 15/32/9
f 15/34/10 16/40/10 12/35/10
f 11/25/11 10/24/11 12/37/11
g wall.204_wall.021_wall.204_wall.021_metalDark.032
usemtl metalDark.032
f 11/41/12 13/42/12 9/43/12
f 11/41/12 14/44/12 13/42/12
o wall.206_wall.010
v 2.000000 25.500006 -31.449997
v 2.050000 28.542210 -31.499996
v 2.000000 28.542210 -31.449997
v 1.999999 28.542210 -33.549995
v 2.049999 25.500006 -33.499996
v 2.049999 28.542210 -33.499996
v 1.999999 25.500006 -33.549995
v 1.949999 28.542210 -33.499996
v 1.950000 25.500006 -31.499996
v 1.949999 28.542210 -31.499996
v 1.949999 25.500006 -33.499996
v 2.050000 25.500006 -31.499996
vt -39.370079 0.984252
vt -39.370079 0.000000
vt -39.370079 0.984252
vt 0.000000 0.000000
vt 39.370079 0.984252
vt 0.000000 0.984252
vt -39.370079 50.768970
vt -39.370079 50.768970
vt 0.000000 50.768970
vt -39.370079 0.000000
vt 0.000000 0.984252
vt -39.370079 0.984252
vt 39.370079 1.968504
vt 39.370079 0.984252
vt -39.370079 50.768970
vt 0.000000 0.000000
vt 0.000000 50.768970
vt 39.370079 1.968504
vt 39.370079 0.000000
vt 0.000000 1.968504
vt -39.370079 1.968504
vt 0.000000 1.968504
vt -39.370079 0.000000
vt -39.370079 1.968504
vt -39.370079 1.968504
vt 39.370079 0.000000
vt 0.000000 50.768970
vt 0.000000 0.000000
vt -39.370079 0.000000
vn 0.0000 0.0000 1.0000
vn 0.7071 0.0000 0.7071
vn 0.0000 1.0000 -0.0000
vn 1.0000 0.0000 -0.0000
vn 0.0000 -1.0000 0.0000
vn -0.0000 0.0000 -1.0000
vn 0.7071 0.0000 -0.7071
vn -1.0000 -0.0000 0.0000
vn -0.7071 0.0000 -0.7071
vn -0.7071 -0.0000 0.7071
g wall.206_wall.010_wall.206_wall.010_metalDark.032
usemtl metalDark.032
s 1
f 17/45/13 18/46/14 19/47/13
f 18/48/15 20/49/15 19/50/15
f 18/51/16 21/52/16 22/53/16
f 21/54/17 17/55/17 23/56/17
f 20/49/18 21/57/19 23/58/18
f 24/59/20 25/60/20 26/61/20
f 24/62/21 23/58/18 27/63/21
f 23/56/17 25/64/17 27/65/17
f 19/50/15 24/62/15 26/66/15
f 25/67/22 19/47/13 26/68/22
f 17/45/13 28/69/14 18/46/14
f 18/48/15 22/70/15 20/49/15
f 18/51/16 28/71/16 21/52/16
f 21/54/17 28/72/17 17/55/17
f 20/49/18 22/70/19 21/57/19
f 24/59/20 27/73/20 25/60/20
f 24/62/21 20/49/18 23/58/18
f 23/56/17 17/55/17 25/64/17
f 19/50/15 20/49/15 24/62/15
f 25/67/22 17/45/13 19/47/13
o wall.207_wall.021
v -17.950005 26.500006 -33.499996
v -18.049999 26.500004 -24.448803
v -17.949999 26.500004 -24.448803
v -18.049999 22.500004 -24.448803
v -17.950006 22.500006 -33.499996
v -17.949999 22.500004 -24.448803
v -18.050005 26.500006 -33.499996
v -18.050007 22.500006 -33.499996
vt 0.000000 1.968504
vt 39.370079 0.000000
vt 39.370079 1.968504
vt -39.370079 0.000000
vt 0.000000 1.968504
vt -39.370079 1.968504
vt 0.000000 0.000000
vt 0.000000 0.000000
vt -39.370079 0.000000
vt -39.370079 0.000000
vt -39.370079 1.968504
vt -39.370079 50.768970
vt -39.370079 50.768970
vt 0.000000 50.768970
vt 39.370079 1.968504
vt 39.370079 0.000000
vt -39.370079 1.968504
vt 0.000000 50.768970
vt -39.370079 50.768970
vt 0.000000 0.000000
vt 0.000000 50.768970
vt -39.370079 0.000000
vn 0.0000 1.0000 -0.0000
vn 0.0000 -1.0000 -0.0000
vn 0.0000 0.0000 -1.0000
vn -1.0000 0.0000 0.0000
vn 0.0000 0.0000 1.0000
vn 1.0000 -0.0000 -0.0000
g wall.207_wall.021_wall.207_wall.021_wood.087
usemtl wood.087
s 1
f 29/74/23 30/75/23 31/76/23
f 32/77/24 33/78/24 34/79/24
f 29/74/23 35/80/23 30/75/23
f 32/77/24 36/81/24 33/78/24
g wall.207_wall.021_wall.207_wall.021__defaultMat.023
usemtl _defaultMat.023
f 33/82/25 35/83/25 29/84/25
f 35/85/26 32/86/26 30/87/26
f 31/76/27 32/88/27 34/89/27
f 33/82/25 36/90/25 35/83/25
f 35/85/26 36/91/26 32/86/26
f 31/76/27 30/75/27 32/88/27
g wall.207_wall.021_wall.207_wall.021_metalDark.032
usemtl metalDark.032
f 31/92/28 33/93/28 29/94/28
f 31/92/28 34/95/28 33/93/28
o result.028_Cube.048
v 1.999990 22.500006 -34.499996
v -18.000010 22.500006 -34.499989
v -18.000006 22.500004 -24.499989
v -18.000006 26.500004 -24.499989
v -18.000010 26.500006 -34.499989
v 1.999990 26.500006 -34.499996
v 1.999994 22.500004 -24.499996
v 1.999994 26.500004 -24.499996
vt 0.118443 0.465115
vt 0.118443 0.000000
vt 0.186501 0.000000
vt 0.679736 0.702234
vt 0.607952 0.702234
vt 0.607952 0.237118
vt 0.190227 0.465115
vt 0.679736 0.237118
vn 0.0000 1.0000 0.0000
vn -0.0000 -1.0000 0.0000
g result.028_Cube.048_result.028_Cube.048_wood
usemtl wood
s off
f 37/96/29 38/97/29 39/98/29
f 40/99/30 41/100/30 42/101/30
f 37/96/29 39/98/29 43/102/29
f 40/99/30 42/101/30 44/103/30
o wall.194_wall.020
v 1.950000 26.500004 -25.499996
v 1.950000 22.500004 -25.499996
v 2.050000 22.500004 -25.499996
v 1.850001 26.500004 -24.549997
v 1.000001 22.500004 -24.549995
v 1.000001 26.500004 -24.549995
v 1.950001 22.500004 -24.649996
v 1.950001 26.500004 -24.649996
v 1.850001 22.500004 -24.549995
v 1.950000 22.500004 -25.549995
v 2.050000 26.500004 -25.499996
v 1.000001 26.500004 -24.449995
v 1.850001 22.500004 -24.449997
v 1.000001 22.500004 -24.449995
v 2.050001 26.500004 -24.649996
v 1.850001 26.500004 -24.449997
v 2.050001 22.500004 -24.649996
vt -39.370079 1.968504
vt -39.370079 0.000000
vt 0.000000 0.000000
vt -17.716539 50.768970
vt 0.000000 0.000000
vt 0.000000 50.768970
vt -21.653540 50.768970
vt -3.937008 -0.000000
vt -3.937008 50.768970
vt -16.703310 -0.000000
vt -13.919430 50.768970
vt -16.703310 50.768970
vt -17.716539 0.000000
vt -21.653540 0.000000
vt -13.919430 0.000000
vt 19.685040 21.653540
vt 19.685040 3.937008
vt 21.653540 21.653540
vt 19.685040 21.653540
vt 19.685040 3.937008
vt 21.653540 21.653540
vt -17.716539 50.768970
vt -17.716539 50.768970
vt -17.716539 50.768970
vt 0.000000 50.768970
vt -21.653540 21.653540
vt -21.653540 21.653540
vt -19.685040 3.937008
vt -21.653540 21.653540
vt -21.653540 21.653540
vt -19.685040 3.937008
vt 0.000000 50.768970
vt -19.685040 3.937008
vt -19.685040 3.937008
vt 19.685040 3.937008
vt 17.716539 1.968504
vt 17.716539 0.000000
vt -21.653540 3.937008
vt -17.716539 0.000000
vt -19.685040 3.937008
vt 21.653540 3.937008
vt 21.653540 21.653540
vt 0.000000 1.968504
vt 0.000000 0.000000
vt -19.685040 21.653540
vt -21.653540 21.653540
vt 0.000000 0.000000
vt 0.000000 1.968504
vt -17.716539 1.968504
vn 0.0000 0.0000 1.0000
vn 0.0000 -0.0000 -1.0000
vn -1.0000 0.0000 0.0000
vn -0.7071 -0.0000 -0.7071
vn 0.4373 0.0108 -0.8993
vn 0.4472 0.0112 -0.8944
vn 0.0123 -0.0048 -0.9999
vn 0.0123 0.0005 -0.9999
vn 0.4373 0.0155 -0.8992
vn 0.7071 0.0000 0.7071
vn 1.0000 0.0000 -0.0000
vn 0.0000 1.0000 0.0000
vn 0.0000 -1.0000 -0.0000
g wall.194_wall.020_wall.194_wall.020__defaultMat.023
usemtl _defaultMat.023
s 1
f 45/104/31 46/105/31 47/106/31
g wall.194_wall.020_wall.194_wall.020_metalDark.030
usemtl metalDark.030
f 48/107/32 49/108/32 50/109/32
f 45/110/33 51/111/33 52/112/33
f 51/113/34 48/114/34 52/115/34
f 48/107/32 53/116/32 49/108/32
f 45/110/33 54/117/33 51/111/33
f 51/113/34 53/118/34 48/114/34
g wall.194_wall.020_wall.194_wall.020__defaultMat.021
usemtl _defaultMat.021
f 47/119/35 54/120/36 45/121/37
f 45/122/38 55/123/32 47/124/39
f 49/125/33 56/126/33 50/109/33
f 57/127/31 56/126/31 58/128/31
f 57/129/40 59/130/40 60/131/40
f 55/132/41 61/133/41 47/134/41
f 49/125/33 58/128/33 56/126/33
f 57/127/31 60/135/31 56/126/31
f 57/129/40 61/136/40 59/130/40
f 55/132/41 59/137/41 61/133/41
g wall.194_wall.020_wall.194_wall.020_wood.083
usemtl wood.083
f 52/138/42 48/139/42 60/140/42
f 61/141/43 57/142/43 51/143/43
f 59/144/42 55/145/42 45/122/42
f 59/144/42 45/122/42 52/138/42
f 50/146/42 56/147/42 48/139/42
f 56/147/42 60/140/42 48/139/42
f 59/144/42 52/138/42 60/140/42
f 54/148/43 47/149/43 51/143/43
f 47/149/43 61/141/43 51/143/43
f 57/142/43 58/150/43 49/151/43
f 57/142/43 49/151/43 53/152/43
f 57/142/43 53/152/43 51/143/43
o wall.203_wall.020
v 1.000000 26.500006 -34.449997
v 1.000000 22.500006 -34.449997
v 1.000000 22.500006 -34.549995
v 1.950000 26.500006 -34.349998
v 1.950001 22.500006 -33.499996
v 1.950001 26.500006 -33.499996
v 1.850000 22.500006 -34.449997
v 1.850000 26.500006 -34.449997
v 1.950000 22.500006 -34.349998
v 0.950000 22.500006 -34.449997
v 1.000000 26.500006 -34.549995
v 2.050001 26.500006 -33.499996
v 2.050000 22.500006 -34.349998
v 2.050001 22.500006 -33.499996
v 1.850000 26.500006 -34.549995
v 2.050000 26.500006 -34.349998
v 1.850000 22.500006 -34.549995
vt -39.370079 1.968504
vt -39.370079 0.000000
vt 0.000000 0.000000
vt -17.716539 50.768970
vt 0.000000 0.000000
vt 0.000000 50.768970
vt -21.653540 50.768970
vt -3.937008 -0.000000
vt -3.937008 50.768970
vt -16.703310 -0.000000
vt -13.919430 50.768970
vt -16.703310 50.768970
vt -17.716539 0.000000
vt -21.653540 0.000000
vt -13.919430 0.000000
vt 19.685040 21.653540
vt 19.685040 3.937008
vt 21.653540 21.653540
vt 19.685040 21.653540
vt 19.685040 3.937008
vt 21.653540 21.653540
vt -17.716539 50.768970
vt -17.716539 50.768970
vt -17.716539 50.768970
vt 0.000000 50.768970
vt -21.653540 21.653540
vt -21.653540 21.653540
vt -19.685040 3.937008
vt -21.653540 21.653540
vt -21.653540 21.653540
vt -19.685040 3.937008
vt 0.000000 50.768970
vt -19.685040 3.937008
vt -19.685040 3.937008
vt 19.685040 3.937008
vt 17.716539 1.968504
vt 17.716539 0.000000
vt -21.653540 3.937008
vt -17.716539 0.000000
vt -19.685040 3.937008
vt 21.653540 3.937008
vt 21.653540 21.653540
vt 0.000000 1.968504
vt 0.000000 0.000000
vt -19.685040 21.653540
vt -21.653540 21.653540
vt 0.000000 0.000000
vt 0.000000 1.968504
vt -17.716539 1.968504
vn 1.0000 0.0000 0.0000
vn -1.0000 0.0000 0.0000
vn 0.0000 0.0000 1.0000
vn -0.7071 0.0000 0.7071
vn -0.8992 0.0108 -0.4373
vn -0.8944 0.0112 -0.4472
vn -0.9999 -0.0048 -0.0123
vn -0.9999 0.0005 -0.0123
vn -0.8992 0.0155 -0.4373
vn 0.7071 0.0000 -0.7071
vn 0.0000 0.0000 -1.0000
vn 0.0000 1.0000 0.0000
vn 0.0000 -1.0000 0.0000
g wall.203_wall.020_wall.203_wall.020__defaultMat.023
usemtl _defaultMat.023
s 1
f 62/153/44 63/154/44 64/155/44
g wall.203_wall.020_wall.203_wall.020_metalDark.030
usemtl metalDark.030
f 65/156/45 66/157/45 67/158/45
f 62/159/46 68/160/46 69/161/46
f 68/162/47 65/163/47 69/164/47
f 65/156/45 70/165/45 66/157/45
f 62/159/46 71/166/46 68/160/46
f 68/162/47 70/167/47 65/163/47
g wall.203_wall.020_wall.203_wall.020__defaultMat.021
usemtl _defaultMat.021
f 64/168/48 71/169/49 62/170/50
f 62/171/51 72/172/45 64/173/52
f 66/174/46 73/175/46 67/158/46
f 74/176/44 73/175/44 75/177/44
f 74/178/53 76/179/53 77/180/53
f 72/181/54 78/182/54 64/183/54
f 66/174/46 75/177/46 73/175/46
f 74/176/44 77/184/44 73/175/44
f 74/178/53 78/185/53 76/179/53
f 72/181/54 76/186/54 78/182/54
g wall.203_wall.020_wall.203_wall.020_wood.083
usemtl wood.083
f 69/187/55 65/188/55 77/189/55
f 78/190/56 74/191/56 68/192/56
f 76/193/55 72/194/55 62/171/55
f 76/193/55 62/171/55 69/187/55
f 67/195/55 73/196/55 65/188/55
f 73/196/55 77/189/55 65/188/55
f 76/193/55 69/187/55 77/189/55
f 71/197/56 64/198/56 68/192/56
f 64/198/56 78/190/56 68/192/56
f 74/191/56 75/199/56 66/200/56
f 74/191/56 66/200/56 70/201/56
f 74/191/56 70/201/56 68/192/56
o wall.205_wall.020
v -17.950001 26.500006 -33.499996
v -17.950001 22.500006 -33.499996
v -18.049999 22.500006 -33.499996
v -17.850000 26.500006 -34.449997
v -17.000002 22.500006 -34.449997
v -17.000002 26.500006 -34.449997
v -17.950001 22.500006 -34.349995
v -17.950001 26.500006 -34.349995
v -17.850000 22.500006 -34.449997
v -17.949999 22.500006 -33.449997
v -18.049999 26.500006 -33.499996
v -17.000002 26.500006 -34.549995
v -17.850000 22.500006 -34.549995
v -17.000002 22.500006 -34.549999
v -18.050001 26.500006 -34.349995
v -17.850000 26.500006 -34.549995
v -18.050001 22.500006 -34.349995
vt -39.370079 1.968504
vt -39.370079 0.000000
vt 0.000000 0.000000
vt -17.716539 50.768970
vt 0.000000 0.000000
vt 0.000000 50.768970
vt -21.653540 50.768970
vt -3.937008 -0.000000
vt -3.937008 50.768970
vt -16.703310 -0.000000
vt -13.919430 50.768970
vt -16.703310 50.768970
vt -17.716539 0.000000
vt -21.653540 0.000000
vt -13.919430 0.000000
vt 19.685040 21.653540
vt 19.685040 3.937008
vt 21.653540 21.653540
vt 19.685040 21.653540
vt 19.685040 3.937008
vt 21.653540 21.653540
vt -17.716539 50.768970
vt -17.716539 50.768970
vt -17.716539 50.768970
vt 0.000000 50.768970
vt -21.653540 21.653540
vt -21.653540 21.653540
vt -19.685040 3.937008
vt -21.653540 21.653540
vt -21.653540 21.653540
vt -19.685040 3.937008
vt 0.000000 50.768970
vt -19.685040 3.937008
vt -19.685040 3.937008
vt 19.685040 3.937008
vt 17.716539 1.968504
vt 17.716539 0.000000
vt -21.653540 3.937008
vt -17.716539 0.000000
vt -19.685040 3.937008
vt 21.653540 3.937008
vt 21.653540 21.653540
vt 0.000000 1.968504
vt 0.000000 0.000000
vt -19.685040 21.653540
vt -21.653540 21.653540
vt 0.000000 0.000000
vt 0.000000 1.968504
vt -17.716539 1.968504
vn 0.0000 0.0000 -1.0000
vn 0.0000 0.0000 1.0000
vn 1.0000 0.0000 -0.0000
vn 0.7071 0.0000 0.7071
vn -0.4373 0.0108 0.8993
vn -0.4472 0.0112 0.8944
vn -0.0124 -0.0048 0.9999
vn -0.0123 0.0005 0.9999
vn -0.4373 0.0155 0.8992
vn -0.7071 0.0000 -0.7071
vn -1.0000 0.0000 0.0000
vn 0.0000 1.0000 0.0000
vn 0.0000 -1.0000 0.0000
g wall.205_wall.020_wall.205_wall.020__defaultMat.023
usemtl _defaultMat.023
s 1
f 79/202/57 80/203/57 81/204/57
g wall.205_wall.020_wall.205_wall.020_metalDark.030
usemtl metalDark.030
f 82/205/58 83/206/58 84/207/58
f 79/208/59 85/209/59 86/210/59
f 85/211/60 82/212/60 86/213/60
f 82/205/58 87/214/58 83/206/58
f 79/208/59 88/215/59 85/209/59
f 85/211/60 87/216/60 82/212/60
g wall.205_wall.020_wall.205_wall.020__defaultMat.021
usemtl _defaultMat.021
f 81/217/61 88/218/62 79/219/63
f 79/220/64 89/221/58 81/222/65
f 83/223/59 90/224/59 84/207/59
f 91/225/57 90/224/57 92/226/57
f 91/227/66 93/228/66 94/229/66
f 89/230/67 95/231/67 81/232/67
f 83/223/59 92/226/59 90/224/59
f 91/225/57 94/233/57 90/224/57
f 91/227/66 95/234/66 93/228/66
f 89/230/67 93/235/67 95/231/67
g wall.205_wall.020_wall.205_wall.020_wood.083
usemtl wood.083
f 86/236/68 82/237/68 94/238/68
f 95/239/69 91/240/69 85/241/69
f 93/242/68 89/243/68 79/220/68
f 93/242/68 79/220/68 86/236/68
f 84/244/68 90/245/68 82/237/68
f 90/245/68 94/238/68 82/237/68
f 93/242/68 86/236/68 94/238/68
f 88/246/69 81/247/69 85/241/69
f 81/247/69 95/239/69 85/241/69
f 91/240/69 92/248/69 83/249/69
f 91/240/69 83/249/69 87/250/69
f 91/240/69 87/250/69 85/241/69
o wall.197_wall.021
v -16.000000 26.500004 -24.549980
v 1.000000 26.500004 -24.449997
v 1.000000 26.500004 -24.549997
v 1.000000 22.500004 -24.449997
v -16.000000 22.500004 -24.549980
v 1.000000 22.500004 -24.549997
v -16.000000 26.500004 -24.449980
v -16.000000 22.500004 -24.449980
vt 0.000000 1.968504
vt 39.370079 0.000000
vt 39.370079 1.968504
vt -39.370079 0.000000
vt 0.000000 1.968504
vt -39.370079 1.968504
vt 0.000000 0.000000
vt 0.000000 0.000000
vt -39.370079 0.000000
vt -39.370079 0.000000
vt -39.370079 1.968504
vt -39.370079 50.768970
vt -39.370079 50.768970
vt 0.000000 50.768970
vt 39.370079 1.968504
vt 39.370079 0.000000
vt -39.370079 1.968504
vt 0.000000 50.768970
vt -39.370079 50.768970
vt 0.000000 0.000000
vt 0.000000 50.768970
vt -39.370079 0.000000
vn 0.0000 1.0000 0.0000
vn 0.0000 -1.0000 0.0000
vn -1.0000 0.0000 0.0000
vn 0.0000 0.0000 1.0000
vn 1.0000 0.0000 0.0000
vn -0.0000 0.0000 -1.0000
g wall.197_wall.021_wall.197_wall.021_wood.087
usemtl wood.087
s 1
f 96/251/70 97/252/70 98/253/70
f 99/254/71 100/255/71 101/256/71
f 96/251/70 102/257/70 97/252/70
f 99/254/71 103/258/71 100/255/71
g wall.197_wall.021_wall.197_wall.021__defaultMat.023
usemtl _defaultMat.023
f 100/259/72 102/260/72 96/261/72
f 102/262/73 99/263/73 97/264/73
f 98/253/74 99/265/74 101/266/74
f 100/259/72 103/267/72 102/260/72
f 102/262/73 103/268/73 99/263/73
f 98/253/74 97/252/74 99/265/74
g wall.197_wall.021_wall.197_wall.021_metalDark.032
usemtl metalDark.032
f 98/269/75 100/270/75 96/271/75
f 98/269/75 101/272/75 100/270/75
