# Blender v2.93.10 OBJ File: 'untitled.blend'
# www.blender.org
mtllib storage roomcollision.mtl
o result.007_Cube.022
v -3.000000 0.000000 29.000000
v -3.000000 6.000000 29.000000
v -3.000000 0.000000 -1.000000
v -3.000000 6.000000 -1.000000
v 13.000000 0.000000 29.000000
v 13.000000 6.000000 29.000000
v 13.000000 0.000000 -1.000000
v 13.000000 6.000000 -1.000000
v 13.000000 0.000000 10.800000
v 13.000000 3.199991 10.800000
v 13.000000 0.000000 9.200000
v 13.000000 3.199991 9.200000
v 7.200000 0.000000 -1.000000
v 7.200000 0.000000 -11.000000
v 7.200000 3.199991 -11.000000
v 7.200000 3.199991 -1.000000
v 8.800000 0.000000 -11.000000
v 8.800000 0.000000 -1.000000
v 8.800000 3.199991 -1.000000
v 8.800000 3.199991 -11.000000
v -0.800000 0.000000 -1.000000
v 0.800000 0.000000 -1.000000
v -0.800000 3.199991 -1.000000
v 0.800000 3.199991 -1.000000
vt 0.963346 0.000000
vt 0.902256 0.500000
vt 0.902256 0.000000
vt 1.000000 0.000000
vt 0.963346 0.333334
vt 0.963346 0.000000
vt 1.000000 0.666667
vt 0.963346 0.333333
vt 1.000000 0.333333
vt 0.718985 1.000000
vt 0.780075 0.000000
vt 0.780075 1.000000
vt 0.841165 0.000000
vt 0.865601 0.116667
vt 0.865601 0.316667
vt 0.718985 0.509804
vt 0.359492 0.000000
vt 0.718985 0.000000
vt 0.804511 0.416667
vt 0.780075 1.000000
vt 0.780075 0.000000
vt 0.841166 0.500000
vt 0.889098 0.669934
vt 0.841166 0.669934
vt 0.963346 0.500000
vt 1.000000 0.333334
vt 0.963346 0.666667
vt 0.718985 0.000000
vt 0.865601 0.383333
vt 0.902255 0.383333
vt 0.902255 0.500000
vt 0.902255 0.000000
vt 0.865601 0.050000
vt 0.902255 0.050000
vt 0.841165 0.500000
vt 0.902255 0.116667
vt 0.902255 0.316667
vt 0.359492 0.509804
vt 0.841165 0.416667
vt 0.841165 1.000000
vt 0.841165 0.000000
vt 0.804511 0.316667
vt 0.841165 0.316667
vt 0.889098 0.500000
vt 0.323544 0.169934
vt 0.359492 0.169934
vt 0.000000 0.382353
vt 0.359492 0.679739
vt 0.000000 0.679739
vt 0.000000 0.331372
vt 0.000000 0.169934
vt 0.083881 0.169934
vt 0.275611 0.169934
vt 0.131814 0.169934
vt 0.131814 0.000000
vt 0.083881 0.000000
vn 0.0000 0.0000 -1.0000
vn -1.0000 0.0000 0.0000
vn 1.0000 0.0000 0.0000
vn 0.0000 0.0000 1.0000
vn 0.0000 -1.0000 0.0000
vn 0.0000 1.0000 0.0000
g result.007_Cube.022_acid
usemtl acid
s off
f 5/1/1 2/2/1 6/3/1
f 17/4/2 19/5/2 20/6/2
f 14/7/3 16/8/3 13/9/3
f 4/10/3 1/11/3 3/12/3
f 4/13/4 24/14/4 16/15/4
f 6/16/5 4/17/5 8/18/5
f 10/19/2 6/20/2 8/21/2
f 15/22/5 19/23/5 16/24/5
f 5/1/1 1/25/1 2/2/1
f 17/4/2 18/26/2 19/5/2
f 14/7/3 15/27/3 16/8/3
f 4/10/3 2/28/3 1/11/3
f 19/29/4 18/30/4 7/31/4
f 4/13/4 3/32/4 23/33/4
f 3/32/4 21/34/4 23/33/4
f 19/29/4 7/31/4 8/35/4
f 22/36/4 13/37/4 16/15/4
f 16/15/4 19/29/4 8/35/4
f 8/35/4 4/13/4 16/15/4
f 4/13/4 23/33/4 24/14/4
f 24/14/4 22/36/4 16/15/4
f 6/16/5 2/38/5 4/17/5
f 10/19/2 9/39/2 5/40/2
f 8/21/2 7/41/2 12/42/2
f 7/41/2 11/43/2 12/42/2
f 10/19/2 5/40/2 6/20/2
f 8/21/2 12/42/2 10/19/2
f 15/22/5 20/44/5 19/23/5
f 21/45/6 3/46/6 9/47/6
f 3/46/6 1/48/6 9/47/6
f 1/48/6 5/49/6 9/47/6
f 11/50/6 7/51/6 18/52/6
f 21/45/6 9/47/6 22/53/6
f 9/47/6 11/50/6 22/53/6
f 13/54/6 22/53/6 11/50/6
f 13/54/6 11/50/6 18/52/6
f 14/55/6 13/54/6 18/52/6
f 14/55/6 18/52/6 17/56/6
