v 0.9816525 0 0
v -0.9816525 0 0
v -0.9816525 0.92 0
v 0.9816525 0.92 0
v 0.9816525 1.84 0
v -0.9816525 1.84 0
v -0.9816525 2.46 0
v 0.9816525 2.76 0
v 0.9816525 -0.06131183 0
v -1.042928 -0.06127556 0
v -1.042932 0.9812795 0
v 0.9203043 0.9813482 0
v 0.920306 1.778654 0
v -1.042928 1.778725 0
v -1.04301 2.512694 0
v 0.9723914 2.820608 0
v 0.9816525 0 -0.8379579
v -0.9816525 0 -0.8379579
v -0.9816525 0.92 -0.8379579
v 0.9816525 0.92 -0.8379579
v 0.9816525 1.84 -0.8379579
v -0.9816525 1.84 -0.8379579
v -0.9816525 2.46 -0.8379579
v 0.9816525 2.76 -0.8379579
v 0.9816525 -0.06131183 -0.8379579
v -1.042928 -0.06127556 -0.8379579
v -1.042932 0.9812795 -0.8379579
v 0.9203043 0.9813482 -0.8379579
v 0.920306 1.778654 -0.8379579
v -1.042928 1.778725 -0.8379579
v -1.04301 2.512694 -0.8379579
v 0.9723914 2.820608 -0.8379579
v 0.9816525 0 0
v 0.9816525 0 -0.8379579
v -0.9816525 0 0
v -0.9816525 0 -0.8379579
v -0.9816525 0.92 0
v -0.9816525 0.92 -0.8379579
v 0.9816525 0.92 0
v 0.9816525 0.92 -0.8379579
v 0.9816525 1.84 0
v 0.9816525 1.84 -0.8379579
v -0.9816525 1.84 0
v -0.9816525 1.84 -0.8379579
v -0.9816525 2.46 0
v -0.9816525 2.46 -0.8379579
v 0.9816525 2.76 0
v 0.9816525 2.76 -0.8379579
v 0.9816525 -0.06131183 0
v 0.9816525 -0.06131183 -0.8379579
v -1.042928 -0.06127556 0
v -1.042928 -0.06127556 -0.8379579
v -1.042932 0.9812795 0
v -1.042932 0.9812795 -0.8379579
v 0.9203043 0.9813482 0
v 0.9203043 0.9813482 -0.8379579
v 0.920306 1.778654 0
v 0.920306 1.778654 -0.8379579
v -1.042928 1.778725 0
v -1.042928 1.778725 -0.8379579
v -1.04301 2.512694 0
v -1.04301 2.512694 -0.8379579
v 0.9723914 2.820608 0
v 0.9723914 2.820608 -0.8379579
v 0.9816525 -0.06131183 0
v 0.9816525 0 0
v 0.9816525 0 -0.8379579
v 0.9816525 -0.06131183 -0.8379579
v 0.9816525 2.76 0
v 0.9723914 2.820608 0
v 0.9723914 2.820608 -0.8379579
v 0.9816525 2.76 -0.8379579
v -0.7816525 0 -0.4592413
v -0.7413901 0 -0.418979
v -0.7816525 0 -0.3787166
v -0.8219148 0 -0.418979
v -0.7816525 0 -0.4592413
v -0.7816525 2.76 -0.4592413
v -0.7413901 2.76 -0.418979
v -0.7816525 2.76 -0.3787166
v -0.8219148 2.76 -0.418979
v -0.7816525 2.76 -0.4592413
v -0.7816525 2.76 -0.4592413
v -0.7413901 2.76 -0.418979
v -0.7816525 2.76 -0.3787166
v -0.8219148 2.76 -0.418979
v -0.7816525 0 -0.4592413
v -0.7413901 0 -0.418979
v -0.7816525 0 -0.3787166
v -0.8219148 0 -0.418979
vn 0 0 1
vn 0 0 1
vn 0 0 1
vn 0 0 1
vn 0 0 1
vn 0 0 1
vn 0 0 1
vn 0 0 1
vn 0 0 1
vn 0 0 1
vn 0 0 1
vn 0 0 1
vn 0 0 1
vn 0 0 1
vn 0 0 1
vn 0 0 1
vn 0 0 -1
vn 0 0 -1
vn 0 0 -1
vn 0 0 -1
vn 0 0 -1
vn 0 0 -1
vn 0 0 -1
vn 0 0 -1
vn 0 0 -1
vn 0 0 -1
vn 0 0 -1
vn 0 0 -1
vn 0 0 -1
vn 0 0 -1
vn 0 0 -1
vn 0 0 -1
vn 0 1 0
vn 0 1 0
vn 0.9994083 0.9994083 0
vn 0.9994083 0.9994083 0
vn 0.9994728 -0.9994728 0
vn 0.9994728 -0.9994728 0
vn 1.000592 -1.000592 0
vn 1.000592 -1.000592 0
vn 1.000566 1.000566 0
vn 1.000566 1.000566 0
vn 0.9994083 0.9994083 0
vn 0.9994083 0.9994083 0
vn 1.000746 -0.8594444 0
vn 1.000746 -0.8594444 0
vn 0.1510503 -0.988526 0
vn 0.1510503 -0.988526 0
vn 0 -1 0
vn 0 -1 0
vn -0.9994083 -0.9994083 0
vn -0.9994083 -0.9994083 0
vn -0.9994728 0.9994728 0
vn -0.9994728 0.9994728 0
vn -1.000592 1.000592 0
vn -1.000592 1.000592 0
vn -1.000566 -1.000566 0
vn -1.000566 -1.000566 0
vn -0.9994083 -0.9994083 0
vn -0.9994083 -0.9994083 0
vn -1.000746 0.8594444 0
vn -1.000746 0.8594444 0
vn -0.1510503 0.988526 0
vn -0.1510503 0.988526 0
vn 1 0 0
vn 1 0 0
vn 1 0 0
vn 1 0 0
vn 0.988526 0.1510505 0
vn 0.988526 0.1510505 0
vn 0.988526 0.1510505 0
vn 0.988526 0.1510505 0
vn 0 0 -1
vn 1 0 0
vn 0 0 0.9999999
vn -1 0 0
vn 0 0 -1
vn 0 0 -1
vn 1 0 0
vn 0 0 0.9999999
vn -1 0 0
vn 0 0 -1
vn 0 1 0
vn 0 1 0
vn 0 1 0
vn 0 1 0
vn 0 -1 0
vn 0 -1 0
vn 0 -1 0
vn 0 -1 0
vt 0.0025 0.4970489
vt 0.09699916 0.4970489
vt 0.1412812 0.4970489
vt 0.2357804 0.4970489
vt 0.2800625 0.4970489
vt 0.3745617 0.4970489
vt 0.4044039 0.4970489
vt 0.5 0.4970489
vt 0.0025 0.5
vt 0.09699916 0.5
vt 0.1412812 0.5
vt 0.2357804 0.5
vt 0.2800625 0.5
vt 0.3745617 0.5
vt 0.4044039 0.5
vt 0.5 0.5
vt 0.0025 0.4911467
vt 0.09699916 0.4911467
vt 0.1412812 0.4911467
vt 0.2357804 0.4911467
vt 0.2800625 0.4911467
vt 0.3745617 0.4911467
vt 0.4044039 0.4911467
vt 0.5 0.4911467
vt 0.0025 0.4940978
vt 0.09699916 0.4940978
vt 0.1412812 0.4940978
vt 0.2357804 0.4940978
vt 0.2800625 0.4940978
vt 0.3745617 0.4940978
vt 0.4044039 0.4940978
vt 0.5 0.4940978
vt 0.0025 0.4940978
vt 0.0025 0.4970489
vt 0.09699916 0.4940978
vt 0.09699916 0.4970489
vt 0.1412812 0.4940978
vt 0.1412812 0.4970489
vt 0.2357804 0.4940978
vt 0.2357804 0.4970489
vt 0.2800625 0.4940978
vt 0.2800625 0.4970489
vt 0.3745617 0.4940978
vt 0.3745617 0.4970489
vt 0.4044039 0.4940978
vt 0.4044039 0.4970489
vt 0.5 0.4940978
vt 0.5 0.4970489
vt 0.0025 0.4881956
vt 0.0025 0.4911467
vt 0.09699916 0.4881956
vt 0.09699916 0.4911467
vt 0.1412812 0.4881956
vt 0.1412812 0.4911467
vt 0.2357804 0.4881956
vt 0.2357804 0.4911467
vt 0.2800625 0.4881956
vt 0.2800625 0.4911467
vt 0.3745617 0.4881956
vt 0.3745617 0.4911467
vt 0.4044039 0.4881956
vt 0.4044039 0.4911467
vt 0.5 0.4881956
vt 0.5 0.4911467
vt 0.0025 0.4134314
vt 0.0025 0.4104803
vt 0.04283318 0.4104803
vt 0.04283318 0.4134314
vt 0.04283318 0.4134314
vt 0.04283318 0.4104803
vt 0.08316635 0.4104803
vt 0.08316635 0.4134314
vt 1 0.2575
vt 0.875625 0.2575
vt 0.75125 0.2575
vt 0.626875 0.2575
vt 0.5025 0.2575
vt 1 0.5
vt 0.875625 0.5
vt 0.75125 0.5
vt 0.626875 0.5
vt 0.5025 0.5
vt 0.73875 0.120625
vt 0.620625 0.002499998
vt 0.5025 0.120625
vt 0.620625 0.23875
vt 1 0.120625
vt 0.881875 0.23875
vt 0.76375 0.120625
vt 0.881875 0.002499998
f 9/9/9 1/1/1 2/2/2
f 10/10/10 9/9/9 2/2/2
f 10/10/10 2/2/2 3/3/3
f 11/11/11 10/10/10 3/3/3
f 11/11/11 3/3/3 4/4/4
f 12/12/12 11/11/11 4/4/4
f 12/12/12 4/4/4 5/5/5
f 13/13/13 12/12/12 5/5/5
f 13/13/13 5/5/5 6/6/6
f 14/14/14 13/13/13 6/6/6
f 14/14/14 6/6/6 7/7/7
f 15/15/15 14/14/14 7/7/7
f 15/15/15 7/7/7 8/8/8
f 16/16/16 15/15/15 8/8/8
f 25/25/25 18/18/18 17/17/17
f 25/25/25 26/26/26 18/18/18
f 26/26/26 19/19/19 18/18/18
f 26/26/26 27/27/27 19/19/19
f 27/27/27 20/20/20 19/19/19
f 27/27/27 28/28/28 20/20/20
f 28/28/28 21/21/21 20/20/20
f 28/28/28 29/29/29 21/21/21
f 29/29/29 22/22/22 21/21/21
f 29/29/29 30/30/30 22/22/22
f 30/30/30 23/23/23 22/22/22
f 30/30/30 31/31/31 23/23/23
f 31/31/31 24/24/24 23/23/23
f 31/31/31 32/32/32 24/24/24
f 34/34/34 35/35/35 33/33/33
f 36/36/36 35/35/35 34/34/34
f 36/36/36 37/37/37 35/35/35
f 38/38/38 37/37/37 36/36/36
f 38/38/38 39/39/39 37/37/37
f 40/40/40 39/39/39 38/38/38
f 40/40/40 41/41/41 39/39/39
f 42/42/42 41/41/41 40/40/40
f 42/42/42 43/43/43 41/41/41
f 44/44/44 43/43/43 42/42/42
f 44/44/44 45/45/45 43/43/43
f 46/46/46 45/45/45 44/44/44
f 46/46/46 47/47/47 45/45/45
f 48/48/48 47/47/47 46/46/46
f 51/51/51 50/50/50 49/49/49
f 51/51/51 52/52/52 50/50/50
f 53/53/53 52/52/52 51/51/51
f 53/53/53 54/54/54 52/52/52
f 55/55/55 54/54/54 53/53/53
f 55/55/55 56/56/56 54/54/54
f 57/57/57 56/56/56 55/55/55
f 57/57/57 58/58/58 56/56/56
f 59/59/59 58/58/58 57/57/57
f 59/59/59 60/60/60 58/58/58
f 61/61/61 60/60/60 59/59/59
f 61/61/61 62/62/62 60/60/60
f 63/63/63 62/62/62 61/61/61
f 63/63/63 64/64/64 62/62/62
f 68/68/68 66/66/66 65/65/65
f 68/68/68 67/67/67 66/66/66
f 72/72/72 70/70/70 69/69/69
f 72/72/72 71/71/71 70/70/70
f 78/78/78 74/74/74 73/73/73
f 78/78/78 79/79/79 74/74/74
f 79/79/79 75/75/75 74/74/74
f 79/79/79 80/80/80 75/75/75
f 80/80/80 76/76/76 75/75/75
f 80/80/80 81/81/81 76/76/76
f 81/81/81 77/77/77 76/76/76
f 81/81/81 82/82/82 77/77/77
f 85/85/85 84/84/84 83/83/83
f 86/86/86 85/85/85 83/83/83
f 88/88/88 89/89/89 87/87/87
f 89/89/89 90/90/90 87/87/87
