v -0.12 -0.017 -0.475
v -0.1070096 -0.017 -0.4525
v -0.1329904 -0.017 -0.4525
v -0.12 -0.017 -0.475
v -0.12 0.002999999 -0.4825
v -0.1005144 0.002999999 -0.44875
v -0.1394856 0.002999999 -0.44875
v -0.12 0.002999999 -0.4825
v -0.12 0.002999999 -0.4825
v -0.1005144 0.002999999 -0.44875
v -0.1394856 0.002999999 -0.44875
v -0.12 -0.017 -0.475
v -0.1070096 -0.017 -0.4525
v -0.1329904 -0.017 -0.4525
v 0.12 -0.017 -0.475
v 0.1329904 -0.017 -0.4525
v 0.1070096 -0.017 -0.4525
v 0.12 -0.017 -0.475
v 0.12 0.002999999 -0.4825
v 0.1394856 0.002999999 -0.44875
v 0.1005144 0.002999999 -0.44875
v 0.12 0.002999999 -0.4825
v 0.12 0.002999999 -0.4825
v 0.1394856 0.002999999 -0.44875
v 0.1005144 0.002999999 -0.44875
v 0.12 -0.017 -0.475
v 0.1329904 -0.017 -0.4525
v 0.1070096 -0.017 -0.4525
v -0.12 -0.017 0.445
v -0.1070096 -0.017 0.4675
v -0.1329904 -0.017 0.4675
v -0.12 -0.017 0.445
v -0.12 0.002999999 0.4375
v -0.1005144 0.002999999 0.47125
v -0.1394856 0.002999999 0.47125
v -0.12 0.002999999 0.4375
v -0.12 0.002999999 0.4375
v -0.1005144 0.002999999 0.47125
v -0.1394856 0.002999999 0.47125
v -0.12 -0.017 0.445
v -0.1070096 -0.017 0.4675
v -0.1329904 -0.017 0.4675
v 0.12 -0.017 0.445
v 0.1329904 -0.017 0.4675
v 0.1070096 -0.017 0.4675
v 0.12 -0.017 0.445
v 0.12 0.002999999 0.4375
v 0.1394856 0.002999999 0.47125
v 0.1005144 0.002999999 0.47125
v 0.12 0.002999999 0.4375
v 0.12 0.002999999 0.4375
v 0.1394856 0.002999999 0.47125
v 0.1005144 0.002999999 0.47125
v 0.12 -0.017 0.445
v 0.1329904 -0.017 0.4675
v 0.1070096 -0.017 0.4675
v -0.15 -0.0075 0.5
v 0.15 -0.0075 0.5
v 0.15 -0.0075 -0.5
v -0.15 -0.0075 -0.5
v -0.15 0.0075 -0.5
v 0.15 0.0075 -0.5
v 0.15 0.0075 0.5
v -0.15 0.0075 0.5
v -0.15 -0.0075 0.5
v -0.15 0.0075 0.5
v 0.15 0.0075 0.5
v 0.15 -0.0075 0.5
v 0.15 -0.0075 0.5
v 0.15 0.0075 0.5
v 0.15 0.0075 -0.5
v 0.15 -0.0075 -0.5
v 0.15 -0.0075 -0.5
v 0.15 0.0075 -0.5
v -0.15 0.0075 -0.5
v -0.15 -0.0075 -0.5
v -0.15 -0.0075 -0.5
v -0.15 0.0075 -0.5
v -0.15 0.0075 0.5
v -0.15 -0.0075 0.5
v -0.15 0.4085 0.5
v 0.15 0.4085 0.5
v 0.15 0.4085 -0.5
v -0.15 0.4085 -0.5
v -0.15 0.4235 -0.5
v 0.15 0.4235 -0.5
v 0.15 0.4235 0.5
v -0.15 0.4235 0.5
v -0.15 0.4085 0.5
v -0.15 0.4235 0.5
v 0.15 0.4235 0.5
v 0.15 0.4085 0.5
v 0.15 0.4085 0.5
v 0.15 0.4235 0.5
v 0.15 0.4235 -0.5
v 0.15 0.4085 -0.5
v 0.15 0.4085 -0.5
v 0.15 0.4235 -0.5
v -0.15 0.4235 -0.5
v -0.15 0.4085 -0.5
v -0.15 0.4085 -0.5
v -0.15 0.4235 -0.5
v -0.15 0.4235 0.5
v -0.15 0.4085 0.5
v -0.15 0.008000001 -0.4835
v 0.15 0.008000001 -0.4835
v 0.15 0.008000001 -0.4985
v -0.15 0.008000001 -0.4985
v -0.15 0.408 -0.4985
v 0.15 0.408 -0.4985
v 0.15 0.408 -0.4835
v -0.15 0.408 -0.4835
v -0.15 0.008000001 -0.4835
v -0.15 0.408 -0.4835
v 0.15 0.408 -0.4835
v 0.15 0.008000001 -0.4835
v 0.15 0.008000001 -0.4835
v 0.15 0.408 -0.4835
v 0.15 0.408 -0.4985
v 0.15 0.008000001 -0.4985
v 0.15 0.008000001 -0.4985
v 0.15 0.408 -0.4985
v -0.15 0.408 -0.4985
v -0.15 0.008000001 -0.4985
v -0.15 0.008000001 -0.4985
v -0.15 0.408 -0.4985
v -0.15 0.408 -0.4835
v -0.15 0.008000001 -0.4835
v -0.15 0.008000001 0.4985
v 0.15 0.008000001 0.4985
v 0.15 0.008000001 0.4835
v -0.15 0.008000001 0.4835
v -0.15 0.408 0.4835
v 0.15 0.408 0.4835
v 0.15 0.408 0.4985
v -0.15 0.408 0.4985
v -0.15 0.008000001 0.4985
v -0.15 0.408 0.4985
v 0.15 0.408 0.4985
v 0.15 0.008000001 0.4985
v 0.15 0.008000001 0.4985
v 0.15 0.408 0.4985
v 0.15 0.408 0.4835
v 0.15 0.008000001 0.4835
v 0.15 0.008000001 0.4835
v 0.15 0.408 0.4835
v -0.15 0.408 0.4835
v -0.15 0.008000001 0.4835
v -0.15 0.008000001 0.4835
v -0.15 0.408 0.4835
v -0.15 0.408 0.4985
v -0.15 0.008000001 0.4985
v -0.15 0.2005 0.485
v 0.15 0.2005 0.485
v 0.15 0.2005 -0.485
v -0.15 0.2005 -0.485
v -0.15 0.2155 -0.485
v 0.15 0.2155 -0.485
v 0.15 0.2155 0.485
v -0.15 0.2155 0.485
v -0.15 0.2005 0.485
v -0.15 0.2155 0.485
v 0.15 0.2155 0.485
v 0.15 0.2005 0.485
v 0.15 0.2005 0.485
v 0.15 0.2155 0.485
v 0.15 0.2155 -0.485
v 0.15 0.2005 -0.485
v 0.15 0.2005 -0.485
v 0.15 0.2155 -0.485
v -0.15 0.2155 -0.485
v -0.15 0.2005 -0.485
v -0.15 0.2005 -0.485
v -0.15 0.2155 -0.485
v -0.15 0.2155 0.485
v -0.15 0.2005 0.485
v -0.15 0.216 -0.02004331
v 0.15 0.216 -0.02004331
v 0.15 0.216 -0.03504336
v -0.15 0.216 -0.03504336
v -0.15 0.408 -0.03504336
v 0.15 0.408 -0.03504336
v 0.15 0.408 -0.02004331
v -0.15 0.408 -0.02004331
v -0.15 0.216 -0.02004331
v -0.15 0.408 -0.02004331
v 0.15 0.408 -0.02004331
v 0.15 0.216 -0.02004331
v 0.15 0.216 -0.02004331
v 0.15 0.408 -0.02004331
v 0.15 0.408 -0.03504336
v 0.15 0.216 -0.03504336
v 0.15 0.216 -0.03504336
v 0.15 0.408 -0.03504336
v -0.15 0.408 -0.03504336
v -0.15 0.216 -0.03504336
v -0.15 0.216 -0.03504336
v -0.15 0.408 -0.03504336
v -0.15 0.408 -0.02004331
v -0.15 0.216 -0.02004331
v -0.15 0.008000001 0.228842
v 0.15 0.008000001 0.228842
v 0.15 0.008000001 0.213842
v -0.15 0.008000001 0.213842
v -0.15 0.2 0.213842
v 0.15 0.2 0.213842
v 0.15 0.2 0.228842
v -0.15 0.2 0.228842
v -0.15 0.008000001 0.228842
v -0.15 0.2 0.228842
v 0.15 0.2 0.228842
v 0.15 0.008000001 0.228842
v 0.15 0.008000001 0.228842
v 0.15 0.2 0.228842
v 0.15 0.2 0.213842
v 0.15 0.008000001 0.213842
v 0.15 0.008000001 0.213842
v 0.15 0.2 0.213842
v -0.15 0.2 0.213842
v -0.15 0.008000001 0.213842
v -0.15 0.008000001 0.213842
v -0.15 0.2 0.213842
v -0.15 0.2 0.228842
v -0.15 0.008000001 0.228842
vn 0 -0.3511232 -0.9363294
vn 0.8108847 -0.3511234 0.4681649
vn -0.8108847 -0.3511234 0.4681649
vn 0 -0.3511232 -0.9363294
vn 0 -0.3511232 -0.9363294
vn 0.8108847 -0.3511234 0.4681649
vn -0.8108847 -0.3511234 0.4681649
vn 0 -0.3511232 -0.9363294
vn 0 1 0
vn 0 1 0
vn 0 1 0
vn 0 -1 0
vn 0 -1 0
vn 0 -1 0
vn 0 -0.3511232 -0.9363294
vn 0.8108847 -0.3511234 0.4681649
vn -0.8108847 -0.3511234 0.4681649
vn 0 -0.3511232 -0.9363294
vn 0 -0.3511232 -0.9363294
vn 0.8108847 -0.3511234 0.4681649
vn -0.8108847 -0.3511234 0.4681649
vn 0 -0.3511232 -0.9363294
vn 0 1 0
vn 0 1 0
vn 0 1 0
vn 0 -1 0
vn 0 -1 0
vn 0 -1 0
vn 0 -0.3511232 -0.9363294
vn 0.8108847 -0.3511234 0.4681649
vn -0.8108847 -0.3511234 0.4681649
vn 0 -0.3511232 -0.9363294
vn 0 -0.3511232 -0.9363294
vn 0.8108847 -0.3511234 0.4681649
vn -0.8108847 -0.3511234 0.4681649
vn 0 -0.3511232 -0.9363294
vn 0 1 0
vn 0 1 0
vn 0 1 0
vn 0 -1 0
vn 0 -1 0
vn 0 -1 0
vn 0 -0.3511232 -0.9363294
vn 0.8108847 -0.3511234 0.4681649
vn -0.8108847 -0.3511234 0.4681649
vn 0 -0.3511232 -0.9363294
vn 0 -0.3511232 -0.9363294
vn 0.8108847 -0.3511234 0.4681649
vn -0.8108847 -0.3511234 0.4681649
vn 0 -0.3511232 -0.9363294
vn 0 1 0
vn 0 1 0
vn 0 1 0
vn 0 -1 0
vn 0 -1 0
vn 0 -1 0
vn -0.2017209 -0.7121678 0.6724029
vn 0.2017209 -0.7121678 0.6724029
vn 0.2017209 -0.7121678 -0.6724029
vn -0.2017209 -0.7121678 -0.6724029
vn -0.2017209 0.7121678 -0.6724029
vn 0.2017209 0.7121678 -0.6724029
vn 0.2017209 0.7121678 0.6724029
vn -0.2017209 0.7121678 0.6724029
vn -0.1452018 -0.007260092 0.9893755
vn -0.1452018 0.007260092 0.9893755
vn 0.1452018 0.007260092 0.9893755
vn 0.1452018 -0.007260092 0.9893755
vn 0.8022836 -0.008953136 0.5968758
vn 0.8022836 0.008953136 0.5968758
vn 0.8022836 0.008953136 -0.5968758
vn 0.8022836 -0.008953136 -0.5968758
vn 0.1452018 -0.007260092 -0.9893755
vn 0.1452018 0.007260092 -0.9893755
vn -0.1452018 0.007260092 -0.9893755
vn -0.1452018 -0.007260092 -0.9893755
vn -0.8022836 -0.008953136 -0.5968758
vn -0.8022836 0.008953136 -0.5968758
vn -0.8022836 0.008953136 0.5968758
vn -0.8022836 -0.008953136 0.5968758
vn -0.2017209 -0.7121678 0.6724029
vn 0.2017209 -0.7121678 0.6724029
vn 0.2017209 -0.7121678 -0.6724029
vn -0.2017209 -0.7121678 -0.6724029
vn -0.2017209 0.7121678 -0.672403
vn 0.2017209 0.7121678 -0.672403
vn 0.2017209 0.7121678 0.672403
vn -0.2017209 0.7121678 0.672403
vn -0.1452018 -0.007260113 0.9893755
vn -0.1452018 0.007260056 0.9893755
vn 0.1452018 0.007260056 0.9893755
vn 0.1452018 -0.007260113 0.9893755
vn 0.8022836 -0.008953163 0.5968758
vn 0.8022836 0.008953093 0.5968758
vn 0.8022836 0.008953093 -0.5968758
vn 0.8022836 -0.008953163 -0.5968758
vn 0.1452018 -0.007260113 -0.9893755
vn 0.1452018 0.007260056 -0.9893755
vn -0.1452018 0.007260056 -0.9893755
vn -0.1452018 -0.007260113 -0.9893755
vn -0.8022836 -0.008953163 -0.5968758
vn -0.8022836 0.008953093 -0.5968758
vn -0.8022836 0.008953093 0.5968758
vn -0.8022836 -0.008953163 0.5968758
vn -0.3161172 -0.9485886 0.01580584
vn 0.3161172 -0.9485886 0.01580584
vn 0.3161172 -0.9485886 -0.01580584
vn -0.3161172 -0.9485886 -0.01580584
vn -0.3161172 0.9485886 -0.01580584
vn 0.3161172 0.9485886 -0.01580584
vn 0.3161172 0.9485886 0.01580584
vn -0.3161172 0.9485886 0.01580584
vn -0.4178545 -0.5571393 0.7176303
vn -0.4178545 0.5571393 0.7176303
vn 0.4178545 0.5571393 0.7176303
vn 0.4178545 -0.5571393 0.7176303
vn 0.8943518 -0.4470502 0.01676437
vn 0.8943518 0.4470502 0.01676437
vn 0.8943518 0.4470502 -0.01676437
vn 0.8943518 -0.4470502 -0.01676437
vn 0.4178545 -0.5571393 -0.7176303
vn 0.4178545 0.5571393 -0.7176303
vn -0.4178545 0.5571393 -0.7176303
vn -0.4178545 -0.5571393 -0.7176303
vn -0.8943518 -0.4470502 -0.01676437
vn -0.8943518 0.4470502 -0.01676437
vn -0.8943518 0.4470502 0.01676437
vn -0.8943518 -0.4470502 0.01676437
vn -0.3161172 -0.9485886 0.01580584
vn 0.3161172 -0.9485886 0.01580584
vn 0.3161172 -0.9485886 -0.01580584
vn -0.3161172 -0.9485886 -0.01580584
vn -0.3161172 0.9485886 -0.01580584
vn 0.3161172 0.9485886 -0.01580584
vn 0.3161172 0.9485886 0.01580584
vn -0.3161172 0.9485886 0.01580584
vn -0.4178545 -0.5571393 0.7176303
vn -0.4178545 0.5571393 0.7176303
vn 0.4178545 0.5571393 0.7176303
vn 0.4178545 -0.5571393 0.7176303
vn 0.8943518 -0.4470502 0.01676437
vn 0.8943518 0.4470502 0.01676437
vn 0.8943518 0.4470502 -0.01676437
vn 0.8943518 -0.4470502 -0.01676437
vn 0.4178545 -0.5571393 -0.7176303
vn 0.4178545 0.5571393 -0.7176303
vn -0.4178545 0.5571393 -0.7176303
vn -0.4178545 -0.5571393 -0.7176303
vn -0.8943518 -0.4470502 -0.01676437
vn -0.8943518 0.4470502 -0.01676437
vn -0.8943518 0.4470502 0.01676437
vn -0.8943518 -0.4470502 0.01676437
vn -0.2073798 -0.7123103 0.6705279
vn 0.2073798 -0.7123103 0.6705279
vn 0.2073798 -0.7123103 -0.6705279
vn -0.2073798 -0.7123103 -0.6705279
vn -0.2073798 0.7123104 -0.6705279
vn 0.2073798 0.7123104 -0.6705279
vn 0.2073798 0.7123104 0.6705279
vn -0.2073798 0.7123104 0.6705279
vn -0.1493997 -0.007469976 0.9887487
vn -0.1493997 0.007469991 0.9887487
vn 0.1493997 0.007469991 0.9887487
vn 0.1493997 -0.007469976 0.9887487
vn 0.8048098 -0.009177237 0.5934619
vn 0.8048098 0.009177255 0.5934619
vn 0.8048098 0.009177255 -0.5934619
vn 0.8048098 -0.009177237 -0.5934619
vn 0.1493997 -0.007469976 -0.9887487
vn 0.1493997 0.007469991 -0.9887487
vn -0.1493997 0.007469991 -0.9887487
vn -0.1493997 -0.007469976 -0.9887487
vn -0.8048098 -0.009177237 -0.5934619
vn -0.8048098 0.009177255 -0.5934619
vn -0.8048098 0.009177255 0.5934619
vn -0.8048098 -0.009177237 0.5934619
vn -0.4797254 -0.8770907 0.02398627
vn 0.4797254 -0.8770907 0.02398627
vn 0.4797254 -0.8770907 -0.02398627
vn -0.4797254 -0.8770907 -0.02398627
vn -0.4797255 0.8770907 -0.02398627
vn 0.4797255 0.8770907 -0.02398627
vn 0.4797255 0.8770907 0.02398627
vn -0.4797255 0.8770907 0.02398627
vn -0.5829114 -0.3730633 0.7218297
vn -0.5829115 0.3730633 0.7218297
vn 0.5829115 0.3730633 0.7218297
vn 0.5829114 -0.3730633 0.7218297
vn 0.9595639 -0.280636 0.02192469
vn 0.9595639 0.280636 0.02192469
vn 0.9595639 0.280636 -0.02192469
vn 0.9595639 -0.280636 -0.02192469
vn 0.5829114 -0.3730633 -0.7218297
vn 0.5829115 0.3730633 -0.7218297
vn -0.5829115 0.3730633 -0.7218297
vn -0.5829114 -0.3730633 -0.7218297
vn -0.9595639 -0.280636 -0.02192469
vn -0.9595639 0.280636 -0.02192469
vn -0.9595639 0.280636 0.02192469
vn -0.9595639 -0.280636 0.02192469
vn -0.4797254 -0.8770907 0.02398625
vn 0.4797254 -0.8770907 0.02398625
vn 0.4797254 -0.8770907 -0.02398625
vn -0.4797254 -0.8770907 -0.02398625
vn -0.4797254 0.8770907 -0.02398625
vn 0.4797254 0.8770907 -0.02398625
vn 0.4797254 0.8770907 0.02398625
vn -0.4797254 0.8770907 0.02398625
vn -0.5829114 -0.3730633 0.7218297
vn -0.5829114 0.3730633 0.7218297
vn 0.5829114 0.3730633 0.7218297
vn 0.5829114 -0.3730633 0.7218297
vn 0.9595639 -0.280636 0.02192467
vn 0.9595639 0.280636 0.02192467
vn 0.9595639 0.280636 -0.02192467
vn 0.9595639 -0.280636 -0.02192467
vn 0.5829114 -0.3730633 -0.7218297
vn 0.5829114 0.3730633 -0.7218297
vn -0.5829114 0.3730633 -0.7218297
vn -0.5829114 -0.3730633 -0.7218297
vn -0.9595639 -0.280636 -0.02192467
vn -0.9595639 0.280636 -0.02192467
vn -0.9595639 0.280636 0.02192467
vn -0.9595639 -0.280636 0.02192467
vt 0.25 0.1325
vt 0.1675 0.1325
vt 0.08499999 0.1325
vt 0.002499998 0.1325
vt 0.25 0.25
vt 0.1675 0.25
vt 0.08499999 0.25
vt 0.002499998 0.25
vt 0.11375 0.058125
vt 0.0303125 0.009952337
vt 0.0303125 0.1062977
vt 0.1572917 0.058125
vt 0.2129167 0.02600989
vt 0.2129167 0.09024011
vt 0.5 0.1325
vt 0.4175 0.1325
vt 0.335 0.1325
vt 0.2525 0.1325
vt 0.5 0.25
vt 0.4175 0.25
vt 0.335 0.25
vt 0.2525 0.25
vt 0.36375 0.058125
vt 0.2803125 0.009952337
vt 0.2803125 0.1062977
vt 0.4072917 0.058125
vt 0.4629167 0.02600989
vt 0.4629167 0.09024011
vt 0.75 0.1325
vt 0.6675 0.1325
vt 0.585 0.1325
vt 0.5025 0.1325
vt 0.75 0.25
vt 0.6675 0.25
vt 0.585 0.25
vt 0.5025 0.25
vt 0.61375 0.058125
vt 0.5303125 0.009952337
vt 0.5303125 0.1062977
vt 0.6572917 0.058125
vt 0.7129167 0.02600989
vt 0.7129166 0.09024011
vt 1 0.1325
vt 0.9175 0.1325
vt 0.835 0.1325
vt 0.7525 0.1325
vt 1 0.25
vt 0.9175 0.25
vt 0.835 0.25
vt 0.7525 0.25
vt 0.86375 0.058125
vt 0.7803125 0.009952337
vt 0.7803125 0.1062977
vt 0.9072917 0.058125
vt 0.9629167 0.02600989
vt 0.9629166 0.09024011
vt 0.1766442 0.37625
vt 0.1996057 0.37625
vt 0.05289431 0.37625
vt 0.07585579 0.37625
vt 0.07585578 0.3798045
vt 0.05289431 0.3798045
vt 0.1996057 0.3798045
vt 0.1766442 0.3798045
vt 0.1766442 0.37625
vt 0.1766442 0.3798045
vt 0.1996057 0.3798045
vt 0.1996057 0.37625
vt 0.1996057 0.37625
vt 0.1996057 0.3798045
vt 0.05289431 0.3798045
vt 0.05289431 0.37625
vt 0.05289431 0.37625
vt 0.05289431 0.3798045
vt 0.07585578 0.3798045
vt 0.07585579 0.37625
vt 0.07585579 0.37625
vt 0.07585578 0.3798045
vt 0.1766442 0.3798045
vt 0.1766442 0.37625
vt 0.4266442 0.37625
vt 0.4496057 0.37625
vt 0.3028943 0.37625
vt 0.3258558 0.37625
vt 0.3258558 0.3798045
vt 0.3028943 0.3798045
vt 0.4496057 0.3798045
vt 0.4266442 0.3798045
vt 0.4266442 0.37625
vt 0.4266442 0.3798045
vt 0.4496057 0.3798045
vt 0.4496057 0.37625
vt 0.4496057 0.37625
vt 0.4496057 0.3798045
vt 0.3028943 0.3798045
vt 0.3028943 0.37625
vt 0.3028943 0.37625
vt 0.3028943 0.3798045
vt 0.3258558 0.3798045
vt 0.3258558 0.37625
vt 0.3258558 0.37625
vt 0.3258558 0.3798045
vt 0.4266442 0.3798045
vt 0.4266442 0.37625
vt 0.6282178 0.37625
vt 0.7480322 0.37625
vt 0.5044678 0.37625
vt 0.6242822 0.37625
vt 0.6242822 0.4921029
vt 0.5044679 0.4921029
vt 0.7480321 0.4921029
vt 0.6282178 0.4921029
vt 0.6282178 0.37625
vt 0.6282178 0.4921029
vt 0.7480321 0.4921029
vt 0.7480322 0.37625
vt 0.7480322 0.37625
vt 0.7480321 0.4921029
vt 0.5044679 0.4921029
vt 0.5044678 0.37625
vt 0.5044678 0.37625
vt 0.5044679 0.4921029
vt 0.6242822 0.4921029
vt 0.6242822 0.37625
vt 0.6242822 0.37625
vt 0.6242822 0.4921029
vt 0.6282178 0.4921029
vt 0.6282178 0.37625
vt 0.8782178 0.37625
vt 0.9980322 0.37625
vt 0.7544678 0.37625
vt 0.8742822 0.37625
vt 0.8742822 0.4921029
vt 0.7544679 0.4921029
vt 0.9980321 0.4921029
vt 0.8782178 0.4921029
vt 0.8782178 0.37625
vt 0.8782178 0.4921029
vt 0.9980321 0.4921029
vt 0.9980322 0.37625
vt 0.9980322 0.37625
vt 0.9980321 0.4921029
vt 0.7544679 0.4921029
vt 0.7544678 0.37625
vt 0.7544678 0.37625
vt 0.7544679 0.4921029
vt 0.8742822 0.4921029
vt 0.8742822 0.37625
vt 0.8742822 0.37625
vt 0.8742822 0.4921029
vt 0.8782178 0.4921029
vt 0.8782178 0.37625
vt 0.1763097 0.62625
vt 0.1999401 0.62625
vt 0.05255986 0.62625
vt 0.07619023 0.62625
vt 0.07619023 0.6299049
vt 0.05255986 0.6299049
vt 0.1999401 0.6299049
vt 0.1763097 0.6299049
vt 0.1763097 0.62625
vt 0.1763097 0.6299049
vt 0.1999401 0.6299049
vt 0.1999401 0.62625
vt 0.1999401 0.62625
vt 0.1999401 0.6299049
vt 0.05255986 0.6299049
vt 0.05255986 0.62625
vt 0.05255986 0.62625
vt 0.05255986 0.6299049
vt 0.07619023 0.6299049
vt 0.07619023 0.62625
vt 0.07619023 0.62625
vt 0.07619023 0.6299049
vt 0.1763097 0.6299049
vt 0.1763097 0.62625
vt 0.3782178 0.62625
vt 0.4980322 0.62625
vt 0.2544678 0.62625
vt 0.3742822 0.62625
vt 0.3742822 0.7237219
vt 0.2544679 0.7237219
vt 0.4980321 0.7237219
vt 0.3782178 0.7237219
vt 0.3782178 0.62625
vt 0.3782178 0.7237219
vt 0.4980321 0.7237219
vt 0.4980322 0.62625
vt 0.4980322 0.62625
vt 0.4980321 0.7237219
vt 0.2544679 0.7237219
vt 0.2544678 0.62625
vt 0.2544678 0.62625
vt 0.2544679 0.7237219
vt 0.3742822 0.7237219
vt 0.3742822 0.62625
vt 0.3742822 0.62625
vt 0.3742822 0.7237219
vt 0.3782178 0.7237219
vt 0.3782178 0.62625
vt 0.6282178 0.62625
vt 0.7480322 0.62625
vt 0.5044678 0.62625
vt 0.6242822 0.62625
vt 0.6242822 0.7237219
vt 0.5044679 0.7237219
vt 0.7480321 0.7237219
vt 0.6282178 0.7237219
vt 0.6282178 0.62625
vt 0.6282178 0.7237219
vt 0.7480321 0.7237219
vt 0.7480322 0.62625
vt 0.7480322 0.62625
vt 0.7480321 0.7237219
vt 0.5044679 0.7237219
vt 0.5044678 0.62625
vt 0.5044678 0.62625
vt 0.5044679 0.7237219
vt 0.6242822 0.7237219
vt 0.6242822 0.62625
vt 0.6242822 0.62625
vt 0.6242822 0.7237219
vt 0.6282178 0.7237219
vt 0.6282178 0.62625
f 5/5/5 2/2/2 1/1/1
f 5/5/5 6/6/6 2/2/2
f 6/6/6 3/3/3 2/2/2
f 6/6/6 7/7/7 3/3/3
f 7/7/7 4/4/4 3/3/3
f 7/7/7 8/8/8 4/4/4
f 11/11/11 10/10/10 9/9/9
f 13/13/13 14/14/14 12/12/12
f 19/19/19 16/16/16 15/15/15
f 19/19/19 20/20/20 16/16/16
f 20/20/20 17/17/17 16/16/16
f 20/20/20 21/21/21 17/17/17
f 21/21/21 18/18/18 17/17/17
f 21/21/21 22/22/22 18/18/18
f 25/25/25 24/24/24 23/23/23
f 27/27/27 28/28/28 26/26/26
f 33/33/33 30/30/30 29/29/29
f 33/33/33 34/34/34 30/30/30
f 34/34/34 31/31/31 30/30/30
f 34/34/34 35/35/35 31/31/31
f 35/35/35 32/32/32 31/31/31
f 35/35/35 36/36/36 32/32/32
f 39/39/39 38/38/38 37/37/37
f 41/41/41 42/42/42 40/40/40
f 47/47/47 44/44/44 43/43/43
f 47/47/47 48/48/48 44/44/44
f 48/48/48 45/45/45 44/44/44
f 48/48/48 49/49/49 45/45/45
f 49/49/49 46/46/46 45/45/45
f 49/49/49 50/50/50 46/46/46
f 53/53/53 52/52/52 51/51/51
f 55/55/55 56/56/56 54/54/54
f 60/60/60 58/58/58 57/57/57
f 60/60/60 59/59/59 58/58/58
f 64/64/64 62/62/62 61/61/61
f 64/64/64 63/63/63 62/62/62
f 68/68/68 66/66/66 65/65/65
f 68/68/68 67/67/67 66/66/66
f 72/72/72 70/70/70 69/69/69
f 72/72/72 71/71/71 70/70/70
f 76/76/76 74/74/74 73/73/73
f 76/76/76 75/75/75 74/74/74
f 80/80/80 78/78/78 77/77/77
f 80/80/80 79/79/79 78/78/78
f 84/84/84 82/82/82 81/81/81
f 84/84/84 83/83/83 82/82/82
f 88/88/88 86/86/86 85/85/85
f 88/88/88 87/87/87 86/86/86
f 92/92/92 90/90/90 89/89/89
f 92/92/92 91/91/91 90/90/90
f 96/96/96 94/94/94 93/93/93
f 96/96/96 95/95/95 94/94/94
f 100/100/100 98/98/98 97/97/97
f 100/100/100 99/99/99 98/98/98
f 104/104/104 102/102/102 101/101/101
f 104/104/104 103/103/103 102/102/102
f 108/108/108 106/106/106 105/105/105
f 108/108/108 107/107/107 106/106/106
f 112/112/112 110/110/110 109/109/109
f 112/112/112 111/111/111 110/110/110
f 116/116/116 114/114/114 113/113/113
f 116/116/116 115/115/115 114/114/114
f 120/120/120 118/118/118 117/117/117
f 120/120/120 119/119/119 118/118/118
f 124/124/124 122/122/122 121/121/121
f 124/124/124 123/123/123 122/122/122
f 128/128/128 126/126/126 125/125/125
f 128/128/128 127/127/127 126/126/126
f 132/132/132 130/130/130 129/129/129
f 132/132/132 131/131/131 130/130/130
f 136/136/136 134/134/134 133/133/133
f 136/136/136 135/135/135 134/134/134
f 140/140/140 138/138/138 137/137/137
f 140/140/140 139/139/139 138/138/138
f 144/144/144 142/142/142 141/141/141
f 144/144/144 143/143/143 142/142/142
f 148/148/148 146/146/146 145/145/145
f 148/148/148 147/147/147 146/146/146
f 152/152/152 150/150/150 149/149/149
f 152/152/152 151/151/151 150/150/150
f 156/156/156 154/154/154 153/153/153
f 156/156/156 155/155/155 154/154/154
f 160/160/160 158/158/158 157/157/157
f 160/160/160 159/159/159 158/158/158
f 164/164/164 162/162/162 161/161/161
f 164/164/164 163/163/163 162/162/162
f 168/168/168 166/166/166 165/165/165
f 168/168/168 167/167/167 166/166/166
f 172/172/172 170/170/170 169/169/169
f 172/172/172 171/171/171 170/170/170
f 176/176/176 174/174/174 173/173/173
f 176/176/176 175/175/175 174/174/174
f 180/180/180 178/178/178 177/177/177
f 180/180/180 179/179/179 178/178/178
f 184/184/184 182/182/182 181/181/181
f 184/184/184 183/183/183 182/182/182
f 188/188/188 186/186/186 185/185/185
f 188/188/188 187/187/187 186/186/186
f 192/192/192 190/190/190 189/189/189
f 192/192/192 191/191/191 190/190/190
f 196/196/196 194/194/194 193/193/193
f 196/196/196 195/195/195 194/194/194
f 200/200/200 198/198/198 197/197/197
f 200/200/200 199/199/199 198/198/198
f 204/204/204 202/202/202 201/201/201
f 204/204/204 203/203/203 202/202/202
f 208/208/208 206/206/206 205/205/205
f 208/208/208 207/207/207 206/206/206
f 212/212/212 210/210/210 209/209/209
f 212/212/212 211/211/211 210/210/210
f 216/216/216 214/214/214 213/213/213
f 216/216/216 215/215/215 214/214/214
f 220/220/220 218/218/218 217/217/217
f 220/220/220 219/219/219 218/218/218
f 224/224/224 222/222/222 221/221/221
f 224/224/224 223/223/223 222/222/222
